<?xml version="1.0" standalone="no"?>
<!DOCTYPE svg PUBLIC "-//W3C//DTD SVG 20010904//EN"
 "http://www.w3.org/TR/2001/REC-SVG-20010904/DTD/svg10.dtd">
<svg version="1.0" xmlns="http://www.w3.org/2000/svg"
 width="1100.000000pt" height="1280.000000pt" viewBox="0 0 1100.000000 1280.000000"
 preserveAspectRatio="xMidYMid meet">
<metadata>
Created by potrace 1.15, written by Peter Selinger 2001-2017
</metadata>
<g transform="translate(0.000000,1280.000000) scale(0.100000,-0.100000)"
fill="#000000" stroke="none">
<path d="M5710 12640 c-364 -11 -575 -64 -790 -197 -487 -301 -679 -431 -766
-518 -84 -84 -100 -116 -120 -238 -25 -157 -104 -398 -178 -545 -14 -28 -22
-53 -17 -56 10 -7 75 131 125 266 41 111 81 265 91 353 12 100 62 177 178 269
86 69 307 214 307 203 0 -3 -30 -27 -67 -53 -97 -70 -260 -211 -321 -280 -54
-61 -63 -81 -82 -199 -15 -94 -98 -340 -161 -478 -28 -62 -62 -137 -75 -167
-23 -53 -34 -49 -14 6 10 25 7 44 -5 32 -14 -14 -89 -297 -111 -418 -35 -192
-39 -277 -20 -385 9 -49 19 -123 23 -163 4 -46 9 -68 15 -60 5 8 6 -4 2 -28
-6 -42 15 -104 36 -104 6 0 10 -7 10 -17 0 -9 47 -111 105 -227 162 -327 174
-381 134 -572 -30 -143 -23 -193 43 -307 29 -50 68 -109 88 -131 109 -121 245
-99 532 86 59 37 114 71 123 74 13 5 14 -20 13 -188 -1 -106 -3 -179 -5 -163
-2 17 -10 90 -18 163 -13 125 -18 152 -30 141 -2 -3 3 -63 11 -134 29 -259 28
-685 -2 -758 -9 -21 -381 -317 -549 -436 -384 -274 -687 -471 -725 -471 -10 0
-180 61 -377 136 -425 161 -697 264 -788 298 -37 15 -63 20 -58 13 4 -7 131
-163 283 -347 345 -420 339 -412 320 -418 -8 -3 -125 -61 -260 -129 -135 -68
-285 -140 -335 -160 -49 -19 -139 -60 -200 -91 -103 -52 -118 -63 -241 -186
-173 -174 -416 -486 -444 -571 -32 -97 -135 -530 -145 -610 -43 -346 -43 -501
-1 -870 14 -121 29 -266 32 -321 l7 -102 -42 -112 c-50 -132 -104 -337 -124
-470 -11 -70 -15 -83 -16 -51 -1 42 -2 43 -31 39 -23 -4 -30 0 -33 16 -9 56
-18 -179 -15 -419 l3 -270 944 -3 c520 -1 949 2 953 6 5 5 12 47 16 93 7 78 8
81 16 44 4 -22 18 -76 31 -120 46 -160 49 -212 25 -385 -31 -216 -32 -386 -2
-515 13 -55 27 -108 32 -117 5 -10 7 -25 3 -34 -5 -12 -3 -15 6 -9 10 6 11 2
6 -15 -5 -15 -4 -20 4 -16 6 4 11 5 11 3 0 -2 18 -57 41 -123 57 -164 89 -276
82 -287 -3 -4 -59 -34 -125 -65 -66 -31 -115 -58 -109 -60 6 -2 60 19 120 47
60 28 113 51 118 51 5 0 15 -34 23 -76 13 -75 11 -264 -7 -573 -5 -95 -4 -113
8 -109 11 4 16 47 22 199 8 201 4 518 -8 555 -5 15 -2 23 9 27 14 6 16 -35 16
-413 l0 -420 2910 0 2910 0 0 366 c0 319 3 381 20 482 11 65 28 205 39 312 56
558 55 719 -13 1115 -25 149 -46 271 -46 273 0 1 360 2 800 2 l800 0 0 111 0
111 24 -6 25 -6 -22 67 c-18 58 -22 102 -27 308 -3 132 -7 230 -8 218 -2 -28
-1 -28 -53 2 -24 14 -48 25 -53 25 -4 0 -5 -17 -1 -37 4 -21 5 -36 2 -33 -6 7
-138 454 -178 605 l-32 120 7 300 c7 299 11 358 40 530 34 209 32 255 -18 366
l-25 54 6 -40 c3 -22 9 -42 12 -45 3 -3 7 -90 8 -195 l1 -190 -8 165 c-4 91
-13 195 -19 232 -6 37 -10 71 -9 75 5 23 -168 349 -266 501 -155 239 -382 531
-444 570 -169 106 -398 192 -810 308 -85 24 -182 82 -327 198 -147 117 -177
131 -723 332 -291 107 -398 151 -385 156 10 5 191 78 403 162 211 85 386 158
388 164 2 6 -186 -65 -416 -157 l-420 -168 -232 86 -232 86 5 72 c6 85 26 133
101 242 31 45 56 88 56 96 0 19 62 35 103 25 25 -5 50 -1 98 16 35 13 86 24
112 24 60 0 162 34 298 98 57 27 120 55 139 61 28 9 35 17 37 38 15 181 15
188 -13 318 -15 72 -27 161 -27 200 0 65 0 66 -6 20 -5 -44 -7 -47 -14 -23 -8
29 -2 50 23 88 113 168 144 217 149 237 6 22 11 20 210 -72 211 -98 254 -115
236 -96 -6 5 -109 56 -230 111 -121 56 -226 107 -233 114 -15 14 -30 67 -38
131 -3 22 -14 58 -25 81 -21 45 -25 126 -9 189 18 67 41 125 49 121 4 -3 30 6
57 19 54 27 53 33 -1 11 -19 -8 -35 -11 -35 -7 0 8 72 33 87 30 4 -1 17 1 28
6 11 4 34 14 52 21 40 16 63 50 71 109 l7 47 175 70 c96 38 177 72 179 74 20
19 -31 3 -179 -56 -96 -39 -175 -70 -177 -70 -2 0 -3 29 -3 64 0 43 -5 69 -15
79 -8 8 -11 17 -8 21 4 3 0 6 -7 6 -7 0 -10 3 -7 7 4 3 -1 12 -11 20 -10 9
-11 12 -2 7 11 -5 10 -2 -3 12 -10 10 -72 93 -139 184 -66 91 -154 210 -195
265 l-75 100 5 60 c3 33 8 94 10 137 3 42 10 85 16 95 9 14 10 6 6 -37 -3 -30
-8 -68 -10 -85 -6 -29 -5 -29 10 5 26 55 11 228 -23 278 -13 20 -78 190 -142
377 l-117 339 21 29 c31 43 36 190 8 270 -51 144 -217 306 -395 386 -140 63
-280 88 -552 101 -110 5 -292 20 -404 34 -112 15 -207 25 -210 24 -3 -1 -103
-5 -221 -8z m475 -44 c66 -9 224 -20 350 -25 244 -10 356 -25 472 -65 208 -71
402 -236 465 -396 40 -103 25 -290 -23 -275 -13 4 -19 1 -19 -9 0 -18 -103
-81 -218 -132 -58 -26 -81 -41 -78 -51 3 -8 1 -11 -4 -8 -6 3 -10 10 -10 15 0
5 68 43 150 86 83 42 150 82 150 90 0 7 7 17 16 22 14 8 16 27 15 114 -1 58
-6 120 -11 138 -12 41 -38 82 -49 76 -5 -3 -17 4 -27 17 l-19 22 23 -19 c33
-29 27 -7 -10 31 -34 35 -64 47 -33 13 10 -11 16 -20 13 -20 -2 0 -15 12 -29
27 -13 14 -17 22 -9 18 10 -5 8 -1 -4 13 -23 26 -44 30 -25 5 11 -16 11 -16
-1 -5 -8 7 -15 18 -15 24 0 6 -6 13 -14 16 -9 3 -11 0 -6 -8 5 -9 4 -11 -4 -6
-6 4 -9 11 -6 16 3 4 -15 20 -39 34 -49 29 -61 32 -50 14 4 -7 3 -8 -5 -4 -6
4 -9 12 -5 17 5 9 -172 97 -266 132 -65 24 -247 47 -369 47 -58 0 -185 9 -281
21 -96 12 -285 25 -420 29 l-245 8 260 -3 c161 -2 306 -10 380 -19z m-672 7
c-7 -2 -19 -2 -25 0 -7 3 -2 5 12 5 14 0 19 -2 13 -5z m-89 -13 c-43 -9 -416
-153 -537 -208 -37 -17 -65 -27 -62 -23 10 17 193 122 265 152 92 39 282 88
335 87 l40 0 -41 -8z m1164 -47 c-10 -2 -26 -2 -35 0 -10 3 -2 5 17 5 19 0 27
-2 18 -5z m85 -10 c-7 -2 -21 -2 -30 0 -10 3 -4 5 12 5 17 0 24 -2 18 -5z m60
-10 c-7 -2 -21 -2 -30 0 -10 3 -4 5 12 5 17 0 24 -2 18 -5z m102 -13 c25 -11
-1 -11 -35 0 -20 6 -21 8 -5 8 11 0 29 -3 40 -8z m56 -28 c-7 -2 -18 1 -23 6
-8 8 -4 9 13 5 13 -4 18 -8 10 -11z m44 -20 c-3 -3 -11 0 -18 7 -9 10 -8 11 6
5 10 -3 15 -9 12 -12z m45 -12 c8 -5 11 -10 5 -10 -5 0 -17 5 -25 10 -8 5 -10
10 -5 10 6 0 17 -5 25 -10z m45 -28 c-3 -3 -11 0 -18 7 -9 10 -8 11 6 5 10 -3
15 -9 12 -12z m40 -20 c-3 -3 -11 0 -18 7 -9 10 -8 11 6 5 10 -3 15 -9 12 -12z
m40 -20 c-3 -3 -11 0 -18 7 -9 10 -8 11 6 5 10 -3 15 -9 12 -12z m85 -48 c0
-2 -9 0 -20 6 -11 6 -20 13 -20 16 0 2 9 0 20 -6 11 -6 20 -13 20 -16z m224
-200 c3 -8 2 -12 -4 -9 -6 3 -10 10 -10 16 0 14 7 11 14 -7z m24 -159 c0 -117
-5 -98 -11 35 -2 58 0 94 4 80 4 -14 7 -65 7 -115z m115 -486 c51 -151 101
-300 112 -331 10 -32 27 -66 38 -75 34 -31 37 -57 16 -130 -15 -51 -21 -101
-22 -198 l-1 -130 84 -116 c110 -149 264 -371 317 -457 37 -59 42 -74 42 -128
1 -49 -3 -63 -15 -68 -9 -4 -18 -5 -18 -4 -1 2 -20 26 -42 53 -113 141 -245
338 -269 400 -66 178 -150 274 -272 315 -40 13 -70 26 -68 28 2 3 36 -6 76
-19 122 -40 195 -122 269 -303 26 -64 63 -130 106 -189 155 -212 206 -277 215
-271 5 3 9 29 9 58 0 47 -6 63 -56 142 -81 130 -218 323 -225 318 -4 -2 -13 4
-20 13 -10 12 -10 14 -1 9 21 -13 13 9 -12 33 -13 12 -26 19 -28 14 -3 -4 -4
-3 -2 4 3 12 -25 41 -41 42 -5 1 -10 7 -10 14 -1 6 -6 11 -13 10 -7 -2 -11 2
-9 9 1 7 -3 12 -10 13 -6 0 -15 4 -20 9 -5 6 -2 6 6 1 11 -7 12 -4 5 11 -5 10
-8 89 -8 174 1 125 6 166 22 215 21 66 18 88 -21 135 -13 14 -31 54 -41 88
-11 34 -23 59 -27 56 -5 -2 -15 9 -24 26 -19 38 -11 40 9 3 8 -16 15 -23 15
-18 1 18 -86 170 -97 170 -6 0 -14 4 -19 9 -5 5 -2 6 6 1 9 -5 12 -3 9 6 -3 8
-10 14 -15 14 -6 0 -15 4 -20 9 -5 5 -2 6 6 1 9 -5 12 -3 9 6 -3 8 -11 14 -18
14 -7 0 -15 7 -17 15 -4 13 -3 13 7 0 10 -12 11 -10 5 10 -3 14 -11 75 -17
135 -6 61 -12 115 -13 122 -2 7 -58 -16 -140 -58 -75 -38 -142 -69 -148 -69
-7 0 56 36 138 78 103 54 152 75 157 67 4 -7 49 -135 101 -286z m-116 179 c-2
-18 -4 -6 -4 27 0 33 2 48 4 33 2 -15 2 -42 0 -60z m16 -123 c5 -28 4 -34 -3
-20 -8 19 -14 73 -6 64 2 -2 6 -22 9 -44z m97 -185 c6 -11 8 -20 6 -20 -3 0
-10 9 -16 20 -6 11 -8 20 -6 20 3 0 10 -9 16 -20z m24 -46 c3 -8 2 -12 -4 -9
-6 3 -10 10 -10 16 0 14 7 11 14 -7z m-3769 -414 c-9 -41 -17 -33 -9 9 4 17 9
30 11 27 3 -2 2 -19 -2 -36z m-49 -206 c-19 -88 -40 -202 -47 -254 -11 -88
-10 -106 10 -210 54 -277 89 -383 202 -613 146 -296 165 -376 130 -544 -30
-145 -28 -194 11 -270 17 -34 35 -60 38 -58 4 3 16 -5 26 -18 16 -18 16 -19 2
-8 -25 19 -23 -2 2 -24 11 -10 20 -14 20 -10 0 4 9 0 20 -10 11 -10 18 -21 15
-25 -5 -9 31 -43 64 -60 21 -11 76 -9 136 6 17 4 18 4 3 -6 -9 -5 -43 -13 -75
-16 -106 -11 -165 36 -248 198 -40 79 -45 97 -45 154 0 35 10 108 21 162 19
84 20 106 11 163 -15 88 -61 205 -145 368 -85 166 -109 227 -152 395 -70 276
-76 360 -39 555 20 105 66 292 71 287 2 -2 -12 -75 -31 -162z m3681 -40 c-3
-3 -12 -4 -19 -1 -8 3 -5 6 6 6 11 1 17 -2 13 -5z m230 -46 c-2 -13 -4 -5 -4
17 -1 22 1 32 4 23 2 -10 2 -28 0 -40z m-350 26 c-3 -3 -12 -4 -19 -1 -8 3 -5
6 6 6 11 1 17 -2 13 -5z m86 -11 c-7 -2 -19 -2 -25 0 -7 3 -2 5 12 5 14 0 19
-2 13 -5z m54 -9 c-3 -3 -12 -4 -19 -1 -8 3 -5 6 6 6 11 1 17 -2 13 -5z m273
-223 c17 -35 30 -65 28 -66 -2 -2 -29 42 -60 98 -40 70 -49 91 -28 67 16 -19
43 -64 60 -99z m-4013 -48 c-3 -10 -5 -2 -5 17 0 19 2 27 5 18 2 -10 2 -26 0
-35z m42 -443 c0 -8 -6 0 -14 19 -8 18 -15 41 -14 50 1 19 27 -47 28 -69z
m4385 -107 c-8 -60 -15 -68 -67 -81 -106 -27 -106 -27 -25 37 42 34 78 68 82
76 11 31 17 13 10 -32z m-766 20 c-16 -2 -40 -2 -55 0 -16 2 -3 4 27 4 30 0
43 -2 28 -4z m271 -34 c57 -9 71 -16 119 -60 30 -27 68 -57 84 -65 21 -11 28
-20 23 -32 -17 -46 -45 -160 -50 -210 -6 -49 -3 -64 19 -105 24 -44 35 -76 18
-51 -4 6 -36 27 -72 47 -36 21 -72 42 -80 47 -8 6 -26 15 -40 21 -27 11 -30 9
-127 -106 -23 -27 -45 -46 -49 -43 -3 4 -21 44 -40 90 l-33 83 -103 37 c-57
20 -96 37 -88 37 8 0 57 -14 109 -32 l93 -32 28 -77 c16 -42 31 -82 35 -87 3
-6 36 25 72 69 37 44 73 80 81 80 8 0 50 -20 93 -45 43 -25 80 -45 82 -45 3 0
0 18 -5 41 -12 46 1 148 31 236 l18 54 -46 31 c-25 18 -61 46 -81 63 -19 18
-48 36 -65 40 -16 4 -124 8 -240 8 -200 1 -203 1 -70 7 77 3 158 7 180 8 22 1
69 -3 104 -9z m181 -67 c63 -51 71 -59 50 -47 -25 14 -130 96 -130 101 0 8 19
-5 80 -54z m-419 -358 c5 -15 7 -29 4 -32 -3 -3 -5 -1 -5 4 0 6 -9 20 -20 32
-17 18 -18 22 -5 22 8 0 20 -12 26 -26z m-43 -74 c31 -47 28 -54 -15 -27 -21
13 -53 29 -71 36 -18 8 -31 16 -29 18 3 2 31 -8 63 -22 56 -25 57 -25 38 -3
-10 12 -32 35 -49 51 l-30 30 35 -25 c19 -14 45 -40 58 -58z m-138 40 c8 -5
11 -10 5 -10 -5 0 -17 5 -25 10 -8 5 -10 10 -5 10 6 0 17 -5 25 -10z m76 -71
c91 -45 92 -47 55 -125 -17 -37 -33 -65 -36 -63 -2 3 9 31 26 64 28 56 29 60
12 76 -10 10 -45 31 -78 48 -33 17 -56 30 -51 31 5 0 37 -14 72 -31z m588 -85
c3 -8 2 -12 -4 -9 -6 3 -10 10 -10 16 0 14 7 11 14 -7z m0 -79 c59 -25 53 -44
-55 -181 -58 -73 -89 -131 -89 -164 0 -14 16 -79 36 -145 33 -107 37 -133 38
-239 l1 -118 -41 -37 c-49 -43 -214 -131 -301 -160 -102 -34 -148 -29 -292 33
-162 69 -171 71 -171 52 0 -9 4 -16 10 -16 11 0 269 -109 258 -110 -3 0 -14
-3 -24 -7 -12 -4 -15 -3 -10 5 4 7 1 12 -8 12 -20 0 -29 -17 -14 -24 7 -3 0
-3 -17 0 -18 4 -25 2 -18 -3 8 -6 -3 -9 -30 -10 l-42 -1 45 15 c54 19 56 21
43 34 -7 7 -36 0 -92 -22 -66 -26 -83 -37 -88 -57 -3 -14 -31 -62 -61 -106
-70 -102 -89 -151 -97 -256 -3 -47 -10 -94 -15 -105 -5 -11 -19 -45 -30 -75
-11 -30 -37 -73 -56 -95 l-36 -40 34 50 c46 66 82 165 61 165 -19 0 -20 -3 51
237 58 199 63 218 45 193 -9 -13 -10 -13 -6 0 2 8 8 15 13 15 16 0 34 16 29
25 -6 10 26 30 47 30 7 -1 0 -7 -17 -15 -16 -7 -24 -14 -17 -14 7 -1 45 14 85
32 40 19 83 38 96 44 23 9 18 12 -60 45 -82 34 -109 61 -75 74 8 3 75 -20 148
-52 96 -42 149 -59 192 -62 46 -4 57 -2 51 8 -5 9 -4 11 3 6 18 -11 96 15 80
26 -9 6 -5 7 9 3 13 -3 31 -1 40 5 15 9 14 10 -7 5 -21 -5 -22 -4 -7 5 9 6 21
8 27 5 11 -7 135 54 196 96 64 44 69 66 51 217 -9 70 -28 168 -42 217 -15 50
-27 102 -27 117 1 36 30 90 90 167 29 37 48 71 45 80 -4 14 -3 14 5 2 9 -12
12 -9 17 15 4 16 9 36 11 44 3 11 -7 20 -30 28 -30 11 -43 10 -93 -7 -69 -24
-102 -59 -133 -139 -23 -62 -55 -102 -80 -102 -41 0 -51 51 -24 125 13 39 13
39 7 5 -3 -19 -7 -53 -7 -75 -1 -36 1 -40 24 -40 21 0 31 12 65 82 49 100 74
127 139 152 63 24 74 25 120 6z m-7 -57 c-3 -7 -5 -2 -5 12 0 14 2 19 5 13 2
-7 2 -19 0 -25z m-577 2 c-6 -11 -13 -20 -16 -20 -2 0 0 9 6 20 6 11 13 20 16
20 2 0 0 -9 -6 -20z m318 -62 c-40 -87 -43 -91 -58 -96 -7 -3 -10 -1 -8 4 3 5
11 35 18 67 9 45 17 60 38 72 15 8 30 14 33 15 3 0 -7 -28 -23 -62z m-347 5
c-5 -10 -17 -27 -26 -38 -16 -19 -17 -19 -3 5 26 46 29 50 34 50 3 0 0 -8 -5
-17z m218 -54 c-65 -91 -144 -148 -216 -152 -27 -1 -38 2 -39 13 0 10 1 10 3
2 6 -17 52 -8 112 21 44 22 117 95 148 148 10 16 21 29 26 29 4 0 -11 -27 -34
-61z m-28 23 c-19 -35 -96 -105 -136 -123 -62 -29 -65 -27 -63 44 l1 62 6 -57
6 -57 41 18 c39 18 129 90 121 97 -2 2 -31 -7 -65 -21 -34 -14 -67 -25 -74
-25 -7 0 25 16 71 35 46 19 86 37 89 40 11 11 12 4 3 -13z m-234 -109 c-2 -16
-4 -3 -4 27 0 30 2 43 4 28 2 -16 2 -40 0 -55z m-2983 -232 c-3 -3 -15 6 -27
18 l-22 24 27 -19 c14 -10 24 -21 22 -23z m3533 -168 c-2 -16 -4 -5 -4 22 0
28 2 40 4 28 2 -13 2 -35 0 -50z m10 -85 c-2 -13 -4 -5 -4 17 -1 22 1 32 4 23
2 -10 2 -28 0 -40z m10 -70 c-3 -7 -5 -2 -5 12 0 14 2 19 5 13 2 -7 2 -19 0
-25z m-2990 -225 c-2 -16 -4 -3 -4 27 0 30 2 43 4 28 2 -16 2 -40 0 -55z m-10
-125 c-2 -13 -4 -5 -4 17 -1 22 1 32 4 23 2 -10 2 -28 0 -40z m-8 -83 c-1 -31
-7 -59 -12 -62 -6 -4 -7 -1 -2 7 5 8 3 11 -6 8 -8 -3 -13 -10 -12 -16 1 -5 -5
-16 -15 -24 -15 -12 -16 -11 -3 5 7 9 9 17 3 17 -13 0 -33 -25 -26 -32 3 -3 0
-9 -7 -14 -8 -4 -10 -3 -5 4 20 33 -42 -10 -199 -136 -44 -35 -60 -45 -35 -22
25 23 102 89 171 146 107 88 128 110 133 139 10 52 17 42 15 -20z m2115 11
c-3 -15 -8 -25 -11 -23 -2 3 -1 17 3 31 3 15 8 25 11 23 2 -3 1 -17 -3 -31z
m-2097 -38 c-3 -7 -5 -2 -5 12 0 14 2 19 5 13 2 -7 2 -19 0 -25z m2073 -35
c-11 -17 -11 -17 -6 0 3 10 6 24 7 30 0 9 2 9 5 0 3 -7 0 -20 -6 -30z m-20
-70 c-11 -17 -11 -17 -6 0 3 10 6 24 7 30 0 9 2 9 5 0 3 -7 0 -20 -6 -30z
m-610 7 c-6 -11 -13 -20 -16 -20 -2 0 0 9 6 20 6 11 13 20 16 20 2 0 0 -9 -6
-20z m43 5 c-3 -9 -8 -14 -10 -11 -3 3 -2 9 2 15 9 16 15 13 8 -4z m87 -3 c0
-5 -7 -17 -15 -28 -14 -18 -14 -17 -4 9 12 27 19 34 19 19z m-50 -22 c-6 -11
-13 -20 -16 -20 -2 0 0 9 6 20 6 11 13 20 16 20 2 0 0 -9 -6 -20z m-80 -34 c0
-14 -8 -27 -17 -31 -15 -5 -16 -4 -5 6 6 7 12 21 12 31 0 10 2 18 5 18 3 0 5
-11 5 -24z m36 -38 c-15 -21 -53 -37 -40 -17 3 5 10 7 15 4 5 -4 9 0 9 9 0 12
9 20 28 25 2 1 -4 -9 -12 -21z m38 -6 c-9 -16 -25 -39 -36 -53 l-20 -24 16 28
c28 48 48 77 53 77 2 0 -3 -13 -13 -28z m-118 6 c4 -7 3 -8 -4 -4 -7 4 -12 2
-12 -5 0 -7 -3 -10 -6 -6 -6 5 3 27 11 27 2 0 7 -5 11 -12z m615 -49 c-5 -13
-10 -19 -10 -12 -1 15 10 45 15 40 3 -2 0 -15 -5 -28z m-665 -7 c-17 -16 -18
-16 -5 5 7 12 15 20 18 17 3 -2 -3 -12 -13 -22z m58 14 c-10 -8 -21 -12 -24
-10 -5 6 21 24 34 24 6 0 1 -6 -10 -14z m590 -70 c-3 -15 -8 -25 -11 -23 -2 3
-1 17 3 31 3 15 8 25 11 23 2 -3 1 -17 -3 -31z m-2384 21 c0 -2 -10 -12 -22
-23 l-23 -19 19 23 c18 21 26 27 26 19z m2683 -274 c-113 -45 -208 -81 -210
-79 -3 3 129 59 310 131 37 15 67 29 65 30 -4 4 -375 115 -383 115 -4 0 -3 -4
0 -10 3 -5 2 -10 -3 -10 -5 0 -14 -18 -21 -39 -10 -35 -95 -161 -108 -161 -5
0 11 23 67 96 13 18 28 59 55 161 2 7 83 -19 220 -70 l216 -81 -208 -83z
m-2763 213 c0 -2 -8 -10 -17 -17 -16 -13 -17 -12 -4 4 13 16 21 21 21 13z
m2605 -46 c13 -6 15 -9 5 -9 -8 0 -22 4 -30 9 -18 12 -2 12 25 0z m70 -20 c13
-5 14 -9 5 -9 -8 0 -24 4 -35 9 -13 5 -14 9 -5 9 8 0 24 -4 35 -9z m-2785 -14
c0 -2 -8 -10 -17 -17 -16 -13 -17 -12 -4 4 13 16 21 21 21 13z m2850 -6 c18
-12 2 -12 -25 0 -13 6 -15 9 -5 9 8 0 22 -4 30 -9z m65 -20 c13 -6 15 -9 5 -9
-8 0 -22 4 -30 9 -18 12 -2 12 25 0z m-4257 -231 c309 -117 562 -216 562 -219
0 -5 -545 -280 -554 -280 -3 0 -129 152 -282 338 -152 185 -286 348 -298 361
-14 16 -16 23 -6 19 8 -3 268 -101 578 -219z m4327 211 c13 -5 14 -9 5 -9 -8
0 -24 4 -35 9 -13 5 -14 9 -5 9 8 0 24 -4 35 -9z m-3055 -4 c0 -3 -15 -14 -32
-26 l-33 -22 30 26 c31 27 35 29 35 22z m3289 -50 c47 -19 212 -82 367 -140
361 -135 538 -210 592 -249 23 -18 81 -62 128 -98 132 -102 213 -144 344 -178
155 -41 484 -153 562 -192 120 -60 218 -123 246 -158 15 -20 51 -66 81 -103
29 -38 50 -68 48 -68 -3 0 -40 44 -82 98 -66 84 -88 104 -163 150 -48 29 -119
65 -158 82 -90 37 -348 112 -484 140 -133 28 -246 84 -361 181 -175 147 -191
158 -335 219 -241 102 -777 302 -816 305 -21 1 -41 5 -45 10 -5 4 3 5 17 1 17
-4 15 -1 -8 9 -32 15 -36 14 -223 -61 -105 -42 -192 -74 -195 -71 -6 5 364
156 385 157 7 0 52 -16 100 -34z m-3399 -30 c-22 -19 -217 -151 -205 -138 11
13 207 151 215 152 2 0 -2 -6 -10 -14z m2820 -96 c-8 -5 -19 -10 -25 -10 -5 0
-3 5 5 10 8 5 20 10 25 10 6 0 3 -5 -5 -10z m70 -10 c-8 -5 -19 -10 -25 -10
-5 0 -3 5 5 10 8 5 20 10 25 10 6 0 3 -5 -5 -10z m-50 -20 c-8 -5 -19 -10 -25
-10 -5 0 -3 5 5 10 8 5 20 10 25 10 6 0 3 -5 -5 -10z m-4815 -926 c-54 -31
-115 -67 -135 -81 -34 -25 -34 -24 5 12 36 33 195 123 220 124 5 1 -35 -24
-90 -55z m7785 -154 c30 -43 18 -37 -16 7 -15 20 -23 33 -16 29 6 -3 21 -20
32 -36z m164 -235 c116 -173 184 -293 240 -421 49 -112 63 -177 70 -314 5 -95
5 -95 -10 30 -8 69 -21 149 -30 178 -34 121 -208 431 -373 667 -24 33 -31 47
-16 30 14 -16 68 -93 119 -170z m-8214 171 c0 -2 -8 -10 -17 -17 -16 -13 -17
-12 -4 4 13 16 21 21 21 13z m-60 -69 c0 -2 -12 -14 -27 -28 l-28 -24 24 28
c23 25 31 32 31 24z m-165 -197 c-58 -72 -104 -136 -102 -142 1 -7 -4 -12 -12
-13 -8 0 -16 -6 -19 -14 -3 -8 0 -11 7 -7 6 4 4 -9 -6 -28 -9 -20 -18 -34 -21
-32 -2 2 2 14 8 26 6 12 10 24 8 26 -9 8 -50 -95 -44 -111 3 -9 2 -14 -2 -11
-24 15 -151 -647 -169 -883 -5 -72 11 -386 24 -461 3 -19 3 -32 -1 -29 -10 9
-23 109 -36 272 -9 121 -8 157 10 300 38 301 138 799 178 890 11 23 46 74 78
112 32 39 90 108 127 153 37 45 70 82 72 82 3 0 -43 -59 -100 -130z m4002
-332 c-3 -8 -6 -5 -6 6 -1 11 2 17 5 13 3 -3 4 -12 1 -19z m-90 -45 c-3 -10
-5 -4 -5 12 0 17 2 24 5 18 2 -7 2 -21 0 -30z m22 -68 c0 -5 -4 -3 -9 5 -5 8
-9 22 -9 30 0 16 17 -16 18 -35z m90 -165 l1 -75 -45 110 c-25 60 -45 112 -45
114 0 13 15 -15 45 -85 l34 -77 -4 114 c-3 96 -2 103 5 44 4 -38 8 -104 9
-145z m28 133 c-2 -16 -4 -5 -4 22 0 28 2 40 4 28 2 -13 2 -35 0 -50z m510 45
c-3 -8 -6 -5 -6 6 -1 11 2 17 5 13 3 -3 4 -12 1 -19z m-30 -95 c-2 -16 -4 -3
-4 27 0 30 2 43 4 28 2 -16 2 -40 0 -55z m73 17 c-6 -11 -13 -20 -16 -20 -2 0
0 9 6 20 6 11 13 20 16 20 2 0 0 -9 -6 -20z m-28 -14 c3 -14 1 -31 -3 -38 -6
-8 -9 1 -9 25 0 42 6 48 12 13z m-34 -69 c3 -22 -21 -87 -32 -87 -2 0 2 21 10
47 18 59 18 67 -2 59 -9 -3 -12 -2 -9 5 11 17 30 4 33 -24z m4281 -61 c2 -45
-6 -27 -12 29 -4 34 -3 42 3 25 4 -14 8 -38 9 -54z m-12 -88 c-3 -7 -5 -2 -5
12 0 14 2 19 5 13 2 -7 2 -19 0 -25z m-50 -90 c-2 -18 -4 -6 -4 27 0 33 2 48
4 33 2 -15 2 -42 0 -60z m-6796 -255 c-39 -165 -126 -623 -170 -903 -100 -626
-146 -1038 -157 -1390 -7 -238 0 -306 51 -476 75 -245 176 -474 259 -584 27
-36 38 -56 26 -45 -88 79 -216 356 -313 680 -26 89 -30 118 -34 274 -7 243 19
578 83 1051 57 427 163 1035 234 1352 17 73 30 135 30 137 0 2 3 2 6 -2 4 -3
-3 -46 -15 -94z m2326 0 c23 -3 53 1 73 9 l35 15 0 -126 c0 -136 10 -187 56
-286 41 -87 121 -190 376 -483 162 -186 272 -329 328 -424 29 -48 43 -90 61
-175 57 -281 57 -428 0 -596 -46 -136 -56 -190 -56 -303 0 -183 36 -243 189
-322 123 -64 269 -100 535 -132 48 -6 125 -17 170 -25 44 -8 189 -33 321 -55
393 -65 412 -71 598 -181 54 -32 100 -59 101 -59 13 0 46 703 46 982 0 395
-19 665 -71 983 -32 195 -154 613 -245 839 -13 33 -22 61 -20 63 6 7 102 -246
145 -384 96 -303 147 -558 183 -908 20 -198 17 -1033 -5 -1335 -10 -129 -21
-238 -26 -243 -5 -5 -38 9 -76 32 -37 22 -87 48 -111 57 -24 9 -44 21 -44 27
0 6 -3 7 -7 4 -3 -4 -12 1 -20 11 -8 9 -12 11 -8 4 8 -15 6 -15 -33 -1 -18 6
-29 15 -26 20 3 6 -5 7 -22 3 -21 -5 -25 -4 -19 6 5 8 4 11 -3 6 -6 -3 -46 3
-89 14 -81 21 -368 72 -508 89 -336 42 -381 49 -550 82 -127 25 -137 28 -130
40 3 5 -2 6 -11 2 -11 -4 -22 1 -30 12 -8 10 -14 15 -14 11 0 -4 -37 18 -81
49 -99 68 -144 89 -233 110 -63 14 -77 14 -162 0 -187 -32 -329 -34 -524 -6
-163 23 -295 10 -392 -38 -23 -11 -45 -18 -50 -15 -5 3 -7 1 -6 -4 6 -20 -93
-82 -188 -120 -125 -49 -384 -136 -390 -130 -2 3 15 10 38 17 24 7 92 33 151
57 60 24 114 41 120 38 7 -4 9 -4 5 1 -4 4 45 34 108 67 143 72 218 121 248
162 52 70 226 723 277 1035 46 288 50 485 14 768 -52 414 -90 636 -119 690 -7
16 -21 44 -29 65 l-15 36 48 -25 c26 -13 65 -27 87 -30z m4460 -75 c-2 -13 -4
-5 -4 17 -1 22 1 32 4 23 2 -10 2 -28 0 -40z m-9090 -70 c-2 -13 -4 -3 -4 22
0 25 2 35 4 23 2 -13 2 -33 0 -45z m9086 -210 l-5 -243 31 -125 c18 -69 48
-181 67 -249 19 -68 33 -125 31 -127 -2 -3 -18 35 -35 83 -17 49 -50 142 -74
208 l-42 120 -1 150 c0 127 22 425 31 425 2 0 0 -109 -3 -242z m-9046 -520
c-3 -7 -5 -2 -5 12 0 14 2 19 5 13 2 -7 2 -19 0 -25z m-59 -401 c-45 -136 -64
-167 -28 -45 28 92 61 181 66 176 2 -2 -15 -61 -38 -131z m1709 56 c-3 -10 -5
-2 -5 17 0 19 2 27 5 18 2 -10 2 -26 0 -35z m-10 -85 c-3 -8 -6 -5 -6 6 -1 11
2 17 5 13 3 -3 4 -12 1 -19z m46 -855 c28 -101 62 -259 72 -340 4 -32 -2 -116
-15 -224 -16 -125 -21 -208 -18 -303 l4 -131 104 -307 c58 -170 108 -308 112
-308 4 0 9 96 11 213 l2 212 3 -212 c2 -199 1 -213 -17 -222 -17 -10 -21 -3
-41 70 -12 44 -46 151 -77 237 -139 395 -139 396 -92 778 19 160 19 161 -1
275 -11 63 -35 176 -55 251 l-35 137 2 338 2 338 6 -355 c6 -344 7 -358 33
-447z m6050 69 c15 -2 27 -7 27 -11 0 -4 21 -129 46 -277 59 -350 66 -416 59
-554 -16 -300 -58 -747 -71 -759 -4 -3 -4 28 0 69 3 41 13 224 21 405 8 182
18 382 21 445 5 106 2 135 -40 380 -25 146 -46 270 -46 277 0 6 -12 13 -27 15
-27 3 -28 5 -29 68 l-1 65 6 -60 c6 -56 8 -60 34 -63z m-5966 -384 c-2 -13 -4
-5 -4 17 -1 22 1 32 4 23 2 -10 2 -28 0 -40z m6060 -220 c-2 -13 -4 -3 -4 22
0 25 2 35 4 23 2 -13 2 -33 0 -45z m-13 -280 c-4 -89 -9 -157 -12 -150 -6 18
9 325 15 318 2 -2 1 -78 -3 -168z m-4184 82 c-8 -5 -19 -10 -25 -10 -5 0 -3 5
5 10 8 5 20 10 25 10 6 0 3 -5 -5 -10z m-143 -46 c-3 -3 -12 -4 -19 -1 -8 3
-5 6 6 6 11 1 17 -2 13 -5z m-242 -75 c-214 -72 -384 -153 -595 -284 -85 -53
-159 -97 -165 -98 -5 -1 -15 -8 -21 -16 -9 -11 -12 -12 -19 -1 -5 8 -4 11 2 7
6 -4 14 0 17 9 4 9 9 14 13 11 3 -4 11 0 17 7 32 41 636 362 663 352 8 -3 12
-2 9 3 -11 17 149 64 239 70 11 0 -61 -26 -160 -60z m4552 -342 c-2 -23 -3 -1
-3 48 0 50 1 68 3 42 2 -26 2 -67 0 -90z m-370 56 c1 -22 -1 -24 -8 -10 -6 9
-7 22 -4 27 9 14 10 13 12 -17z m-4993 -134 c-3 -5 -10 -7 -15 -3 -5 3 -7 10
-3 15 3 5 10 7 15 3 5 -3 7 -10 3 -15z m5353 -301 c-3 -8 -6 -5 -6 6 -1 11 2
17 5 13 3 -3 4 -12 1 -19z"/>
<path d="M4150 8676 c0 -2 8 -10 18 -17 15 -13 16 -12 3 4 -13 16 -21 21 -21
13z"/>
<path d="M8070 9749 c-44 -33 -49 -40 -28 -35 49 11 78 25 84 41 14 35 -5 33
-56 -6z"/>
<path d="M7614 9002 c-6 -4 -13 -20 -17 -37 -3 -16 -8 -39 -12 -50 -3 -11 6 4
20 34 26 55 28 65 9 53z"/>
<path d="M5785 4648 c4 -13 13 -34 20 -48 31 -61 68 -266 121 -680 52 -406 18
-744 -131 -1317 -25 -95 -67 -242 -94 -329 -43 -136 -54 -161 -87 -196 l-39
-39 50 22 c63 28 221 37 350 19 172 -24 331 -24 475 0 85 14 147 19 178 15 48
-7 121 -28 152 -45 15 -8 14 0 -8 53 -23 55 -26 75 -25 172 1 113 18 198 62
318 49 132 50 273 5 527 -22 125 -31 155 -65 215 -57 101 -144 214 -335 435
-153 177 -223 262 -307 369 -40 51 -94 165 -112 236 -9 35 -15 106 -16 168 0
105 -1 107 -21 96 -27 -14 -106 -5 -148 16 -32 16 -32 16 -25 -7z"/>
<path d="M5405 1944 c-55 -29 -97 -54 -93 -54 14 0 154 69 178 89 35 29 28 26
-85 -35z"/>
<path d="M8711 10017 c-17 -84 -34 -163 -38 -175 -4 -19 -1 -22 21 -22 14 0
26 2 26 3 0 2 14 68 30 145 17 78 30 145 31 149 0 5 24 -59 52 -142 l52 -150
34 0 35 0 36 173 37 173 -26 -3 c-24 -3 -27 -9 -53 -133 -15 -71 -29 -137 -30
-145 -2 -8 -26 50 -54 130 l-51 145 -35 3 -35 3 -32 -154z"/>
<path d="M9152 10073 c-90 -44 -118 -192 -46 -240 17 -11 40 -14 79 -11 46 4
62 10 89 37 32 31 56 86 56 129 0 83 -93 127 -178 85z m118 -42 c42 -80 -40
-202 -117 -175 -54 19 -56 113 -3 166 36 35 103 40 120 9z"/>
<path d="M9448 10075 c-32 -18 -48 -44 -48 -79 0 -28 18 -41 83 -60 51 -15 68
-39 44 -63 -17 -17 -52 -20 -137 -11 -33 4 -40 -27 -8 -36 45 -12 130 -6 158
11 28 16 50 51 50 77 0 20 -31 43 -75 55 -55 14 -78 32 -69 54 8 22 43 31 104
25 37 -4 50 -1 55 10 8 22 0 26 -68 29 -42 2 -71 -2 -89 -12z"/>
<path d="M9745 10076 c-100 -44 -135 -199 -55 -241 54 -28 175 -17 183 17 5
17 2 18 -26 11 -87 -22 -157 2 -157 54 0 23 1 23 110 23 l110 0 0 46 c0 86
-78 128 -165 90z m114 -58 c9 -15 13 -30 9 -33 -3 -3 -43 -5 -88 -3 l-83 3 31
33 c27 29 36 33 74 30 34 -2 45 -8 57 -30z"/>
<path d="M9866 9041 c-6 -8 -76 -335 -76 -352 0 -14 40 -11 45 4 2 6 11 46 20
89 18 87 49 128 96 128 64 0 71 -22 44 -135 -20 -81 -19 -95 5 -95 12 0 22 8
25 23 43 187 43 196 12 225 -30 28 -81 29 -125 2 l-32 -20 6 28 c3 15 10 42
15 61 4 19 6 38 3 43 -7 11 -31 10 -38 -1z"/>
<path d="M8540 8868 c-18 -90 -35 -169 -37 -175 -3 -8 4 -13 21 -13 18 0 27 6
31 23 3 12 17 78 31 147 14 69 27 126 28 128 2 1 11 -39 20 -90 28 -146 25
-139 54 -136 20 2 39 25 94 113 37 60 68 104 68 99 0 -6 -11 -66 -25 -134 -31
-151 -31 -152 -3 -148 19 3 25 18 54 158 42 199 43 190 -3 190 -38 -1 -39 -2
-107 -115 -38 -63 -70 -115 -71 -115 -2 0 -8 30 -15 68 -28 164 -27 162 -69
162 l-38 0 -33 -162z"/>
<path d="M9656 8985 c-5 -25 -14 -39 -32 -45 -29 -11 -32 -30 -4 -30 16 0 19
-5 15 -22 -30 -133 -32 -170 -10 -188 8 -6 36 -12 62 -13 38 -2 48 1 51 16 3
13 -3 17 -31 17 -53 0 -58 14 -39 105 l17 80 48 3 c62 4 66 29 5 34 -24 2 -42
8 -42 13 1 6 4 22 8 38 6 24 3 27 -18 27 -19 0 -25 -7 -30 -35z"/>
<path d="M9042 8933 c-90 -44 -118 -192 -46 -240 18 -11 40 -14 81 -11 50 4
60 9 94 45 64 69 63 175 -2 208 -37 19 -86 19 -127 -2z m118 -42 c43 -81 -39
-203 -118 -175 -53 19 -54 113 -2 166 36 35 103 40 120 9z"/>
<path d="M9305 8918 c-38 -164 -39 -210 -5 -228 32 -17 95 -12 124 11 l26 20
0 -20 c0 -32 36 -27 44 5 11 42 46 215 46 226 0 5 -10 8 -22 6 -18 -3 -24 -15
-38 -79 -9 -42 -23 -88 -32 -101 -23 -35 -67 -52 -101 -39 -31 12 -33 26 -12
121 19 88 19 100 -5 100 -12 0 -22 -8 -25 -22z"/>
<path d="M1015 7958 c-6 -20 -65 -308 -65 -319 0 -5 49 -9 114 -9 88 0 115 3
119 14 9 23 -2 26 -90 26 -46 0 -83 4 -83 9 0 11 49 252 56 274 4 13 0 17 -21
17 -14 0 -27 -6 -30 -12z"/>
<path d="M9485 7948 c-2 -7 -18 -80 -35 -163 -17 -82 -33 -158 -36 -167 -4
-14 1 -18 20 -18 14 0 26 2 26 4 0 26 36 166 47 182 29 44 112 57 127 19 5
-13 -7 -87 -29 -182 -4 -19 -1 -23 18 -23 22 0 26 7 41 83 21 108 20 140 -4
162 -25 23 -91 23 -126 0 l-27 -17 6 33 c3 19 9 49 13 67 6 28 4 32 -15 32
-12 0 -23 -6 -26 -12z"/>
<path d="M8347 7943 c-21 -21 -3 -32 56 -35 48 -2 62 -6 60 -18 -1 -8 -15 -77
-31 -152 l-29 -138 26 0 c26 0 27 2 57 153 l30 152 64 3 c58 3 79 12 80 35 0
9 -304 10 -313 0z"/>
<path d="M1285 7878 c-14 -40 -35 -155 -35 -188 0 -31 5 -43 25 -56 30 -20 97
-14 124 10 22 20 32 20 25 1 -5 -11 1 -15 18 -15 23 0 25 7 47 113 12 61 25
120 27 130 4 13 -1 17 -19 17 -22 0 -26 -6 -36 -62 -25 -130 -51 -168 -117
-168 -51 0 -57 22 -34 126 11 49 20 92 20 97 0 12 -40 8 -45 -5z"/>
<path d="M1615 7878 c-3 -7 -14 -58 -25 -113 -12 -55 -24 -108 -26 -117 -4
-14 1 -18 19 -18 22 0 25 7 41 76 22 101 38 130 81 144 30 10 40 9 60 -4 30
-19 29 -10 5 -120 -11 -50 -20 -91 -20 -93 0 -2 11 -3 24 -3 21 0 25 7 40 83
21 106 20 140 -2 160 -25 23 -90 21 -130 -3 l-34 -21 7 21 c5 16 2 20 -15 20
-11 0 -23 -6 -25 -12z"/>
<path d="M1959 7863 c-36 -31 -68 -94 -69 -136 0 -35 24 -82 45 -91 29 -11 85
-6 116 10 30 15 31 15 24 -8 -18 -60 -82 -86 -158 -65 -26 7 -28 6 -25 -15 3
-21 9 -23 65 -26 117 -6 147 30 187 216 14 67 26 127 26 132 0 19 -42 10 -47
-9 -5 -19 -5 -19 -24 0 -30 30 -99 26 -140 -8z m119 -19 c46 -32 16 -151 -44
-174 -37 -14 -52 -12 -74 10 -51 51 6 178 80 180 9 0 26 -7 38 -16z"/>
<path d="M2271 7864 c-56 -47 -37 -101 44 -123 22 -6 46 -15 54 -20 20 -13 4
-50 -25 -57 -23 -6 -86 -2 -124 7 -9 3 -16 -4 -18 -18 -3 -19 3 -22 53 -28 70
-9 127 6 154 42 41 51 21 84 -64 108 -55 16 -74 37 -54 61 16 20 71 27 112 16
29 -8 37 -7 42 6 9 23 -13 32 -82 32 -52 0 -66 -4 -92 -26z"/>
<path d="M8769 7860 c-14 -4 -35 -13 -47 -19 -18 -10 -22 -9 -22 4 0 24 -39
18 -45 -7 -3 -13 -16 -71 -29 -130 l-23 -108 23 0 c18 0 25 7 30 28 37 166 56
197 124 197 31 0 40 3 40 16 0 21 -18 28 -51 19z"/>
<path d="M8935 7860 c-49 -7 -65 -16 -65 -37 0 -10 5 -13 18 -8 34 14 99 17
121 6 13 -7 21 -21 21 -36 0 -24 -3 -25 -59 -25 -33 0 -71 -4 -85 -10 -68 -26
-89 -100 -40 -139 33 -26 69 -27 117 -2 29 15 37 16 37 5 0 -24 39 -16 45 9
42 182 41 177 18 206 -22 26 -74 39 -128 31z m85 -143 c0 -15 -28 -57 -50 -74
-21 -17 -75 -16 -90 1 -18 22 -8 59 20 73 34 17 120 17 120 0z"/>
<path d="M9269 7860 c-81 -15 -132 -82 -131 -173 1 -72 65 -110 155 -91 33 7
43 14 45 32 3 21 1 22 -17 13 -28 -15 -94 -14 -117 3 -14 11 -19 26 -18 59 2
97 87 151 177 112 13 -5 17 -2 17 14 0 12 -6 23 -12 25 -33 11 -66 13 -99 6z"/>
<path d="M9871 7859 c-73 -15 -124 -81 -125 -160 -1 -63 29 -96 94 -105 61 -8
126 10 133 37 4 16 2 19 -11 13 -9 -3 -41 -9 -69 -12 -67 -6 -103 14 -103 58
l0 30 110 0 110 0 0 35 c0 81 -54 122 -139 104z m82 -61 c11 -14 16 -31 13
-37 -8 -12 -166 -16 -166 -3 1 12 23 37 50 55 34 24 79 18 103 -15z"/>
<path d="M10195 7865 c-5 -2 -27 -6 -47 -10 -30 -5 -38 -10 -38 -27 0 -15 4
-18 18 -13 44 18 97 17 121 -2 41 -33 23 -50 -58 -55 -104 -6 -152 -50 -129
-119 17 -50 79 -62 142 -28 32 17 38 18 33 5 -5 -12 0 -16 17 -16 21 0 26 7
36 53 27 127 25 179 -8 195 -21 11 -73 21 -87 17z m65 -140 c0 -4 -7 -19 -15
-35 -20 -39 -53 -60 -92 -60 -26 0 -36 6 -45 25 -12 28 1 51 37 65 23 10 115
13 115 5z"/>
<path d="M10551 3394 c0 -11 3 -14 6 -6 3 7 2 16 -1 19 -3 4 -6 -2 -5 -13z"/>
<path d="M2951 2384 c0 -11 3 -14 6 -6 3 7 2 16 -1 19 -3 4 -6 -2 -5 -13z"/>
<path d="M3061 1225 c-2 -15 120 -387 125 -382 3 2 -24 92 -60 198 -35 107
-64 190 -65 184z"/>
<path d="M486 1094 c-12 -31 -7 -45 17 -42 30 4 39 58 9 58 -11 0 -23 -7 -26
-16z"/>
<path d="M1270 1107 c0 -1 -16 -76 -35 -166 -41 -190 -42 -201 -16 -201 16 0
22 14 36 78 23 109 23 109 52 132 30 24 85 26 103 5 11 -13 10 -31 -4 -98 -9
-45 -19 -90 -22 -99 -4 -14 1 -18 19 -18 22 0 26 7 42 81 25 115 24 148 -4
170 -30 25 -78 24 -120 -2 l-34 -20 7 33 c20 100 20 108 -3 108 -11 0 -21 -1
-21 -3z"/>
<path d="M85 1078 c-9 -26 -65 -302 -65 -321 0 -19 5 -20 94 -14 111 6 172 29
208 78 73 98 62 210 -25 250 -51 22 -205 27 -212 7z m207 -56 c18 -17 22 -33
22 -76 -2 -105 -56 -155 -176 -164 -65 -5 -70 -4 -64 14 3 10 15 64 26 119 31
150 21 138 101 133 55 -3 74 -8 91 -26z"/>
<path d="M638 998 c-18 -6 -28 -17 -28 -29 0 -16 3 -18 19 -9 27 14 114 13
129 -2 7 -7 12 -20 12 -30 0 -15 -8 -18 -47 -18 -27 0 -65 -5 -85 -10 -69 -20
-101 -97 -58 -140 28 -28 98 -27 134 1 l26 20 0 -20 c0 -14 6 -21 19 -21 20 0
28 25 51 148 11 61 0 94 -37 111 -29 13 -98 13 -135 -1z m122 -135 c0 -5 -9
-22 -19 -39 -40 -65 -131 -69 -131 -5 0 18 7 34 18 40 20 12 132 15 132 4z"/>
<path d="M993 990 c-24 -14 -31 -15 -26 -5 4 11 -2 15 -19 15 -24 0 -26 -6
-57 -157 -18 -87 -35 -169 -38 -181 -5 -20 -2 -23 18 -20 20 3 26 12 39 72 15
68 15 68 34 47 13 -15 31 -21 59 -21 79 0 138 64 145 158 4 50 1 60 -22 85
-31 33 -85 36 -133 7z m95 -32 c7 -7 12 -33 12 -59 0 -83 -67 -147 -126 -120
-45 20 -44 106 2 161 20 23 34 30 63 30 20 0 42 -5 49 -12z"/>
<path d="M1641 989 c-27 -16 -32 -17 -28 -5 5 12 0 16 -17 16 -22 0 -25 -8
-46 -107 -12 -60 -24 -119 -27 -131 -5 -20 -2 -23 17 -20 21 3 26 14 45 92 25
102 52 136 109 136 29 0 46 13 46 36 0 13 -70 1 -99 -17z"/>
<path d="M1820 1001 c-14 -4 -26 -14 -28 -23 -3 -13 6 -15 61 -11 51 4 66 2
80 -11 32 -32 21 -43 -50 -48 -82 -7 -120 -23 -139 -59 -19 -37 -18 -52 7 -83
26 -33 88 -36 137 -6 l34 21 -7 -21 c-6 -18 -3 -21 16 -18 20 3 26 13 41 78
25 110 24 144 -8 169 -27 22 -91 27 -144 12z m113 -150 c-14 -54 -104 -98
-136 -66 -44 43 -3 85 84 85 51 0 57 -2 52 -19z"/>
<path d="M2129 987 c-75 -50 -102 -159 -55 -214 20 -23 32 -28 70 -27 24 0 57
9 71 18 27 18 27 18 20 -6 -18 -59 -85 -91 -150 -71 -29 9 -34 8 -38 -8 -7
-26 5 -31 73 -32 110 -1 145 39 179 205 11 53 23 108 27 122 5 23 3 26 -20 26
-17 0 -26 -5 -26 -16 0 -13 -5 -12 -26 5 -35 27 -83 27 -125 -2z m121 -36 c35
-66 -20 -171 -89 -171 -70 0 -84 107 -21 170 27 27 95 28 110 1z"/>
<path d="M2493 990 c-24 -14 -31 -15 -26 -5 4 11 -2 15 -19 15 -23 0 -26 -6
-47 -107 -13 -60 -25 -119 -28 -131 -5 -20 -2 -23 18 -20 20 3 26 14 44 90 24
102 50 138 101 138 52 0 58 -23 34 -132 -11 -50 -20 -94 -20 -96 0 -2 10 -2
22 0 23 3 30 19 48 111 15 74 49 117 95 117 54 0 60 -17 41 -116 -10 -47 -20
-92 -23 -100 -3 -10 3 -14 20 -14 22 0 27 6 37 53 7 28 14 82 17 118 5 61 4
67 -18 83 -33 22 -80 20 -120 -7 l-33 -22 -23 22 c-28 29 -77 30 -120 3z"/>
<path d="M442 885 c-13 -64 -25 -122 -28 -130 -5 -11 1 -15 19 -15 23 0 26 6
47 108 12 59 24 117 27 130 4 18 1 22 -19 22 -23 0 -25 -6 -46 -115z"/>
<path d="M3191 48 c-1 -25 3 -28 30 -28 19 0 28 4 23 11 -3 6 -15 9 -25 6 -12
-3 -19 2 -22 17 -3 17 -5 15 -6 -6z"/>
</g>
</svg>
