<?xml version="1.0" encoding="UTF-8" standalone="no"?>
<!-- Generator: Adobe Illustrator 18.0.0, SVG Export Plug-In . SVG Version: 6.00 Build 0)  -->

<svg
   xmlns:dc="http://purl.org/dc/elements/1.1/"
   xmlns:cc="http://creativecommons.org/ns#"
   xmlns:rdf="http://www.w3.org/1999/02/22-rdf-syntax-ns#"
   xmlns:svg="http://www.w3.org/2000/svg"
   xmlns="http://www.w3.org/2000/svg"
   xmlns:sodipodi="http://sodipodi.sourceforge.net/DTD/sodipodi-0.dtd"
   xmlns:inkscape="http://www.inkscape.org/namespaces/inkscape"
   version="1.1"
   x="0px"
   y="0px"
   width="300px"
   height="155px"
   viewBox="0 0 300 155"
   style="enable-background:new 0 0 300 155;"
   xml:space="preserve"
   id="svg24870"
   sodipodi:docname="20190413132108!Jacobson's_organ_in_a_reptile.svg"
   inkscape:version="0.92.4 (5da689c313, 2019-01-14)"><metadata
   id="metadata24876"><rdf:RDF><cc:Work
       rdf:about=""><dc:format>image/svg+xml</dc:format><dc:type
         rdf:resource="http://purl.org/dc/dcmitype/StillImage" /></cc:Work></rdf:RDF></metadata><defs
   id="defs24874" /><sodipodi:namedview
   pagecolor="#ffffff"
   bordercolor="#666666"
   borderopacity="1"
   objecttolerance="10"
   gridtolerance="10"
   guidetolerance="10"
   inkscape:pageopacity="0"
   inkscape:pageshadow="2"
   inkscape:window-width="1920"
   inkscape:window-height="1017"
   id="namedview24872"
   showgrid="false"
   inkscape:zoom="1.2666667"
   inkscape:cx="51.710526"
   inkscape:cy="77.5"
   inkscape:window-x="-8"
   inkscape:window-y="-8"
   inkscape:window-maximized="1"
   inkscape:current-layer="switch24865" />
<style
   type="text/css"
   id="style24620">
	.st0{fill:#FFFF83;}
	.st1{fill:#3AA14E;}
	.st2{fill:#FF931E;}
	.st3{fill:#f00;}
	.st4{fill:#c60;fill-opacity:0.6;}
	.st5{fill:#FFB463;}
	.st6{fill:none;stroke:#000;}
	.st7{fill:none;stroke:#000;stroke-linecap:round;}
	.st8{fill:none;stroke:#000;stroke-linejoin:round;}
	.st9{fill:none;stroke:#000;stroke-linecap:round;stroke-linejoin:round;}
	.st10{fill:#FF7BAC;stroke:#000;stroke-width:0.5;stroke-linejoin:round;}
	.st11{fill:url(#SVGID_1_);stroke:#000;stroke-linecap:round;}
	.st12{fill:#fff;}
	.st13{fill:none;stroke:#000;stroke-width:2;stroke-linecap:round;}
	.st14{fill-opacity:0.2;}
	.st15{font-family:Liberation Sans,Arial;}
	.st16{font-size:12px;}
	.st17{fill-opacity:0.4;}
</style>
<g
   id="colour">
	<path
   class="st0"
   d="M86.5,100.9c7.1,1.5,14.2,3.6,21.4,4.5c1.2,0.2,5.5,0.7,6.6,0.9c2.7,0.4,5.3,0.8,8,1.2   c8.4,1.3,16.8,2.6,25.2,3.8c2.6,0.4,5.1,0.7,7.7,1.1c1.4,0.2,6.3,0.9,7.4,1c4.2,0.6,8.4,1.3,12.6,1.6c1.6,0.1,3.3,0.1,5,0.1   c2.4,0.6,4.8,0.9,7.2,1c5.1,0.1,9.9-1.8,13.7-5c3.6-1.4,7-3.1,9.9-5.3c0.7-0.2,1.4-0.4,2.1-0.7c2.6-0.8,5.3-1.7,8-2.6   c0.3-0.3,0.6-0.6,1.1-0.9c3.4-2.1,6.8-4.1,10.3-6c1.5-0.8,3-1.5,4.5-2.2c0.9-0.1,4-1.6,4.9-1.6c2.5-0.1,2.7,1.3,5.2,1.4   c4.1,0.1,8.2,0.4,12.3,0.7c4.6,1.1,9.4,1.7,13.6,2.1c6.3,0.7,12.8,0.6,19.1,1.4c4.2,0.5,8.1-0.7,11.5-3.1   c2.1,5.5,0.4,10.5,0.4,16.2c0,2.3-1.3,3.6-2.9,4.1c0,4.2,3.2,15.6,3.5,19.8c-13.9-2.8-49.6-5-95.8-3.6c-15,0.5-30,0.5-44.9-0.8   c-17.4-1.5-32.1-4.5-48.8-10.1c-0.3,0-0.6,0-0.9-0.1c-14.7-2.9-30.9-8.1-38.8-20.7C79.2,100.5,82.9,100.2,86.5,100.9z"
   id="path24622" />
	<path
   class="st1"
   d="M72,90.2c0.4,1.6,2.3,6.5,3.3,7.9c4.9,5.9,98.4,17.8,98.6,17.8c1,0.2,16,2,17.9,1.7c1-0.2,7.1-2.4,15.8-7.2   c11.2-6.3,28.1-15.8,28.5-15.7c10.7,3.8,18.3,10.1,29.6,10.5c10.4,0.4,22.4,0.5,35.8-0.3c3.2-0.2,8.9-14.1,7.9-16.3   c0.2-1.5-0.2-3-1.5-4c1.3-3.6,0.9-7.7-0.2-11.4c0.1-0.9,0-1.8-0.2-2.7c0.3-0.6,0.6-1.2,0.8-1.9c1.1,0,2.1-0.6,2.5-1.9   c1.2-3.9,1.6-8.4-0.1-11.9c0.7-3.1,1.3-6.5,0.7-9.7c-0.3-1.6-2.4-5.9-2.3-6.5c0.2-1.1-0.1-2.2-0.7-3.1c0-1.4-0.8-2.1-2.6-2.3   c-12.8-1.6-25.9-2.2-38.8-3.3c-12.1-1-21.8-0.7-35.5-0.2c-6.8,0.7-40.5,0.8-45.9,5.8c-3.6-1-8.6-0.8-9.8-1.1   c-16.1-3.8-42.8,4.3-46.6,10.6c-21.7,4.7-35.1,11.7-42.8,18.5c-3.7,3.3-16,12.3-16,19.1C70.3,82.9,70.8,87.2,72,90.2z"
   id="path24624" />
	<path
   class="st2"
   d="M148.2,58.1c1.3-6.2,3.7-9.8,8.1-10.5c4.1-0.7,9.4,2.1,17.3,0.8c9.1-1.5,28.6-11.8,35.6-7c-0.8,1,0,1.8,0.8,2   c2.2,0.6,5.7-3.8,7.7-4.3c1.1-0.3,2.2-0.4,3.3-0.4c3.6,0.4,5.5,0.1,9,2.3c0.9,0.3,1.2,1.2,2.1,1.5c1-0.4,2.2-0.8,3.5-0.4   c2.6,0.8,5.1,1.9,6.7,3.5c5.9,5.4,0.2,15.9-0.5,18.1c0,0,4-1.4,5.4-6.9c0,0,0.5-5.7,0.4-8.4c0.6-2.5,5.4-1.7,6.7-1.7   c5.6,0.1,11.1,0.8,16.6,2.2c7.4,1.8,6.6,0.9,13.8,3.3c2.1,0.6,16.3,6.4,19,7.7c0.1,2.7,0.3,4.5,0.2,6.2c-0.2,0-3.7-0.6-4.7-0.8   c-5.5-1.4-11.1-2.3-16.7-2.5c-10.3,0.1-15.8,5.8-16.1,5.9c-2.7,2.3-14.9,13.7-16.6,13.9c-2.5,0.2-3.5,0.7-5.9-0.1   c-2.1-0.7-5.3-3.6-7.4-2.3c-0.7,0.4-1.5,0.7-2.1,0.7c-0.8,1.4-1.7,2.5-2.8,3.4c-3.6,2.7-8.6,5.5-13.2,4.1c-2.2-0.7-3.9-1.9-5.6-3.4   c-1.9-1.6-4.1-1.6-6.4-2.3c-0.6-0.2-1.2-0.4-1.8-0.8c-3.5-0.9-6.3-3.3-8-6.9c-0.3-0.7-0.4-1.4-0.4-2.2c-0.4-0.6-0.6-1.2-0.7-1.9   c-0.3-0.2-0.6-0.4-0.9-0.6c-5.7-4.2-12.3-5.6-19-7.6c-4.7-1.4-12.6,1.2-17.7,3.5C153.2,68,146.4,66.4,148.2,58.1z"
   id="path24626" />
	<path
   class="st3"
   d="M107.8,76.4c1.3-10.7,9.3-11,12.2-11.6c4.3-1,7.1,0.6,11.2,1.6c2.4,0.6,14.7-9.1,17.1-9.2   c-0.3,1.4-0.5,2.4-0.5,3.3l-0.5,0.1L131,69.8l0.9,3.6l7.2-4.4l9.5-4.9c0.6,0.7,1.6,1.5,2.7,2.7c-5.7,2.3-11.7,4.5-15,7   c-1.8,1.4-4.4,6.1-5.2,6.6c-3.4,2-6.4,4.8-6,8.4c-1.7-0.4-3.5-0.3-3.9-1c-1.9-4-2.5-9.9-4.4-11.4c-5.9-4.6-6.9-0.3-0.6,1.8   c1,0.3,0.4,3.3,0,3.5C109.8,83.7,107.5,78.8,107.8,76.4z"
   id="path24628" />
	<path
   class="st4"
   d="M201,46.5c-0.8,0.3,8.9-0.1,15.3,5.2C216.8,47.3,209.3,43.7,201,46.5z"
   id="path24630" />
	<path
   class="st4"
   d="M231.3,45.1c2.2,0.6,12.3,4.1,7.8,17.6c2.3-3.4,3.6-9,2.3-11.5C238.7,46.1,238.3,44.6,231.3,45.1"
   id="path24632" />
	<path
   class="st4"
   d="M216.3,51c2.3,0.5,6.9,5.2,7.8,12.6c1.1,9.1-5.3,18-12.1,15.1c6.1-0.2,11.4-7.4,10.2-14.2   C220.9,57.6,217.5,53,216.3,51z"
   id="path24634" />
	<path
   class="st4"
   d="M241.2,70.8c-0.3,1.3-0.5,13.5,13.4,4C244.6,79.7,241.2,71.7,241.2,70.8z"
   id="path24636" />
	<path
   class="st4"
   d="M212.7,84.7c6.9,5.5,11.3,4.5,20.1-2.1C223.5,88.5,217.4,85.6,212.7,84.7z"
   id="path24638" />
	<path
   class="st4"
   d="M195.7,71.7c1.5,7.2,1.5,7.8,16.3,12.3C199.9,80.8,198.9,75.3,195.7,71.7z"
   id="path24640" />
	<path
   class="st4"
   d="M238.7,79.2c6.9,5.5,11.2,5,19.6-3.1C249,82,243.4,80.1,238.7,79.2z"
   id="path24642" />
	<path
   class="st4"
   d="M148.7,58.2c2.3-2.9,11.4-4.8,15.9-4.4C160.9,52.1,148.2,52.8,148.7,58.2z"
   id="path24644" />
	<path
   class="st4"
   d="M148.9,63.2c3.1,2,11.6,1,15.8-0.7C161.7,65.2,149.6,69,148.9,63.2z"
   id="path24646" />
	<path
   class="st5"
   d="M149.2,55.6c0-1.4,1.5-4.5,4-5.9c2.4-1.4,3.9-1.9,8-1.2C156.3,48.9,153,51,149.2,55.6z"
   id="path24648" />
	<path
   class="st5"
   d="M148.2,62.6c0-1.4,0.2-4,2.7-5.4c2.4-1.4,5.6-2.3,10-2.3C153.3,55.7,149.9,59.3,148.2,62.6z"
   id="path24650" />
	<path
   class="st5"
   d="M198.4,48.3c1.1-0.9,6.2-1.8,10.3-0.7c2.8,0.8,6.7,2.7,8.8,6.2C213.9,50.5,204.3,48.2,198.4,48.3z"
   id="path24652" />
	<path
   class="st5"
   d="M220.4,46.3c3.1-1.7,5.6-2.8,9.7-1.6c2.8,0.8,6.9,3.7,9.4,7.1C235.9,48.5,230.1,45.8,220.4,46.3z"
   id="path24654" />
</g>
<g
   id="snake">
	<path
   class="st6"
   d="M312.7,135.2c-7.6,0-14.1-2.6-41.4-3.6c-24.1-0.9-42.9-0.6-52.2-0.6c-6.6,0-34.6,2.3-71.3-2.8   c-13.8-1.9-28.1-6.7-41.3-9.8c-26-6.1-31.7-17.5-35.7-32.7c-3.2-12.3,29.4-32.1,39.3-35.1s53.4-14.6,60.7-13   c14.5,3.1,12.9-4.5,31-5.9c7.9-0.6,53.8-3.3,63.5-1.7c9.6,1.7,35.5,1.7,42.2,4C314.2,36.2,312.7,135.2,312.7,135.2z"
   id="path24657" />
	<path
   class="st6"
   d="M170.9,37.5c-5.1-1.1-27.2,4.1-43.7,8.4c1.9-1.4,7.4-4,9.4-5.5c1.9-1.5,22.2-7.6,31.1-6.7   c8.8,0.9,10,1.4,12.1,1.3c1.3-0.1,4,0.4,6.2,0.8C181.9,37.7,178.8,39.1,170.9,37.5z"
   id="path24659" />
	<path
   class="st7"
   d="M95.3,104.3c10,3,89.4,14.3,96.5,13.3c7.1-1,56.3-30.5,58.7-30.2c3.5,0.4,4.5-1.7,6.8,2.2"
   id="path24661" />
	<path
   class="st7"
   d="M130.2,102.5c-1.7,0.5-1.7,7.6,0,7.9"
   id="path24663" />
	<path
   class="st7"
   d="M179.3,112.6c0.6,1.5,1.4,3,2.3,4.3"
   id="path24665" />
	<path
   class="st7"
   d="M155.1,107.3c3.1,1.5,3,4.1,3.1,7"
   id="path24667" />
	<path
   class="st7"
   d="M104,103.6c0.1,0.8,0.2,1.6,0.3,2.3"
   id="path24669" />
	<path
   class="st7"
   d="M104.6,108.4c-0.6,3.3-0.1,6.7,1.4,9.7"
   id="path24671" />
	<path
   class="st7"
   d="M89,104.7c-0.3,2.6,0.3,5.9,1.8,8.2"
   id="path24673" />
	<path
   class="st7"
   d="M158.9,122.6c0.2,2.3,2.7,5.8,4.4,7.3"
   id="path24675" />
	<path
   class="st7"
   d="M183.9,121.2c1.8,3.9,5.1,7.8,8.6,10.2"
   id="path24677" />
	<path
   class="st7"
   d="M212,119.9c2.7,4.2,6.2,8.2,10.3,11"
   id="path24679" />
	<path
   class="st7"
   d="M225.6,106.6c3.1,5.1,8.1,10.7,12.8,14.5"
   id="path24681" />
	<path
   class="st7"
   d="M208.2,94.7c-0.2,4.8,3.1,8.9,7.3,11.3"
   id="path24683" />
	<path
   class="st7"
   d="M226.8,91.8c2.3,1.6,1.7,2.5,6.1,4.7"
   id="path24685" />
	<path
   class="st7"
   d="M127.2,45.8c-1,1.3-2.4,4.4-1.8,5.9c0.2,0.6,0.7,1.1,1.1,1.5c1.8,1.8,3.6,3.7,5.4,5.5"
   id="path24687" />
	<path
   class="st6"
   d="M101.1,54.6c3.9-0.1,5.6,2.6,6.2,3.3c-2.4,5.7-1.8,12.1-1.9,12.1c-7.8-0.8-14,1.3-20.4,3.3   c-1.3,0.4-2.9,0.8-3.7-0.3c-0.4-0.5-0.5-1.1-0.8-1.6s-0.9-1-1.4-0.8"
   id="path24689" />
	<path
   class="st6"
   d="M125.7,52.4C113,56.6,97,61.5,84.2,65.7"
   id="path24691" />
	<path
   class="st6"
   d="M82.7,73.6c0,2.9,0.7,6.5,0.6,9.3c0,0.5,0,1,0,1.5c0,0.9,0,1.9,0,2.8c0,0.6,0,1.3,0.1,1.9   c0.2,1.5,1.1,2.8,2.4,3.6c1.7,0.4,3.4,0.7,5.2,0.7c1,0,2,0,3,0c2.2-0.1,4.4-0.1,6.6-0.2c0.3,0,0.6,0.1,0.7,0.3c0,0.3-0.5,0.1-0.3,0   "
   id="path24693" />
	<path
   class="st6"
   d="M83.9,90.9c-2,4.1-6.6,5.7-9.2,5.8"
   id="path24695" />
	<path
   class="st7"
   d="M88.4,78.5c1.3-1.7,4.1-2.1,5.8-0.8c1.1,0.8,1.7,2.1,2,3.4c0.4,1.4,0.6,3-0.1,4.3c-1.7,3.5-4.8,3.9-8,2.2"
   id="path24697" />
	<path
   class="st7"
   d="M91.7,90.7c0.1,0.9,0.5,2,0.6,2.9"
   id="path24699" />
	<path
   class="st6"
   d="M275.5,97.9c-1.1,0.5-6,4.5-7.2,4.7c-2.5-3.2-10.7-12.1-11.1-13s11.3-8.1,12.5-8.4c0.4-0.1,0.8-0.2,1.2-0.2   c0.4,0,0.8,0.1,1.3,0.2c2.4,0.5,4.7,1.1,7,1.8c1.5,0.5,3.1,1,4.2,2.1c1.2,1.1,1.9,2.8,1.4,4.3c-0.2,0.5-0.5,0.9-0.8,1.4   C281.8,93.8,278.9,96.2,275.5,97.9z"
   id="path24701" />
	<path
   class="st6"
   d="M276.1,97.5c7.6-4.4,8.3-8.8,8.8-9.2c1.2-0.8,15,7,16.6,9.4c-2.6,2.5-12.9,9-14.3,8   C285.4,104.4,275.7,97.6,276.1,97.5z"
   id="path24703" />
	<path
   class="st6"
   d="M291.3,124.1c1.9-0.4,2.3-3.8,3-5c0.8-1.4,0.9-4,0.3-4.5c-2.6-2-4.2-6.7-6.8-8.7c-0.3,0.2-1.7,3-2,3.1   c-3.2,1.4-6.3,2.8-9.5,4.2c-0.9,0.4-1.8,0.8-2.6,1.3c-1.4,1-2.4,2.5-3.3,4c-1.3,2.1-2.7,4.1-4,6.2c1.1,0,5.2,2.4,6.1,7   C278.1,131.7,286.2,123.3,291.3,124.1c4.2,0.7,7.9,6.5,9.8,9.9"
   id="path24705" />
	<path
   class="st6"
   d="M244.5,118.3c2.7,0.7,5.8,1.7,6.9,4.3c0.5,1.2,0.5,2.7-0.1,3.8c-1,1.9-3.2,3-4.2,4.9"
   id="path24707" />
	<path
   class="st6"
   d="M261,109.5c-2.3,1.4-5.1,2-7.9,1.8c-0.3,0-0.6-0.1-0.9-0.3c-0.3-0.2-0.4-0.6-0.6-0.9c-0.9-2-5.5-4.7-7.1-6.2   c2.9-2,13.4-13.2,14-12.4c2.8,3.6,10.3,10.5,9.7,11.1C266.8,104.1,262.9,108.4,261,109.5z"
   id="path24709" />
	<path
   class="st7"
   d="M237.5,94.9c0.3,0.3,7,8.6,7.1,9c0,0.6-9.7,6.7-14,9.3"
   id="path24711" />
	<path
   class="st6"
   d="M252.8,111.3c-2.9,3.6-8.2,7.1-12.4,8.9c-6.6,2.9-12.3,6.4-18.1,10.7"
   id="path24713" />
	<path
   class="st6"
   d="M272.4,115.2c-2.8-2.2-6.8-5.1-9.9-6.9"
   id="path24715" />
	<path
   class="st6"
   d="M249.4,128.5c3.8-0.2,13.8-1.5,16.9-3.9"
   id="path24717" />
	<path
   class="st6"
   d="M295.3,44.4c1.2,0.6,4.5,3.7,5.5,4.3c0.9,0.5,0.6-0.5,1.4-1.1c1.1-0.9,0.1-2.6,0.4-4c-0.9-1.4-4.1-2.2-5.7-1.5   C296.8,42.2,297,44,295.3,44.4z"
   id="path24719" />
	<path
   class="st6"
   d="M296,40.4c0.5,0.6,1,1.4,1,2.2c-0.1,0.9-0.9,1.5-1.7,1.8s-1.7,0.1-2.6,0c-2.6-0.4-5.1-1-7.7-1.6   c-2-0.5-6-0.1-6.3-2.2c0.4-0.4,1.1-3.4,1.1-3.9c3.1,0.7,7.6,1.9,10.7,1.4c0.7-0.1,1.4-0.3,2.2-0.2C294.1,38.1,295.1,39.3,296,40.4z   "
   id="path24721" />
	<path
   class="st6"
   d="M263.1,36.6c1.1-1.1,2.1-1.8,3.5-2.5c1.7,0.1,2.5,0.9,3.8,0.8c2-0.3,4.1-0.5,6.1-0.8c0.2,0,0.5-0.1,0.7,0   c0.6,0.3,1.2,1.7,1.4,1.9c0.2,0.2,0.5,0.3,0.8,0.5c0.6,0.5,0.4,1.4,0.1,2.1c-0.4,0.7-0.9,1.3-0.8,2.1c-4.4,1.4-9.6,2.6-13.5,0.1   C264,39.6,263.2,38.2,263.1,36.6z"
   id="path24723" />
	<path
   class="st7"
   d="M237.1,36c2,0.4,5.9,1.1,7.8,0c1.4-0.8,1.4-2.6,2.6-3.6c2.8-2.5,8-1.5,11.6-1.7c1.8-0.1,3.9,0.1,4.7,1.6   c0.2,0.4,3.2,1.4,2.8,1.7c-0.3,0.3-2.7,1.9-3.1,2.1c-0.6,0.5-2.2,1.3-2.7,1.4c-3.4,0.9-7.1,0.8-10.5-0.2c-0.9-1.6-1.5-3.5-1.7-5.4"
   id="path24725" />
	<path
   class="st7"
   d="M253.1,38c-0.6,1.1-2.9,4.9-3.6,5.8"
   id="path24727" />
	<path
   class="st6"
   d="M189.3,39.9c-3.7,0.4-7.5,0.5-11.3,0.4"
   id="path24729" />
	<path
   class="st8"
   d="M215.8,51.2c0.6-1,1.4-2.5,1.5-3.7c1.2,0.1,2.2-0.7,3.2-1.4c5.3-3.4,12.8-1.7,17,2.9c1.1,1.2,2.1,2.7,2.4,4.4   c0.1,0.9,0.1,1.7,0.1,2.6c-0.1,3.4-0.4,7.1-2.5,9.8c-0.7,0.9-1.7,2-1.3,3"
   id="path24731" />
	<path
   class="st6"
   d="M221.9,66.2c-0.1,4.6-2,9.7-6.2,11.7c-2.8,1.3-6.2,1-9.1-0.1c-2.9-1.1-5.5-3-8.1-4.7c-5.2-3.6-10.6-7-16.6-9.1   c-6-2-12.7-2.6-18.6-0.4c-2.6,1-5.1,2.5-7.9,2.9c-2.8,0.5-6.1-0.5-7.2-3.1c-1-2.5,0.5-5.4,2.8-6.9c2.2-1.5,5-1.8,7.7-2.1   c7-0.8,14-1.6,20.9-2.5c5-0.6,10.1-1.2,15-2.8c2.3-0.8,4.6-1.8,7.1-2.3c5.3-1,10.9,1,14.6,4.8C220.1,55.4,222,60.8,221.9,66.2z"
   id="path24733" />
	<path
   class="st7"
   d="M148.2,60.3c-0.2-10.6,6.7-12.5,9.3-12.6c2.6-0.2,5.1,0.6,7.6,1c14.6,1.9,27-9.9,40.5-8.4   c0.7,0.1,3.8,0.3,4.1,1c0.3,0.6-2.1,0.5-1.1,1.6c2.5,1.5,4.5-0.5,5.8-0.2c1.4,0.3,2.5,1.8,2,3.1"
   id="path24735" />
	<path
   class="st6"
   d="M212.2,43.1c6.3-7.7,16.7-3.7,19.9-0.7"
   id="path24737" />
	<path
   class="st9"
   d="M196,71.4c-0.7,2.8,0.8,5.8,3,7.7c2.2,1.9,5,2.8,7.8,3.6c1.6,0.5,3.7,0.6,5.2,1.3c1.6,0.7,1.9,1.6,3.4,2.5   c2.8,1.8,6.1,2.4,9.3,1.3c4-1.3,7.2-4.4,10.5-7.1c0.8-0.7,1.7-1.3,2.7-1.4c1.6-0.1,2.8,1.3,4.2,2.2c2.5,1.6,5.9,1.5,8.7,0.3   c2.8-1.2,5.1-3.2,7.2-5.3c5-4.9,9.9-10.5,16.6-12.7c6.2-2.1,13-0.9,19.4,0.3c3.3,0.6,6.7,1.2,10,1.8c0.2-1.9-0.3-4.2-0.2-6.2   c-16.2-8.2-34.1-12.7-52.3-13.3c-1.1,0-2.4,0-3.2,0.8c-1.2,1.1-0.8,3.1-0.6,4.8c0.5,4.6-2,9.5-6,11.8c1.3-2.5,2.9-6.8,3.3-9.6   c0.4-2.8-0.1-5.7-1.8-7.9c-1.2-1.6-3-2.6-4.8-3.5c-1.2-0.6-2.6-1.1-3.9-1.1s-2.8,0.6-3.5,1.7"
   id="path24739" />
	<path
   class="st7"
   d="M240.7,71.1c0.7,2,0.1,5.2,2,5.9c1.7,1.4,4.1,1.6,6.3,1.1c2.1-0.6,4-1.9,5.7-3.2c1.4-1.1,2.8-2.3,4.1-3.6"
   id="path24741" />
	<path
   class="st7"
   d="M227.1,78.6c-2.6,2.9-6.6,4.6-10.5,4.2"
   id="path24743" />
	<path
   class="st7"
   d="M204.9,72.8c3.1,0.6,5.5,3.9,5.5,5.8"
   id="path24745" />
	<path
   class="st7"
   d="M245.8,46.6c1-0.8,2.5-0.7,3.6,0"
   id="path24747" />
	<path
   class="st7"
   d="M201.4,90.7c-7.4,5-24.7,7.6-33.7,7.7c-9,0-9.7-2.2-18.7-1.8c-1.4,0.9-0.7,1.7-0.9,2.6   c-0.3,1.2,0.4,2.5,1.5,3.3s14.4,3.7,15.6,3.9c10.8,1.9,9.8,1.2,20.8,1.1"
   id="path24749" />
	<path
   class="st10"
   d="M10.7,39.2c11.2,4.4,14.8,17.7,16.6,22.1C32.6,74.3,40,85.7,52.8,91.5c5.2,2.3,10.2,4.4,15.8,5.2   c14.4,2.2,24.8,2.6,39.3,1.6c8-0.5,33.3-2,40.9-1.9c1.4,0,0.6,3.8-0.6,4.1c-33,1.2-53.6,4.2-80.4-0.2c-3.9-0.6-13.6-4-17.2-5.4   c-16.4-6.8-17.4-11.7-30.2-26.6C18.1,65.8,6.3,54.5,4,51.9c17.2,10,21.6,21,32.7,31.6C26.1,69.6,25.3,52.2,10.7,39.2z"
   id="path24751" />
	<path
   class="st6"
   d="M139.9,90.7c-6.7,1.9-9.5-0.9-14.5-1.9c-0.7-0.2-3.2-0.4-3.8-0.8c-1.8-1.2-1.8-3.9-2.1-6   c-0.3-1.9-1-3.8-2.3-5.2s-4.3-3.8-5.2-2c-1.5,2.1,3.5,1.9,4.4,3.6c0.3,0.5,0.9,8.9-12,13.7"
   id="path24753" />
	<path
   class="st6"
   d="M116.4,81.2c0.1-0.1-3,2.5-6.8-0.2c-1-0.7-1.4-1.9-1.6-3.1c-0.6-3.8,1-7.9,4.1-10.2c1.7-1.3,3.8-2,5.9-2.6   c3-0.8,6.2-1.3,9.1-0.2c1.2,0.5,2.4,1.3,3.7,1.3c1.5,0.1,2.8-0.7,4.1-1.5c3.6-2.2,9.9-5.8,13.6-8"
   id="path24755" />
	<path
   class="st6"
   d="M148.4,59.7C144.6,63,135.7,68,131,69.8"
   id="path24757" />
	<path
   class="st6"
   d="M148.7,64.2c-4.7,2-13,6.5-17,9.7"
   id="path24759" />
	<path
   class="st6"
   d="M152.4,66.4c-5.1,1.2-13.5,5-17.1,8.1c-1,0.9-3.6,5.8-5.1,6.6c-4.6,2.4-5.6,6.6-4.7,7.6"
   id="path24761" />
	<path
   class="st6"
   d="M123.3,65.7c2,0.3,4.7,1.9,6.3,3c0.9,0.6,1.8,1.3,2.2,2.3c0.3,0.9,0.1,1.9-0.2,2.8c-0.9,2.6-2.6,4.8-4.4,6.9   c-0.7,0.8-1.4,1.6-2.4,2.1c-3.2-1.1-3.2-4.5-3.7-5.3c-0.7-1.3-3.9-4.3-5.1-4.3c-1.3-0.1-3.5-0.2-5.3-0.3c-1-1,3.1-3.1,4.9-4.5   C116.8,67.3,121.8,65.4,123.3,65.7z"
   id="path24763" />
	<path
   class="st7"
   d="M124.5,67.2c-0.7,0.2-6.4,3.7-10.1,4"
   id="path24765" />
	<path
   class="st7"
   d="M126.2,69c-1.9,0.1-2.3,0.2-4.1,1.3c-1.3,0.9-2.1,2.4-3.9,2.4"
   id="path24767" />
	<path
   class="st7"
   d="M127.7,70.9c-2.5-0.5-7.3,3-7.5,3.5"
   id="path24769" />
	<path
   class="st7"
   d="M128.7,72.8c-2.6-0.4-7,3.5-7,3.5"
   id="path24771" />
	<path
   class="st7"
   d="M129.1,74.6c-0.7,0.1-4.6,1.9-5.4,3.2"
   id="path24773" />
	
		<radialGradient
   id="SVGID_1_"
   cx="116.998"
   cy="83.1865"
   r="15.5523"
   gradientTransform="matrix(-1 0 0 1 284.9064 0)"
   gradientUnits="userSpaceOnUse">
		<stop
   offset="0"
   style="stop-color:#fff"
   id="stop24775" />
		<stop
   offset="1"
   style="stop-color:#000"
   id="stop24777" />
	</radialGradient>
	<circle
   class="st11"
   cx="167.9"
   cy="83.2"
   r="15.6"
   id="circle24780" />
	<circle
   cx="167.9"
   cy="83.2"
   r="6.8"
   id="circle24782" />
	<circle
   class="st12"
   cx="166.1"
   cy="82.3"
   r="2.4"
   id="circle24784" />
	<path
   class="st6"
   d="M294.9,116c0.5-0.4,0.9-0.8,1.4-1.1c0.5-0.4,0.9-0.8,1.5-1.1c0.3-0.1,0.5-0.2,0.8-0.3c1.2-0.5,2.5-1,3.7-1.5"
   id="path24786" />
	<path
   class="st7"
   d="M264.4,76c1.4,0.8,2.9,1.6,3.8,3c0.5,0.8,0.7,1.7,1,2.6"
   id="path24788" />
	<g
   id="g24800">
		<g
   id="g24798">
			<line
   class="st13"
   x1="220.2"
   y1="16.3"
   x2="228.7"
   y2="56.3"
   id="line24790" />
			<g
   id="g24796">
				<polygon
   points="230.9,50.7 228.5,55.2 224.4,52.1 230.1,62.6     "
   id="polygon24792" />
				<polygon
   class="st12"
   points="230.3,52.5 229.8,61.3 228.6,55.8     "
   id="polygon24794" />
			</g>
		</g>
	</g>
	<g
   id="g24812">
		<g
   id="g24810">
			<line
   class="st13"
   x1="131.5"
   y1="31.6"
   x2="136.8"
   y2="56.3"
   id="line24802" />
			<g
   id="g24808">
				<polygon
   points="139,50.7 136.6,55.2 132.5,52.1 138.1,62.6     "
   id="polygon24804" />
				<polygon
   class="st12"
   points="138.4,52.5 137.9,61.3 136.7,55.8     "
   id="polygon24806" />
			</g>
		</g>
	</g>
	<g
   id="g24824">
		<g
   id="g24822">
			<line
   class="st13"
   x1="71.5"
   y1="49.6"
   x2="108.4"
   y2="64.1"
   id="line24814" />
			<g
   id="g24820">
				<polygon
   points="104.9,59.2 107.4,63.7 102.5,65.4 114.4,66.4     "
   id="polygon24816" />
				<polygon
   class="st12"
   points="106.1,60.7 113.2,66 107.9,63.9     "
   id="polygon24818" />
			</g>
		</g>
	</g>
	<g
   id="g24836">
		<g
   id="g24834">
			<line
   class="st13"
   x1="47.7"
   y1="119.6"
   x2="46.8"
   y2="103.9"
   id="line24826" />
			<g
   id="g24832">
				<polygon
   points="43.7,109.1 46.8,104.9 50.4,108.7 46.4,97.4     "
   id="polygon24828" />
				<polygon
   class="st12"
   points="44.6,107.4 46.4,98.7 46.8,104.3     "
   id="polygon24830" />
			</g>
		</g>
	</g>
	<path
   class="st14"
   d="M148.8,96.8c0.7-0.2,1.5,2.1-0.6,3.9c-1.5,0.1-3,0.2-5.6,0.2C146.3,100.6,148.8,97.7,148.8,96.8z"
   id="path24838" />
</g>
<g
   id="text">
	<switch
   id="switch24845"><text
     id="trsvg6-uk"
     systemLanguage="uk"
     x="198.4003"
     y="13.300078"><tspan
       id="trsvg1-uk">Мозок</tspan></text>
<text
     transform="translate(204.8883,13.2866)"
     class="st15 st16"
     id="trsvg6"
     style="font-size:12px;font-family:'Liberation Sans', Arial"><tspan
       id="trsvg1">Brain</tspan></text>
</switch>
	<switch
   id="switch24851"><text
     id="trsvg7-uk"
     systemLanguage="uk"
     x="112.20029"
     y="24.599907"><tspan
       id="trsvg2-uk">Нерв</tspan></text>
<text
     transform="translate(114.3684,27.2407)"
     class="st15 st16"
     id="trsvg7"
     style="font-size:12px;font-family:'Liberation Sans', Arial"><tspan
       id="trsvg2">Nerve </tspan></text>
</switch>
	<switch
   id="switch24857"><text
     id="trsvg8-uk"
     systemLanguage="uk"
     x="32.400124"
     y="132.50008"><tspan
       id="trsvg3-uk">Язик</tspan></text>
<text
     transform="translate(29.6644,131.4127)"
     class="st15 st16"
     id="trsvg8"
     style="font-size:12px;font-family:'Liberation Sans', Arial"><tspan
       id="trsvg3">Tongue</tspan></text>
</switch>
	<switch
   id="switch24865"><text
     id="trsvg9-uk"
     systemLanguage="uk"
     x="27.000172"
     y="31.200092"><tspan
       x="27.000172"
       y="31.200092"
       id="trsvg4-uk">Орган</tspan><tspan
       x="27.000172"
       y="45.600079"
       id="trsvg5-uk">Якобсона</tspan></text>
<text
     transform="translate(32.5661,43.8527)"
     id="trsvg9"><tspan
       x="0"
       y="0"
       class="st15 st16"
       id="trsvg4"
       style="font-size:12px;font-family:'Liberation Sans', Arial">Jacobson’s</tspan><tspan
       x="0"
       y="14.4"
       class="st15 st16"
       id="trsvg5"
       style="font-size:12px;font-family:'Liberation Sans', Arial">Organ</tspan></text>
</switch>
	<path
   class="st17"
   d="m 89.2,78.4 c 0.5,-0.7 5.4,-2.7 6.7,2 0.8,2.8 1,8.5 -5.5,7.6 6.7,-2.4 4.3,-9.6 -1.2,-9.6 z"
   id="path24867"
   inkscape:connector-curvature="0"
   style="fill-opacity:0.4" />
</g>
</svg>