<?xml version="1.0" encoding="utf-8"?>
<!-- Generator: Adobe Illustrator 19.2.1, SVG Export Plug-In . SVG Version: 6.00 Build 0)  -->
<svg version="1.1" id="Layer_1" xmlns="http://www.w3.org/2000/svg" xmlns:xlink="http://www.w3.org/1999/xlink" x="0px" y="0px"
	 viewBox="0 0 1600 1032" style="enable-background:new 0 0 1600 1032;" xml:space="preserve">
<style type="text/css">
	.st0{fill:#E9E5DC;}
	.st1{fill:none;}
	.st2{fill:#FFFFFF;}
	.st3{fill:#939598;}
	.st4{fill:#C6C8CA;}
	.st5{fill:#4D4B4A;}
	.st6{fill:#353332;}
	.st7{fill:#131112;}
	.st8{fill:#C93535;}
	.st9{enable-background:new    ;}
	.st10{fill:#AD2A2A;}
	.st11{font-family:'MyriadPro-Bold';}
	.st12{font-size:43.6813px;}
</style>
<g id="Adult_Ed_Bldg">
</g>
<g id="The_Cottage">
</g>
<g id="McVay_Gardens">
</g>
<g id="OLEC_1_">
</g>
<rect x="-17.1" y="-9.3" class="st0" width="1633.2" height="1053.1"/>
<polygon class="st1" points="690.3,657.9 690.3,657.9 701.9,657.9 701.9,746.9 872.4,746.9 872.4,780.5 987.8,780.5 987.8,657.9 
	997.9,657.9 997.9,657.9 "/>
<polygon class="st1" points="1058.1,657.9 1040.9,657.9 1040.9,657.9 1043.4,657.9 1043.4,820.1 1192.9,820.1 1192.9,776.2 
	1058.1,776.2 "/>
<polygon class="st1" points="601.9,657.9 601.6,751.7 641.9,751.7 641.9,657.9 647.3,657.9 647.3,657.9 "/>
<rect x="522.8" y="158.2" class="st1" width="0" height="75.2"/>
<rect x="589.2" y="71.8" class="st1" width="0.5" height="81.6"/>
<polygon class="st1" points="1200.3,156.8 1427.9,156.8 1427.9,156.8 "/>
<polygon class="st1" points="294.7,755.1 304.4,755.1 304.4,850.4 357.7,850.4 357.7,837.7 429.4,837.7 429.4,837.7 355.7,837.7 
	355.7,755.1 294.2,755.1 294.2,755.1 "/>
<path class="st1" d="M1616.9,827l-7.3-28.3h3.9l3.4,14.2c1,3.4,1.5,6.8,2,9.8c0.2-1.4,0.6-2.9,1-4.5V616.5h-71.3V475.7h-3.9v377.1
	h75.2V827L1616.9,827L1616.9,827z"/>
<polygon class="st1" points="472.4,837.7 485.2,837.7 485.2,837.7 "/>
<polygon class="st1" points="1450.9,336 1450.9,302.9 1406.4,302.9 1406.4,438.6 1548.6,438.6 1548.6,336 "/>
<polygon class="st1" points="1038.1,64 1200.3,64 1200.3,64 "/>
<path class="st1" d="M386.4,965.7c-0.5,1.5-1,2.9-1.5,4.4l-2.4,7.3h7.8l-2.4-7.3C387.4,968.6,386.9,967.1,386.4,965.7z"/>
<path class="st1" d="M515.4,969.6c0-3.4-2.4-4.4-5.9-4.4c-1.5,0-2.4,0-3.4,0.5v8.8h3.4C512.9,974.5,515.4,972.5,515.4,969.6z"/>
<rect x="997.9" y="657.9" class="st1" width="43" height="0.5"/>
<rect x="1548.1" y="446.4" class="st1" width="0.5" height="23.9"/>
<path class="st1" d="M531.6,965.7c-0.5,1.5-1,2.9-1.5,4.4l-2.4,7.3h7.8l-2.4-7.3C532.4,968.6,532.1,967.1,531.6,965.7z"/>
<polygon class="st1" points="1332.2,550 1332.2,741.5 1252.1,741.5 1252.1,815.7 1495.8,815.7 1495.8,481.6 1366.8,481.6 
	1366.8,550 "/>
<rect x="1558.3" y="486" width="3.9" height="115.3"/>
<rect x="1560.3" y="326.4" width="2" height="106.5"/>
<polygon points="1619.9,616.4 1619.9,605.2 1553.9,605.2 1553.9,481.6 1562.2,481.6 1562.2,437.2 1556.4,437.2 1556.4,321.9 
	1562.2,321.9 1562.2,321.9 1464.9,321.9 1464.8,293.1 1450.9,293.1 1450.9,302.9 1450.9,336 1548.6,336 1548.6,438.6 1548.6,446.4 
	1562.2,446.4 1562.2,470.4 1548.6,470.4 1548.6,475.7 1548.6,616.4 "/>
<polygon points="1464.6,249.6 1619.9,249.6 1619.9,245.7 1450.9,245.7 1450.9,258.9 1464.6,258.9 "/>
<rect x="294.2" y="741.5" width="4.9" height="0.5"/>
<polygon points="509.1,171.9 509.1,233.5 510.9,233.5 510.9,171.9 412.9,171.9 412.9,171.9 "/>
<polygon points="588.2,644.4 588.2,644.9 629.3,644.9 629.3,644.4 "/>
<rect x="150.1" y="741.5" width="121.1" height="0.5"/>
<polygon points="145.2,746.9 145.2,741.5 105.6,741.5 105.6,749.9 101.2,749.9 101.2,741.5 18.2,741.5 18.2,746.4 13.8,746.4 
	13.8,741.5 9.4,741.5 9.4,746.4 -2.8,746.4 -2.8,832.4 -272.1,832.4 -272.1,533.9 -143.1,533.9 -149.4,528 -149.4,384.4 
	-140.1,374.7 -140.1,171.9 -43.4,171.9 -43.4,165.1 -39.1,165.1 -39.1,171.9 43.1,171.9 43.1,165.1 47.4,165.1 47.4,171.9 
	100.2,171.9 100.2,165.1 104.6,165.1 104.6,171.9 143.7,171.9 143.7,165.1 145.2,165.1 145.2,163.6 303.9,163.6 303.9,167.5 
	364.4,167.5 369.4,167.5 407.9,167.5 412.9,167.5 513.4,167.5 513.4,167.5 513.4,162.6 352.8,162.6 352.8,158.2 352.8,158.2 
	-154.2,158.2 -154.2,520.2 -286.1,520.2 -286.1,846 11.3,846 11.3,755.1 271.2,755.1 271.2,746.9 "/>
<polygon points="369.4,171.9 408,171.9 408,171.9 "/>
<polygon points="513.4,245.7 513.4,239.4 515.4,239.4 515.4,239.4 513.4,239.4 509.1,239.4 509.1,250.1 518.4,250.1 518.4,245.7 "/>
<rect x="1328.3" y="236.4" width="0.5" height="4.4"/>
<polygon points="601.4,800.6 587.8,800.6 587.8,824 369.4,824 369.4,745.9 369.4,745.9 369.4,746.4 303.9,746.4 303.9,746.9 
	294.2,746.9 294.2,755.1 355.7,755.1 355.7,837.7 429.4,837.7 429.4,824 472.4,824 472.4,837.7 485.2,837.7 485.2,824 528.1,824 
	528.1,837.7 601.4,837.7 601.4,830.9 601.4,809.9 601.4,809.9 "/>
<polygon points="629.3,244.2 629.3,245.7 523.3,245.7 523.3,250.1 629.3,250.1 629.3,245.7 629.3,244.2 523.3,244.2 523.3,244.2 "/>
<rect x="517.9" y="238.4" width="0" height="2.4"/>
<rect x="522.3" y="158.2" width="0.5" height="75.2"/>
<polygon points="518.4,240.9 518.4,238.4 517.9,240.9 "/>
<rect x="150.1" y="168" width="149" height="3.9"/>
<path d="M1314.6,301.4h3.9v4.4h-3.9v48.4h38.1v182.2h-33.2v3.9h-1.5v104.5h4.4v4.4h-4.4v78.2h-134.8v2.9h-4.4V762h-54.7v5.4h-4.4
	V762h-47.9V649.2h-4.4v-4.4h4.4v-0.5h-84v5.9h-3.9v-5.9H633.7v4.9h-45.4l0,0l-0.2,92.3h2.7v4.4h-2.7v11.7h13.5v-5.9h0.2l0.3-93.8
	h45.4v-13.7h43v13.7h307.7v-13.7h43v13.7h17.1v118.2h134.8v-34.7l0,0h8.3h43h7.8l0,0h80.1V549.9h34.7v-68.4l0,0V340.3h-38.1l0,0
	v-47.4h-14.2L1314.6,301.4L1314.6,301.4z M1244.2,741h-43v-13.7h43V741z"/>
<polygon points="1328.7,240.9 1328.3,240.9 633.7,240.9 633.7,241.4 1328.3,241.4 1328.3,242.7 1328.3,245.7 1328.7,245.7 
	1328.7,242.4 "/>
<polygon points="1038.1,245.7 1033.7,245.7 633.7,245.7 633.7,250.1 1314.6,250.1 1314.6,258.9 1328.7,258.9 1328.7,245.7 
	1328.3,245.7 "/>
<path class="st2" d="M1619.9,558.9V486h-3.4l0,0h-26.4l0,0h-27.8v115.3h57.6L1619.9,558.9L1619.9,558.9z M1591.4,559.4h-2.9v-21
	h-0.5l-3.9,2l-0.5-2.4l4.9-2.9h2.9V559.4z M1606.2,559.9c-2.9,0-4.9-1-6.4-1.5l1.5-2.9c1,0.5,2.9,1.5,5.4,1.5c4.4,0,5.4-2.4,5.4-4.9
	c0-3.4-2.9-4.9-6.4-4.9h-2v-2.4h2c2.4,0,5.4-1,5.4-3.9c0-2-1.5-3.4-4.4-3.4c-2,0-3.9,1-4.9,1.5l-1-2.4c1.5-1,3.9-2,6.4-2
	c4.9,0,6.8,2.9,6.8,5.9c0,2.4-1.5,4.9-4.4,5.9c2.9,0.5,5.4,2.9,5.4,6.4C1614.9,556.4,1612.1,559.9,1606.2,559.9z"/>
<rect x="1562.2" y="326.4" class="st2" width="57.6" height="106.5"/>
<polygon class="st2" points="1616.4,481.6 1619.9,481.6 1619.9,437.2 1562.2,437.2 1562.2,481.6 1590.1,481.6 "/>
<polygon class="st2" points="1464.6,258.9 1464.9,258.9 1464.9,293.1 1464.8,293.1 1464.9,321.9 1562.2,321.9 1562.2,321.9 
	1619.9,321.9 1619.9,249.6 1464.6,249.6 "/>
<path class="st3" d="M1315.9,836.7c-1.5,0-2.9,0-3.9,0.5v20c1,0,2,0,3.4,0c6.8,0,10.7-3.9,10.7-10.7
	C1326.3,840.6,1322.9,836.7,1315.9,836.7z"/>
<path class="st3" d="M1389.8,837.7c-0.5,1.5-1,2.9-1.5,4.4l-2.4,7.3h7.8l-2.4-7.3C1390.8,840.6,1390.3,839.2,1389.8,837.7z"/>
<path class="st3" d="M682.4,771.9c-1.5,0-2.9,0-3.9,0.5v20l0,0c1,0,2,0,3.4,0c6.8,0,10.7-3.9,10.7-10.7
	C692.8,775.7,689.3,771.9,682.4,771.9z"/>
<path class="st3" d="M1544.6,852.9V475.7h3.9v-5.4h-0.5v-23.9h0.5v-7.8h-142.1V302.9h44.5V293v-34.2v-13.1h-122.1v13.2v34.2v47.4
	h38.1l0,0l0,0v141.2h129v334h-243.7v-74.2H1193v34.7v44h-149.5V658h-2.4v0.5h-43V658h-10.3v122.6H872.6V747H702.1v-88.9h-11.7h-43
	h-5.4v93.8h-40.3v5.9h0.3v43h-0.4v9.3h206.1v90.4h66.4v-53.2h108v59.1h62.5v-24.6h149.5v42l58.1-4.9v-36.1h242.3v54.7h67.4v-15.1
	h58.1v-69.4L1544.6,852.9L1544.6,852.9z M652.7,794.7c-2.4,0-4.9-1-6.4-1.5l1.5-2.4c1.5,1,3.4,1.5,5.9,1.5c3.4,0,5.4-1.5,5.4-4.4
	c0-2.4-1.5-3.9-4.9-4.9c-3.9-1.5-6.8-3.4-6.8-7.3c0-3.9,3.4-6.8,8.3-6.8c2.4,0,4.4,0.5,5.4,1l-1,2.4c-1-0.5-2.4-1-4.9-1
	c-3.4,0-4.9,2-4.9,3.9c0,2.4,1.5,3.4,4.9,4.9c4.4,1.5,6.4,3.9,6.4,7.3C661.4,791.4,658.6,794.7,652.7,794.7z M669.8,794.7h-3.4
	v-24.9h3.4V794.7z M692.3,790.9c-2.4,2.4-6.4,3.4-11.2,3.4c-2.4,0-4.4,0-5.9-0.5v-23.9c2-0.5,4.4-0.5,6.8-0.5c4.4,0,7.8,1,10.3,2.9
	s3.4,4.9,3.4,8.8C695.7,784.9,694.2,788.4,692.3,790.9z M714.3,794.7h-14.2v-24.9h13.7v2.4h-10.3v7.8h9.3v2.9h-9.3v8.8h10.7
	L714.3,794.7L714.3,794.7z M736.2,794.7l-2.9-13.2c-1-3.4-1.5-5.9-1.5-8.3c-0.5,2.4-1,4.9-2,8.3l-3.4,13.2h-3.9l-6.4-24.9h3.4
	l2.9,12.7c0.5,2.9,1.5,6.4,2,8.8c0.5-2.4,1-5.4,2-8.8l3.4-12.7h3.4l2.9,12.7c0.5,2.9,1.5,5.9,2,8.8c0.5-2.9,1-5.4,2-8.8l3.4-12.7
	h3.4l-7.3,24.9H736.2z M763.1,794.7l-2.4-7.8h-8.8l-2.4,7.8h-3.4l8.3-24.9h3.9l8.3,24.9H763.1z M784.6,794.7h-14.2v-24.9h3.4v22
	h10.7v2.9H784.6z M801.7,795.2l-8.3-12.2l-2.4,2.9v9.8h-3.4l0.5-25.9h3.4V782c0.5-1,1.5-2,2-2.4l7.8-9.3h3.9l-9.3,10.7l9.8,14.2
	H801.7z M1286.2,860.2c-2.4,0-4.9-1-6.4-1.5l1.5-2.9c1.5,1,3.4,1.5,5.9,1.5c3.4,0,5.4-2,5.4-4.4s-1.5-3.9-4.9-4.9
	c-3.9-1.5-6.8-3.4-6.8-7.3c0-3.9,3.4-6.8,8.3-6.8c2.4,0,4.4,0.5,5.4,1.5l-1,2.4c-1-0.5-2.4-1-4.9-1c-3.4,0-4.9,2-4.9,3.9
	c0,2.4,1.5,3.4,4.9,4.9c4.4,1.5,6.3,3.9,6.3,7.3C1294.9,856.9,1292.1,860.2,1286.2,860.2z M1303.3,859.7h-3.4v-24.9h3.4V859.7z
	 M1325.8,855.9c-2.4,2.4-6.4,3.4-11.2,3.4c-2.4,0-4.4,0-5.9-0.5v-23.9c2-0.5,4.4-0.5,6.8-0.5c4.9,0,7.8,1,10.3,2.9s3.4,4.9,3.4,8.8
	C1329.2,849.9,1327.8,853.4,1325.8,855.9z M1347.3,859.7h-13.7v-24.9h13.2v2.4h-10.3v7.8h9.8v2.9h-9.8v8.8h10.7L1347.3,859.7
	L1347.3,859.7z M1369.8,859.7l-2.9-13.2c-1-3.4-1.5-5.9-1.5-8.3c-0.5,2.4-1,4.9-2,8.3l-3.4,13.2h-3.9l-6.3-24.9h3.4l2.9,12.7
	c1,2.9,1.5,6.4,2,8.8c0.5-2.4,1-5.4,2-8.8l3.4-12.7h3.4l2.9,12.7c0.5,2.9,1.5,5.9,2,8.8c0.5-2.9,1-5.4,2-8.8l3.4-12.7h3.4l-7.3,24.9
	H1369.8z M1396.6,859.7l-2.4-7.8h-8.8l-2.4,7.8h-3.4l8.3-24.9h3.9l8.3,24.9H1396.6z M1418.1,859.7h-14.2v-24.9h3.4v22h10.7v2.9
	H1418.1z M1435.2,860.2l-8.3-12.2l-2.4,2.9v9.8h-3.4l0.5-25.9h3.4V847c0.5-1,1.5-2,2-2.4l7.8-9.3h3.9l-9.3,10.7l9.8,14.2H1435.2z"/>
<path class="st3" d="M756.3,772.7c-0.5,1.5-1,2.9-1,4.4l-2.4,7.3h7.3l-2.4-7.3C757.2,775.7,756.7,774.2,756.3,772.7z"/>
<polygon class="st3" points="1244.2,741.5 1201.3,741.5 1192.9,741.5 1192.9,741.5 1252.1,741.5 1252.1,741.5 "/>
<polygon class="st3" points="601.4,757.6 601.6,757.6 601.6,751.7 601.4,751.7 "/>
<polygon class="st3" points="601.4,800.6 601.4,809.9 601.4,809.9 601.4,800.6 "/>
<rect x="1366.8" y="340.4" class="st3" width="0" height="141.2"/>
<path class="st2" d="M71.4,685.4h7.8v-7.8c0-1.5,0-2.4,0-3.9c-1,1.5-1.5,2.4-2,3.4L71.4,685.4z"/>
<path class="st2" d="M217.4,702.9c-0.5,1.5-1,2.9-1.5,4.4l-2.4,7.3h7.8l-2.4-7.3C218.4,705.9,217.9,704.4,217.4,702.9z"/>
<path class="st2" d="M56.3,569.5h8.8h23h3.9h23h5.4l25.4,25.4v-126v-26.4V320.4l-24.9,24.9H54.9l-23.4-23.4H-83.2l-56.7,59.4v149.4
	l68.3,63.8H31.1L56.3,569.5z M76.3,473.4h-3.4v-18.1h3.4V473.4z M81.2,461.1c0-2,0-3.9,0-5.4h2.9v3.4c1-2.4,2.9-3.9,4.9-3.9h1v2.9
	c-0.5,0-0.5,0-1,0c-2.4,0-3.9,2-4.4,4.4c0,0.5,0,1,0,1.5v9.8h-3.4V461.1z M74.4,447.9c1.5,0,2,1,2,2s-1,2-2,2c-1.5,0-2-1-2-2
	S73.4,447.9,74.4,447.9z M59.7,454.7c5.4,0,8.8,3.9,8.8,9.3c0,6.8-4.4,9.8-8.8,9.8c-4.9,0-8.8-3.4-8.8-9.3S54.8,454.7,59.7,454.7z
	 M31.9,446.9h3.4v11.2c0.5-1,1.5-2,2.4-2.4s2-1,3.4-1c2.4,0,6.4,1.5,6.4,7.8v10.7h-3.4v-10.3c0-2.9-1-5.4-4.4-5.4
	c-2,0-3.9,1.5-4.4,3.4c0,0.5,0,1,0,1.5v10.7h-3.4V446.9z M-50.2,473.4h-3.4v-21l-4.4,2l-0.5-2.4l5.4-2.4h2.9V473.4z M-31.1,473.4
	h-3.4v-21l-4.4,2l-0.5-2.4l5.4-2.4h2.9V473.4z M-15.1,473.9c-4.9,0-8.3-2.9-8.3-6.4c0-2.9,2-5.4,4.9-6.4c-2.9-1.5-3.9-3.4-3.9-5.4
	c0.5-4.4,3.4-6.8,7.8-6.8c4.9,0,6.8,2.9,6.8,5.9c0,2-1,4.4-3.9,5.9c2.9,1,4.9,3.4,4.9,6.4C-6.7,471.4-10.1,473.9-15.1,473.9z
	 M-2.8,474.9h-2.4L5.1,448h2.4L-2.8,474.9z M21.1,473.4c-6.8,0-12.2-4.4-12.2-12.7c0-7.8,5.4-13.2,13.2-13.2c2.9,0,4.9,0.5,5.9,1
	l-1,2.4c-1-0.5-2.9-1-4.9-1c-5.9,0-9.8,3.9-9.8,10.3c0,6.3,3.4,10.3,9.8,10.3c2,0,3.9-0.5,5.4-1l0.5,2.9
	C26.9,472.9,24.4,473.4,21.1,473.4z"/>
<polygon class="st2" points="150.1,650.6 150.1,673.1 263.9,673.1 263.9,650.6 178.4,650.6 155.4,650.6 "/>
<path class="st2" d="M253.1,706.9c0-3.4-2.4-4.4-5.9-4.4c-1.5,0-2.4,0-3.4,0.5v8.8h3.4C250.7,711.7,253.1,709.7,253.1,706.9z"/>
<path class="st2" d="M312.7,696.5L312.7,696.5h-6.8v44.9h58.6h0.5v-44.9h-9.3l0,0H312.7z M341.9,733.7h-16.6v-28.8h16.1v2.9h-12.2
	v9.3h11.2v2.9h-11.2v10.7h12.7V733.7z"/>
<path class="st2" d="M271.2,741.5h23l0,0h4.9v-63h-4.9h-23H150.1v63H271.2L271.2,741.5z M179.9,724.9c-2.4,0-4.9-1-6.4-1.5l1.5-2.4
	c1.5,1,3.4,1.5,5.9,1.5c3.4,0,5.4-1.5,5.4-4.4c0-2.4-1.5-3.9-4.9-4.9c-3.9-1.5-6.8-3.4-6.8-7.3c0-3.9,3.4-6.8,8.3-6.8
	c2.4,0,4.4,0.5,5.4,1l-1,2.4c-1-0.5-2.4-1-4.9-1c-3.4,0-4.9,2-4.9,3.9c0,2.4,1.5,3.4,4.9,4.9c4.4,1.5,6.4,3.9,6.4,7.3
	C188.7,721.4,185.7,724.9,179.9,724.9z M201.4,724.9h-2.9v-22h-7.8V700h18.6v2.9h-7.8v22H201.4z M224.3,724.9l-2.4-7.8h-8.8
	l-2.4,7.8h-3.4l8.3-24.9h3.9l8.3,24.9H224.3z M235.1,724.9h-3.4V700h3.4V724.9z M254.1,724.9c-0.5-0.5-1-2.9-1.5-5.9
	c-0.5-3.4-2-4.9-4.9-4.9h-2.9v10.7h-3.4l-0.5-24.4c1.5-0.5,3.9-0.5,6.4-0.5c3.4,0,5.9,0.5,7.3,2c1.5,1,2,2.9,2,4.9
	c0,3.4-2,5.4-4.9,6.4c2,0.5,2.9,2.4,3.9,4.9c1,3.4,1.5,5.9,2,6.8H254.1z M266.8,713.1c-3.9-1.5-6.8-3.4-6.8-7.3
	c0-3.9,3.4-6.8,8.3-6.8c2.4,0,4.4,0.5,5.4,1l-1,2.4c-1-0.5-2.4-1-4.9-1c-3.4,0-4.9,2-4.9,3.9c0,2.4,1.5,3.4,4.9,4.9
	c4.4,1.5,6.4,3.9,6.4,7.3c0,3.9-2.9,7.3-8.8,7.3c-2.4,0-4.9-1-6.4-1.5l1.5-2.4c1.5,1,3.4,1.5,5.9,1.5c3.4,0,5.4-1.5,5.4-4.4
	C271.7,715.6,270.2,714.1,266.8,713.1z"/>
<path class="st2" d="M412.9,523.1v8.8v112.3h92.3h12.2V523.1H412.9z M492.4,609.6c0,5.4-4.4,9.8-9.8,9.8h-41.5
	c-5.4,0-9.8-4.4-9.8-9.8v-41.5c0-5.4,4.4-9.8,9.8-9.8h41.5c5.4,0,9.8,4.4,9.8,9.8V609.6z"/>
<path class="st2" d="M9.9,650.6h-23h-57.6v90.9H9.4l0,0h4.4v-90.9H9.9z M-44.8,695.1h-2.9v-21.5l-4.4,2.4l-0.5-2.4l5.4-2.9h2.4
	V695.1z M-25.8,695.1h-2.9v-21.5l-4.4,2.4l-0.5-2.4l5.4-2.9h2.4V695.1z M-10.6,679.9c2,0,3.9,0.5,5.4,1.5c2,1,3.4,2.9,3.4,6.4
	c0,4.9-3.9,8.3-8.8,8.3c-2.4,0-4.9-1-5.9-1.5l1-2.4c1,0.5,2.9,1.5,5.4,1.5c2.9,0,5.9-2,5.9-5.4s-2-5.4-6.8-5.4c-1.5,0-2.4,0-3.4,0.5
	l1.5-11.7h11.7l-1,2h-9.3l-1,6.4C-12.1,679.9-11.6,679.9-10.6,679.9z"/>
<path class="st2" d="M266.3,452.4c0-11.8,0.7-22.9,1.9-33.2H150.4v75.2h118.9C267.3,479.6,266.3,465.6,266.3,452.4z"/>
<polygon class="st2" points="145.2,674.1 145.2,650.6 136.9,650.6 113.9,650.6 105.6,650.6 105.6,741.5 145.2,741.5 145.2,678 "/>
<polygon class="st2" points="587.7,757.6 587.9,757.6 587.9,745.9 528.1,745.9 485.2,745.9 472.4,745.9 429.4,745.9 369.4,745.9 
	369.4,824 587.8,824 587.8,800.6 587.7,800.6 "/>
<path class="st2" d="M291.2,337.5v-23.4h-8.3h-23H150.5v100.6h118.3C274.6,371.6,288.4,342.9,291.2,337.5z M227.7,368.9l-5.9-17.6
	l-2,5.4l6.8,21.5h-6.8l-2.4,21.5h-5.9l-2-21.5h-6.8l6.8-22l-2-4.9l-5.9,17.1h-3.9c0,0,6.8-22.5,7.8-25.9s3.9-3.4,3.9-3.4h2.4v-1.5
	l0.9,0.1c-2.1-0.8-3.8-2.9-3.8-5.5c0-3.4,2.9-5.9,5.9-5.9c3.4,0,5.9,2.9,5.9,5.9s-2.3,5.3-4.9,5.8l1,0.1v2h2
	c4.4-0.5,4.4,2.4,4.4,2.4l8.3,26.4L227.7,368.9L227.7,368.9z"/>
<path class="st2" d="M43.1,650.6h-23h-2v90.9h83v-90.9H43.1z M41.1,695.1h-2.9v-21.5l-4.4,2.4l-0.5-2.4l5.4-2.9h2.4V695.1z
	 M60.2,695.1h-2.9v-21.5l-4.4,2.4l-0.5-2.4l4.9-2.9h2.9V695.1z M82.2,688.7v6.4h-2.9v-6.4H68.1v-2l10.7-15.6h3.4v15.1h3.4v2.4h-3.4
	V688.7z"/>
<path class="st2" d="M282.9,598.4h8.3v-29.5c-10.7-24.3-17.3-47.7-21-69.7H150.4v99.2h109.4H282.9z M232.6,580.9h-6.4L215.4,556
	l-11.2,24.9h-5.4l11.7-38.1l-2.4-4.9l-5.4,15.6h-4.9c0,0,5.4-18.6,6.4-22.5c1-4.4,3.4-3.9,3.4-3.9h4.4v-1.4c-1.5-1-2.4-2.6-2.4-4.5
	c0-2.9,2.4-5.4,5.4-5.4c2.9,0,5.4,2.4,5.4,5.4c0,1.6-0.8,3.1-2,4.1v1.3h3.4c3.9,0,4.4,3.9,4.4,3.9l6.8,23h-4.9l-5.4-16.1l-2,5.4
	L232.6,580.9z"/>
<path class="st2" d="M59.7,471.4c2.9,0,5.4-2.9,5.4-6.8c0-2.9-1.5-6.8-5.4-6.8s-5.4,3.4-5.4,6.8C54.3,468.4,56.3,471.4,59.7,471.4z"
	/>
<polygon class="st2" points="591.2,522.6 591.2,522.2 586.8,522.2 586.8,522.6 563.8,522.6 563.8,522.2 522.8,522.2 522.8,644.4 
	588.2,644.4 588.2,644.4 588.2,644.4 629.3,644.4 629.3,522.2 614.1,522.2 614.1,522.6 "/>
<path class="st2" d="M289.8,487c-1.5,1-2.9,1.5-4.4,2c1.5,0,2.9,0.5,4.9,0.5c2.4,0.5,4.9,1,7.3,1.5c0-2.4-0.5-4.9-1-7.3
	C294.2,484.5,292.2,486,289.8,487z"/>
<path class="st2" d="M292.2,459.6c0-1,0-2.4,0-3.4c0-3.9-2-5.9-4.9-5.9c-3.4,0-4.9,2.4-4.9,6.4c0,2,0,2.9,0.5,3.4
	C286.4,459.6,289.3,459.6,292.2,459.6z"/>
<path class="st2" d="M1275.9,270.6c0-3.4-2.4-4.4-5.9-4.4c-1.5,0-2.4,0-3.4,0.5v8.8h3.4C1273.4,275.5,1275.9,273.5,1275.9,270.6z"/>
<path class="st2" d="M1188.6,305.9h-27.8v140.7h0.5v23h-0.5V574h27.8h26.4h4.9v-13.7l24.4-24.4h75.2v0.5h33.2V354.3h-38.1v-48.4
	h-99.6L1188.6,305.9L1188.6,305.9z M1286.7,422.5c2-2,4.9-3.4,7.8-3.4c1,0,2,0,2.4,0v2.4c-0.5,0-1.5,0-2.4,0c-5.4,1-7.8,4.4-8.3,8.8
	c1-1.5,3.4-2.9,5.9-2.9c4.4,0,7.3,2.9,7.3,7.8c0,4.4-2.9,8.3-8.3,8.3c-4.9,0-8.3-3.9-8.3-10.3
	C1282.8,428.4,1284.3,424.9,1286.7,422.5z M1269.6,431.4h-2v-2h2c2.4,0,5.4-1,5.4-3.9c0-2-1-3.4-4.4-3.4c-2,0-3.9,1-4.9,1.5l-1-2.4
	c1.5-1,3.9-2,6.4-2c4.9,0,6.8,2.9,6.8,5.9c0,2.4-1.5,4.4-4.4,5.9c2.9,0.5,5.4,2.9,5.4,6.4c0,3.9-2.9,7.3-8.8,7.3
	c-2.9,0-4.9-1-6.4-1.5l1.5-3.4c1,0.5,2.9,1.5,5.4,1.5c4.4,0,5.4-2.4,5.4-4.9C1275.9,432.9,1273.1,431.4,1269.6,431.4z M1252.4,419.6
	h2.9v23.9h-2.9v-21l-4.4,2l-0.5-2.4L1252.4,419.6z"/>
<path class="st2" d="M1241.3,271.1c-0.5-1.5-1-2.9-1.5-4.4c-0.5,1.5-1,2.9-1.5,4.4l-2.4,7.3h7.8L1241.3,271.1z"/>
<path class="st2" d="M299.4,374.6c-3.4-1-5.4,1-6.4,4.9c-0.5,1.5-0.5,2.9-0.5,3.4c2.9,1,5.9,1.5,8.8,2.4c0.5-0.5,0.5-1.5,1-2.9
	C303.4,378.5,302.4,375.6,299.4,374.6z"/>
<path class="st2" d="M859.7,477.1c0-5.3-3.8-7.5-9-7.5c-2.3,0-3.8,0-4.5,0.8v14.3l0,0c0.8,0,2.3,0.8,3.8,0.8
	C855.9,485.4,859.7,482.4,859.7,477.1z"/>
<path class="st2" d="M633.7,357.5v37.1H523.3h-4.4h-106V423H408v-28.2v-4.9v-77.7v-23v-3.9v-23v-23v-3.4v-2.4v-11.7h-8.3h-23h-7.3
	h-4.9h-8.8h-43h-8.8v12.2v2.4h-42.5v25.9h-83l0,0h-23l0,0h-19.5l0,0h-23l0,0H84.1l0,0h-23l0,0h-21l0,0h-23l0,0H2v2.4v23v3.9v23v2.9
	h31.3l23.4,23H65h23h3.9h23h3.9l31.8-31.3v0.5H260h23h12.7V336h50.8l-2,3.4l-0.5,0.5c-0.5,0.5-0.5,1-1,1.5c-1,1-2,3.4-2.9,5.9
	c-2,5.4-5.4,13.2-8.3,23c-5.9,19.5-12.2,47.9-12.2,82.1c0,34.2,6.4,73.8,24.9,115.8l-3.9,2c-19.1-43-25.4-83-25.4-117.7
	c0-56.9,17.1-98.3,23.2-111.4H295c-0.1,0.2-0.2,0.3-0.4,0.5c-1,1-2,3.4-2.9,5.9c-2,5.4-5.4,13.2-8.3,23
	c-5.9,19.5-12.2,47.9-12.2,82.1c0,34.2,6.4,73.8,24.9,115.8l-0.5,0.2v34.5h-12.7h-23H150.5v3.4l-32.2-32.2h-3.4v0.5h-23v-0.5H88v0.5
	H65v-0.5h-6.8l-25.4,25.4H-70.3v46.9h57.2h23h10.3h23H114h23h8.3h1h9.3h23h89.9v27.8h2.9h23h9.8v18.1h8.8h43h13.7v49.3h60.1h43h12.7
	h43h59.8l0.2-92.3h-65.9h-3.4h-1h-12.7h-97.2V532.3v-13.7h0.5v-32.2h4.4v32.2h106h3.4h41.5h23h4.4h23h19.5v126h350.2v-1v-23v-4.4
	v-23v-4.9h41.5V469.6v-23v-148h20h26.4h17.6v-14.2h71.3v17.1h27.8h26.4h99.6v-8.3l0,0V259l0,0v-8.8H633.8v81.1v26.2H633.7z
	 M290.8,379c1-3.4,2.4-5.9,4.4-6.8c1.5-1,3.4-1.5,5.9-1c2,0.5,3.4,2,4.4,3.9c1,2.4,1,5.4,0.5,8.8c-0.5,1-0.5,2-1,2.4
	c3.4,1,6.4,2,9.8,2.4c-0.5,1-0.5,2-1,3.4c-8.8-2.4-16.6-4.4-24.4-6.3C289.3,383.9,289.8,382,290.8,379z M283.9,408.4
	c4.9,1,9.8,1.5,14.7,2.4c5.4,1,8.3-1.5,8.8-4.4c0.5-3.9-1-6.8-6.4-7.8c-4.9-1-9.8-2-14.7-2.9c0.5-1,0.5-2.4,1-3.4
	c4.9,1,9.3,2,14.2,3.4c7.3,2,9.8,6.4,8.3,11.7c-1,4.9-4.4,8.3-12.2,7.3c-4.9-1-9.8-1.5-14.7-2.4
	C283.9,410.9,283.9,409.9,283.9,408.4z M280.4,432.9c0-2.9,1-4.9,2-5.9c1,0.5,1.5,1,2.4,1.5c-0.5,1-1.5,2.4-1.5,4.9
	c-0.5,3.9,2,5.4,3.4,5.4c2.4,0,3.4-1.5,5.4-4.9c2-4.4,4.4-6.4,7.8-5.9c3.9,0.5,6.8,3.4,6.4,9.8c0,2.4-1,4.9-2,6.4c-1-1-2-1-2.9-1.5
	c1-1.5,2-3.4,2-5.9c0-3.4-1.5-5.4-3.9-5.9c-2.4,0-3.9,1-5.4,4.4c-2,4.4-3.9,6.8-7.3,6.8C282.9,442,279.9,438.1,280.4,432.9z
	 M282.4,448.4c1-1.5,2.9-2,4.9-2c3.4,0,5.4,2.4,6.4,5.4c0.5-2,2.4-3.4,4.9-3.9c3.4-1,5.9-1.5,6.8-2c0,1,0,2.4,0,3.4
	c-0.5,0.5-2.9,1-5.9,1.5c-3.4,1-4.9,2-4.9,5.4c0,1,0,2,0,3.4c3.4,0,7.3,0,10.7-0.5c0,1,0,2,0,3.4c-7.8,0.5-16.1,0.5-24.4,1
	c-0.5-2-0.5-4.4-0.5-6.8C280.4,452.9,280.9,450.4,282.4,448.4z M280.9,469.9c8.3-0.5,16.6-1,24.9-1.5c0,1,0,2.4,0,3.4
	c-8.3,0.5-16.6,1.5-24.9,2C280.9,472.4,280.9,470.9,280.9,469.9z M282.4,487c7.8-4.4,15.6-8.3,23.9-11.7c0,1,0,2.4,0.5,3.4
	c-2.4,1-4.9,2.4-7.3,3.4c0,3.4,0.5,6.3,1,9.3c2.9,0.5,5.4,1,8.3,1.5c0,1,0.5,2.4,0.5,3.4c-8.8-1.5-17.6-2.9-26.4-4.9
	C282.9,489.9,282.4,488.4,282.4,487z M284.4,498.2c1,0,2-0.5,2.9-0.5c0.5,2.9,1,5.4,1.5,8.3c7.3-1.5,14.7-2.9,22-4.4
	c0,1,0.5,2,0.5,3.4c-7.3,2-14.7,3.4-22,4.9c0.5,2.9,1.5,5.4,2,8.3c-1,0-2,0.5-2.4,0.5C287.3,511.9,285.9,505.1,284.4,498.2z
	 M316.6,530.5c-1.5-0.5-2-0.5-2.9-0.5c0.5-2,0.5-3.9,0-6.4c-1-3.4-2.9-4.9-5.4-3.9c-2.4,0.5-3.4,2.4-3.4,6.4c0,4.4-1.5,7.8-4.9,8.8
	c-3.9,1-7.8-1.5-9.3-6.8c-1-2.9-1-4.9-0.5-6.4c1,0,2,0,2.9,0.5c0,1-0.5,2.9,0.5,5.4c1,3.9,3.4,4.4,4.9,3.9c2.4-0.5,2.9-2.4,2.9-6.4
	c0.5-4.9,2-7.3,5.4-8.3c3.9-1,7.8,1,9.3,6.8C316.6,526.1,317.1,529,316.6,530.5z M523.3,476.7h-4.9v-23h4.9V476.7z M523.3,449.9
	h-4.9v-23h4.9V449.9z M587.4,469.6h-15.8v12.8h14.3v4.5h-14.3v17.3h-5.3v-38.4h21.1L587.4,469.6L587.4,469.6z M1289.2,276.9
	c-3.9-1.5-6.8-3.4-6.8-7.3s3.4-6.8,8.3-6.8c2.4,0,4.4,0.5,5.4,1l-1,2.4c-1-0.5-2.4-1-4.9-1c-3.4,0-4.9,2-4.9,3.9
	c0,2.4,1.5,3.4,4.9,4.9c4.4,1.5,6.3,3.9,6.3,7.3c0,3.9-2.9,7.3-8.8,7.3c-2.4,0-4.9-1-6.4-1.5l1.5-2.4c1.5,1,3.4,1.5,5.9,1.5
	c3.4,0,5.4-2,5.4-4.4S1292.6,277.9,1289.2,276.9z M1269.6,263.9c3.4,0,5.9,0.5,7.3,2c1.5,1,2,2.9,2,4.9c0,3.4-2,5.4-4.9,6.3
	c2,0.5,2.9,2.4,3.9,4.9c1,3.4,1.5,5.9,2,6.8h-3.4c-0.5-0.5-1-2.9-1.5-5.9c-1-3.4-2-4.9-4.9-4.9h-2.9v10.7h-3.4l-0.5-24.4
	C1264.8,263.9,1267.2,263.9,1269.6,263.9z M1254.4,263.9h3.4v24.9h-3.4V263.9z M1241.8,263.9l8.3,24.9h-3.4l-2.4-7.8h-8.8l-2.4,7.8
	h-3.4l8.3-24.9H1241.8z M1212.9,263.9h18.6v2.9h-7.3v22h-3.4v-22h-7.8v-2.9H1212.9z M1203.7,276.9c-3.9-1.5-6.8-3.4-6.8-7.3
	s3.4-6.8,8.3-6.8c2.4,0,4.4,0.5,5.4,1l-1,2.4c-1-0.5-2.4-1-4.9-1c-3.4,0-4.9,2-4.9,3.9c0,2.4,1.5,3.4,4.9,4.9
	c4.4,1.5,6.4,3.9,6.4,7.3c0,3.9-2.9,7.3-8.8,7.3c-2.4,0-4.9-1-6.4-1.5l1.5-2.4c1.5,1,3.4,1.5,5.9,1.5c3.4,0,5.4-2,5.4-4.4
	C1208.6,279.4,1207.1,277.9,1203.7,276.9z M1156.8,255.9h4.4v24.4h-4.4V255.9z M1033.7,254h4.4v18.6h-4.4V254z M1033.7,276h4.4v18.6
	h-4.4V276z M615.9,504.2h-21.8v-38.4h21.1v3.8h-15.8v12h15v4.5h-15v13.5h16.6v4.6H615.9z M643.8,504.2h-21.1v-38.4h4.5v33.9h16.6
	V504.2z M769.4,504.2c-3.8,0-7.5-1.5-9.8-2.3l2.3-3.8c2.3,1.5,5.3,2.3,9,2.3c5.3,0,8.3-3,8.3-6.8s-2.3-6-7.5-7.5
	c-6-2.3-10.5-5.3-10.5-11.3s5.3-10.5,12.8-10.5c3.8,0,6.8,0.8,8.3,1.5l-1.5,3.8c-1.5-0.8-3.8-1.5-7.5-1.5c-5.3,0-7.5,3-7.5,6
	c0,3.8,2.3,5.3,7.5,7.5c6.8,2.3,9.8,6,9.8,11.3C782.9,498.9,778.4,504.2,769.4,504.2z M832.6,504.2h-5.3v-38.4h5.3V504.2z
	 M983.1,465.9h5.3v33.9h16.6v4.5h-21.8v-38.4H983.1z M955.9,465.9h5.3v33.9h16.6v4.5h-21.8v-38.4H955.9z M944.7,504.2l-3.8-12h-13.5
	l-3.8,12h-5.3l12.8-38.4h6l12.8,38.4H944.7z M912.4,401.1h5.3l12,19.6c3,4.5,5.3,8.3,6.8,12.8c-0.8-5.3-0.8-9.8-0.8-15.8v-16.6h4.5
	v38.4h-5.3l-12-19.6c-3-4.5-5.3-9-7.5-12.8c0,4.5,0,9.8,0,15.8v16.6h-3V401.1z M907.9,465.9h4.5v38.4h-4.5v-18.1h-18.8v18.1h-5.3
	v-38.4h5.3v15.8h18.8V465.9z M888.3,400.4c10.5,0,17.3,8.3,17.3,19.6c0,13.5-7.5,20.3-18.1,20.3c-10.5,0-17.3-7.5-17.3-19.6
	S877.8,400.4,888.3,400.4z M853.7,421.5c-6-2.3-10.5-5.3-10.5-11.3s5.3-10.5,12.8-10.5c3.8,0,6.8,0.8,8.3,1.5l-1.5,3.8
	c-1.5-0.8-3.8-1.5-7.5-1.5c-5.3,0-7.5,3-7.5,6c0,3.8,2.3,5.3,7.5,7.5c6.8,2.3,9.8,6,9.8,11.3c0,6-4.5,11.3-13.5,11.3
	c-3.8,0-7.5-1.5-9.8-2.3l2.3-3.8c2.3,1.5,5.3,2.3,9,2.3c5.3,0,8.3-3,8.3-6.8C861.2,425.2,858.9,423,853.7,421.5z M841.7,465.9
	c2.3-0.8,5.3-0.8,9.8-0.8c5.3,0,8.3,1.5,10.5,3c2.3,1.5,3.8,4.5,3.8,8.3s-0.8,6-3,8.3c-3,3-6.8,4.5-12,4.5c-1.5,0-3,0-3.8,0V505
	h-5.3V465.9z M817.6,401.1h5.3v34.6h16.6v3.8h-21.8v-38.4H817.6z M813.8,465.9h5.3v38.4h-5.3v-18.1h-18.1v18.1h-5.3v-38.4h5.3v15.8
	h18.1V465.9z M804.1,401.1h5.3v38.4h-5.3V401.1z M757.4,401.1l4.5,19.6c0.8,4.5,2.3,9.8,3,13.5c0.8-3.8,1.5-8.3,3-13.5l5.3-19.6h5.3
	l4.5,19.6c0.8,4.5,2.3,9,3,13.5c0.8-4.5,1.5-8.3,3-13.5l5.3-19.6h5.3l-11.3,38.4h-5.3l-4.5-20.3c-1.5-5.3-2.3-9-2.3-12.8
	c-0.8,3.8-1.5,7.5-3,12.8l-5.3,20.3h-6l-9.8-38.4H757.4z M717.4,401.1h21.1v4.5h-15.8v12h14.3v3.8h-14.3v14.3h16.6v3.8h-21.8v-38.4
	H717.4z M719.8,485.4c0.8,4.5,2.3,9.8,3,13.5c0.8-3.8,1.5-8.3,3-13.5l5.3-19.6h5.3l4.5,19.6c0.8,4.5,2.3,9,3,13.5
	c0.8-4.5,1.5-8.3,3-13.5l5.3-19.6h5.3l-11.3,38.4h-4.5l-4.5-20.3c-1.5-5.3-2.3-9-2.3-12.8c-0.8,3.8-1.5,7.5-3,12.8l-5.3,20.3h-6.8
	l-9.8-38.4h5.3L719.8,485.4z M686.7,401.1h5.3v18.8c0.8-1.5,2.3-3,3-3.8l12-14.3h6l-14.3,16.6l15,21.8h-6l-12.8-18.8l-3.8,4.5v15
	h-5.3L686.7,401.1z M672.4,401.1h5.3v38.4h-5.3V401.1z M689.7,465.1c10.5,0,17.3,8.3,17.3,19.6c0,12.8-8.3,20.3-18.1,20.3
	c-10.5,0-17.3-7.5-17.3-19.6C671.6,473.4,679.2,465.1,689.7,465.1z M670.9,504.2h-21.8v-38.4h5.3v33.9H671v4.5H670.9z M642.9,420.7
	c1.5,4.5,3,9,3.8,12.8c0.8-3.8,2.3-8.3,3.8-12.8l6.8-18.8h6l2.3,38.4h-5.3l-0.8-17.3c0-5.3-0.8-12-0.8-16.6c-1.5,4.5-3,9-4.5,14.3
	l-6.8,18.8h-3.8l-6-18.1c-1.5-5.3-3-10.5-4.5-15c0,4.5-0.8,11.3-0.8,17.3l-0.8,16.6h-4.5l3-38.4h6L642.9,420.7z"/>
<path class="st2" d="M689.7,500.5c7.5,0,12-7.5,12-15.8c0-7.5-3.8-15.8-12-15.8s-12,7.5-12,15.8
	C676.9,492.9,681.4,500.5,689.7,500.5z"/>
<path class="st2" d="M934.2,470.4c-0.8,2.3-1.5,4.5-2.3,6.8l-3.8,11.3h12l-3.8-11.3C935.7,474.9,934.9,472.6,934.2,470.4z"/>
<path class="st2" d="M1291.6,441.6c2.9,0,4.9-2.4,4.9-5.9c0-3.4-2-5.4-4.9-5.4c-2,0-3.9,1-4.9,2.9c0,0.5-0.5,1-0.5,1.5
	C1286.2,438.6,1288.2,441.6,1291.6,441.6z"/>
<path class="st2" d="M17.2,257.9h23h2.9v-86h-82.1v86H17.2z M17.2,219.9h-2v-2.4h2c2.4,0,5.4-1.5,5.4-3.9c0-2-1-3.4-4.4-3.4
	c-2,0-3.9,1-4.9,1.5l-1-2.4c1.5-1,3.9-2,6.4-2c4.9,0,6.8,2.9,6.8,5.9c0,2.4-1.5,4.9-4.4,5.9c2.9,0.5,5.4,2.9,5.4,6.4
	c0,3.9-2.9,7.3-8.8,7.3c-2.9,0-4.9-1-6.4-1.5l1.5-2.9c1,0.5,2.9,1.5,5.4,1.5c4.4,0,5.4-2.4,5.4-4.9
	C23.6,221.4,20.6,219.9,17.2,219.9z M-6.7,230l2.4-2.4c6.4-5.9,8.8-8.8,8.8-12.7c0-2.4-1-4.9-4.9-4.9c-2.4,0-3.9,1-4.9,2l-1-2.4
	c1.5-1.5,3.9-2.4,6.8-2.4c5.4,0,7.3,3.4,7.3,6.8c0,4.4-3.4,7.8-8.3,13.2l-2,2H8.2v2.9H-6.9V230H-6.7z M-15.6,208.1V232h-3.4v-21
	l-3.9,2l-1-2.4l5.4-2.4h2.9V208.1z"/>
<polygon class="st2" points="1108.9,644.9 1138.7,644.9 1165.1,644.9 1187.6,644.9 1213.9,644.9 1219.8,644.9 1219.8,636.9 
	1219.8,614 1219.8,578.4 1214.9,578.4 1188.6,578.4 1159.7,578.4 1159.7,577.9 1096.2,577.9 1096.2,578.4 1069.9,578.4 
	1069.9,577.9 1029.8,577.9 1029.8,592.5 987.8,592.5 987.8,593 988.3,593 988.3,615.9 987.8,615.9 987.8,620.4 988.3,620.4 
	988.3,643.4 987.8,643.4 987.8,644.4 1071.8,644.4 1071.8,644.9 1082.6,644.9 "/>
<polygon class="st2" points="61.2,257.9 84.1,257.9 100.2,257.9 100.2,171.9 47.4,171.9 47.4,257.9 "/>
<path class="st2" d="M1096.2,573.9h60.6V469.4v-23V288.7h-63v13.7h-22v0.5h-26.4v-0.5h-15.6v144.1v23V574h40.1h26.3V573.9z
	 M1107.4,499.2l-25.9-0.5v-3.4h12.2c-1-0.5-2-1.5-2.4-2l-9.3-7.8v-3.9l10.7,9.3l14.2-9.8v3.9l-12.2,8.3l2.9,2.4h9.8L1107.4,499.2
	L1107.4,499.2z M1106.9,461.6v3.4h-22.5v7.8h-2.9v-18.6h2.9v7.3h22.5V461.6z M1106.4,475.4v3.4h-24.9v-3.4H1106.4z M1082.1,384.9
	l12.7-7.8c2.9-2,5.4-3.4,8.3-4.4c-3.4,0.5-6.4,0.5-10.3,0.5h-10.3v-2.9h24.9v3.4l-12.7,7.8c-2.9,2-5.9,3.4-8.3,4.9
	c2.9,0,6.4,0,10.3,0h10.7l-0.5,2H1082L1082.1,384.9L1082.1,384.9z M1081.6,393.2h2.9v10.3h7.8v-9.8h2.9v9.8h8.8v-10.8h2.9v13.7
	h-25.4v-13.2H1081.6z M1081.6,427.4h10.7v-11.7h-10.7v-3.4h25.4v3.4h-11.7v11.7h11.7v3.4h-25.4V427.4z M1082.1,434.7l2.4,1
	c-0.5,1-1,2.9-1,4.9c0,5.9,3.9,9.8,10.3,9.8s10.3-3.4,10.3-9.8c0-2-0.5-3.9-1-5.4l2.9-0.5c0.5,1,1,3.4,1,6.8
	c0,6.8-4.4,12.2-12.7,12.2c-7.8,0-13.2-5.4-13.2-13.2C1081.1,437.6,1081.6,435.7,1082.1,434.7z"/>
<polygon class="st2" points="112.9,257.9 135.9,257.9 143.7,257.9 143.7,171.9 104.6,171.9 104.6,257.9 "/>
<path class="st2" d="M1108.9,649.2h-26.4h-10.7V762h47.9V649.2H1108.9z M1106.4,738.1l-10.7-24.9l-11.2,24.9h-5.4l11.7-38.1
	l-2.4-4.9l-5.4,15.6h-4.9c0,0,5.4-18.6,6.4-22.5c1-4.4,3.4-3.9,3.4-3.9h4.4v-1c-1.7-0.8-2.9-2.5-2.9-4.9c0-2.9,2.4-5.4,5.4-5.4
	s5.4,2.4,5.4,5.4c0,1.9-1,3.5-2.4,4.5v1.4h4.4c3.9,0,4.4,3.4,4.4,3.4l6.8,23h-4.9l-5.4-16.1l-2,5.4l11.7,38.1H1106.4z"/>
<path class="st2" d="M1219.8,649.2h-5.9h-26.4h-4.4v78.2h134.8v-78.2h-95.3H1219.8z M1205.2,701.9c-2.4,0-4.9-1-6.4-1.5l1.5-2.4
	c1.5,1,3.4,1.5,5.9,1.5c3.4,0,5.4-1.5,5.4-4.4c0-2.4-1.5-3.9-4.9-4.9c-3.9-1.5-6.8-3.4-6.8-7.3c0-3.9,3.4-6.8,8.3-6.8
	c2.4,0,4.4,0.5,5.4,1l-1,2.4c-1-0.5-2.4-1-4.9-1c-3.4,0-4.9,2-4.9,3.9c0,2.4,1.5,3.4,4.9,4.9c4.4,1.5,6.4,3.9,6.4,7.3
	C1213.9,698.5,1210.9,701.9,1205.2,701.9z M1292.1,690.2c-3.9-1.5-6.8-3.4-6.8-7.3c0-3.9,3.4-6.8,8.3-6.8c2.4,0,4.4,0.5,5.4,1
	l-1,2.4c-1-0.5-2.4-1-4.9-1c-3.4,0-4.9,2-4.9,3.9c0,2.4,1.5,3.4,4.9,4.9c4.4,1.5,6.4,3.9,6.4,7.3c0,3.9-2.9,7.3-8.8,7.3
	c-2.4,0-4.9-1-6.4-1.5l1.5-2.4c1.5,1,3.4,1.5,5.9,1.5c3.4,0,5.4-1.5,5.4-4.4C1296.9,692.6,1295.4,691.2,1292.1,690.2z M1272.6,676.5
	c3.4,0,5.9,0.5,7.3,2c1.5,1,2,2.9,2,4.9c0,3.4-2,5.4-4.9,6.4c2,0.5,2.9,2.4,3.9,4.9c1,3.4,1.5,5.9,2,6.8h-3.4
	c-0.5-0.5-1-2.9-1.5-5.9c-1-3.4-2-4.9-4.9-4.9h-2.9v10.7h-3.4l-0.5-24.4C1267.7,676.5,1270.1,676.5,1272.6,676.5z M1257.4,677h3.4
	v24.9h-3.4V677z M1245.2,677l8.3,24.9h-3.4l-2.4-7.8h-8.8l-2.4,7.8h-3.4l8.3-24.9H1245.2z M1234.9,679.4h-7.8v22.5h-3.4v-22.5h-7.3
	V677h18.6v2.4H1234.9z"/>
<path class="st2" d="M1244.7,684.4c-0.5-1.5-1-2.9-1.5-4.4c-0.5,1.5-1,2.9-1,4.4l-2.4,7.3h7.3L1244.7,684.4z"/>
<path class="st2" d="M1178.8,649.2h-13.7h-26.4h-14.7V762h54.7v-31.7l0,0v-81.1H1178.8z M1165.6,709.7l-5.9-17.6l-2,5.4l6.8,21.5
	h-6.8l-2.4,21.5h-5.9l-2-21.5h-6.8l6.8-22l-2-4.9l-5.9,17.1h-3.9c0,0,6.8-22.5,7.8-25.9s3.9-3.4,3.9-3.4h2.4v-1.5l0.9,0.1
	c-2.1-0.8-3.8-2.9-3.8-5.5c0-3.4,2.9-6.4,5.9-6.4c3.4,0,5.9,2.9,5.9,6.4c0,3-2.3,5.3-4.9,5.8l1,0.1v2h2c4.4-0.5,4.4,2.4,4.4,2.4
	l8.3,26.4L1165.6,709.7L1165.6,709.7z"/>
<path class="st2" d="M1278.9,683.9c0-3.4-2.4-4.4-5.9-4.4c-1.5,0-2.4,0-3.4,0.5v8.8h3.4C1276.4,688.7,1278.9,686.9,1278.9,683.9z"/>
<polygon class="st2" points="1224.2,562.2 1224.2,614 1224.2,636.9 1224.2,644.9 1317.9,644.9 1317.9,540.2 1246.2,540.2 "/>
<polygon class="st2" points="399.7,217.4 407.9,217.4 407.9,171.9 369.4,171.9 369.4,217.4 376.7,217.4 "/>
<polygon class="st2" points="523.3,389.9 629.3,389.9 629.3,357.5 629.3,331.2 629.3,250.1 523.3,250.1 "/>
<path class="st2" d="M312.7,217.4h43h8.8v-44.9h-58.6v44.9H312.7z M325.4,180.2h16.1v3.4h-12.2v8.8h11.2v3.4h-11.2v10.3H342v3.4
	h-16.6V180.2z"/>
<path class="st2" d="M253.1,195.9c0-3.4-2.4-4.4-5.9-4.4c-1.5,0-2.4,0-3.4,0.5v8.8h3.4C250.7,200.7,253.1,198.8,253.1,195.9z"/>
<path class="st2" d="M477.8,216.9c2.9,0,4.9-2.4,4.9-5.9c0-3.4-2-5.4-4.9-5.4c-2,0-3.9,1-4.9,2.9c0,0.5-0.5,1-0.5,1.5
	C472.4,213.9,474.4,216.9,477.8,216.9z"/>
<path class="st2" d="M218.9,195.9c-0.5-1.5-1-2.9-1.5-4.4c-0.5,1.5-1,2.9-1.5,4.4l-2.4,7.3h7.8L218.9,195.9z"/>
<path class="st2" d="M271.2,231.5h23h4.9V172h-149v59.6H271.2z M266.8,202.2c-3.9-1.5-6.8-3.4-6.8-7.3s3.4-6.8,8.3-6.8
	c2.4,0,4.4,0.5,5.4,1l-1,2.4c-1-0.5-2.4-1-4.9-1c-3.4,0-4.9,2-4.9,3.9c0,2.4,1.5,3.4,4.9,4.9c4.4,1.5,6.4,3.9,6.4,7.3
	c0,3.9-2.9,7.3-8.8,7.3c-2.4,0-4.9-1-6.4-1.5l1.5-2.4c1.5,1,3.4,1.5,5.9,1.5c3.4,0,5.4-2,5.4-4.4S270.2,203.2,266.8,202.2z
	 M247.3,188.5c3.4,0,5.9,0.5,7.3,2c1.5,1,2,2.9,2,4.9c0,3.4-2,5.4-4.9,6.4c2,0.5,2.9,2.4,3.9,4.9c1,3.4,1.5,5.9,2,6.8h-3.4
	c-0.5-0.5-1-2.9-1.5-5.9c-0.5-3.4-2-4.9-4.9-4.9h-2.9v10.7h-3.4l-0.5-24.4C242.4,188.5,244.8,188.5,247.3,188.5z M231.6,189h3.4
	v24.9h-3.4V189z M219.4,189l8.3,24.9h-3.4l-2.4-7.8h-8.8l-2.4,7.8h-3.4l8.3-24.9L219.4,189L219.4,189z M190.6,189h18.6v2.4h-7.8V214
	h-2.9v-22.5h-7.8V189H190.6z M182.8,188c2.4,0,4.4,0.5,5.4,1l-1,2.4c-1-0.5-2.4-1-4.9-1c-3.4,0-4.9,2-4.9,3.9c0,2.4,1.5,3.4,4.9,4.9
	c4.4,1.5,6.4,3.9,6.4,7.3c0,3.9-2.9,7.3-8.8,7.3c-2.4,0-4.9-1-6.4-1.5l1.5-2.4c1.5,1,3.4,1.5,5.9,1.5c3.4,0,5.4-2,5.4-4.4
	s-1.5-3.9-4.9-4.9c-3.9-1.5-6.8-3.4-6.8-7.3C174.4,191,177.9,188,182.8,188z"/>
<path class="st2" d="M458.8,216.9c3.4,0,4.9-3.9,4.9-10.3c0-5.9-1.5-9.8-4.9-9.8c-2.9,0-4.9,3.9-4.9,9.8
	C453.4,213.4,455.4,216.9,458.8,216.9z"/>
<path class="st2" d="M509.1,239.4h-21.5l0,0h-23l0,0h-4.4l0,0h-23l0,0h-24.9v23h0.5v23h-0.5v3.9h0.5v23h-0.5v77.7h0.5v0.5h105.5
	V250.2H509L509.1,239.4L509.1,239.4z M441.7,324.9h-2.9v-21l-4.4,2l-0.5-2.4l5.4-2.4h2.4V324.9z M458.3,325.4
	c-4.9,0-7.8-4.4-7.8-12.2c0-8.3,3.4-12.7,8.3-12.7s7.8,4.4,7.8,12.2C466.6,320.9,463.7,325.4,458.3,325.4z M475.9,309.7
	c2,0,3.9,0.5,5.4,1.5c2,1,3.4,2.9,3.4,6.4c0,4.9-3.9,8.3-8.8,8.3c-2.4,0-4.9-1-5.9-1.5l1-2.4c1,0.5,2.9,1.5,5.4,1.5
	c2.9,0,5.9-2,5.9-5.4s-2-5.4-6.8-5.4c-1.5,0-2.4,0-3.4,0.5l1.5-11.7h11.7l-1,2H475l-1,6.4C474.4,309.7,474.9,309.7,475.9,309.7z"/>
<path class="st2" d="M412.4,221.7v11.7h24.9h23h4.4h23h21.5v-61.5h-96.2v49.8H412.4z M473.4,198.3c2-2,4.9-3.4,7.8-3.4
	c1,0,2,0,2.4,0v2.4c-0.5,0-1.5,0-2.4,0c-5.4,1-7.8,4.4-8.3,8.8c1-1.5,3.4-2.9,5.9-2.9c4.4,0,7.3,2.9,7.3,7.8c0,4.4-2.9,8.3-8.3,8.3
	c-4.9,0-8.3-3.9-8.3-10.3C469.4,204.2,470.9,200.7,473.4,198.3z M458.8,194.9c4.9,0,7.8,4.4,7.8,12.2c0,7.8-2.9,12.7-8.3,12.7
	c-4.9,0-7.8-4.4-7.8-12.2C450.4,199.3,453.9,194.9,458.8,194.9z M439.2,194.9h2.4v24.4h-2.9v-21l-4.4,2l-0.5-2.4L439.2,194.9z"/>
<path class="st2" d="M458.8,302.9c-2.9,0-4.9,3.9-4.9,9.8c-0.5,6.3,1.5,10.3,4.9,10.3s4.9-3.9,4.9-10.3
	C463.7,306.7,462.2,302.9,458.8,302.9z"/>
<polygon class="st2" points="178.4,257.9 256.6,257.9 256.6,236.4 148.1,236.4 148.1,257.9 155.4,257.9 "/>
<path class="st3" d="M485.2,837.7L485.2,837.7h-12.7l0,0h-43l0,0h-71.8v12.7h-53.2v-95.3h-9.8h-0.5h-22.5h-0.5h-8.3v96.7
	c0,0-52.3-1.5-99.6-1.5c-34.2,0-65.9,1-74.7,2.9c-149.5,21.5-196.9,144.6-196.9,144.6h-217.4v1.5v28.3H-163v142.6l25.4-5.9v-138.2
	H-79C-30.6,910.9,92.5,887.5,92.5,887.5h212h71.3l1,61.1h202.7V837.7h-51.3l0,0H485.2z M476.4,940.4h-21.5l10.7-19.1l10.7-18.6
	l10.7,18.6l10.7,19.1H476.4z"/>
<path class="st2" d="M655.1,780.1c-3.4-1.5-4.9-2.4-4.9-4.9c0-2,1.5-3.9,4.9-3.9c2.4,0,3.9,0.5,4.9,1l1-2.4c-1-0.5-2.9-1-5.4-1
	c-4.9,0-8.3,2.9-8.3,6.8c0,3.9,2.9,5.9,6.8,7.3c3.4,1,4.9,2.4,4.9,4.9c0,2.9-2,4.4-5.4,4.4c-2.4,0-4.4-0.5-5.9-1.5l-1.5,2.4
	c1.5,0.5,3.9,1.5,6.4,1.5c5.9,0,8.8-3.4,8.8-7.3C661.4,784,659.4,781.5,655.1,780.1z"/>
<rect x="666.4" y="769.9" class="st2" width="3.4" height="24.9"/>
<path class="st2" d="M692.3,772.2c-2.4-2-5.9-2.9-10.3-2.9c-2.4,0-4.9,0-6.8,0.5v23.9c1.5,0.5,3.4,0.5,5.9,0.5c4.9,0,8.8-1,11.2-3.4
	c2-2.4,3.4-5.9,3.4-9.8C695.7,777.1,694.7,774.2,692.3,772.2z M681.9,792.4c-1.5,0-2.4,0-3.4,0l0,0v-20c1-0.5,2.4-0.5,3.9-0.5
	c6.8,0,10.3,3.9,10.3,9.8C692.8,788.4,688.9,792.4,681.9,792.4z"/>
<polygon class="st2" points="703.4,783 712.8,783 712.8,780.1 703.4,780.1 703.4,772.2 713.8,772.2 713.8,769.9 700.1,769.9 
	700.1,794.7 714.3,794.7 714.3,791.9 703.4,791.9 "/>
<path class="st2" d="M743.6,769.9l-3.4,12.7c-1,3.4-1.5,5.9-2,8.8c-0.5-2.9-1.5-5.9-2-8.8l-2.9-12.7h-3.4l-3.4,12.7
	c-1,3.4-1.5,6.4-2,8.8c-0.5-2.4-1.5-5.9-2-8.8l-2.9-12.7h-3.4l6.4,24.9h3.9l3.4-13.2c1-3.4,1.5-5.9,2-8.3c0,2.4,0.5,4.9,1.5,8.3
	l2.9,13.2h3.4l7.3-24.9H743.6z"/>
<path class="st2" d="M754.3,769.9l-8.3,24.9h3.4l2.4-7.8h8.8l2.4,7.8h3.4l-8.3-24.9H754.3z M752.8,784.5l2.4-7.3
	c0-1.5,0.5-2.9,1-4.4c0.5,1.5,1,2.9,1.5,4.4l2.4,7.3H752.8z"/>
<polygon class="st2" points="773.8,769.9 770.4,769.9 770.4,794.7 784.6,794.7 784.6,791.9 773.8,791.9 "/>
<path class="st2" d="M805.1,770.4h-3.9l-7.8,9.3c-0.5,0.5-1.5,1.5-2,2.4v-12.2H788l-0.5,25.9h3.4v-9.8l2.4-2.9l8.3,12.2h3.9
	l-9.8-14.2L805.1,770.4z"/>
<path class="st2" d="M1288.7,845.5c-3.4-1.5-4.9-2.4-4.9-4.9c0-2,1.5-3.9,4.9-3.9c2.4,0,3.9,0.5,4.9,1l1-2.4c-1-1-2.9-1.5-5.4-1.5
	c-4.9,0-8.3,2.9-8.3,6.8c0,3.9,2.9,5.9,6.8,7.3c3.4,1,4.9,2.4,4.9,4.9s-2,4.4-5.4,4.4c-2.4,0-4.4-0.5-5.9-1.5l-1.5,2.9
	c1.5,0.5,3.9,1.5,6.4,1.5c5.9,0,8.8-3.4,8.8-7.3C1294.9,849.4,1293.1,847,1288.7,845.5z"/>
<rect x="1299.9" y="834.9" class="st2" width="3.4" height="24.9"/>
<path class="st2" d="M1325.8,837.2c-2.4-2-5.4-2.9-10.3-2.9c-2.4,0-4.9,0-6.8,0.5v23.9c1.5,0.5,3.4,0.5,5.9,0.5
	c4.9,0,8.8-1,11.2-3.4c2-2.4,3.4-5.9,3.4-9.8C1329.2,842.1,1328.3,839.2,1325.8,837.2z M1315.6,857.2c-1.5,0-2.4,0-3.4,0l0,0l0,0
	v-20c1-0.5,2.4-0.5,3.9-0.5c6.8,0,10.3,3.9,10.3,9.8C1326.3,853.4,1322.4,857.2,1315.6,857.2z"/>
<polygon class="st2" points="1336.6,848 1346.3,848 1346.3,845 1336.6,845 1336.6,837.2 1346.8,837.2 1346.8,834.9 1333.6,834.9 
	1333.6,859.7 1347.3,859.7 1347.3,856.7 1336.6,856.7 "/>
<path class="st2" d="M1377.1,834.9l-3.4,12.7c-1,3.4-1.5,5.9-2,8.8c-0.5-2.9-1.5-5.9-2-8.8l-2.9-12.7h-3.4l-3.4,12.7
	c-1,3.4-1.5,6.4-2,8.8c-0.5-2.4-1-5.9-2-8.8l-2.9-12.7h-3.4l6.3,24.9h3.9l3.4-13.2c1-3.4,1.5-5.9,2-8.3c0,2.4,0.5,4.9,1.5,8.3
	l2.9,13.2h3.4l7.3-24.9H1377.1z"/>
<path class="st2" d="M1387.8,834.9l-8.3,24.9h3.4l2.4-7.8h8.8l2.4,7.8h3.4l-8.3-24.9H1387.8z M1385.9,849.4l2.4-7.3
	c0.5-1.5,1-2.9,1.5-4.4c0.5,1.5,1,2.9,1.5,4.4l2.4,7.3H1385.9z"/>
<polygon class="st2" points="1407.4,834.9 1403.9,834.9 1403.9,859.7 1418.1,859.7 1418.1,856.7 1407.4,856.7 "/>
<path class="st2" d="M1438.6,835.4h-3.9l-7.8,9.3c-0.5,0.5-1.5,1.5-2,2.4v-12.2h-3.4l-0.5,25.9h3.4v-9.8l2.4-2.9l8.3,12.2h3.9
	l-9.8-14.2L1438.6,835.4z"/>
<polygon points="590.7,745.9 590.7,741.5 587.9,741.5 587.9,745.9 "/>
<rect x="369.4" y="741.5" width="0" height="4.4"/>
<polygon points="528.1,745.9 587.9,745.9 587.9,741.5 528.1,741.5 "/>
<rect x="472.4" y="741.5" width="12.7" height="4.4"/>
<polygon points="429.4,741.5 369.4,741.5 369.4,741.5 369.4,741.5 369.4,745.9 429.4,745.9 "/>
<polygon points="364.4,741.5 303.9,741.5 303.9,744.4 303.9,746.4 369.4,746.4 369.4,745.9 364.4,745.9 "/>
<polygon points="355.7,692.1 355.7,696.5 364.9,696.5 364.9,741.5 369.4,741.5 369.4,692.1 "/>
<rect x="303.9" y="694.1" width="2" height="2.4"/>
<polygon points="305.9,694.1 305.9,696.5 312.7,696.5 312.7,692.1 303.9,692.1 303.9,694.1 "/>
<polygon points="305.9,741.5 305.9,696.5 303.9,696.5 303.9,741.5 364.4,741.5 364.4,741.5 "/>
<rect x="364.4" y="741.5" width="4.9" height="4.4"/>
<polygon points="364.4,741.5 364.4,741.5 369.4,741.5 369.4,741.5 364.9,741.5 "/>
<polygon points="368.9,171.9 369.4,171.9 369.4,171.9 "/>
<rect x="303.9" y="170" width="2" height="2"/>
<polygon points="305.9,170 305.9,171.9 364.4,171.9 364.4,170 364.4,167.5 303.9,167.5 303.9,170 "/>
<polygon points="305.9,217.4 305.9,172.4 303.9,172.4 303.9,221.7 312.7,221.7 312.7,217.4 "/>
<rect x="355.7" y="217.4" width="8.8" height="4.4"/>
<rect x="305.9" y="171.9" width="58.6" height="0.5"/>
<rect x="368.9" y="171.9" width="0.5" height="45.4"/>
<rect x="303.9" y="171.9" width="2" height="0.5"/>
<polygon points="412.4,171.9 412.9,171.9 412.9,171.9 "/>
<polygon points="407.9,171.9 407.9,170 407.9,167.5 369.4,167.5 369.4,171.9 "/>
<rect x="412.4" y="171.9" width="0.5" height="49.8"/>
<rect x="369.4" y="217.4" width="7.3" height="4.4"/>
<rect x="364.4" y="172.4" width="0.5" height="44.9"/>
<rect x="399.7" y="217.4" width="8.3" height="4.4"/>
<polygon points="368.9,171.9 366.9,171.9 366.9,170 364.4,170 364.4,171.9 "/>
<polygon points="366.9,170 368.9,170 368.9,171.9 369.4,171.9 369.4,167.5 364.4,167.5 364.4,170 "/>
<rect x="366.9" y="170" width="2" height="2"/>
<polygon points="364.9,172.4 364.9,217.4 364.4,217.4 364.4,221.7 369.4,221.7 369.4,217.4 368.9,217.4 368.9,171.9 364.4,171.9 
	364.4,172.4 "/>
<polygon points="407.9,171.9 408.4,171.9 408.4,171.9 "/>
<rect x="515.4" y="167.5" width="0" height="65.9"/>
<polygon points="510.9,171.9 510.9,233.5 513.4,233.5 513.4,167.5 412.9,167.5 412.9,171.9 "/>
<rect x="509.1" y="238.4" width="4.4" height="1"/>
<rect x="407.9" y="221.7" width="4.4" height="11.7"/>
<rect x="487.6" y="238.4" width="21.5" height="1"/>
<rect x="412.4" y="238.4" width="24.9" height="1"/>
<rect x="460.2" y="238.4" width="4.4" height="1"/>
<rect x="407.9" y="171.9" width="0.5" height="45.4"/>
<polygon points="409.9,170 412.4,170 412.4,171.9 412.9,171.9 412.9,167.5 407.9,167.5 407.9,170 "/>
<polygon points="408.4,171.9 412.4,171.9 412.4,171.9 409.9,171.9 409.9,170 407.9,170 407.9,171.9 "/>
<rect x="409.9" y="170" width="2.4" height="2"/>
<polygon points="412.4,171.9 408.4,171.9 408.4,217.4 407.9,217.4 407.9,221.7 412.4,221.7 "/>
<rect x="515.4" y="233.5" width="2.4" height="0.5"/>
<rect x="509.1" y="233.5" width="2" height="1.5"/>
<polygon points="518.4,250.1 518.9,250.1 518.9,245.7 518.9,242.4 518.9,241.9 518.9,241.4 518.9,240.9 518.4,240.9 518.4,245.7 "/>
<rect x="407.9" y="312.1" width="4.4" height="77.7"/>
<polygon points="518.4,250.1 518.4,390.4 412.9,390.4 412.9,394.7 518.9,394.7 518.9,250.1 "/>
<rect x="407.9" y="285.2" width="4.4" height="3.9"/>
<rect x="460.2" y="233.5" width="4.4" height="1.5"/>
<rect x="407.9" y="239.4" width="4.4" height="23"/>
<rect x="487.6" y="233.5" width="21.5" height="1.5"/>
<rect x="412.4" y="233.5" width="24.9" height="1.5"/>
<polygon points="509.1,234.9 509.1,238.4 513.4,238.4 513.4,238.4 513.4,238.4 513.4,234 515.4,234 515.4,233.5 515.4,233.5 
	513.4,233.5 510.9,233.5 510.9,234.9 "/>
<polygon points="412.4,235.9 412.4,238.4 437.3,238.4 460.2,238.4 464.6,238.4 487.6,238.4 509.1,238.4 509.1,234.9 487.6,234.9 
	487.6,237.9 464.6,237.9 464.6,234.9 460.2,234.9 460.2,237.9 437.3,237.9 437.3,234.9 412.4,234.9 412.4,233.5 407.9,233.5 
	407.9,235.9 409.9,235.9 "/>
<polygon points="412.4,238.4 409.9,238.4 409.9,235.9 407.9,235.9 407.9,239.4 412.4,239.4 "/>
<rect x="409.9" y="235.9" width="2.4" height="2.4"/>
<rect x="629.3" y="245.7" width="4.4" height="4.4"/>
<rect x="629.3" y="250.1" width="4.4" height="81.1"/>
<polygon points="629.3,389.9 523.3,389.9 523.3,394.7 633.7,394.7 633.7,357.5 629.3,357.5 "/>
<rect x="518.9" y="245.7" width="4.4" height="4.4"/>
<polygon points="523.3,250.1 518.9,250.1 518.9,394.7 523.3,394.7 523.3,389.9 "/>
<polygon points="629.3,644.9 588.2,644.9 588.2,649.2 633.7,649.2 633.7,644.4 629.3,644.4 "/>
<rect x="522.3" y="520.2" width="0.5" height="2"/>
<polygon points="522.8,520.2 522.8,522.2 563.8,522.2 563.8,518.2 522.3,518.2 522.3,520.2 "/>
<rect x="586.8" y="518.2" width="4.4" height="3.9"/>
<polygon points="614.1,518.2 614.1,522.2 629.3,522.2 629.3,644.4 633.7,644.4 633.7,518.2 "/>
<rect x="522.3" y="522.2" width="0.5" height="122.1"/>
<rect x="517.4" y="644.4" width="0.5" height="2.4"/>
<polygon points="412.9,523.1 517.4,523.1 517.4,644.4 517.9,644.4 518.9,644.4 518.9,520.2 518.9,518.2 412.9,518.2 412.9,519.2 
	408.4,519.2 408.4,518.2 407.9,518.2 407.9,531.9 412.9,531.9 "/>
<polygon points="517.4,646.7 517.4,644.4 505.2,644.4 505.2,649.2 517.9,649.2 517.9,646.7 "/>
<rect x="520.8" y="520.2" width="1.5" height="2"/>
<polygon points="520.8,522.2 520.8,520.2 518.9,520.2 518.9,644.4 519.8,644.4 522.3,644.4 522.3,522.2 "/>
<polygon points="520.8,520.2 522.3,520.2 522.3,518.2 518.9,518.2 518.9,520.2 "/>
<polygon points="271.2,746.4 271.2,742 150.1,742 150.1,741.5 145.2,741.5 145.2,746.9 271.2,746.9 "/>
<polygon points="300.9,744.4 299.1,744.4 299.1,742 294.2,742 294.2,746.4 294.2,746.4 294.2,746.9 303.9,746.9 303.9,746.4 
	300.9,746.4 "/>
<rect x="299.1" y="742" width="2" height="2.4"/>
<rect x="299.1" y="741.5" width="2" height="0.5"/>
<polygon points="299.1,678.5 299.1,741.5 300.9,741.5 300.9,694.1 300.9,692.1 303.9,692.1 303.9,674.1 294.2,674.1 294.2,678.5 "/>
<polygon points="150.1,678.5 271.2,678.5 271.2,674.1 268.3,674.1 268.3,675.5 268.3,678 145.2,678 145.2,741.5 150.1,741.5 "/>
<polygon points="301.4,744.4 300.9,744.4 300.9,746.4 303.9,746.4 303.9,744.4 "/>
<rect x="300.9" y="742" width="0.5" height="2.4"/>
<polygon points="300.9,742 301.4,742 301.4,744.4 303.9,744.4 303.9,741.5 300.9,741.5 "/>
<polygon points="300.9,694.1 303.4,694.1 303.9,694.1 303.9,692.1 300.9,692.1 "/>
<rect x="303.4" y="694.1" width="0.5" height="2.4"/>
<polygon points="303.4,696.5 303.4,694.1 300.9,694.1 300.9,741.5 303.9,741.5 303.9,696.5 "/>
<polygon points="148.1,171.9 150.1,171.9 150.1,168 299.1,168 299.1,171.9 300.9,171.9 300.9,170 300.9,167.5 303.9,167.5 
	303.9,163.6 145.2,163.6 145.2,165.1 148.1,165.1 "/>
<rect x="299.1" y="231.5" width="2.4" height="2.4"/>
<polygon points="256.6,234.9 261.4,234.9 261.4,236.4 303.9,236.4 303.9,234 301.4,234 299.1,234 299.1,231.5 294.2,231.5 
	294.2,235.9 271.2,235.9 271.2,231.5 150.1,231.5 150.1,171.9 148.1,171.9 148.1,236.4 256.6,236.4 "/>
<polygon points="301.4,231.5 301.4,234 303.9,234 303.9,221.7 300.9,221.7 300.9,171.9 299.1,171.9 299.1,231.5 "/>
<rect x="303.4" y="170" width="0.5" height="2"/>
<rect x="300.9" y="170" width="2.4" height="2"/>
<polygon points="300.9,170 303.4,170 303.9,170 303.9,167.5 300.9,167.5 "/>
<polygon points="303.9,221.7 303.9,172.4 303.4,172.4 303.4,171.9 300.9,171.9 300.9,221.7 "/>
<rect x="303.4" y="171.9" width="0.5" height="0.5"/>
<polygon points="178.4,646.2 178.4,650.6 263.9,650.6 263.9,673.1 265.8,673.1 265.8,674.1 268.3,674.1 268.3,646.2 "/>
<polygon points="263.9,673.1 150.1,673.1 150.1,650.6 155.4,650.6 155.4,646.2 146.2,646.2 146.2,650.6 145.2,650.6 145.2,674.1 
	263.9,674.1 "/>
<rect x="263.9" y="673.1" width="2" height="1"/>
<polygon points="263.9,675.5 263.9,674.1 145.2,674.1 145.2,678 268.3,678 268.3,675.5 265.8,675.5 "/>
<rect x="263.9" y="674.1" width="2" height="1.5"/>
<rect x="265.8" y="674.1" width="2.4" height="1.5"/>
<rect x="-2.8" y="741.5" width="12.2" height="4.9"/>
<polygon points="-70.7,741.5 -70.7,650.6 -13.1,650.6 -13.1,646.2 -70.2,646.2 -70.2,649.2 -75.1,649.2 -75.1,746.4 -2.8,746.4 
	-2.8,741.5 9.4,741.5 9.4,741.5 "/>
<polygon points="9.9,646.2 9.9,650.6 13.8,650.6 13.8,648.2 18.2,648.2 18.2,650.6 20.1,650.6 20.1,646.2 "/>
<polygon points="43.1,646.2 43.1,650.6 101.2,650.6 101.2,648.7 105.6,648.7 105.6,650.6 113.9,650.6 113.9,646.2 "/>
<rect x="136.9" y="646.2" width="8.3" height="4.4"/>
<rect x="145.2" y="646.2" width="1" height="4.4"/>
<rect x="13.8" y="741.5" width="4.4" height="4.9"/>
<rect x="13.8" y="650.6" width="4.4" height="90.9"/>
<rect x="13.8" y="648.2" width="4.4" height="2.4"/>
<rect x="101.2" y="741.5" width="4.4" height="8.3"/>
<rect x="101.2" y="650.6" width="4.4" height="90.9"/>
<rect x="101.2" y="648.7" width="4.4" height="2"/>
<polygon points="-83.4,321.9 31.4,321.9 54.8,345.4 120.8,345.4 145.7,320.4 145.7,442.5 150.1,442.5 150.1,468.9 145.7,468.9 
	145.7,594.9 120.3,569.5 114.9,569.5 114.9,573.9 118.3,573.9 150.6,606.2 150.6,602.7 148.1,602.7 148.1,598.4 150.6,598.4 
	150.6,499.2 146.7,499.2 146.7,494.4 150.6,494.4 150.6,419.1 147.6,419.1 147.6,414.7 150.6,414.7 150.6,314.1 150.1,314.1 
	150.1,309.7 150.6,309.7 150.6,309.2 118.8,340.4 114.9,340.4 114.9,344.9 91.9,344.9 91.9,340.4 87.9,340.4 87.9,344.9 65.1,344.9 
	65.1,340.4 56.8,340.4 33.3,317.5 2.1,317.5 2.1,318.9 -2.3,318.9 -2.3,317.5 -85.4,317.5 -140.1,374.7 -140.1,381.2 "/>
<rect x="87.9" y="569.5" width="3.9" height="4.4"/>
<polygon points="58.2,573.9 65.1,573.9 65.1,569.5 56.3,569.5 30.9,594.4 -71.8,594.4 -70.2,595.9 -70.2,599.4 32.8,599.4 "/>
<rect x="-2.3" y="314.6" width="4.4" height="2.9"/>
<rect x="-2.3" y="287.7" width="4.4" height="3.9"/>
<rect x="-2.3" y="262.4" width="4.4" height="2.4"/>
<rect x="-2.3" y="317.5" width="4.4" height="1.5"/>
<polygon points="155.4,262.4 155.4,257.9 148.1,257.9 148.1,261.9 143.7,261.9 143.7,257.9 135.9,257.9 135.9,262.4 "/>
<polygon points="112.9,262.4 112.9,257.9 104.6,257.9 104.6,261.9 100.2,261.9 100.2,257.9 84.1,257.9 84.1,262.4 "/>
<polygon points="61.2,262.4 61.2,257.9 47.4,257.9 47.4,261.9 43.1,261.9 43.1,257.9 40.2,257.9 40.2,262.4 "/>
<polygon points="256.6,257.9 178.4,257.9 178.4,262.4 261.4,262.4 261.4,236.4 256.6,236.4 "/>
<polygon points="2.1,258.9 2.1,262.4 17.2,262.4 17.2,257.9 -39.1,257.9 -39.1,262.4 -2.3,262.4 -2.3,258.9 "/>
<rect x="256.6" y="234.9" width="4.9" height="1.5"/>
<rect x="-2.3" y="258.9" width="4.4" height="3.4"/>
<rect x="43.1" y="165.1" width="4.4" height="6.8"/>
<rect x="43.1" y="171.9" width="4.4" height="86"/>
<rect x="43.1" y="257.9" width="4.4" height="3.9"/>
<rect x="100.2" y="165.1" width="4.4" height="6.8"/>
<rect x="100.2" y="171.9" width="4.4" height="86"/>
<rect x="100.2" y="257.9" width="4.4" height="3.9"/>
<rect x="143.7" y="165.1" width="1.5" height="6.8"/>
<polygon points="148.1,257.9 148.1,236.4 145.2,236.4 145.2,171.9 143.7,171.9 143.7,257.9 "/>
<rect x="145.2" y="165.1" width="2.9" height="6.8"/>
<rect x="145.2" y="171.9" width="2.9" height="64.5"/>
<rect x="143.7" y="257.9" width="4.4" height="3.9"/>
<path d="M293.7,339h-2.4v-1.5c-2.8,5.4-16.7,34.1-22.4,77.2h2.4v4.4h-2.9c-1.2,10.3-1.9,21.4-1.9,33.2c0,13.3,0.9,27.3,3.1,42h2.2
	v4.9h-1.4c3.7,22,10.3,45.4,21,69.7v-1.8h4.4v1.2l0.5-0.2c-18.6-42-24.9-81.6-24.9-115.8s6.4-62.5,12.2-82.1
	c2.9-9.8,6.4-17.6,8.3-23c1-2.4,2-4.9,2.9-5.9c0.2-0.2,0.3-0.3,0.4-0.5h-1.3V339H293.7z"/>
<path d="M295.4,339l0.7,0.5l-0.5,0.5c-0.3,0.3-0.4,0.7-0.6,1h43.4c1.4-2.9,2.2-4.4,2.2-4.4l2,2v2.4h-4.1
	c-6.2,13.1-23.2,54.5-23.2,111.4c0,34.7,6.4,74.7,25.4,117.7l3.9-2c-18.6-42-24.9-81.6-24.9-115.8s6.4-62.5,12.2-82.1
	c2.9-9.8,6.4-17.6,8.3-23c1-2.4,2-4.9,2.9-5.9c0.5-0.5,0.5-1,1-1.5l0.5-0.5l2-3.4h-50.8v2.9h-0.4V339z"/>
<path d="M342.4,338.5l-2-2c0,0-0.8,1.5-2.2,4.4h4.1v-2.4H342.4z"/>
<path d="M296.1,339.5l-0.7-0.5h-1.7v2h1.3c0.2-0.3,0.3-0.7,0.6-1L296.1,339.5z"/>
<path d="M291.2,314.1v23.4c0.3-0.6,0.5-0.9,0.5-0.9l2,1.3v-1.8h2v-26.4h-12.7v4.4H291.2z"/>
<rect x="150.6" y="309.7" width="109.4" height="4.4"/>
<rect x="150.1" y="309.7" width="0.5" height="4.4"/>
<path d="M293.7,339v-1.1l-2-1.3c0,0-0.2,0.3-0.5,0.9v1.5L293.7,339L293.7,339z"/>
<polygon points="293.7,337.9 295.4,339 295.6,339 295.6,336 293.7,336 "/>
<polygon points="295.4,339 293.7,337.9 293.7,339 "/>
<path d="M291.2,568.9v29.5h-8.3v4.4h12.7v-34.5l-3.9,1.7C291.6,569.6,291.4,569.4,291.2,568.9z"/>
<rect x="150.6" y="598.4" width="109.4" height="4.4"/>
<rect x="148.1" y="598.4" width="2.4" height="4.4"/>
<path d="M291.2,567.1v1.8c0.2,0.4,0.3,0.7,0.5,1.1l3.9-1.7v-1.2L291.2,567.1L291.2,567.1z"/>
<path d="M269.4,494.4H150.6v4.9h119.7C269.9,497.6,269.7,495.9,269.4,494.4z"/>
<rect x="146.7" y="494.4" width="3.9" height="4.9"/>
<path d="M271.7,494.4h-2.2c0.2,1.6,0.5,3.2,0.8,4.9h1.4L271.7,494.4L271.7,494.4z"/>
<path d="M268.8,414.7H150.5v4.4h117.7C268.4,417.6,268.6,416.1,268.8,414.7z"/>
<rect x="147.6" y="414.7" width="2.9" height="4.4"/>
<path d="M271.2,414.7h-2.4c-0.2,1.5-0.4,2.9-0.6,4.4h2.9v-4.4H271.2z"/>
<polygon points="588.2,644.9 588.2,644.9 588.2,644.4 "/>
<polygon points="588.2,644.4 522.8,644.4 522.8,644.9 588.2,644.9 "/>
<polygon points="588.2,644.9 588.2,649.2 588.2,649.2 "/>
<polygon points="522.8,644.9 522.8,644.4 522.3,644.4 522.3,646.7 522.3,649.2 588.2,649.2 588.2,644.9 "/>
<rect x="517.9" y="646.7" width="1" height="2.4"/>
<rect x="517.9" y="644.4" width="1" height="2.4"/>
<rect x="518.9" y="644.4" width="1" height="2.4"/>
<rect x="519.8" y="644.4" width="2.4" height="2.4"/>
<polygon points="519.8,646.7 518.9,646.7 518.9,649.2 522.3,649.2 522.3,646.7 "/>
<rect x="407.9" y="394.7" width="4.9" height="28.3"/>
<rect x="412.4" y="389.9" width="0.5" height="0.5"/>
<polygon points="412.4,390.4 412.4,389.9 407.9,389.9 407.9,394.7 412.9,394.7 412.9,390.4 "/>
<rect x="408.4" y="486" width="4.4" height="32.2"/>
<rect x="408.4" y="518.2" width="4.4" height="1"/>
<rect x="983.9" y="644.4" width="3.9" height="5.9"/>
<polygon points="1093.8,302.4 1093.8,288.7 1156.8,288.7 1156.8,446.4 1160.7,446.4 1160.7,305.9 1158.3,305.9 1158.3,301.4 
	1160.7,301.4 1160.7,284.4 1089.4,284.4 1089.4,298.4 1071.8,298.4 1071.8,302.4 "/>
<rect x="1025.9" y="573.9" width="3.9" height="3.9"/>
<polygon points="1029.8,302.4 1045.4,302.4 1045.4,298.4 1025.4,298.4 1025.4,446.4 1029.8,446.4 "/>
<polygon points="987.8,592.5 1029.8,592.5 1029.8,577.9 1025.9,577.9 1025.9,573.9 1029.8,573.9 1029.8,469.4 1025.4,469.4 
	1025.4,588.1 983.9,588.1 983.9,593 987.8,593 "/>
<rect x="983.9" y="615.9" width="3.9" height="4.4"/>
<rect x="1029.8" y="573.9" width="40.1" height="3.9"/>
<rect x="983.9" y="643.4" width="3.9" height="1"/>
<polygon points="1156.8,573.9 1096.2,573.9 1096.2,577.9 1159.7,577.9 1159.7,573.9 1160.7,573.9 1160.7,469.4 1156.8,469.4 "/>
<rect x="1314.6" y="301.4" width="3.9" height="4.4"/>
<rect x="1160.7" y="301.4" width="27.8" height="4.4"/>
<rect x="1214.9" y="301.4" width="99.6" height="4.4"/>
<rect x="1158.3" y="301.4" width="2.4" height="4.4"/>
<rect x="1317.9" y="644.9" width="4.4" height="4.4"/>
<rect x="1317.9" y="536.4" width="1.5" height="3.9"/>
<polygon points="1244.2,535.9 1219.8,560.4 1219.8,573.9 1220.8,573.9 1220.8,578.4 1219.8,578.4 1219.8,614 1224.2,614 
	1224.2,562.2 1246.2,540.2 1317.9,540.2 1317.9,536.4 1319.4,536.4 1319.4,535.9 "/>
<polygon points="1224.2,636.9 1219.8,636.9 1219.8,644.9 1222.7,644.9 1222.7,649.2 1317.9,649.2 1317.9,644.9 1224.2,644.9 "/>
<polygon points="1159.7,577.9 1159.7,578.4 1188.6,578.4 1188.6,573.9 1160.7,573.9 1160.7,577.9 "/>
<rect x="1214.9" y="573.9" width="4.9" height="4.4"/>
<rect x="1159.7" y="573.9" width="1" height="3.9"/>
<rect x="1219.8" y="573.9" width="1" height="4.4"/>
<rect x="1067.4" y="644.9" width="4.4" height="4.4"/>
<rect x="1071.8" y="644.9" width="10.7" height="4.4"/>
<polygon points="1165.1,644.9 1165.1,649.2 1178.8,649.2 1178.8,648.2 1183.2,648.2 1183.2,649.2 1187.6,649.2 1187.6,644.9 "/>
<rect x="1213.9" y="644.9" width="5.9" height="4.4"/>
<polygon points="1108.9,644.9 1108.9,649.2 1119.7,649.2 1119.7,648.2 1124.1,648.2 1124.1,649.2 1138.7,649.2 1138.7,644.9 "/>
<rect x="1219.8" y="644.9" width="2.9" height="4.4"/>
<rect x="1178.8" y="727.4" width="4.4" height="2.9"/>
<polygon points="1178.8,649.2 1178.8,730.2 1178.8,730.2 1178.8,727.4 1183.2,727.4 1183.2,649.2 "/>
<rect x="1178.8" y="648.2" width="4.4" height="1"/>
<rect x="1119.7" y="762" width="4.4" height="5.4"/>
<rect x="1119.7" y="649.2" width="4.4" height="112.8"/>
<rect x="1119.7" y="648.2" width="4.4" height="1"/>
<polygon points="1562.2,602.7 1562.2,601.4 1558.3,601.4 1558.3,486 1562.2,486 1562.2,481.6 1553.9,481.6 1553.9,605.2 
	1619.9,605.2 1619.9,602.7 "/>
<rect x="1562.2" y="481.6" width="27.8" height="4.4"/>
<rect x="1562.2" y="601.4" width="57.6" height="1.5"/>
<polygon points="1560.3,432.9 1560.3,326.4 1562.2,326.4 1562.2,321.9 1556.4,321.9 1556.4,437.2 1562.2,437.2 1562.2,432.9 "/>
<rect x="1562.2" y="321.9" width="57.6" height="4.4"/>
<rect x="1562.2" y="432.9" width="57.6" height="4.4"/>
<path class="st4" d="M1254.4,203.7c0-3.4-2.9-4.9-6.4-4.9h-2.4v9.8c0.5,0,1.4,0,2.4,0C1251.6,208.6,1254.4,207.1,1254.4,203.7z"/>
<path class="st4" d="M1329.7,197.8c0-5.9-3.4-9.8-10.3-9.8c-1.5,0-2.9,0-3.9,0.5v20c1,0,2,0,3.4,0
	C1325.8,208.6,1329.7,204.6,1329.7,197.8z"/>
<path class="st4" d="M1412.3,193.4c-0.5-1.5-1-2.9-1.5-4.4c-0.5,1.5-1,2.9-1,4.4l-2.4,7.3h7.3L1412.3,193.4z"/>
<path class="st4" d="M1253.4,192.4c0-2.9-2-3.9-5.4-3.9c-1.5,0-2.4,0-2.9,0v8.3h2.9C1251.6,196.8,1253.4,194.9,1253.4,192.4z"/>
<path class="st4" d="M1436.7,192.4c0-2.9-2-3.9-5.4-3.9c-1.5,0-2.4,0-2.9,0v8.3h2.9C1434.7,196.8,1436.7,194.9,1436.7,192.4z"/>
<path class="st4" d="M1454.8,209c4.9,0,7.8-4.9,7.8-10.3c0-4.9-2.4-10.3-7.8-10.3s-7.8,4.9-7.8,10.3
	C1447,204.1,1449.9,209,1454.8,209z"/>
<path class="st4" d="M847.6,209c4.9,0,7.8-4.9,7.8-10.3c0-4.9-2.4-10.3-7.8-10.3s-7.8,4.9-7.8,10.3C839.3,204.2,842.2,209,847.6,209
	z"/>
<path class="st4" d="M804.6,193.4c-0.5-1.5-1-2.9-1.5-4.4c-0.5,1.5-1,2.9-1,4.4l-2.4,7.3h7.3L804.6,193.4z"/>
<path class="st4" d="M722.1,197.8c0-5.9-3.4-9.8-10.3-9.8c-1.5,0-2.9,0-3.9,0.5v20c1,0,2,0,3.4,0
	C718.2,208.6,722.1,204.6,722.1,197.8z"/>
<path class="st4" d="M645.9,192.4c0-2.9-2-3.9-5.4-3.9c-1.5,0-2.4,0-2.9,0v8.3h2.9C643.9,196.8,645.9,194.9,645.9,192.4z"/>
<path class="st4" d="M646.8,203.7c0-3.4-2.9-4.9-6.4-4.9H638v9.8c0.5,0,1.4,0,2.4,0C643.9,208.6,646.8,207.1,646.8,203.7z"/>
<path class="st4" d="M829.9,203.7c0-3.4-2.9-4.9-6.4-4.9h-2.4v9.8c0.5,0,1.4,0,2.4,0C827.1,208.6,829.9,207.1,829.9,203.7z"/>
<path class="st4" d="M828.9,192.4c0-2.9-2-3.9-5.4-3.9c-1.5,0-2.4,0-2.9,0v8.3h2.9C827.1,196.8,828.9,194.9,828.9,192.4z"/>
<path class="st4" d="M357.7,158.2h160.2v-0.5h4.4v0.5h0.5l0,0l0,0v75.2h0.5v2.4h805v0.5h0.5l0,0v4.4h122.1v-4.9l0,0h169v-498.1h-192
	v419.1l0,0h-227.6l0,0V64h-162.2v89.9H589.7v-0.5h-0.5V71.8H357.7V158.2z M1491.4,186.1h13.7v2.4h-10.3v8.3h9.3v2.4h-9.3v9.3h10.7
	v2.4h-14.2L1491.4,186.1L1491.4,186.1z M1471.4,186.1l3.9,12.2c1,3.4,2,6.4,2.4,9.3c0.5-2.9,1.5-5.9,2.9-9.3l4.4-12.2h3.4l-8.8,24.9
	h-3.4l-8.3-24.9L1471.4,186.1L1471.4,186.1z M1455.3,185.6c6.8,0,11.2,5.4,11.2,12.7c0,8.3-5.4,13.2-11.7,13.2
	c-6.8,0-11.2-4.9-11.2-12.7S1448.4,185.6,1455.3,185.6z M1430.8,186.1c3.4,0,5.4,0.5,6.8,2c1.5,1,2,2.4,2,4.4c0,2.4-1.5,4.4-4.4,5.4
	c2.4,0.5,5.4,2.4,5.4,6.4c0,2-1,3.9-2,4.9c-2,1.5-4.4,2.4-8.8,2.4c-2.4,0-3.9,0-4.9-0.5v-24.4
	C1426.4,186.1,1428.9,186.1,1430.8,186.1z M1408.8,186.1h3.9l8.3,24.9h-3.4l-2.4-7.8h-8.8l-2.4,7.8h-3.4L1408.8,186.1z
	 M1382.4,186.1c2.9,0,5.4,0.5,6.4,1l-1,2.4c-1.5-0.5-2.9-1-5.4-1c-5.9,0-10.3,3.9-10.3,10.3c0,6.4,3.9,10.3,9.8,10.3
	c2,0,3.4-0.5,4.4-0.5v-7.3h-4.9V199h8.3l-0.5,11.2c-1.5,0.5-4.4,1.5-7.8,1.5c-3.9,0-6.8-1-9.3-3.4c-2-2-3.4-5.4-3.4-9.3
	C1368.8,191.5,1374.2,186.1,1382.4,186.1z M1345.8,186.1h3.4l7.8,12.7c2,2.9,3.4,5.4,4.4,8.3c-0.5-3.4-0.5-6.4-0.5-10.3v-10.7h2.9
	V211h-2.4l-7.8-12.7c-2-2.9-3.4-5.9-4.4-8.3c0,2.9,0,6.4,0,10.3V211h-3.4V186.1z M1336.9,186.1h3.4V211h-3.4V186.1z M1312.1,186.6
	c2-0.5,4.4-0.5,6.8-0.5c4.4,0,7.8,1,10.3,2.9c2.4,2,3.4,4.9,3.4,8.8s-1.5,7.3-3.4,9.8c-2.4,2.4-6.4,3.4-11.2,3.4
	c-2.4,0-4.4,0-5.9-0.5L1312.1,186.6L1312.1,186.6z M1294.9,186.1h2.9v22.5h10.7v2.4h-13.7v-24.9H1294.9z M1285.8,186.1h3.4V211h-3.4
	V186.1z M1262.3,186.1h2.9v14.7c0,5.4,2.4,7.8,5.9,7.8c3.9,0,5.9-2.4,5.9-7.8v-14.7h3.4v14.7c0,7.8-3.9,10.7-9.3,10.7
	s-8.8-2.9-8.8-10.7V186.1z M1247.7,186.1c3.4,0,5.4,0.5,6.8,2c1.5,1,2,2.4,2,4.4c0,2.4-1.5,4.4-4.4,5.4c2.4,0.5,5.4,2.4,5.4,6.4
	c0,2-1,3.9-2,4.9c-2,1.5-4.4,2.4-8.8,2.4c-2.4,0-3.9,0-4.9-0.5v-24.4C1243.3,186.1,1245.7,186.1,1247.7,186.1z M883.7,186.1h13.7
	v2.4h-10.3v8.3h9.8v2.4h-9.8v9.3h10.7v2.4h-14.2L883.7,186.1L883.7,186.1z M863.7,186.1l3.9,12.2c1,3.4,2,6.4,2.4,9.3
	c0.5-2.9,2-5.9,2.9-9.3l4.4-12.2h3.4l-8.8,24.9h-3.4l-8.3-24.9L863.7,186.1L863.7,186.1z M847.6,185.6c6.8,0,11.2,5.4,11.2,12.7
	c0,8.3-4.9,13.2-11.7,13.2s-11.2-4.9-11.2-12.7S840.8,185.6,847.6,185.6z M823.2,186.1c3.4,0,5.4,0.5,6.8,2c1.5,1,2,2.4,2,4.4
	c0,2.4-1.5,4.4-4.4,5.4c2.4,0.5,5.4,2.4,5.4,6.4c0,2-1,3.9-2,4.9c-2,1.5-4.4,2.4-8.8,2.4c-2.4,0-3.9,0-4.9-0.5v-24.4
	C818.8,186.1,821.2,186.1,823.2,186.1z M801.2,186.1h3.9l8.3,24.9h-3.4l-2.4-7.8h-8.8l-2.4,7.8H793L801.2,186.1z M775.3,186.1
	c2.9,0,5.4,0.5,6.4,1l-1,2.4c-1.5-0.5-2.9-1-5.4-1c-5.9,0-10.3,3.9-10.3,10.3c0,6.4,3.9,10.3,9.8,10.3c2,0,3.4-0.5,4.4-0.5v-7.3
	h-4.9V199h8.3l-0.5,11.2c-1.5,0.5-4.4,1.5-7.8,1.5c-3.9,0-6.8-1-9.3-3.4c-2-2-3.4-5.4-3.4-9.3C761.6,191.5,766.9,186.1,775.3,186.1z
	 M738.7,186.1h3.4l7.8,12.7c2,2.9,3.4,5.4,4.4,8.3c-0.5-3.4-0.5-6.4-0.5-10.3v-10.7h2.9V211h-3.4l-7.8-12.7c-2-2.9-3.4-5.9-4.4-8.3
	c0,2.9,0,6.4,0,10.3V211h-2.4V186.1z M729.4,186.1h3.4V211h-3.4V186.1z M704.9,186.6c2-0.5,4.4-0.5,6.8-0.5c4.4,0,7.8,1,10.3,2.9
	c2.4,2,3.4,4.9,3.4,8.8s-1.5,7.3-3.4,9.8c-2.4,2.4-6.4,3.4-11.2,3.4c-2.4,0-4.4,0-5.9-0.5L704.9,186.6L704.9,186.6z M687.4,186.1
	h2.9v22.5H701v2.4h-13.7v-24.9H687.4z M678.6,186.1h3.4V211h-3.4V186.1z M654.7,186.1h2.9v14.7c0,5.4,2.4,7.8,5.9,7.8
	c3.9,0,5.9-2.4,5.9-7.8v-14.7h3.4v14.7c0,7.8-3.9,10.7-9.3,10.7c-4.9,0-8.8-2.9-8.8-10.7V186.1z M634.1,186.6
	c1.5-0.5,3.9-0.5,5.9-0.5c3.4,0,5.4,0.5,6.8,2c1.5,1,2,2.4,2,4.4c0,2.4-1.5,4.4-4.4,5.4c2.4,0.5,5.4,2.4,5.4,6.4c0,2-1,3.9-2,4.9
	c-2,1.5-4.4,2.4-8.8,2.4c-2.4,0-3.9,0-4.9-0.5V186.6z"/>
<path class="st4" d="M1437.7,203.7c0-3.4-2.9-4.9-6.4-4.9h-2.4v9.8c0.5,0,1.4,0,2.4,0C1434.7,208.6,1437.7,207.1,1437.7,203.7z"/>
<polygon points="523.3,236.4 523.3,239.4 633.7,239.4 633.7,239.4 633.7,240.9 1328.3,240.9 1328.3,236.4 "/>
<rect x="518.4" y="158.2" width="3.9" height="75.2"/>
<polygon points="518.4,238.4 518.4,238.4 517.9,238.4 517.9,240.9 "/>
<rect x="517.9" y="157.8" width="4.4" height="0.5"/>
<rect x="523.3" y="235.9" width="805" height="0.5"/>
<polygon points="1450.9,235.9 1619.9,235.9 1619.9,235.9 "/>
<rect x="1450.9" y="235.9" width="169" height="4.9"/>
<polygon points="522.8,236.4 522.8,236.4 522.8,235.9 523.3,235.9 523.3,233.5 522.8,233.5 522.8,233.5 "/>
<polygon points="517.9,238.4 518.4,238.4 518.4,238.4 518.4,238.4 518.4,240.9 518.9,240.9 518.9,239.4 522.8,239.4 522.8,236.4 
	522.8,236.4 522.8,233.5 522.3,233.5 518.4,233.5 517.9,233.5 517.9,234 "/>
<rect x="522.8" y="235.9" width="0.5" height="0.5"/>
<polygon points="522.8,236.4 522.8,239.4 523.3,239.4 523.3,236.4 523.3,236.4 "/>
<path d="M518.4,238.4L518.4,238.4L518.4,238.4z"/>
<rect x="523.3" y="239.4" width="110.4" height="1.5"/>
<polygon points="522.8,239.4 518.9,239.4 518.9,240.9 523.3,240.9 523.3,239.4 "/>
<polygon points="523.3,239.4 633.7,239.4 633.7,239.4 "/>
<polygon points="522.8,239.4 523.3,239.4 523.3,239.4 "/>
<polygon class="st5" points="357.2,71.3 589.2,71.3 589.2,71.8 589.7,71.8 589.7,153.4 1037.6,153.4 1037.6,64 1038.1,64 1038.1,64 
	1200.3,64 1200.3,64 1200.3,156.8 1427.9,156.8 1427.9,-262.3 1427.9,-262.8 1619.9,-262.8 1619.9,-267.2 1422.9,-267.2 
	1422.9,151.9 1204.7,151.9 1204.7,59.1 1033.2,59.1 1033.2,149 594.1,149 594.1,66.9 352.8,66.9 352.8,158.2 357.2,158.2 "/>
<rect x="1328.7" y="240.9" class="st5" width="122.1" height="1.5"/>
<polygon class="st5" points="1038.1,153.8 1038.1,64 1037.6,64 1037.6,153.4 589.7,153.4 589.7,153.8 "/>
<polygon class="st5" points="357.7,71.8 589.2,71.8 589.2,71.3 357.2,71.3 357.2,158.2 357.7,158.2 "/>
<polygon class="st6" points="1450.9,242.7 1450.9,242.4 1328.7,242.4 1328.7,245.7 1450.9,245.7 "/>
<polygon class="st7" points="515.4,167.5 515.4,233.5 517.9,233.5 517.9,158.2 357.7,158.2 357.2,158.2 352.8,158.2 352.8,162.6 
	513.4,162.6 513.4,167.5 "/>
<polygon class="st7" points="517.9,240.9 517.9,238.4 515.4,238.4 515.4,239.4 515.4,239.4 515.4,239.4 513.4,239.4 513.4,245.7 
	518.4,245.7 518.4,240.9 "/>
<path class="st7" d="M1033.7,245.7h4.4h290.1v-2.9v-1.5H633.6v4.4H1033.7z M1038.1,245.2h-4.4H1038.1z"/>
<rect x="523.3" y="244.2" class="st7" width="106" height="1.5"/>
<rect x="515.4" y="238.4" class="st7" width="0" height="1"/>
<rect x="517.9" y="158.2" class="st7" width="0.5" height="75.2"/>
<polygon class="st7" points="1619.9,240.9 1450.9,240.9 1450.9,242.4 1450.9,242.7 1456.2,242.7 1457.7,242.7 1456.2,242.7 
	1450.9,242.7 1450.9,242.7 1450.9,245.7 1619.9,245.7 "/>
<polygon class="st7" points="515.4,239.4 515.4,238.4 513.4,238.4 513.4,238.4 513.4,239.4 "/>
<polygon class="st7" points="515.4,233.5 515.4,167.5 513.4,167.5 513.4,167.5 513.4,233.5 "/>
<polygon class="st7" points="517.9,238.4 517.9,238.4 517.9,234 515.4,234 515.4,238.4 "/>
<polygon class="st7" points="515.4,238.4 515.4,238.4 515.4,234 513.4,234 513.4,238.4 "/>
<polygon class="st7" points="523.3,241.9 523.3,244.2 629.3,244.2 629.3,245.7 633.7,245.7 633.7,241.4 633.7,240.9 523.3,240.9 "/>
<polygon class="st7" points="518.9,241.4 518.9,241.9 520.8,241.9 523.3,241.9 523.3,240.9 518.9,240.9 "/>
<rect x="520.8" y="241.9" class="st7" width="2.4" height="2.4"/>
<polygon class="st7" points="520.8,241.9 518.9,241.9 518.9,242.4 518.9,245.7 523.3,245.7 523.3,244.2 523.3,244.2 520.8,244.2 "/>
<polygon class="st2" points="429.4,837.7 472.4,837.7 472.4,837.7 "/>
<rect x="429.4" y="824" class="st2" width="43" height="13.7"/>
<polygon class="st2" points="429.4,837.7 472.4,837.7 472.4,837.7 "/>
<polygon class="st2" points="312.7,696.5 355.7,696.5 355.7,696.5 "/>
<rect x="312.7" y="692.1" class="st2" width="43" height="4.4"/>
<rect x="312.7" y="217.4" class="st2" width="43" height="4.4"/>
<polygon class="st2" points="587.9,757.6 587.8,800.6 601.4,800.6 601.4,757.6 "/>
<polygon class="st2" points="587.7,757.6 587.7,800.6 587.8,800.6 587.9,757.6 "/>
<polygon class="st2" points="601.9,800.6 601.9,757.6 601.6,757.6 601.4,800.6 "/>
<polygon class="st2" points="601.4,800.6 601.4,800.6 601.6,757.6 601.4,757.6 "/>
<polygon class="st2" points="485.2,837.7 528.2,837.7 528.2,837.7 "/>
<rect x="485.2" y="824" class="st2" width="43" height="13.7"/>
<polygon class="st2" points="485.2,837.7 528.2,837.7 528.2,837.7 "/>
<polygon class="st2" points="997.9,657.9 1040.9,657.9 1040.9,657.9 "/>
<rect x="997.9" y="644.4" class="st2" width="43" height="13.7"/>
<rect x="1201.3" y="727.4" class="st2" width="43" height="13.7"/>
<rect x="1314.6" y="258.9" class="st2" width="14.2" height="34.2"/>
<rect x="1314.6" y="258.9" class="st2" width="0" height="34.2"/>
<rect x="1548.6" y="446.4" class="st2" width="13.7" height="23.9"/>
<polygon class="st2" points="1464.6,258.9 1450.9,258.9 1450.9,293.1 1464.8,293.1 "/>
<polygon class="st2" points="1464.9,258.9 1464.6,258.9 1464.8,293.1 1464.9,293.1 "/>
<polygon class="st2" points="647.3,657.9 690.3,657.9 690.3,657.9 "/>
<rect x="647.3" y="644.4" class="st2" width="43" height="13.7"/>
<rect x="429.4" y="741.5" class="st2" width="43" height="4.4"/>
<polygon class="st2" points="412.9,644.4 412.9,531.9 407.9,531.9 407.9,649.2 505.2,649.2 505.2,644.4 "/>
<rect x="271.2" y="674.1" class="st2" width="23" height="4.4"/>
<rect x="271.2" y="231.5" class="st2" width="23" height="4.4"/>
<rect x="155.4" y="646.2" class="st2" width="23" height="4.4"/>
<polygon class="st2" points="155.4,262.4 178.4,262.4 178.4,262.4 "/>
<rect x="155.4" y="257.9" class="st2" width="23" height="4.4"/>
<rect x="113.9" y="646.2" class="st2" width="23" height="4.4"/>
<rect x="20.1" y="646.2" class="st2" width="23" height="4.4"/>
<rect x="-13.1" y="646.2" class="st2" width="23" height="4.4"/>
<rect x="65.1" y="573.9" class="st2" width="23" height="0.5"/>
<rect x="65.1" y="569.5" class="st2" width="23" height="4.4"/>
<rect x="91.9" y="573.9" class="st2" width="23" height="0.5"/>
<rect x="91.9" y="569.5" class="st2" width="23" height="4.4"/>
<rect x="518.4" y="426.9" class="st2" width="4.9" height="23"/>
<rect x="518.4" y="453.9" class="st2" width="4.9" height="23"/>
<rect x="987.8" y="593" class="st2" width="0.5" height="23"/>
<rect x="983.9" y="593" class="st2" width="3.9" height="23"/>
<rect x="1025.4" y="446.4" class="st2" width="4.4" height="23"/>
<rect x="1160.7" y="446.4" class="st2" width="0.5" height="23"/>
<rect x="1156.8" y="446.4" class="st2" width="3.9" height="23"/>
<rect x="1590.1" y="481.6" class="st2" width="26.4" height="4.4"/>
<rect x="1069.9" y="577.9" class="st2" width="26.4" height="0.5"/>
<rect x="1069.9" y="573.9" class="st2" width="26.4" height="3.9"/>
<rect x="1082.6" y="644.9" class="st2" width="26.4" height="4.4"/>
<rect x="1138.7" y="644.9" class="st2" width="26.4" height="4.4"/>
<rect x="1187.6" y="644.9" class="st2" width="26.4" height="4.4"/>
<rect x="1188.6" y="573.9" class="st2" width="26.4" height="4.4"/>
<rect x="1188.6" y="301.4" class="st2" width="26.4" height="4.4"/>
<rect x="1219.8" y="614" class="st2" width="4.4" height="23"/>
<rect x="1045.4" y="302.4" class="st2" width="26.4" height="0.5"/>
<rect x="1045.4" y="298.4" class="st2" width="26.4" height="3.9"/>
<rect x="987.8" y="620.4" class="st2" width="0.5" height="23"/>
<rect x="983.9" y="620.4" class="st2" width="3.9" height="23"/>
<rect x="1033.7" y="254" class="st2" width="4.4" height="18.6"/>
<rect x="1156.8" y="255.9" class="st2" width="4.4" height="24.4"/>
<rect x="1033.7" y="276" class="st2" width="4.4" height="18.6"/>
<rect x="563.8" y="522.2" class="st2" width="23" height="0.5"/>
<rect x="563.8" y="518.2" class="st2" width="23" height="3.9"/>
<rect x="591.2" y="522.2" class="st2" width="23" height="0.5"/>
<rect x="591.2" y="518.2" class="st2" width="23" height="3.9"/>
<polygon class="st2" points="437.3,239.4 460.3,239.4 460.3,239.4 "/>
<rect x="437.3" y="238.4" class="st2" width="23" height="1"/>
<rect x="437.3" y="233.5" class="st2" width="23" height="1.5"/>
<rect x="437.3" y="234.9" class="st2" width="23" height="2.9"/>
<rect x="376.7" y="217.4" class="st2" width="23" height="4.4"/>
<polygon class="st2" points="464.6,239.4 487.6,239.4 487.6,239.4 "/>
<rect x="464.6" y="238.4" class="st2" width="23" height="1"/>
<rect x="464.6" y="233.5" class="st2" width="23" height="1.5"/>
<rect x="464.6" y="234.9" class="st2" width="23" height="2.9"/>
<rect x="412.4" y="289.2" class="st2" width="0.5" height="23"/>
<rect x="407.9" y="289.2" class="st2" width="4.4" height="23"/>
<rect x="412.4" y="262.4" class="st2" width="0.5" height="23"/>
<rect x="407.9" y="262.4" class="st2" width="4.4" height="23"/>
<rect x="65.1" y="340.4" class="st2" width="23" height="4.4"/>
<rect x="259.9" y="309.7" class="st2" width="23" height="4.4"/>
<rect x="629.3" y="331.2" class="st2" width="4.4" height="26.4"/>
<rect x="259.9" y="598.4" class="st2" width="23" height="4.4"/>
<polygon class="st2" points="17.2,262.4 40.2,262.4 40.2,262.4 "/>
<rect x="17.2" y="257.9" class="st2" width="23" height="4.4"/>
<polygon class="st2" points="112.9,262.4 135.9,262.4 135.9,262.4 "/>
<rect x="112.9" y="257.9" class="st2" width="23" height="4.4"/>
<polygon class="st2" points="61.2,262.4 84.2,262.4 84.2,262.4 "/>
<rect x="61.2" y="257.9" class="st2" width="23" height="4.4"/>
<rect x="91.9" y="340.4" class="st2" width="23" height="4.4"/>
<rect x="-2.3" y="291.6" class="st2" width="4.4" height="23"/>
<rect x="-2.3" y="264.7" class="st2" width="4.4" height="23"/>
<rect x="145.7" y="442.5" class="st2" width="4.4" height="26.4"/>
<rect x="271.2" y="746.9" class="st2" width="23" height="8.3"/>
<rect x="271.2" y="741.5" class="st2" width="23" height="0.5"/>
<polygon class="st2" points="271.2,741.5 294.2,741.5 294.2,741.5 "/>
<rect x="271.2" y="746.4" class="st2" width="23" height="0.5"/>
<rect x="271.2" y="742" class="st2" width="23" height="4.4"/>
<polygon class="st2" points="271.2,746.4 294.2,746.4 294.2,746.4 "/>
<rect x="485.2" y="741.5" class="st2" width="43" height="4.4"/>
<polygon points="329.3,720 340.6,720 340.6,717 329.3,717 329.3,707.9 341.6,707.9 341.6,704.9 325.4,704.9 325.4,733.7 
	341.9,733.7 341.9,730.7 329.3,730.7 "/>
<polygon points="341.9,206.1 329.3,206.1 329.3,195.9 340.6,195.9 340.6,192.4 329.3,192.4 329.3,183.6 341.6,183.6 341.6,180.2 
	325.4,180.2 325.4,209.5 341.9,209.5 "/>
<path d="M182.3,710.2c-3.4-1.5-4.9-2.4-4.9-4.9c0-2,1.5-3.9,4.9-3.9c2.4,0,3.9,0.5,4.9,1l1-2.4c-1-0.5-2.9-1-5.4-1
	c-4.9,0-8.3,2.9-8.3,6.8c0,3.9,2.9,5.9,6.8,7.3c3.4,1,4.9,2.4,4.9,4.9c0,2.9-2,4.4-5.4,4.4c-2.4,0-4.4-0.5-5.9-1.5l-1.5,2.4
	c1.5,0.5,3.9,1.5,6.4,1.5c5.9,0,8.8-3.4,8.8-7.3C188.7,714.1,186.7,711.7,182.3,710.2z"/>
<polygon points="209.2,700 190.6,700 190.6,702.9 198.4,702.9 198.4,724.9 201.4,724.9 201.4,702.9 209.2,702.9 "/>
<path d="M215.4,700l-8.3,24.9h3.4l2.4-7.8h8.8l2.4,7.8h3.4l-8.3-24.9H215.4z M213.6,714.6l2.4-7.3c0.5-1.5,1-2.9,1.5-4.4
	c0.5,1.5,1,2.9,1.5,4.4l2.4,7.3H213.6z"/>
<rect x="231.6" y="700" width="3.4" height="24.9"/>
<path d="M251.7,713.1c2.9-1,4.9-2.9,4.9-6.4c0-2-0.5-3.9-2-4.9c-1.5-1.5-3.9-2-7.3-2c-2.4,0-4.9,0-6.4,0.5l0.5,24.4h3.4V714h2.9
	c2.9,0,4.4,1.5,4.9,4.9c0.5,2.9,1,5.4,1.5,5.9h3.4c-0.5-1-1-3.4-2-6.8C254.6,715.6,253.6,713.6,251.7,713.1z M247.3,711.7h-3.4v-8.8
	c1-0.5,2-0.5,3.4-0.5c3.4,0,5.9,1,5.9,4.4C253.1,709.7,250.7,711.7,247.3,711.7z"/>
<path d="M266.3,722.4c-2.4,0-4.4-0.5-5.9-1.5l-1.5,2.4c1.5,0.5,3.9,1.5,6.4,1.5c5.9,0,8.8-3.4,8.8-7.3c0-3.4-2-5.9-6.4-7.3
	c-3.4-1.5-4.9-2.4-4.9-4.9c0-2,1.5-3.9,4.9-3.9c2.4,0,3.9,0.5,4.9,1l1-2.4c-1-0.5-2.9-1-5.4-1c-4.9,0-8.3,2.9-8.3,6.8
	c0,3.9,2.9,5.9,6.8,7.3c3.4,1,4.9,2.4,4.9,4.9C271.7,721,269.7,722.4,266.3,722.4z"/>
<path d="M1207.6,687.4c-3.4-1.5-4.9-2.4-4.9-4.9c0-2,1.5-3.9,4.9-3.9c2.4,0,3.9,0.5,4.9,1l1-2.4c-1-0.5-2.9-1-5.4-1
	c-4.9,0-8.3,2.9-8.3,6.8c0,3.9,2.9,5.9,6.8,7.3c3.4,1,4.9,2.4,4.9,4.9c0,2.9-2,4.4-5.4,4.4c-2.4,0-4.4-0.5-5.9-1.5l-1.5,2.4
	c1.5,0.5,3.9,1.5,6.4,1.5c5.9,0,8.8-3.4,8.8-7.3C1213.9,691.2,1211.9,688.7,1207.6,687.4z"/>
<polygon points="1216.4,679.4 1223.7,679.4 1223.7,701.9 1227.1,701.9 1227.1,679.4 1234.9,679.4 1234.9,677 1216.4,677 "/>
<path d="M1236.4,701.9l2.4-7.8h8.8l2.4,7.8h3.4l-8.3-24.9h-3.9l-8.3,24.9H1236.4z M1242.3,684.4c0-1.5,0.5-2.9,1-4.4
	c0.5,1.5,1,2.9,1.5,4.4l2.4,7.3h-7.3L1242.3,684.4z"/>
<rect x="1257.4" y="677" width="3.4" height="24.9"/>
<path d="M1270.1,701.4v-10.7h2.9c2.9,0,3.9,1.5,4.9,4.9c0.5,2.9,1,5.4,1.5,5.9h3.4c-0.5-1-1-3.4-2-6.8c-1-2.4-2-4.4-3.9-4.9
	c2.9-1,4.9-2.9,4.9-6.4c0-2-0.5-3.9-2-4.9c-1.5-1.5-3.9-2-7.3-2c-2.4,0-4.9,0-6.4,0.5l0.5,24.4H1270.1z M1269.6,679.9
	c1-0.5,2-0.5,3.4-0.5c3.4,0,5.9,1,5.9,4.4c0,2.9-2.4,4.9-5.9,4.9h-3.4V679.9z"/>
<path d="M1291.6,699.5c-2.4,0-4.4-0.5-5.9-1.5l-1.5,2.4c1.5,0.5,3.9,1.5,6.4,1.5c5.9,0,8.8-3.4,8.8-7.3c0-3.4-2-5.9-6.4-7.3
	c-3.4-1.5-4.9-2.4-4.9-4.9c0-2,1.5-3.9,4.9-3.9c2.4,0,3.9,0.5,4.9,1l1-2.4c-1-0.5-2.9-1-5.4-1c-4.9,0-8.3,2.9-8.3,6.8
	c0,3.9,2.9,5.9,6.8,7.3c3.4,1,4.9,2.4,4.9,4.9C1296.9,698,1294.9,699.5,1291.6,699.5z"/>
<path d="M1203.2,286.2c-2.4,0-4.4-0.5-5.9-1.5l-1.5,2.4c1.5,0.5,3.9,1.5,6.4,1.5c5.9,0,8.8-3.4,8.8-7.3c0-3.4-2-5.9-6.4-7.3
	c-3.4-1.5-4.9-2.4-4.9-4.9c0-2,1.5-3.9,4.9-3.9c2.4,0,3.9,0.5,4.9,1l1-2.4c-1-0.5-2.9-1-5.4-1c-4.9,0-8.3,2.9-8.3,6.8
	s2.9,5.9,6.8,7.3c3.4,1,4.9,2.4,4.9,4.9C1208.6,284.4,1206.6,286.2,1203.2,286.2z"/>
<polygon points="1220.8,288.7 1224.2,288.7 1224.2,266.7 1231.4,266.7 1231.4,263.9 1212.9,263.9 1212.9,266.7 1220.8,266.7 "/>
<path d="M1232.9,288.7l2.4-7.8h8.8l2.4,7.8h3.4l-8.3-24.9h-3.9l-8.3,24.9H1232.9z M1238.4,271.1c0.5-1.5,1-2.9,1.5-4.4
	c0.5,1.5,1,2.9,1.5,4.4l2.4,7.3h-7.8L1238.4,271.1z"/>
<rect x="1254.4" y="263.9" width="3.4" height="24.9"/>
<path d="M1267.2,288.7V278h2.9c2.9,0,3.9,1.5,4.9,4.9c0.5,2.9,1,5.4,1.5,5.9h3.4c-0.5-1-1-3.4-2-6.8c-1-2.4-2-4.4-3.9-4.9
	c2.9-1,4.9-2.9,4.9-6.3c0-2-0.5-3.9-2-4.9c-1.5-1.5-3.9-2-7.3-2c-2.4,0-4.9,0-6.3,0.5l0.5,24.4L1267.2,288.7L1267.2,288.7z
	 M1266.7,266.7c1-0.5,2-0.5,3.4-0.5c3.4,0,5.9,1,5.9,4.4c0,2.9-2.4,4.9-5.9,4.9h-3.4V266.7z"/>
<path d="M1288.7,286.2c-2.4,0-4.4-0.5-5.9-1.5l-1.5,2.4c1.5,0.5,3.9,1.5,6.4,1.5c5.9,0,8.8-3.4,8.8-7.3c0-3.4-2-5.9-6.3-7.3
	c-3.4-1.5-4.9-2.4-4.9-4.9c0-2,1.5-3.9,4.9-3.9c2.4,0,3.9,0.5,4.9,1l1-2.4c-1-0.5-2.9-1-5.4-1c-4.9,0-8.3,2.9-8.3,6.8
	s2.9,5.9,6.8,7.3c3.4,1,4.9,2.4,4.9,4.9S1292.1,286.2,1288.7,286.2z"/>
<path d="M181.3,202.2c3.4,1,4.9,2.4,4.9,4.9s-2,4.4-5.4,4.4c-2.4,0-4.4-0.5-5.9-1.5l-1.5,2.4c1.5,0.5,3.9,1.5,6.4,1.5
	c5.9,0,8.8-3.4,8.8-7.3c0-3.4-2-5.9-6.4-7.3c-3.4-1.5-4.9-2.4-4.9-4.9c0-2,1.5-3.9,4.9-3.9c2.4,0,3.9,0.5,4.9,1l1-2.4
	c-1-0.5-2.9-1-5.4-1c-4.9,0-8.3,2.9-8.3,6.8C174.4,198.8,177.4,200.7,181.3,202.2z"/>
<polygon points="198.4,213.9 201.4,213.9 201.4,191.5 209.2,191.5 209.2,189 190.6,189 190.6,191.5 198.4,191.5 "/>
<path d="M210.6,213.9l2.4-7.8h8.8l2.4,7.8h3.4l-8.3-24.9h-3.9l-8.3,24.9H210.6z M215.9,195.9c0.5-1.5,1-2.9,1.5-4.4
	c0.5,1.5,1,2.9,1.5,4.4l2.4,7.3h-7.8L215.9,195.9z"/>
<rect x="231.6" y="189" width="3.4" height="24.9"/>
<path d="M244.8,213.4v-10.7h2.9c2.9,0,4.4,1.5,4.9,4.9c0.5,2.9,1,5.4,1.5,5.9h3.4c-0.5-1-1-3.4-2-6.8c-1-2.4-2-4.4-3.9-4.9
	c2.9-1,4.9-2.9,4.9-6.4c0-2-0.5-3.9-2-4.9c-1.5-1.5-3.9-2-7.3-2c-2.4,0-4.9,0-6.4,0.5l0.5,24.4L244.8,213.4L244.8,213.4z
	 M243.9,191.9c1-0.5,2-0.5,3.4-0.5c3.4,0,5.9,1,5.9,4.4c0,2.9-2.4,4.9-5.9,4.9h-3.4V191.9z"/>
<path d="M266.3,211.5c-2.4,0-4.4-0.5-5.9-1.5l-1.5,2.4c1.5,0.5,3.9,1.5,6.4,1.5c5.9,0,8.8-3.4,8.8-7.3c0-3.4-2-5.9-6.4-7.3
	c-3.4-1.5-4.9-2.4-4.9-4.9c0-2,1.5-3.9,4.9-3.9c2.4,0,3.9,0.5,4.9,1l1-2.4c-1-0.5-2.9-1-5.4-1c-4.9,0-8.3,2.9-8.3,6.8
	s2.9,5.9,6.8,7.3c3.4,1,4.9,2.4,4.9,4.9S269.7,211.5,266.3,211.5z"/>
<polygon points="33.3,673.6 33.8,676 38.2,673.6 38.2,695.1 41.1,695.1 41.1,670.6 38.7,670.6 "/>
<polygon points="52.4,673.6 52.9,676 57.3,673.6 57.3,695.1 60.2,695.1 60.2,670.6 57.3,670.6 "/>
<path d="M82.2,686.4v-15.1h-3.4l-10.7,15.6v2h11.2v6.4h2.9v-6.4h3.4v-2.4h-3.4V686.4z M79.2,677.5v7.8v0.5v-0.5h-7.8l5.9-8.3
	c0.5-1,1-2,2-3.4C79.2,675,79.2,676,79.2,677.5z"/>
<path d="M8.4,229.1H-2.3l2-2c4.9-5.4,8.3-8.8,8.3-13.2c0-3.4-2-6.8-7.3-6.8c-2.9,0-5.4,1-6.8,2.4l1,2.4c1-1,2.4-2,4.9-2
	c3.9,0,4.9,2.4,4.9,4.9c0,3.9-2.4,6.8-8.8,12.7l-2.4,2.4v2H8.6v-2.8H8.4z"/>
<path d="M18.2,229.6c-2.4,0-4.4-1-5.4-1.5l-1.5,2.9c1.5,0.5,3.4,1.5,6.4,1.5c5.9,0,8.8-3.4,8.8-7.3c0-3.4-2.4-5.9-5.4-6.4
	c2.9-1,4.4-3.4,4.4-5.9c0-2.9-2-5.9-6.8-5.9c-2.4,0-4.9,1-6.4,2l1,2.4c1-0.5,2.9-1.5,4.9-1.5c3.4,0,4.4,1.5,4.4,3.4
	c0,2.4-2.9,3.9-5.4,3.9h-2v2.4h2c3.4,0,6.4,1.5,6.4,4.9C23.6,227.1,22.6,229.6,18.2,229.6z"/>
<polygon points="-5.3,474.9 -2.8,474.9 7.4,447.9 4.9,447.9 "/>
<path d="M22.1,470.4c-6.4,0-9.8-3.9-9.8-10.3c0-6.4,3.9-10.3,9.8-10.3c2,0,3.9,0.5,4.9,1l1-2.4c-1-0.5-2.9-1-5.9-1
	c-7.8,0-13.2,5.4-13.2,13.2c0,8.3,5.4,12.7,12.2,12.7c3.4,0,5.9-0.5,6.8-1l-0.5-2.9C25.9,469.9,23.9,470.4,22.1,470.4z"/>
<path d="M35.3,462.6c0-0.5,0-1,0-1.5c0.5-2,2.4-3.4,4.4-3.4c3.4,0,4.4,2.4,4.4,5.4v10.3h3.4v-10.7c0-6.4-3.9-7.8-6.4-7.8
	c-1.5,0-2.4,0.5-3.4,1s-2,1.5-2.4,2.4v-11.2h-3.4v26.4h3.4V462.6z"/>
<path d="M59.7,473.9c4.4,0,8.8-2.9,8.8-9.8c0-5.4-3.4-9.3-8.8-9.3c-4.9,0-8.8,3.9-8.8,9.8C50.9,470.4,54.8,473.9,59.7,473.9z
	 M59.7,457.7c3.9,0,5.4,3.9,5.4,6.8c0,3.9-2.4,6.8-5.4,6.8c-3.4,0-5.4-2.9-5.4-6.8C54.3,461.1,55.8,457.7,59.7,457.7z"/>
<rect x="72.9" y="455.2" width="3.4" height="18.1"/>
<path d="M74.4,451.9c1,0,2-1,2-2s-0.5-2-2-2c-1,0-2,1-2,2S72.9,451.9,74.4,451.9z"/>
<path d="M84.6,464c0-0.5,0-1,0-1.5c0.5-2.4,2-4.4,4.4-4.4c0.5,0,0.5,0,1,0v-2.9h-1c-2,0-3.9,1.5-4.9,3.9v-3.4h-2.9
	c0,1.5,0,3.4,0,5.4v12.7h3.4V464z"/>
<path d="M218.4,525.1v0.2c1.2-1,2-2.5,2-4.1c0-2.9-2.4-5.4-5.4-5.4c-2.9,0-5.4,2.4-5.4,5.4c0,1.9,1,3.5,2.4,4.5v-0.1L218.4,525.1z"
	/>
<path d="M228.2,553.4h4.9l-6.8-23c0,0-0.5-3.9-4.4-3.9h-3.4v-1.3c-0.9,0.8-2.1,1.3-3.4,1.3c-1.1,0-2.1-0.3-2.9-0.9v1.4h-4.4
	c0,0-2.4-0.5-3.4,3.9c-1,3.9-6.4,22.5-6.4,22.5h4.9l5.4-15.6l2.4,4.9L199,580.8h5.4l11.2-24.9l10.7,24.9h6.4L221,542.7l2-5.4
	L228.2,553.4z"/>
<path d="M218.4,525.4v-0.2l-6.4,0.5v0.1c0.8,0.6,1.9,0.9,2.9,0.9C216.3,526.5,217.4,526.1,218.4,525.4z"/>
<path d="M1097.7,682.9L1097.7,682.9c1.5-0.9,2.4-2.5,2.4-4.4c0-2.9-2.4-5.4-5.4-5.4s-5.4,2.4-5.4,5.4c0,2.4,1.2,4.1,2.9,4.9v-0.5
	H1097.7z"/>
<path d="M1103.1,694.6l5.4,16.1h4.9l-6.8-23c0,0-0.5-3.4-4.4-3.4h-4.4V683c-0.8,0.6-1.9,0.9-2.9,0.9c-0.9,0-1.7-0.2-2.4-0.5v1h-4.4
	c0,0-2.4-0.5-3.4,3.9c-1,3.9-6.4,22.5-6.4,22.5h4.9l5.4-15.6l2.4,4.9l-11.7,38.1h5.4l11.2-24.9l10.7,24.9h6.4l-11.7-38.1
	L1103.1,694.6z"/>
<path d="M1097.7,682.9L1097.7,682.9l-5.4-0.1v0.5c0.7,0.3,1.6,0.5,2.4,0.5C1095.8,683.9,1096.8,683.5,1097.7,682.9z"/>
<path d="M220.9,332.1c0-2.9-2.4-5.9-5.9-5.9c-2.9,0-5.9,2.4-5.9,5.9c0,2.6,1.7,4.6,3.8,5.5l3.1,0.3
	C218.6,337.4,220.9,335.2,220.9,332.1z"/>
<path d="M218.9,340h-2v-2l-1-0.1c-0.3,0.1-0.7,0.1-1,0.1c-0.7,0-1.4-0.1-2.1-0.4l-0.9-0.1v1.5h-2.4c0,0-2.9,0-3.9,3.4
	s-7.8,25.9-7.8,25.9h3.9l5.9-17.1l2,4.9l-6.8,22h6.8l2,21.5h5.9l2.4-21.5h6.8l-6.8-21.5l2-5.4l5.9,17.6h3.9l-8.3-26.4
	C223.3,342.4,223.3,339.5,218.9,340z"/>
<path d="M215.9,337.9l-3.1-0.3c0.7,0.3,1.4,0.4,2.1,0.4C215.4,338,215.7,338,215.9,337.9z"/>
<path d="M1158.8,673.1c0-3.4-2.4-6.4-5.9-6.4c-2.9,0-5.9,2.9-5.9,6.4c0,2.6,1.7,4.6,3.8,5.5l3,0.3
	C1156.4,678.4,1158.8,676.1,1158.8,673.1z"/>
<path d="M1156.8,680.9h-2v-2l-1-0.1c-0.3,0.1-0.7,0.1-1,0.1c-0.7,0-1.4-0.1-2.1-0.4l-0.9-0.1v1.5h-2.4c0,0-2.9,0-3.9,3.4
	s-7.8,25.9-7.8,25.9h3.9l5.9-17.1l2,4.9l-6.8,22h6.8l2,21.5h5.9l2.4-21.5h6.8l-6.8-21.5l2-5.4l5.9,17.6h3.9l-8.3-26.4
	C1161.2,683.4,1161.2,680.4,1156.8,680.9z"/>
<path d="M1153.9,678.9l-3-0.3c0.7,0.3,1.4,0.4,2.1,0.4C1153.2,678.9,1153.6,678.9,1153.9,678.9z"/>
<path d="M306.9,516.9c-3.4,1-4.9,3.4-5.4,8.3c0,3.9-0.5,5.9-2.9,6.4c-1.5,0.5-3.9,0-4.9-3.9c-1-2.4-0.5-4.4-0.5-5.4
	c-1-0.5-2-0.5-2.9-0.5c-0.5,1.5-0.5,3.4,0.5,6.4c1.5,5.4,5.4,7.8,9.3,6.8c3.4-1,4.9-4.4,4.9-8.8c0-3.9,1-5.9,3.4-6.4
	c2.4-1,4.4,0.5,5.4,3.9c0.5,2.4,0.5,4.4,0,6.4c1,0,1.5,0,2.9,0.5c0.5-1.5,0-4.4-0.5-6.8C314.7,517.9,310.8,515.9,306.9,516.9z"/>
<path d="M289.3,509.9c7.3-1.5,14.7-2.9,22-4.9c0-1.5-0.5-2.4-0.5-3.4c-7.3,1.5-14.7,2.9-22,4.4c-0.5-2.9-1-5.4-1.5-8.3
	c-1,0-2,0.5-2.9,0.5c1.5,6.8,2.9,13.7,4.4,20.5c0.5,0,1.5-0.5,2.4-0.5C290.8,515.4,289.8,512.9,289.3,509.9z"/>
<path d="M308.8,492.9c-2.9-0.5-5.4-1-8.3-1.5c-0.5-2.9-1-5.9-1-9.3c2.4-1,4.9-2.4,7.3-3.4c-0.5-1-0.5-2.4-0.5-3.4
	c-8.3,3.4-16.1,7.3-23.9,11.7c0,1.5,0.5,2.9,0.5,4.4c8.8,2,17.6,3.4,26.4,4.9C309.3,495.4,308.8,493.9,308.8,492.9z M290.3,489.4
	c-2,0-3.4-0.5-4.9-0.5c1.5-0.5,2.9-1,4.4-2c2.4-1,4.4-2.4,6.8-3.4c0.5,2.4,1,4.9,1,7.3C295.1,490.4,292.7,489.9,290.3,489.4z"/>
<path d="M305.9,468.4c-8.3,0.5-16.6,1-24.9,1.5c0,1,0,2.4,0,3.9c8.3-0.5,16.6-1.5,24.9-2C305.9,470.9,305.9,469.4,305.9,468.4z"/>
<path d="M305.4,462.6c0-1.5,0-2.4,0-3.4c-3.4,0.5-7.3,0.5-10.7,0.5c0-1.5,0-2.4,0-3.4c0-3.4,1.5-4.4,4.9-5.4c2.9-0.5,5.4-1,5.9-1.5
	c0-1,0-2.4,0-3.4c-1,0.5-3.4,1-6.8,2c-2.4,0.5-4.4,2-4.9,3.9c-1-2.9-2.9-5.4-6.4-5.4c-2,0-3.9,0.5-4.9,2c-1.5,2-2,4.4-2,8.3
	c0,2.4,0,4.9,0.5,6.8C289.3,463,297.6,463,305.4,462.6z M287.3,450.4c2.9,0,4.9,2,4.9,5.9c0,1,0,2.4,0,3.4c-2.9,0-5.9,0-9.3,0.5
	c-0.5-0.5-0.5-1.5-0.5-3.4C282.4,452.9,283.9,450.4,287.3,450.4z"/>
<path d="M286.8,442c3.4,0,5.4-2.4,7.3-6.8c1.5-3.4,2.9-4.4,5.4-4.4c2.4,0.5,3.9,2.4,3.9,5.9c0,2.4-1,4.4-2,5.9c1,0.5,2,0.5,2.9,1.5
	c1-1.5,2-3.9,2-6.4c0.5-6.4-2.4-9.3-6.4-9.8c-3.4-0.5-5.9,1.5-7.8,5.9c-2,3.4-2.9,4.9-5.4,4.9c-1.5,0-3.9-1.5-3.4-5.4
	c0-2.4,1-3.9,1.5-4.9c-1-0.5-1.5-1-2.4-1.5c-1,1-2,2.9-2,5.9C279.9,438.1,282.9,442,286.8,442z"/>
<path d="M309.8,407.4c1.5-5.4-1-9.8-8.3-11.7c-4.9-1.5-9.3-2.4-14.2-3.4c-0.5,1-0.5,2.4-1,3.4c4.9,1,9.8,2,14.7,2.9
	c5.4,1,6.8,3.9,6.4,7.8c-0.5,2.9-3.4,5.4-8.8,4.4c-4.9-1-9.8-1.5-14.7-2.4c0,1.5,0,2.4-1,3.9c4.9,1,9.8,1.5,14.7,2.4
	C305.4,415.7,308.8,412.2,309.8,407.4z"/>
<path d="M314.7,388.9c-3.4-0.5-6.4-1.5-9.8-2.4c0.5-0.5,0.5-1.5,1-2.4c0.5-3.4,0.5-6.4-0.5-8.8c-1-2-2.4-3.4-4.4-3.9
	c-2.4-0.5-4.4,0-5.9,1c-2,1-3.4,3.4-4.4,6.8c-1,2.9-1.5,4.9-1.5,6.8c7.8,2,15.6,3.9,24.4,6.3C314.2,390.9,314.2,389.9,314.7,388.9z
	 M302.4,382.4c-0.5,1.5-0.5,2.4-1,2.9c-2.9-1-5.9-1.5-8.8-2.4c0-0.5,0-2,0.5-3.4c1-3.9,2.9-5.9,6.4-4.9
	C302.4,375.6,303.4,378.5,302.4,382.4z"/>
<path d="M482.7,558.4h-41.5c-5.4,0-9.8,4.4-9.8,9.8v41.5c0,5.4,4.4,9.8,9.8,9.8h41.5c5.4,0,9.8-4.4,9.8-9.8v-41.5
	C492.4,562.7,488.1,558.4,482.7,558.4z M466.1,612.5h-9.8v-9.3h9.8V612.5z M475.9,585.2c-1,1-2.4,2.4-4.4,4.4l-2.4,2
	c-1,1-2,2-2.4,3.4c0,1-0.5,2-0.5,3.9h-8.8c0-3.4,0.5-5.9,1-7.3c0.5-1.5,2-2.9,4.4-4.9l2.4-2c1-0.5,1.5-1,2-2c1-1,1.5-2.4,1.5-3.9
	s-0.5-2.9-1.5-4.4s-2.4-2-5.4-2c-2.4,0-4.4,1-5.4,2.4c-1,1.5-1.5,3.4-1.5,4.9h-9.3c-0.5-5.9,2-10.3,5.9-12.7
	c2.4-1.5,5.4-2.4,9.3-2.4c4.9,0,8.8,1,12.2,3.4s4.9,5.9,4.9,10.3C477.8,581.4,477.3,583.2,475.9,585.2z"/>
<rect x="456.3" y="603.2" class="st2" width="9.8" height="9.3"/>
<path class="st2" d="M472.9,568.1c-3.4-2.4-7.3-3.4-12.2-3.4c-3.9,0-6.8,1-9.3,2.4c-3.9,2.4-6.4,6.8-5.9,12.7h9.3
	c0-1.5,0.5-3.4,1.5-4.9s2.9-2.4,5.4-2.4c2.9,0,4.4,0.5,5.4,2s1.5,2.9,1.5,4.4s-0.5,2.9-1.5,3.9c-0.5,1-1,1.5-2,2l-2.4,2
	c-2.4,2-3.9,3.4-4.4,4.9s-1,3.9-1,7.3h8.8c0-2,0.5-2.9,0.5-3.9c0.5-1.5,1.5-2.4,2.4-3.4l2.4-2c2-2,3.4-3.4,4.4-4.4
	c1.5-2,2-3.9,2-6.8C477.8,573.9,476.4,570.5,472.9,568.1z"/>
<polygon points="433.9,303.4 434.4,305.9 438.8,303.9 438.8,324.9 441.7,324.9 441.7,300.9 439.2,300.9 "/>
<path d="M458.8,300.4c-4.9,0-8.3,4.4-8.3,12.7c0,7.8,2.9,12.2,7.8,12.2c5.4,0,8.3-4.4,8.3-12.7C466.6,304.9,463.7,300.4,458.8,300.4
	z M458.8,322.9c-3.4,0-5.4-3.9-4.9-10.3c0-5.9,2-9.8,4.9-9.8c3.4,0,4.9,3.9,4.9,9.8C463.7,318.9,462.2,322.9,458.8,322.9z"/>
<path d="M484.2,303.4l1-2h-11.7l-1.5,11.7c1-0.5,2-0.5,3.4-0.5c4.9,0,6.8,2,6.8,5.4s-2.9,5.4-5.9,5.4c-2.4,0-4.4-1-5.4-1.5l-1,2.4
	c1,0.5,3.4,1.5,5.9,1.5c4.9,0,8.8-3.4,8.8-8.3c0-3.4-1.5-5.4-3.4-6.4c-1.5-1-3.4-1.5-5.4-1.5c-1,0-1.5,0-2,0l1-6.4h9.4V303.4z"/>
<polygon points="438.8,198.3 438.8,219.4 441.7,219.4 441.7,194.9 439.2,194.9 433.9,197.8 434.4,200.3 "/>
<path d="M458.3,219.9c5.4,0,8.3-4.9,8.3-12.7s-2.9-12.2-7.8-12.2s-8.3,4.4-8.3,12.7C450.4,215.4,453.4,219.9,458.3,219.9z
	 M453.9,206.6c0-5.9,2-9.8,4.9-9.8c3.4,0,4.9,3.9,4.9,9.8c0,6.3-1.5,10.3-4.9,10.3S453.4,213.4,453.9,206.6z"/>
<path d="M477.8,219.4c5.4,0,8.3-3.9,8.3-8.3c0-4.9-2.9-7.8-7.3-7.8c-2.4,0-4.9,1.5-5.9,2.9c0.5-4.4,2.9-7.8,8.3-8.8c1,0,2,0,2.4,0
	v-2.4c-0.5,0-1.5,0-2.4,0c-2.9,0-5.9,1.5-7.8,3.4c-2.4,2.4-3.9,5.9-3.9,10.7C469.4,215.4,472.9,219.4,477.8,219.4z M472.9,208.6
	c1-2,2.9-2.9,4.9-2.9c2.9,0,4.9,2,4.9,5.4s-2,5.9-4.9,5.9c-3.4,0-5.4-2.9-5.4-6.8C472.4,209.5,472.9,209,472.9,208.6z"/>
<polygon points="1252.4,422.5 1252.4,443.5 1255.4,443.5 1255.4,419.6 1252.4,419.6 1247.7,422 1248.1,424.5 "/>
<path d="M1270.6,441.1c-2.4,0-4.4-1-5.4-1.5l-1.5,3.4c1.5,0.5,3.4,1.5,6.4,1.5c5.9,0,8.8-3.4,8.8-7.3c0-3.4-2.4-5.9-5.4-6.4
	c2.9-1.5,4.4-3.4,4.4-5.9c0-2.9-2-5.9-6.8-5.9c-2.4,0-4.9,1-6.4,2l1,2.4c1-0.5,2.9-1.5,4.9-1.5c3.4,0,4.4,1.5,4.4,3.4
	c0,2.9-2.9,3.9-5.4,3.9h-2v2h2c3.4,0,6.3,1.5,6.3,4.9C1275.9,438.6,1274.9,441.1,1270.6,441.1z"/>
<path d="M1291.1,443.5c5.4,0,8.3-3.9,8.3-8.3c0-4.9-2.9-7.8-7.3-7.8c-2.4,0-4.9,1.5-5.9,2.9c0.5-4.4,2.9-7.8,8.3-8.8c1,0,2,0,2.4,0
	v-2.4c-0.5,0-1.5,0-2.4,0c-2.9,0-5.9,1.5-7.8,3.4c-2.4,2.4-3.9,5.9-3.9,10.7C1282.8,439.6,1286.2,443.5,1291.1,443.5z M1286.7,433.2
	c1-2,2.9-2.9,4.9-2.9c2.9,0,4.9,2,4.9,5.4s-2,5.9-4.9,5.9c-3.4,0-5.4-2.9-5.4-6.8C1286.2,434.2,1286.7,433.7,1286.7,433.2z"/>
<path d="M1094.8,493.4l12.2-8.3v-3.9l-14.2,9.8l-10.7-9.3v3.9l9.3,7.8c0.5,0.5,1.5,1.5,2.4,2h-12.2v3.4l25.9,0.5v-3.4h-9.8
	L1094.8,493.4z"/>
<rect x="1081.6" y="475.4" width="24.9" height="3.4"/>
<polygon points="1081.6,454.4 1081.6,472.9 1084.4,472.9 1084.4,465 1106.9,465 1106.9,461.6 1084.4,461.6 1084.4,454.4 "/>
<path d="M1094.3,453.9c8.3,0,12.7-5.4,12.7-12.2c0-3.4-0.5-5.9-1-6.8l-2.9,0.5c0.5,1.5,1,3.4,1,5.4c0,6.4-3.9,9.8-10.3,9.8
	s-10.3-3.9-10.3-9.8c0-2,0.5-3.9,1-4.9l-2.4-1c-0.5,1-1,2.9-1,5.9C1081.1,448.4,1086.4,453.9,1094.3,453.9z"/>
<polygon points="1106.9,427.4 1095.3,427.4 1095.3,415.7 1106.9,415.7 1106.9,412.2 1081.6,412.2 1081.6,415.7 1092.3,415.7 
	1092.3,427.4 1081.6,427.4 1081.6,430.9 1106.9,430.9 "/>
<polygon points="1106.9,392.7 1103.9,392.7 1103.9,403.5 1095.3,403.5 1095.3,393.7 1092.3,393.7 1092.3,403.5 1084.4,403.5 
	1084.4,393.2 1081.6,393.2 1081.6,406.4 1106.9,406.4 "/>
<path d="M1107.4,386.4h-10.7c-3.9,0-7.3,0-10.3,0c2.4-1.5,5.4-2.9,8.3-4.9l12.7-7.8v-3.4h-24.9v2.9h10.3c3.9,0,6.8,0,10.3-0.5
	c-2.9,1-5.4,2.4-8.3,4.4l-12.7,7.8v3.4h24.9L1107.4,386.4z"/>
<path class="st8" d="M627.2,440.4h4.5l0.8-16.6c0-6,0.8-12.8,0.8-17.3c1.5,4.5,3,9.8,4.5,15l6,18.1h3.8l6.8-18.8
	c1.5-5.3,3-9.8,4.5-14.3c0,4.5,0.8,11.3,0.8,16.6l0.8,17.3h5.3l-2.3-38.4h-6l-6.8,18.8c-1.5,4.5-3,9-3.8,12.8
	c-0.8-3.8-2.3-8.3-3.8-12.8l-6.8-18.8h-6L627.2,440.4z"/>
<rect x="672.4" y="401.1" class="st8" width="5.3" height="38.4"/>
<path class="st8" d="M691.2,426l3.8-4.5l12.8,18.8h6l-15-21.8l14.3-16.6h-6l-12,14.3c-0.8,0.8-2.3,2.3-3,3.8v-18.8h-5.3l-0.8,39.9
	h5.3L691.2,426L691.2,426z"/>
<polygon class="st8" points="739.3,435.7 722.8,435.7 722.8,421.5 737.1,421.5 737.1,417.7 722.8,417.7 722.8,405.7 738.6,405.7 
	738.6,401.1 717.4,401.1 717.4,439.5 739.3,439.5 "/>
<path class="st8" d="M767.9,439.5l5.3-20.3c1.5-5.3,2.3-9,3-12.8c0,3.8,0.8,7.5,2.3,12.8l4.5,20.3h5.3l11.3-38.4h-5.3l-5.3,19.6
	c-1.5,5.3-2.3,9-3,13.5c-0.8-4.5-2.3-9-3-13.5l-4.5-19.6h-5.3l-5.3,19.6c-1.5,5.3-2.3,9.8-3,13.5c-0.8-3.8-2.3-9-3-13.5l-4.5-19.6
	h-5.3l9.8,38.4H767.9z"/>
<rect x="804.1" y="401.1" class="st8" width="5.3" height="38.4"/>
<polygon class="st8" points="839.4,435.7 822.9,435.7 822.9,401.1 817.6,401.1 817.6,439.5 839.4,439.5 "/>
<polygon class="st8" points="566.3,504.2 571.6,504.2 571.6,486.9 585.9,486.9 585.9,482.4 571.6,482.4 571.6,469.6 587.4,469.6 
	587.4,465.9 566.3,465.9 "/>
<polygon class="st8" points="599.4,486.2 614.4,486.2 614.4,481.6 599.4,481.6 599.4,469.6 615.2,469.6 615.2,465.9 594.1,465.9 
	594.1,504.2 615.9,504.2 615.9,499.7 599.4,499.7 "/>
<polygon class="st8" points="627.2,465.9 622.7,465.9 622.7,504.2 643.8,504.2 643.8,499.7 627.2,499.7 "/>
<polygon class="st8" points="654.3,465.9 649.1,465.9 649.1,504.2 670.9,504.2 670.9,499.7 654.3,499.7 "/>
<path class="st8" d="M688.9,505c9.8,0,18.1-7.5,18.1-20.3c0-11.3-6.8-19.6-17.3-19.6s-18.1,8.3-18.1,20.3
	C671.6,497.4,678.4,505,688.9,505z M677.6,484.7c0-8.3,3.8-15.8,12-15.8s12,8.3,12,15.8c0,8.3-4.5,15.8-12,15.8
	C681.4,500.5,676.9,492.9,677.6,484.7z"/>
<path class="st8" d="M719.8,504.2h6.8l5.3-20.3c1.5-5.3,2.3-9,3-12.8c0,3.8,0.8,7.5,2.3,12.8l4.5,20.3h4.5l11.3-38.4h-5.3l-5.3,19.6
	c-1.5,5.3-2.3,9-3,13.5c-0.8-4.5-2.3-9-3-13.5l-4.5-19.6h-5.3l-5.3,19.6c-1.5,5.3-2.3,9.8-3,13.5c-0.8-3.8-2.3-9-3-13.5l-4.5-19.6
	H710L719.8,504.2z"/>
<path class="st8" d="M773.2,481.6c-5.3-2.3-7.5-3.8-7.5-7.5c0-3,2.3-6,7.5-6c3.8,0,6,0.8,7.5,1.5l1.5-3.8c-1.5-0.8-4.5-1.5-8.3-1.5
	c-7.5,0-12.8,4.5-12.8,10.5s4.5,9,10.5,11.3c5.3,1.5,7.5,3.8,7.5,7.5c0,3.8-3,6.8-8.3,6.8c-3.8,0-6.8-0.8-9-2.3l-2.3,3.8
	c2.3,0.8,6,2.3,9.8,2.3c9,0,13.5-5.3,13.5-11.3C782.9,487.7,779.9,483.9,773.2,481.6z"/>
<polygon class="st8" points="795.8,465.9 790.4,465.9 790.4,504.2 795.8,504.2 795.8,486.2 813.8,486.2 813.8,504.2 819.1,504.2 
	819.1,465.9 813.8,465.9 813.8,481.6 795.8,481.6 "/>
<rect x="827.4" y="465.9" class="st8" width="5.3" height="38.4"/>
<path class="st8" d="M846.9,489.2c0.8,0,2.3,0,3.8,0c5.3,0,9-1.5,12-4.5c2.3-2.3,3-4.5,3-8.3s-1.5-6.8-3.8-8.3s-5.3-3-10.5-3
	c-4.5,0-7.5,0-9.8,0.8V505h5.3V489.2z M846.2,484.7v-14.3c0.8-0.8,2.3-0.8,4.5-0.8c5.3,0,9,2.3,9,7.5s-3.8,8.3-9.8,8.3
	C848.4,485.4,846.9,484.7,846.2,484.7L846.2,484.7z"/>
<polygon class="st8" points="889.1,465.9 883.8,465.9 883.8,504.2 889.1,504.2 889.1,486.2 907.9,486.2 907.9,504.2 912.4,504.2 
	912.4,465.9 907.9,465.9 907.9,481.6 889.1,481.6 "/>
<path class="st8" d="M931.2,465.9l-12.8,38.4h5.3l3.8-12h13.5l3.8,12h5.3l-12.8-38.4H931.2z M928.2,488.4l3.8-11.3
	c0.8-2.3,1.5-4.5,2.3-6.8c0.8,2.3,1.5,4.5,2.3,6.8l3.8,11.3H928.2z"/>
<polygon class="st8" points="977.9,499.7 961.3,499.7 961.3,465.9 955.9,465.9 955.9,504.2 977.9,504.2 "/>
<polygon class="st8" points="1004.9,499.7 988.4,499.7 988.4,465.9 983.1,465.9 983.1,504.2 1004.9,504.2 "/>
<polygon points="1583.7,537.9 1584.2,540.2 1588.1,538.4 1588.6,538.4 1588.6,559.4 1591.4,559.4 1591.4,534.9 1588.6,534.9 "/>
<path d="M1246.7,211.5c4.4,0,6.8-1,8.8-2.4c1-1,2-2.9,2-4.9c0-3.9-2.9-5.9-5.4-6.4c2.9-1,4.4-2.9,4.4-5.4c0-2-0.5-3.4-2-4.4
	c-1.5-1.5-3.4-2-6.8-2c-2,0-4.4,0-5.9,0.5V211C1242.8,211.5,1244.2,211.5,1246.7,211.5z M1245.2,188.5c0.5,0,1.5,0,2.9,0
	c3.4,0,5.4,1,5.4,3.9c0,2.4-2,4.4-5.4,4.4h-2.9V188.5z M1245.7,208.6v-9.8h2.4c3.4,0,6.4,1.5,6.4,4.9s-2.9,4.9-6.4,4.9
	C1247.1,208.6,1246.3,208.6,1245.7,208.6c-0.2,0-0.4,0-0.5,0C1245.3,208.6,1245.4,208.6,1245.7,208.6z"/>
<path d="M1271.1,211.5c5.4,0,9.3-2.9,9.3-10.7v-14.7h-3.4v14.7c0,5.4-2,7.8-5.9,7.8c-3.4,0-5.9-2.4-5.9-7.8v-14.7h-2.9v14.7
	C1262.3,208.6,1265.7,211.5,1271.1,211.5z"/>
<rect x="1285.8" y="186.1" width="3.4" height="24.9"/>
<polygon points="1308.7,208.6 1297.9,208.6 1297.9,186.1 1294.9,186.1 1294.9,211 1308.7,211 "/>
<path d="M1329.2,207.6c2-2.4,3.4-5.9,3.4-9.8s-1-6.8-3.4-8.8s-5.9-2.9-10.3-2.9c-2.4,0-4.9,0-6.8,0.5v23.9c1.5,0.5,3.4,0.5,5.9,0.5
	C1322.9,211,1326.8,210,1329.2,207.6z M1315.6,208.6L1315.6,208.6v-20c1-0.5,2.4-0.5,3.9-0.5c6.8,0,10.3,3.9,10.3,9.8
	c0,6.8-3.9,10.7-10.7,10.7C1317.4,208.6,1316.4,208.6,1315.6,208.6L1315.6,208.6z"/>
<rect x="1336.9" y="186.1" width="3.4" height="24.9"/>
<path d="M1349.3,200.3c0-3.9,0-7.3,0-10.3c1,2.4,2.4,5.4,4.4,8.3l7.8,12.7h2.4v-24.9h-2.9v10.7c0,3.9,0,6.8,0.5,10.3
	c-1-2.9-2.4-5.4-4.4-8.3l-7.8-12.7h-3.4V211h3.4V200.3z"/>
<path d="M1381.4,211.5c3.4,0,6.4-1,7.8-1.5l0.5-11.2h-8.3v2.4h4.9v7.3c-1,0-2.4,0.5-4.4,0.5c-5.9,0-9.8-3.9-9.8-10.3
	c0-6.3,4.4-10.3,10.3-10.3c2.4,0,3.9,0.5,5.4,1l1-2.4c-1-0.5-3.4-1-6.4-1c-8.3,0-13.7,5.4-13.7,12.7c0,3.9,1.5,7.3,3.4,9.3
	C1374.7,210.5,1377.6,211.5,1381.4,211.5z"/>
<path d="M1406.4,203.2h8.8l2.4,7.8h3.4l-8.3-24.9h-3.9l-8.3,24.9h3.4L1406.4,203.2z M1409.8,193.4c0-1.5,0.5-2.9,1-4.4
	c0.5,1.5,1,2.9,1.5,4.4l2.4,7.3h-7.3L1409.8,193.4z"/>
<path d="M1429.9,211.5c4.4,0,6.8-1,8.8-2.4c1-1,2-2.9,2-4.9c0-3.9-2.9-5.9-5.4-6.4c2.9-1,4.4-2.9,4.4-5.4c0-2-0.5-3.4-2-4.4
	c-1.5-1.5-3.4-2-6.8-2c-2,0-4.4,0-5.9,0.5V211C1425.9,211.5,1427.4,211.5,1429.9,211.5z M1428.4,188.5c0.5,0,1.5,0,2.9,0
	c3.4,0,5.4,1,5.4,3.9c0,2.4-2,4.4-5.4,4.4h-2.9V188.5z M1428.9,208.6v-9.8h2.4c3.4,0,6.4,1.5,6.4,4.9s-2.9,4.9-6.4,4.9
	C1430.2,208.6,1429.4,208.6,1428.9,208.6c-0.2,0-0.4,0-0.5,0C1428.4,208.6,1428.7,208.6,1428.9,208.6z"/>
<path d="M1454.8,211.5c6.4,0,11.7-4.9,11.7-13.2c0-7.3-4.4-12.7-11.2-12.7c-6.8,0-11.7,5.4-11.7,13.2
	C1443.6,206.6,1447.9,211.5,1454.8,211.5z M1454.8,188.5c5.4,0,7.8,5.4,7.8,10.3c0,5.4-2.9,10.3-7.8,10.3s-7.8-4.9-7.8-10.3
	S1449.4,188.5,1454.8,188.5z"/>
<path d="M1479.7,211l8.8-24.9h-3.4l-4.4,12.2c-1.5,3.4-2.4,6.4-2.9,9.3c-0.5-2.9-1.5-5.9-2.4-9.3l-3.9-12.2h-3.4l8.3,24.9
	L1479.7,211L1479.7,211z"/>
<polygon points="1505.6,208.6 1494.8,208.6 1494.8,199.3 1504.1,199.3 1504.1,196.8 1494.8,196.8 1494.8,188.5 1505.1,188.5 
	1505.1,186.1 1491.4,186.1 1491.4,211 1505.6,211 "/>
<path d="M647.8,209c1-1,2-2.9,2-4.9c0-3.9-2.9-5.9-5.4-6.4c2.9-1,4.4-2.9,4.4-5.4c0-2-0.5-3.4-2-4.4c-1.5-1.5-3.4-2-6.8-2
	c-2,0-4.4,0-5.9,0.5v24.4c1,0.5,2.4,0.5,4.9,0.5C643.4,211.5,645.9,210.5,647.8,209z M637.6,188.5c0.5,0,1.5,0,2.9,0
	c3.4,0,5.4,1,5.4,3.9c0,2.4-2,4.4-5.4,4.4h-2.9V188.5z M637.6,208.6c0.1,0,0.3,0,0.5,0v-9.8h2.4c3.4,0,6.4,1.5,6.4,4.9
	s-2.9,4.9-6.4,4.9c-1.1,0-1.9,0-2.4,0C637.9,208.6,637.7,208.6,637.6,208.6z"/>
<path d="M663.4,211.5c5.4,0,9.3-2.9,9.3-10.7v-14.7h-3.4v14.7c0,5.4-2,7.8-5.9,7.8c-3.4,0-5.9-2.4-5.9-7.8v-14.7h-2.9v14.7
	C654.7,208.6,658.6,211.5,663.4,211.5z"/>
<rect x="678.6" y="186.1" width="3.4" height="24.9"/>
<polygon points="701.1,208.6 690.3,208.6 690.3,186.1 687.4,186.1 687.4,211 701.1,211 "/>
<path d="M722.1,207.6c2-2.4,3.4-5.9,3.4-9.8s-1-6.8-3.4-8.8s-5.9-2.9-10.3-2.9c-2.4,0-4.9,0-6.8,0.5v23.9c1.5,0.5,3.4,0.5,5.9,0.5
	C715.7,211,719.6,210,722.1,207.6z M707.9,188.5c1-0.5,2.4-0.5,3.9-0.5c6.8,0,10.3,3.9,10.3,9.8c0,6.8-3.9,10.7-10.7,10.7
	c-1.5,0-2.4,0-3.4,0L707.9,188.5L707.9,188.5z"/>
<rect x="729.4" y="186.1" width="3.4" height="24.9"/>
<path d="M741.1,200.3c0-3.9,0-7.3,0-10.3c1,2.4,2.4,5.4,4.4,8.3l7.8,12.7h3.4v-24.9h-2.9v10.7c0,3.9,0,6.8,0.5,10.3
	c-1-2.9-2.4-5.4-4.4-8.3l-7.8-12.7h-3.4V211h2.4V200.3z"/>
<path d="M774.3,211.5c3.4,0,6.4-1,7.8-1.5l0.5-11.2h-8.3v2.4h4.9v7.3c-1,0-2.4,0.5-4.4,0.5c-5.9,0-9.8-3.9-9.8-10.3
	c0-6.3,4.4-10.3,10.3-10.3c2.4,0,3.9,0.5,5.4,1l1-2.4c-1-0.5-3.4-1-6.4-1c-8.3,0-13.7,5.4-13.7,12.7c0,3.9,1.5,7.3,3.4,9.3
	C767.4,210.5,770.4,211.5,774.3,211.5z"/>
<path d="M798.8,203.2h8.8l2.4,7.8h3.4l-8.3-24.9h-3.9l-8.3,24.9h3.4L798.8,203.2z M802.2,193.4c0-1.5,0.5-2.9,1-4.4
	c0.5,1.5,1,2.9,1.5,4.4l2.4,7.3h-7.3L802.2,193.4z"/>
<path d="M822.2,211.5c4.4,0,6.8-1,8.8-2.4c1-1,2-2.9,2-4.9c0-3.9-2.9-5.9-5.4-6.4c2.9-1,4.4-2.9,4.4-5.4c0-2-0.5-3.4-2-4.4
	c-1.5-1.5-3.4-2-6.8-2c-2,0-4.4,0-5.9,0.5V211C818.3,211.5,819.8,211.5,822.2,211.5z M820.7,188.5c0.5,0,1.5,0,2.9,0
	c3.4,0,5.4,1,5.4,3.9c0,2.4-2,4.4-5.4,4.4h-2.9V188.5z M821.2,208.6v-9.8h2.4c3.4,0,6.4,1.5,6.4,4.9s-2.9,4.9-6.4,4.9
	C822.6,208.6,821.8,208.6,821.2,208.6c-0.2,0-0.4,0-0.5,0C820.9,208.6,820.9,208.6,821.2,208.6z"/>
<path d="M847.1,211.5c6.8,0,11.7-4.9,11.7-13.2c0-7.3-4.4-12.7-11.2-12.7c-6.8,0-11.7,5.4-11.7,13.2
	C835.8,206.6,840.3,211.5,847.1,211.5z M839.8,198.8c0-5.4,2.4-10.3,7.8-10.3s7.8,5.4,7.8,10.3c0,5.4-2.9,10.3-7.8,10.3
	C842.2,209,839.3,204.2,839.8,198.8z"/>
<path d="M871.9,211l8.8-24.9h-3.4l-4.4,12.2c-1,3.4-2.4,6.4-2.9,9.3c-0.5-2.9-1.5-5.9-2.4-9.3l-3.9-12.2h-3.4l8.3,24.9L871.9,211
	L871.9,211z"/>
<polygon points="897.9,208.6 887.2,208.6 887.2,199.3 896.9,199.3 896.9,196.8 887.2,196.8 887.2,188.5 897.4,188.5 897.4,186.1 
	883.7,186.1 883.7,211 897.9,211 "/>
<polygon class="st2" points="476.4,902.7 465.6,921.2 454.9,940.4 476.4,940.4 497.9,940.4 487.1,921.2 "/>
<path d="M359.1,987.7h2.4l4.4-12.2c1-3.4,2-6.4,2.9-9.3c0,2.9,0.5,7.3,0.5,10.7l0.5,11.2h3.4l-1.5-24.9h-3.9l-4.4,12.2
	c-1,2.9-2,5.9-2.4,8.3c-0.5-2.4-1.5-5.4-2.4-8.3l-4.4-12.2h-3.9l-2,24.9h2.9l0.5-10.7c0-3.9,0.5-8.3,0.5-11.2c1,2.9,2,6.4,2.9,9.8
	L359.1,987.7z"/>
<path d="M384.4,963.2l-8.3,24.9h3.4l2.4-7.8h8.8l2.4,7.8h3.4l-8.3-24.9H384.4z M382.6,977.4l2.4-7.3c0.5-1.5,1-2.9,1.5-4.4
	c0.5,1.5,1,2.9,1.5,4.4l2.4,7.3H382.6z"/>
<rect x="400.7" y="962.7" width="3.4" height="24.9"/>
<path d="M412.9,963.2h-3.4v24.9h2.4v-10.7c0-3.9,0-7.3,0-10.3c1,2.4,2.4,5.4,4.4,8.3l7.8,12.7h3.4v-24.9h-2.9v10.7
	c0,3.9,0,6.8,0.5,10.3c-1-2.9-2.4-5.4-4.4-8.3L412.9,963.2z"/>
<polygon points="455.4,965.7 455.4,962.7 441.7,962.7 441.7,988.1 455.9,988.1 455.9,985.2 445.1,985.2 445.1,976.4 454.9,976.4 
	454.9,973.5 445.1,973.5 445.1,965.7 "/>
<path d="M463.7,963.2h-3.4v24.9h2.4v-10.7c0-3.9,0-7.3,0-10.3c1,2.4,2.4,5.4,4.4,8.3l7.8,12.7h3.4v-24.9h-2.9v10.7
	c0,3.9,0,6.8,0.5,10.3c-1-2.9-2.4-5.4-4.4-8.3L463.7,963.2z"/>
<polygon points="492.4,988.1 492.4,965.7 500.3,965.7 500.3,962.7 481.7,962.7 481.7,965.7 489.6,965.7 489.6,988.1 "/>
<path d="M514.9,981.9c0.5,2.9,1,5.4,1.5,5.9h3.4c-0.5-1-1-3.4-2-6.8c-1-2.4-2-4.4-3.9-4.9c2.9-1,4.9-2.9,4.9-6.4c0-2-0.5-3.9-2-4.9
	c-1.5-1.5-3.9-2-7.3-2c-2.4,0-4.9,0-6.4,0.5l0.5,24.4h3.4V977h2.9C512.9,976.9,513.9,978.4,514.9,981.9z M509.6,974.5h-3.4v-8.8
	c1-0.5,2-0.5,3.4-0.5c3.4,0,5.9,1,5.9,4.4C515.4,972.5,512.9,974.5,509.6,974.5z"/>
<path d="M529.6,963.2l-8.3,24.9h3.4l2.4-7.8h8.8l2.4,7.8h3.4l-8.3-24.9H529.6z M527.7,977.4l2.4-7.3c0.5-1.5,1-2.9,1.5-4.4
	c0.5,1.5,1,2.9,1.5,4.4l2.4,7.3H527.7z"/>
<path d="M549.6,963.2h-3.4v24.9h2.4v-10.7c0-3.9,0-7.3,0-10.3c1,2.4,2.4,5.4,4.4,8.3l7.8,12.7h3.4v-24.9h-2.9v10.7
	c0,3.9,0,6.8,0.5,10.3c-1-2.9-2.4-5.4-4.4-8.3L549.6,963.2z"/>
<path d="M581.9,964.7c2,0,3.9,0.5,4.9,1l1-2.4c-1-0.5-2.9-1-5.9-1c-7.8,0-13.2,5.4-13.2,13.2c0,8.3,5.4,12.7,12.2,12.7
	c3.4,0,5.9-0.5,6.8-1l-0.5-2.9c-1.5,0.5-3.4,1-5.4,1c-6.4,0-9.8-3.9-9.8-10.3C572.1,968.6,575.9,964.7,581.9,964.7z"/>
<polygon points="595.1,976.4 604.8,976.4 604.8,973.5 595.1,973.5 595.1,965.7 605.3,965.7 605.3,962.7 592.1,962.7 592.1,988.1 
	605.8,988.1 605.8,985.2 595.1,985.2 "/>
<g id="Children_x27_s_Wing">
</g>
<g id="Church_Offices">
</g>
<g id="Week_Day_Preschool">
</g>
<g id="Parking">
</g>
<g id="Sanctuary">
</g>
<g id="Nursery">
</g>
<g id="Welcome_Center">
</g>
<g id="Campus_Map">
</g>
<g id="Main_Building">
</g>
<rect x="547" y="400.2" class="st2" width="459.8" height="116.1"/>
<g>
	<text transform="matrix(1 3.669975e-03 -3.669975e-03 1 668.8973 445.8938)" class="st9"><tspan x="0" y="0" class="st10 st11 st12">MIKE WILSON</tspan><tspan x="-48.9" y="52.4" class="st10 st11 st12">FELLOWSHIP HALL</tspan></text>
</g>
</svg>
