<?xml version="1.0" encoding="utf-8"?>
<!-- Generator: Adobe Illustrator 19.2.1, SVG Export Plug-In . SVG Version: 6.00 Build 0)  -->
<svg version="1.1" id="Layer_1" xmlns="http://www.w3.org/2000/svg" xmlns:xlink="http://www.w3.org/1999/xlink" x="0px" y="0px"
	 viewBox="0 0 1600 1032" style="enable-background:new 0 0 1600 1032;" xml:space="preserve">
<style type="text/css">
	.st0{fill:#E9E5DC;}
	.st1{fill:#B7B7B7;}
	.st2{fill:#FAF9F0;}
	.st3{fill:#FFFFFF;}
	.st4{fill:#231F20;}
	.st5{fill:#6D6D6D;}
	.st6{font-family:'MyriadPro-Regular';}
	.st7{font-size:46.8016px;}
	.st8{font-size:46.7982px;}
	.st9{fill:#5D5D5D;}
	.st10{font-family:'MyriadPro-Bold';}
	.st11{font-size:59.0092px;}
	.st12{font-size:50.6668px;}
	.st13{fill:#AD2A2A;}
	.st14{font-size:66.1233px;}
	.st15{font-size:26.51px;}
</style>
<g id="Adult_Ed_Bldg">
</g>
<g>
	<path class="st0" d="M264.7-7.2l2.3-0.4l-36.5,4.8l1.8,17.4l32.4-2.5L306,274.3l-35.1,4.6l1.4,16.5l37.8-5l-1.1,0.1
		c5.9-1.2,10.9-6.8,12.5-12.6L278.6,0.4C275.4-4,269.7-7.2,264.7-7.2z"/>
	<polygon class="st0" points="1468.6,437 1483.1,421.4 1477,415.7 1462.6,431.4 	"/>
	<polygon class="st0" points="1480.8,448.4 1495.2,432.7 1489.1,427 1474.7,442.7 	"/>
	<polygon class="st0" points="1456.5,425.7 1470.9,410 1464.8,404.4 1450.4,420.1 	"/>
	<path class="st0" d="M314,321l2.3-0.4l-41.4,5.5c0,0-17.4,7.9-37.1-3.9c-14.2-8.5-40.1-185.2-60.1-337.9h-35.9l8.6,66.7l29.6-3.9
		l10.1,78l-11.5,1.5l0.9,7.3l-17.5,2.3l16.4,126.5l15.9-2.1l7,53.8l-11.5,1.5l0.9,7.3l-4.8,0.6l7.7,59.3l127.1-16.5l9.3,71.9
		l-11.5,1.5l0.9,7.3l-124.3,16.1l6.5,49.7l82.6-10.7l-0.2-1.5l11.5-1.5l-0.9-7.3l24.7-3.2l1,7.5l17.5-2.3l9,69.7l-11.5,1.5l0.9,7.3
		l-16.2,2.1l0.9,6.9l-26,3.4l-0.8-6l-79,10.2l0.6,5l2.1,16.4l64.8,18.6l-42.1,138.7l-7.2-2.2l-3.3,11l-40.7-12.3l-21.1,10.2
		l-13.4,41.8l-7.1-2.2l-3.5,11l-201.1-61.4v58.4l260.8,58c4.8,1.1,9.5,2.7,13.9,4.9l63.5,31.4l0.4-1.4
		c45.1,11.7,81.8,7.1,109.2-13.7c7.4-5.6,13-11.7,17.3-17l-34-262.4l-44.7-289.6C327.7,326,320.3,320.9,314,321z"/>
	<polygon class="st0" points="1431.8,402.7 1446.2,387 1440.1,381.4 1425.7,397.1 	"/>
	<polygon class="st0" points="1441.4,411.7 1441.4,411.7 1444.3,414.4 1458.7,398.7 1455.8,396 1455.8,396 1452.3,392.7 
		1437.8,408.4 	"/>
	<polygon class="st0" points="1308,190.8 1068.4,-15.8 1034.1,-15.8 1034.3,-15.6 1029.1,-9.9 1032.7,-6.6 1032.7,-6.6 1035.6,-3.8 
		1040.8,-9.5 1046.9,-3.9 1041.7,1.8 1047.7,7.5 1052.9,1.8 1059,7.4 1053.8,13.1 1059.9,18.8 1065.1,13.1 1071.2,18.7 1066,24.4 
		1072,30.1 1077.2,24.4 1083.3,30.1 1078.1,35.7 1084.2,41.4 1089.4,35.7 1095.5,41.4 1090.3,47.1 1096.3,52.7 1101.6,47 
		1107.6,52.7 1102.4,58.4 1108.5,64 1113.7,58.3 1119.8,64 1114.6,69.7 1118.2,73 1118.2,73 1121.1,75.7 1126.3,70 1132.3,75.7 
		1127.1,81.4 1133.2,87.1 1138.4,81.4 1144.5,87 1139.3,92.7 1145.4,98.4 1150.6,92.7 1156.7,98.3 1151.5,104 1157.5,109.7 
		1162.7,104 1168.8,109.6 1163.6,115.3 1169.7,121 1174.9,115.3 1181,121 1175.8,126.7 1181.8,132.3 1187,126.6 1193.1,132.3 
		1187.9,138 1194,143.6 1199.2,137.9 1205.3,143.6 1200.1,149.3 1203.6,152.6 1203.6,152.6 1206.6,155.3 1211.8,149.6 1217.8,155.3 
		1212.6,161 1218.7,166.6 1223.9,160.9 1230,166.6 1224.8,172.3 1230.9,177.9 1236.1,172.3 1242.1,177.9 1236.9,183.6 1243,189.3 
		1248.2,183.6 1254.3,189.2 1249.1,194.9 1255.2,200.6 1260.4,194.9 1266.5,200.5 1261.2,206.2 1267.3,211.9 1272.5,206.2 
		1278.6,211.9 1273.4,217.5 1279.5,223.2 1284.7,217.5 1290.8,223.2 1285.6,228.9 1289.1,232.2 1289.1,232.2 1292,234.9 
		1297.3,229.2 1303.3,234.9 1298.1,240.6 1304.2,246.2 1309.4,240.5 1315.5,246.2 1310.3,251.9 1316.3,257.5 1321.6,251.8 
		1327.6,257.5 1322.4,263.2 1328.5,268.8 1333.7,263.2 1339.8,268.8 1334.6,274.5 1340.7,280.2 1345.9,274.5 1352,280.1 
		1346.7,285.8 1352.8,291.5 1358,285.8 1364.1,291.4 1358.9,297.1 1365,302.8 1370.2,297.1 1376.3,302.8 1371,308.4 1374.6,311.7 
		1374.6,311.7 1377.5,314.5 1382.7,308.8 1388.8,314.5 1383.6,320.1 1389.7,325.8 1394.9,320.1 1401,325.8 1395.8,331.5 
		1401.8,337.1 1407.1,331.4 1413.1,337.1 1407.9,342.8 1414,348.4 1419.2,342.7 1425.3,348.4 1420.1,354.1 1426.1,359.7 
		1431.4,354.1 1437.4,359.7 1432.2,365.4 1438.3,371.1 1443.5,365.4 1449.6,371 1444.4,376.7 1450.5,382.4 1455.7,376.7 
		1461.7,382.3 1456.5,388 1460.1,391.4 1460.1,391.4 1463,394.1 1468.2,388.4 1474.3,394 1469.1,399.7 1475.2,405.4 1480.4,399.7 
		1486.5,405.4 1481.2,411 1487.3,416.7 1492.5,411 1498.6,416.7 1493.4,422.4 1499.5,428 1504.7,422.3 1510.8,428 1505.6,433.7 
		1511.6,439.3 1516.9,433.6 1522.9,439.3 1517.7,445 1523.8,450.6 1529,445 1535.1,450.6 1529.9,456.3 1535.9,462 1541.2,456.3 
		1547.2,461.9 1542,467.6 1545.6,470.9 1545.6,470.9 1548.5,473.7 1553.7,468 1559.8,473.6 1554.6,479.3 1560.7,485 1565.9,479.3 
		1572,484.9 1566.7,490.6 1572.8,496.3 1578,490.6 1584.1,496.3 1578.9,501.9 1585,507.6 1590.2,501.9 1596.3,507.6 1591,513.3 
		1597.1,518.9 1602.3,513.2 1608.4,518.9 1603.2,524.6 1609.3,530.2 1614.5,524.5 1620.6,530.2 1615.4,535.9 1621.4,541.5 
		1625.9,536.7 1625.9,425.6 1482.3,336.7 	"/>
	<polygon class="st0" points="1513.3,293.7 1625.9,363.5 1625.9,-15.8 1149.3,-15.8 1342.3,150.6 	"/>
	<polygon class="st0" points="1212.2,198.3 1226.6,182.6 1220.5,177 1206.1,192.7 	"/>
	<polygon class="st0" points="1309.8,289.2 1324.2,273.5 1318.2,267.8 1303.8,283.6 	"/>
	<polygon class="st0" points="1260.8,243.6 1275.2,227.9 1269.1,222.2 1254.7,237.9 	"/>
	<polygon class="st0" points="1285.5,266.6 1299.9,250.9 1293.9,245.2 1279.5,260.9 	"/>
	<polygon class="st0" points="1297.7,277.9 1312.1,262.2 1306,256.5 1291.6,272.2 	"/>
	<polygon class="st0" points="1248.7,232.3 1263.1,216.6 1257,210.9 1242.6,226.6 	"/>
	<polygon class="st0" points="1270.5,252.6 1270.5,252.6 1273.4,255.3 1287.8,239.6 1284.8,236.8 1284.8,236.8 1281.3,233.5 
		1266.9,249.2 	"/>
	<polygon class="st0" points="1492.9,459.7 1507.4,444 1501.3,438.3 1486.9,454 	"/>
	<polygon class="st0" points="1236.5,221 1250.9,205.2 1244.8,199.6 1230.4,215.3 	"/>
	<polygon class="st0" points="1200.1,187 1214.4,171.3 1208.4,165.6 1194,181.4 	"/>
	<polygon class="st0" points="1224.4,209.6 1238.7,193.9 1232.7,188.3 1218.3,204 	"/>
	<polygon class="st0" points="1371,346.2 1385.4,330.5 1379.3,324.8 1364.9,340.5 	"/>
	<polygon class="st0" points="1383.2,357.5 1397.6,341.8 1391.5,336.1 1377.1,351.8 	"/>
	<polygon class="st0" points="1355.9,332.1 1355.9,332.1 1358.9,334.9 1373.3,319.1 1370.3,316.4 1370.3,316.4 1366.8,313.1 
		1352.4,328.8 	"/>
	<polygon class="st0" points="1419.6,391.4 1434,375.7 1428,370.1 1413.5,385.8 	"/>
	<polygon class="st0" points="1395.3,368.8 1409.7,353.1 1403.6,347.4 1389.2,363.1 	"/>
	<polygon class="st0" points="1185,173 1185,173 1187.9,175.7 1202.3,160 1199.3,157.2 1199.3,157.2 1195.8,153.9 1181.4,169.7 	"/>
	<polygon class="st0" points="1322,300.5 1336.4,284.8 1330.3,279.2 1315.9,294.9 	"/>
	<polygon class="st0" points="1346.3,323.2 1360.7,307.4 1354.6,301.8 1340.2,317.5 	"/>
	<polygon class="st0" points="1334.1,311.8 1348.5,296.1 1342.5,290.5 1328.1,306.2 	"/>
	<polygon class="st0" points="-7.9,642.5 178.4,699.1 190.6,658.1 184.3,610.2 157.2,613.7 153.2,582.7 65.1,594.1 45.8,445.4 
		57.4,443.9 56.4,436.6 131.6,426.8 128.7,404.1 140.2,402.6 139.2,395.3 154.3,393.3 150.3,362.9 134,365 134.5,369.4 123,370.9 
		124,378.3 59.1,386.6 57.7,375.9 -1.3,383.6 -6.9,340.6 -17.6,342 -23,300.3 -11.5,298.8 -12.5,291.5 12.4,288.3 -4.3,158.9 
		-56.6,165.7 -56.6,252.8 -16.1,591.7 -56.6,598.9 -56.6,617.3 -11.8,611.6 	"/>
	<polygon class="st0" points="1407.5,380.1 1421.9,364.4 1415.8,358.7 1401.4,374.4 	"/>
	<polygon class="st0" points="1041.2,39.2 1055.6,23.4 1049.5,17.8 1035.2,33.5 	"/>
	<polygon class="st0" points="1053.4,50.5 1067.8,34.8 1061.7,29.1 1047.3,44.8 	"/>
	<polygon class="st0" points="1014,13.8 1014,13.8 1016.9,16.6 1031.3,0.8 1028.4,-1.9 1028.4,-1.9 1024.8,-5.2 1010.5,10.5 	"/>
	<polygon class="st0" points="1029.1,27.9 1043.5,12.1 1037.4,6.5 1023,22.2 	"/>
	<polygon class="st0" points="1065.6,61.8 1079.9,46.1 1073.8,40.4 1059.5,56.1 	"/>
	<polygon class="st0" points="1099.5,93.4 1099.5,93.4 1102.4,96.1 1116.8,80.4 1113.9,77.7 1113.9,77.7 1110.3,74.4 1095.9,90.1 	
		"/>
	<polygon class="st0" points="1077.7,73.1 1092.1,57.4 1086,51.7 1071.6,67.5 	"/>
	<polygon class="st0" points="1089.9,84.4 1104.2,68.7 1098.2,63 1083.8,78.8 	"/>
	<polygon class="st0" points="1602.7,561.9 1617.2,546.2 1611.1,540.5 1596.7,556.2 	"/>
	<polygon class="st0" points="1114.6,107.4 1129,91.7 1122.9,86.1 1108.5,101.8 	"/>
	<polygon class="st0" points="998.3,-0.8 1004.4,4.8 1018.7,-10.9 1013.5,-15.8 1012,-15.8 	"/>
	<path class="st0" d="M421.6,985.8l-4.9-37.6c-9.7,6.6-21.5,12.8-35.6,17.6L421.6,985.8z"/>
	<polygon class="st0" points="1578.4,539.3 1592.8,523.6 1586.8,517.9 1572.3,533.6 	"/>
	<polygon class="st0" points="1566.3,527.9 1580.7,512.2 1574.6,506.6 1560.2,522.3 	"/>
	<polygon class="st0" points="-56.6,948.7 -56.6,1078.3 330.4,1078.3 170.2,999.1 	"/>
	<polygon class="st0" points="1505.1,471 1519.5,455.3 1513.4,449.6 1499,465.3 	"/>
	<path class="st0" d="M504,656.9l-2.9,0.5l39.5-5.2c7.8-5,60.6-40.2,61.9-78.2c5.2-153.1-98.5-147.6-98.5-191l0,0l-40.9,5.4
		c-7.9,2.5-14.3,11.7-14.7,19.6l30.7,198.6c0.1,0.4,0.1,0.9,0.2,1.3l5.2,40.1l-0.8-7.4C485.4,649.5,495.4,657,504,656.9z"/>
	<path class="st0" d="M1617.3,595.9l5.9-6.4l-6.1-5.7l-5.9,6.4l-6.1-5.7l5.9-6.4l-2.9-2.7l0,0l-3.6-3.3l-5.9,6.4l-6.1-5.7l5.9-6.4
		l-6.1-5.7l-5.9,6.4l-6.1-5.7l5.9-6.4l-6.1-5.7l-5.9,6.4l-6.1-5.7l5.9-6.4l-6.1-5.7l-5.9,6.4l-6.1-5.7l5.9-6.4l-6.1-5.7l-5.9,6.4
		l-6.1-5.7l5.9-6.4l-6.1-5.7l-5.9,6.4l-6.1-5.7l5.9-6.4l-6.1-5.7l-5.9,6.4l-6.1-5.7l5.9-6.4l-2.9-2.7l0,0l-3.6-3.3l-5.9,6.4
		l-6.1-5.7l5.9-6.4l-6.1-5.7l-5.9,6.4l-6.1-5.7l5.9-6.4l-6.1-5.7l-5.9,6.4l-6.1-5.7l5.9-6.4l-6.1-5.7l-5.9,6.4l-6.1-5.7l5.9-6.4
		l-6.1-5.7l-5.9,6.4l-6.1-5.7l5.9-6.4l-6.1-5.7l-5.9,6.4l-6.1-5.7l5.9-6.4l-6.1-5.7l-5.9,6.4l-6.1-5.7l5.9-6.4l-2.9-2.7l0,0
		l-3.5-3.3l-5.9,6.4l-6.1-5.7l5.9-6.4l-6.1-5.7l-5.9,6.4l-6.1-5.7l5.9-6.4l-6.1-5.7l-5.9,6.4l-6.1-5.7l5.9-6.4l-6.1-5.7l-5.9,6.4
		l-6.1-5.7l5.9-6.4l-6.1-5.7l-5.9,6.4l-6.1-5.7l5.9-6.4l-6.1-5.7l-5.9,6.4l-6.1-5.7l5.9-6.4l-6.1-5.7l-5.9,6.4l-6.1-5.7l5.9-6.4
		l-2.9-2.7l0,0l-3.6-3.3l-5.9,6.4l-6.1-5.7l5.9-6.4l-6.1-5.7l-5.9,6.4l-6.1-5.7l5.9-6.4l-6.1-5.7l-5.9,6.4l-6.1-5.7l5.9-6.4
		l-6.1-5.7l-5.9,6.4l-6.1-5.7l5.9-6.4l-6.1-5.7l-5.9,6.4l-6.1-5.7l5.9-6.4l-6.1-5.7l-5.9,6.4l-6.1-5.7l5.9-6.4l-6.1-5.7l-5.9,6.4
		l-6.1-5.7l5.9-6.4l-2.9-2.7l0,0l-3.5-3.3l-5.9,6.4l-6.1-5.7l5.9-6.4l-6.1-5.7l-5.9,6.4l-6.1-5.7l5.9-6.4l-6.1-5.7l-5.9,6.4
		l-6.1-5.7l5.9-6.4l-6.1-5.7l-5.9,6.4l-6.1-5.7l5.9-6.4l-6.1-5.7l-5.9,6.4l-6.1-5.7l5.9-6.4l-6.1-5.7l-5.9,6.4l-6.1-5.7l5.9-6.4
		l-6.1-5.7l-5.9,6.4l-6.1-5.7l5.9-6.4l-2.9-2.7l0,0l-3.6-3.3l-5.9,6.4l-6.1-5.7l5.9-6.4l-6.1-5.7l-5.9,6.4l-6.1-5.7l5.9-6.4
		l-6.1-5.7l-5.9,6.4l-6.1-5.7l5.9-6.4l-6.1-5.7l-5.9,6.4l-6.1-5.7l5.9-6.4l-6.1-5.7l-5.9,6.4l-6.1-5.7l5.9-6.4l-6.1-5.7l-5.9,6.4
		l-6.1-5.7l5.9-6.4l-6.1-5.7l-5.9,6.4l-6.1-5.7l5.9-6.4l-2.9-2.7l0,0l-3.5-3.3l-5.9,6.4l-6.1-5.7l5.9-6.4l-6.1-5.7l-5.9,6.4
		l-6.1-5.7l5.9-6.4l-6.1-5.7l-5.9,6.4l-6.1-5.7l5.9-6.4l-6.1-5.7l-5.9,6.4l-6.1-5.7l5.9-6.4l-6.1-5.7l-5.9,6.4l-6.1-5.7l5.9-6.4
		l-6.1-5.7l-5.9,6.4l-6.1-5.7l5.9-6.4l-6.1-5.7l-5.9,6.4l-6.1-5.7l5.9-6.4l-2.9-2.7l0,0l-3.6-3.3l-5.9,6.4l-6.1-5.7l5.9-6.4L992,0
		l-5.9,6.4L980,0.7l5.9-6.4l-6.1-5.7L973.9-5l-6.1-5.7l5.9-6.4l-2.9-2.7h-5.9l-3.1,3.4l-3.7-3.4H383l54.1,350.4
		c2.1,8.7,11.8,15.9,20.2,15.8l-2.9,0.5l43.2-5.7l-15.4-91.6l124.9-20.8l22,125.2l604.2-84.9l297.3,306.3l-556,99.1l-30.4-125.2
		l-271.5,39.4c0,0-33.9,13.6-24.5,59.9s13.5,72.9,13.5,72.9l-106.8,20.4l-8.9-51.8l-37.3,4.9c-8.6,2.1-15.6,11.8-15.6,20.1
		l32.5,250.8c0-1.7,0-3.4,0-5.1v5.3l2.3,17.7c8.2,35.8,37,68.9,68.4,94.5h1029.5V598.9l-2.5,2.8L1617.3,595.9z M738,331.1
		l-105.4,19.3l-18.1-98.8l11.8-2.2l-1.2-6.7l105.4-19.3l18.1,98.8l-11.8,2.2L738,331.1z M1079,284.9l-184.6,33.8l-18.1-98.8
		l11.8-2.2l-1.2-6.7l184.6-33.8l18.1,98.8l-11.8,2.2L1079,284.9z M947.9,699.8L827,721.9l1.1,6l-11.8,2.2l1.2,6.7l-129.9,23.8
		l-25.4-139.3l11.8-2.2l-1.2-6.7l129.9-23.8l9.1,49.7L944.5,614l14.1,76.9l-11.8,2.2L947.9,699.8z M1485.4,919.4l34.3-57.9
		l34.3,57.9H1485.4z"/>
	<polygon class="st0" points="1590.6,550.6 1605,534.9 1598.9,529.2 1584.5,544.9 	"/>
	<polygon class="st0" points="1126.7,118.7 1141.1,103 1135,97.4 1120.7,113.1 	"/>
	<polygon class="st0" points="1517.2,482.3 1531.7,466.6 1525.6,461 1511.2,476.6 	"/>
	<polygon class="st0" points="1554.1,516.6 1568.5,500.9 1562.5,495.3 1548,511 	"/>
	<polygon class="st0" points="1542,505.3 1556.4,489.6 1550.3,484 1535.9,499.7 	"/>
	<polygon class="st0" points="1526.9,491.3 1526.9,491.3 1529.8,494 1544.2,478.3 1541.3,475.6 1541.3,475.6 1537.7,472.3 
		1523.3,488 	"/>
	<polygon class="st0" points="1151,141.4 1165.4,125.7 1159.3,120 1145,135.7 	"/>
	<polygon class="st0" points="1175.3,164 1189.7,148.3 1183.6,142.6 1169.3,158.3 	"/>
	<polygon class="st0" points="1163.2,152.7 1177.6,137 1171.5,131.3 1157.1,147 	"/>
	<polygon class="st0" points="1138.9,130.1 1153.3,114.3 1147.2,108.7 1132.8,124.4 	"/>
	<polygon class="st1" points="148,814.4 -56.6,751.9 -56.6,763.9 144.5,825.3 	"/>
	
		<rect x="161.8" y="127.5" transform="matrix(0.9917 -0.1285 0.1285 0.9917 -15.4514 23.0086)" class="st1" width="17.6" height="7.4"/>
	
		<rect x="284.5" y="500" transform="matrix(0.9917 -0.1285 0.1285 0.9917 -61.9512 41.4521)" class="st1" width="11.6" height="1.6"/>
	
		<rect x="185.4" y="316" transform="matrix(0.9917 -0.1284 0.1284 0.9917 -39.4977 26.7721)" class="st1" width="4.9" height="7.4"/>
	
		<rect x="194.5" y="447.9" transform="matrix(0.9917 -0.1285 0.1285 0.9917 -55.9042 36.7884)" class="st1" width="125.3" height="7.4"/>
	<polygon class="st1" points="-17.6,342 -6.9,340.6 -1.3,383.6 57.7,375.9 59.1,386.6 124,378.3 123,370.9 69.7,377.8 68.3,367.1 
		9.2,374.8 3.7,331.8 -7.1,333.1 -11.5,298.8 -23,300.3 	"/>
	<polygon class="st1" points="-4.3,158.9 12.4,288.3 24,286.8 6.3,150.1 -49.2,157.3 -56.6,100.7 -56.6,165.7 	"/>
	<polygon class="st1" points="331.7,572.8 305.6,576.2 304.9,570.2 214.4,581.9 215.3,589.3 294.3,579 295.1,585 321.1,581.6 
		320.2,574.8 336.4,572.7 335.5,565.4 330.8,566 	"/>
	<polygon class="st1" points="154.3,393.3 165.8,391.7 160.8,354.1 133,357.7 134,365 150.3,362.9 	"/>
	<polygon class="st1" points="131.6,426.8 143.1,425.3 140.2,402.6 128.7,404.1 	"/>
	<polygon class="st1" points="169.9,770.4 168.5,774.8 189.5,764.5 230.2,776.8 233.6,765.8 200.1,755.7 	"/>
	<polygon class="st1" points="65.1,594.1 153.2,582.7 157.2,613.7 184.3,610.2 190.6,658.1 178.4,699.1 185.7,701.3 201.1,649.3 
		194.9,601.4 167.8,604.9 163.7,573.9 75.7,585.3 57.4,443.9 45.8,445.4 	"/>
	<polygon class="st1" points="626.3,249.5 614.5,251.7 632.5,350.4 738,331.1 736.8,324.5 643.1,341.6 	"/>
	<polygon class="st1" points="888.1,217.8 876.3,219.9 894.4,318.7 1079,284.9 1077.8,278.3 905,309.9 	"/>
	
		<rect x="825.3" y="704.5" transform="matrix(0.9837 -0.18 0.18 0.9837 -112.9279 171.1723)" class="st1" width="122.9" height="6.8"/>
	<polygon class="st1" points="674,619.1 662.2,621.3 687.6,760.6 817.6,736.8 816.4,730.1 698.2,751.8 	"/>
	<polygon class="st2" points="-18.5,651.3 175.2,710.1 178.4,699.1 -7.9,642.5 -11.8,611.6 -56.6,617.3 -56.6,624.7 -22.4,620.4 	
		"/>
	<polygon class="st2" points="148,814.4 155.1,816.5 168.5,774.8 159.3,779.2 	"/>
	<polygon class="st2" points="140.2,402.6 155.3,400.6 154.3,393.3 139.2,395.3 	"/>
	
		<rect x="-11.9" y="289.9" transform="matrix(0.9917 -0.1285 0.1285 0.9917 -37.7163 2.5206)" class="st2" width="25.1" height="7.4"/>
	<polygon class="st2" points="205.4,603.1 207.5,619.5 272.4,638.1 233.6,765.8 240.8,768 282.9,629.3 218.1,610.7 216,594.3 
		215.3,589.3 203.8,590.8 	"/>
	
		<rect x="123" y="365.6" transform="matrix(0.9917 -0.1285 0.1285 0.9917 -46.2063 19.5966)" class="st2" width="11.6" height="4.5"/>
	<polygon class="st2" points="309.8,505.2 327.4,503 335.5,565.4 347,563.9 337.9,494.1 320.4,496.4 319.4,488.9 294.7,492.1 
		295.7,499.4 308.9,497.7 	"/>
	<polygon class="st2" points="139.9,59.7 169.5,55.8 178.6,126.5 190.2,125 180.1,47 150.4,50.9 141.8,-15.8 130.1,-15.8 	"/>
	<polygon class="st2" points="167.9,271.4 183.9,269.3 189.9,315.8 201.4,314.3 194.4,260.5 178.5,262.6 162.1,136.1 150.6,137.6 	
		"/>
	<polygon class="st2" points="183.1,391.9 310.2,375.4 318.6,440 330.1,438.5 320.8,366.6 193.7,383 186,323.8 174.5,325.3 	"/>
	<polygon class="st2" points="191.2,522 285.3,509.8 284.4,502.4 201.7,513.1 195.3,463.4 183.7,464.9 	"/>
	
		<rect x="56.8" y="431.6" transform="matrix(0.9917 -0.1285 0.1285 0.9917 -55.1572 15.7806)" class="st2" width="75.8" height="7.4"/>
	<polygon class="st2" points="139.9,59.7 130.1,-15.8 -45.7,-15.8 -34.1,73.8 -45.6,75.3 -44.7,82.6 -56.6,84.1 -56.6,100.7 
		-49.2,157.3 6.3,150.1 24,286.8 12.4,288.3 13.4,295.6 -11.5,298.8 -7.1,333.1 3.7,331.8 9.2,374.8 68.3,367.1 69.7,377.8 
		123,370.9 122.4,366.5 134,365 133,357.7 160.8,354.1 165.8,391.7 154.3,393.3 155.3,400.6 140.2,402.6 143.1,425.3 131.6,426.8 
		132.6,434.2 57.4,443.9 75.7,585.3 163.7,573.9 167.8,604.9 194.9,601.4 201.1,649.3 185.7,701.3 178.4,699.1 175.2,710.1 
		-18.5,651.3 -22.4,620.4 -56.6,624.7 -56.6,751.9 148,814.4 159.3,779.2 168.5,774.8 169.9,770.4 200.1,755.7 233.6,765.8 
		272.4,638.1 207.5,619.5 205.4,603.1 203.8,590.8 215.3,589.3 214.4,581.9 304.9,570.2 305.6,576.2 331.7,572.8 330.8,566 
		335.5,565.4 327.4,503 309.8,505.2 308.9,497.7 295.7,499.4 295.9,500.9 284.4,502.4 285.3,509.8 191.2,522 183.7,464.9 
		195.3,463.4 194.3,456.1 318.6,440 310.2,375.4 183.1,391.9 174.5,325.3 186,323.8 185.1,316.5 189.9,315.8 183.9,269.3 
		167.9,271.4 150.6,137.6 162.1,136.1 161.2,128.7 178.6,126.5 169.5,55.8 	"/>
	<polygon class="st2" points="730.5,223.5 625,242.8 626.3,249.5 719.9,232.4 736.8,324.5 748.6,322.3 	"/>
	
		<rect x="633.8" y="240.4" transform="matrix(0.9837 -0.18 0.18 0.9837 -40.5708 127.3421)" class="st2" width="95.2" height="93.6"/>
	<polygon class="st2" points="1071.5,177.3 886.9,211.1 888.1,217.8 1060.9,186.2 1077.8,278.3 1089.6,276.1 	"/>
	<rect x="895" y="201.4" transform="matrix(0.9837 -0.18 0.18 0.9837 -28.631 180.9564)" class="st2" width="175.6" height="93.6"/>
	<polygon class="st2" points="944.4,614.1 811.8,638.4 813,645 933.9,622.9 946.7,693.2 958.5,691 	"/>
	
		<rect x="818.3" y="633.6" transform="matrix(0.9837 -0.18 0.18 0.9837 -106.1093 169.2863)" class="st2" width="122.9" height="71.4"/>
	<rect x="815.5" y="723.3" transform="matrix(0.9837 -0.18 0.18 0.9837 -117.3156 159.7361)" class="st2" width="12" height="6.1"/>
	<polygon class="st2" points="801.2,647.2 806.4,646.2 805.2,639.6 811.8,638.4 802.7,588.7 672.7,612.5 674,619.1 792.1,597.5 	"/>
	<polygon class="st2" points="819.3,716.5 806.4,646.2 801.2,647.2 815.3,724.1 827.1,722 825.8,715.3 	"/>
	<polygon class="st2" points="808.7,725.3 794.6,648.4 801.2,647.2 792.1,597.5 674,619.1 698.2,751.8 816.4,730.1 815.3,724.1 	"/>
	
		<rect x="801.6" y="647.3" transform="matrix(0.9837 -0.18 0.18 0.9837 -110.4015 156.1017)" class="st2" width="6.7" height="78.2"/>
	
		<rect x="805.6" y="639.1" transform="matrix(0.9837 -0.18 0.18 0.9837 -102.4424 156.1044)" class="st2" width="6.7" height="6.8"/>
	<rect x="812.6" y="645.3" transform="matrix(0.9837 -0.18 0.18 0.9837 -109.242 157.995)" class="st2" width="6.7" height="71.4"/>
	<path class="st3" d="M527.9,983.7l-2.3-17.7v0.5C525.8,972.3,526.6,978.1,527.9,983.7z"/>
	<path class="st3" d="M282-9.5l-2.8,0.4l1.7,15c-0.4-1.9-1.2-3.6-2.3-5.3l42.9,277.5c0.3-1.2,0.5-2.5,0.5-3.7l2.3,14.3l3.1-0.4
		l4,30.3l-2.8,0.4l1.7,15c-0.1-0.5-0.2-1-0.4-1.5l44.7,289.6l34,262.4c6.7-8.5,9.7-15.2,9.7-15.3l48.9,19.9
		c-1.3,3.1-13.3,31.1-43.9,54.4c-2,1.6-4.2,3.1-6.5,4.7l4.9,37.6l-40.5-20c-15.3,5.2-33.2,8.5-54.1,8.5c-17.4,0-36.8-2.3-58.4-8
		l12.9-49.7l-63.5-31.4c-4.4-2.2-9.1-3.8-13.9-4.9l-260.8-58v126.4l226.8,50.4l160.2,79.2h203.5l-8.3-2.2V966.5c0-0.2,0-0.4,0-0.6
		l-32.4-250.7c0,0,0,0,0,0.1l-2.8-17.8l-3,0.4l-5-38l3.5-0.5l-1.3-11.4l-5.2-40.1c-0.1-0.4-0.1-0.9-0.2-1.3L448.5,408
		c0,0.2,0,0.5,0,0.7l-2.9-18l-4.9,0.6l-5-38l3.5-0.5l-2.1-18.8c0,0.2,0.1,0.3,0.1,0.5L383.1-15.9H281.2L282-9.5z"/>
	<polygon class="st3" points="1308,190.8 1482.3,336.7 1625.9,425.6 1625.9,363.5 1513.3,293.7 1342.3,150.6 1149.3,-15.8 
		1068.4,-15.8 	"/>
	<polygon class="st4" points="1010.5,10.5 1024.8,-5.2 1018.7,-10.9 1004.4,4.8 	"/>
	<polygon class="st4" points="994.3,15.9 1000.3,21.6 1006.2,15.2 1000.1,9.5 	"/>
	<polygon class="st4" points="970,-6.7 976,-1 981.9,-7.5 975.8,-13.1 	"/>
	<polygon class="st4" points="982.1,4.6 988.2,10.3 994,3.9 988,-1.8 	"/>
	<polygon class="st4" points="1000.7,-15.8 992.2,-6.5 998.3,-0.8 1012,-15.8 	"/>
	<polygon points="1012.6,15.4 1014,13.8 1014,13.8 1014,13.8 1010.5,10.5 1009,12.1 1012.5,15.3 1012.5,15.3 	"/>
	<polygon points="998.3,-0.8 996.9,0.8 1003,6.4 1004.4,4.8 	"/>
	<polygon points="983.3,-9 981.9,-7.5 988,-1.8 989.4,-3.4 	"/>
	<polygon points="995.5,2.3 994,3.9 1000.1,9.5 1001.5,8 	"/>
	<polygon points="1011.2,16.9 1007.6,13.6 1006.2,15.2 1009.8,18.5 1009.8,18.5 1009.7,18.5 	"/>
	<polygon points="1001.5,8 1000.1,9.5 1006.2,15.2 1007.6,13.6 	"/>
	<polygon points="1004.4,4.8 1003,6.4 1009,12.1 1010.5,10.5 	"/>
	<polygon points="992.2,-6.5 990.8,-4.9 996.9,0.8 998.3,-0.8 	"/>
	<polygon points="989.4,-3.4 988,-1.8 994,3.9 995.5,2.3 	"/>
	<polygon class="st3" points="1011.1,16.9 1012.5,15.3 1009,12.1 1007.6,13.6 1011.2,16.9 1011.2,16.9 	"/>
	<polygon class="st3" points="996.9,0.8 995.5,2.3 1001.5,8 1003,6.4 	"/>
	<polygon class="st3" points="1003,6.4 1001.5,8 1007.6,13.6 1009,12.1 	"/>
	<polygon class="st3" points="990.8,-4.9 989.4,-3.4 995.5,2.3 996.9,0.8 	"/>
	<polygon class="st4" points="1095.9,90.1 1110.3,74.4 1104.2,68.7 1089.9,84.4 	"/>
	<polygon class="st4" points="1119.8,64 1113.7,58.3 1108.5,64 1114.6,69.7 	"/>
	<polygon class="st4" points="1079.7,95.5 1085.8,101.1 1091.7,94.7 1085.6,89.1 	"/>
	<polygon class="st4" points="1023,22.2 1037.4,6.5 1031.3,0.8 1016.9,16.6 	"/>
	<polygon class="st4" points="1046.9,-3.9 1040.8,-9.5 1035.6,-3.8 1041.7,1.8 	"/>
	<polygon class="st4" points="1006.8,27.6 1012.9,33.3 1018.8,26.9 1012.7,21.2 	"/>
	<polygon class="st4" points="1019,38.9 1025.1,44.6 1030.9,38.2 1024.8,32.5 	"/>
	<polygon class="st4" points="1059,7.4 1052.9,1.8 1047.7,7.5 1053.8,13.1 	"/>
	<polygon class="st4" points="1035.2,33.5 1049.5,17.8 1043.5,12.1 1029.1,27.9 	"/>
	<polygon class="st4" points="1031.1,50.2 1037.2,55.9 1043.1,49.5 1037,43.8 	"/>
	<polygon class="st4" points="1071.2,18.7 1065.1,13.1 1059.9,18.8 1066,24.4 	"/>
	<polygon class="st4" points="1047.3,44.8 1061.7,29.1 1055.6,23.4 1041.2,39.2 	"/>
	<polygon class="st4" points="1043.3,61.6 1049.4,67.2 1055.2,60.8 1049.1,55.1 	"/>
	<polygon class="st4" points="1059.5,56.1 1073.8,40.4 1067.8,34.8 1053.4,50.5 	"/>
	<polygon class="st4" points="1083.3,30.1 1077.2,24.4 1072,30.1 1078.1,35.7 	"/>
	<polygon class="st4" points="1055.4,72.9 1061.5,78.5 1067.4,72.1 1061.3,66.5 	"/>
	<polygon class="st4" points="1095.5,41.4 1089.4,35.7 1084.2,41.4 1090.3,47.1 	"/>
	<polygon class="st4" points="1071.6,67.5 1086,51.7 1079.9,46.1 1065.6,61.8 	"/>
	<polygon class="st4" points="1067.6,84.2 1073.7,89.8 1079.5,83.4 1073.4,77.8 	"/>
	<polygon class="st4" points="1083.8,78.8 1098.2,63 1092.1,57.4 1077.7,73.1 	"/>
	<polygon class="st4" points="1107.6,52.7 1101.6,47 1096.3,52.7 1102.4,58.4 	"/>
	<polygon points="1035.2,33.5 1033.7,35.1 1039.8,40.7 1041.2,39.2 	"/>
	<polygon points="1068.8,70.6 1067.4,72.1 1073.4,77.8 1074.9,76.2 	"/>
	<polygon points="1047.3,44.8 1045.9,46.4 1052,52 1053.4,50.5 	"/>
	<polygon points="1032.3,36.6 1030.9,38.2 1037,43.8 1038.4,42.3 	"/>
	<polygon points="1044.5,47.9 1043.1,49.5 1049.1,55.1 1050.6,53.6 	"/>
	<polygon points="1083.8,78.8 1082.4,80.3 1088.4,86 1089.9,84.4 	"/>
	<polygon points="1014,13.8 1012.6,15.4 1015.5,18.1 1016.9,16.6 	"/>
	<polygon points="1023,22.2 1021.6,23.8 1027.7,29.4 1029.1,27.9 	"/>
	<polygon points="1011.3,17 1011.3,17 1011.2,16.9 1009.8,18.5 1012.7,21.2 1014.1,19.7 	"/>
	<polygon points="1056.6,59.2 1055.2,60.8 1061.3,66.5 1062.7,64.9 	"/>
	<polygon points="1020.2,25.3 1018.8,26.9 1024.8,32.5 1026.3,31 	"/>
	<polygon points="1071.6,67.5 1070.2,69 1076.3,74.7 1077.7,73.1 	"/>
	<polygon points="1080.9,81.9 1079.5,83.4 1085.6,89.1 1087,87.5 	"/>
	<polygon points="1059.5,56.1 1058.1,57.7 1064.1,63.4 1065.6,61.8 	"/>
	<polygon points="1098.1,94.9 1099.5,93.4 1095.9,90.1 1094.5,91.6 1098,94.9 1098,94.9 	"/>
	<polygon points="1096.6,96.4 1096.6,96.4 1093.1,93.2 1091.7,94.7 1095.2,98 1096.6,96.5 	"/>
	<polygon points="1011.2,16.9 1009.7,18.5 1009.8,18.5 	"/>
	<polygon points="1014,13.8 1012.6,15.4 1012.6,15.4 	"/>
	<polygon points="1011.2,16.9 1011.3,17 1011.3,17 	"/>
	<polygon points="1011.2,16.9 1011.2,16.9 1011.2,16.9 	"/>
	<polygon points="1087,87.5 1085.6,89.1 1091.7,94.7 1093.1,93.2 	"/>
	<polygon points="1089.9,84.4 1088.4,86 1094.5,91.6 1095.9,90.1 	"/>
	<polygon points="1014.1,19.7 1012.7,21.2 1018.8,26.9 1020.2,25.3 	"/>
	<polygon points="1016.9,16.6 1015.5,18.1 1021.6,23.8 1023,22.2 	"/>
	<polygon points="1029.1,27.9 1027.7,29.4 1033.7,35.1 1035.2,33.5 	"/>
	<polygon points="1026.3,31 1024.8,32.5 1030.9,38.2 1032.3,36.6 	"/>
	<polygon points="1041.2,39.2 1039.8,40.7 1045.9,46.4 1047.3,44.8 	"/>
	<polygon points="1038.4,42.3 1037,43.8 1043.1,49.5 1044.5,47.9 	"/>
	<polygon points="1050.6,53.6 1049.1,55.1 1055.2,60.8 1056.6,59.2 	"/>
	<polygon points="1053.4,50.5 1052,52 1058.1,57.7 1059.5,56.1 	"/>
	<polygon points="1065.6,61.8 1064.1,63.4 1070.2,69 1071.6,67.5 	"/>
	<polygon points="1062.7,64.9 1061.3,66.5 1067.4,72.1 1068.8,70.6 	"/>
	<polygon points="1074.9,76.2 1073.4,77.8 1079.5,83.4 1080.9,81.9 	"/>
	<polygon points="1077.7,73.1 1076.3,74.7 1082.4,80.3 1083.8,78.8 	"/>
	<polygon points="1055.6,23.4 1057,21.9 1051,16.2 1049.5,17.8 	"/>
	<polygon points="1079.9,46.1 1081.3,44.5 1075.3,38.9 1073.8,40.4 	"/>
	<polygon points="1046.3,9 1047.7,7.5 1041.7,1.8 1040.2,3.4 	"/>
	<polygon points="1104.2,68.7 1105.7,67.1 1099.6,61.5 1098.2,63 	"/>
	<polygon points="1113.9,77.7 1113.9,77.7 1113.9,77.7 1115.3,76.1 1115.2,76 1115.2,76 1111.7,72.8 1110.3,74.4 	"/>
	<polygon points="1092.1,57.4 1093.5,55.8 1087.4,50.2 1086,51.7 	"/>
	<polygon points="1067.8,34.8 1069.2,33.2 1063.1,27.5 1061.7,29.1 	"/>
	<polygon points="1070.6,31.6 1072,30.1 1066,24.4 1064.5,26 	"/>
	<polygon points="1116.7,74.6 1118.1,73 1118.2,73 1118.2,73 1114.6,69.7 1113.2,71.2 	"/>
	<polygon points="1107.1,65.6 1108.5,64 1102.4,58.4 1101,59.9 	"/>
	<polygon points="1029.8,-3.5 1028.4,-1.9 1028.4,-1.9 1028.4,-1.9 1031.3,0.8 1032.7,-0.7 1029.9,-3.4 1029.9,-3.4 	"/>
	<polygon points="1043.5,12.1 1044.9,10.6 1038.8,4.9 1037.4,6.5 	"/>
	<polygon points="1082.8,43 1084.2,41.4 1078.1,35.7 1076.7,37.3 	"/>
	<polygon points="1058.5,20.3 1059.9,18.8 1053.8,13.1 1052.4,14.7 	"/>
	<polygon points="1094.9,54.3 1096.3,52.7 1090.3,47.1 1088.8,48.6 	"/>
	<polygon points="1110.3,74.4 1111.7,72.8 1105.7,67.1 1104.2,68.7 	"/>
	<polygon points="1113.2,71.2 1114.6,69.7 1108.5,64 1107.1,65.6 	"/>
	<polygon points="1040.2,3.4 1041.7,1.8 1035.6,-3.8 1034.2,-2.3 	"/>
	<polygon points="1037.4,6.5 1038.8,4.9 1032.7,-0.7 1031.3,0.8 	"/>
	<polygon points="1049.5,17.8 1051,16.2 1044.9,10.6 1043.5,12.1 	"/>
	<polygon points="1052.4,14.7 1053.8,13.1 1047.7,7.5 1046.3,9 	"/>
	<polygon points="1064.5,26 1066,24.4 1059.9,18.8 1058.5,20.3 	"/>
	<polygon points="1061.7,29.1 1063.1,27.5 1057,21.9 1055.6,23.4 	"/>
	<polygon points="1073.8,40.4 1075.3,38.9 1069.2,33.2 1067.8,34.8 	"/>
	<polygon points="1076.7,37.3 1078.1,35.7 1072,30.1 1070.6,31.6 	"/>
	<polygon points="1088.8,48.6 1090.3,47.1 1084.2,41.4 1082.8,43 	"/>
	<polygon points="1086,51.7 1087.4,50.2 1081.3,44.5 1079.9,46.1 	"/>
	<polygon points="1101,59.9 1102.4,58.4 1096.3,52.7 1094.9,54.3 	"/>
	<polygon points="1098.2,63 1099.6,61.5 1093.5,55.8 1092.1,57.4 	"/>
	<polygon class="st3" points="1012.6,15.4 1012.5,15.3 1012.5,15.3 	"/>
	<polygon class="st3" points="1012.5,15.3 1011.1,16.9 1011.2,16.9 1012.6,15.4 	"/>
	<polygon class="st3" points="1070.2,69 1068.8,70.6 1074.9,76.2 1076.3,74.7 	"/>
	<polygon class="st3" points="1082.4,80.3 1080.9,81.9 1087,87.5 1088.4,86 	"/>
	<polygon class="st3" points="1058.1,57.7 1056.6,59.2 1062.7,64.9 1064.1,63.4 	"/>
	<polygon class="st3" points="1094.5,91.6 1093.1,93.2 1096.6,96.4 1098,94.9 	"/>
	<polygon class="st3" points="1012.6,15.4 1012.6,15.4 1012.7,15.5 1011.3,17 1014.1,19.7 1015.5,18.1 	"/>
	<polygon class="st3" points="1045.9,46.4 1044.5,47.9 1050.6,53.6 1052,52 	"/>
	<polygon class="st3" points="1033.7,35.1 1032.3,36.6 1038.4,42.3 1039.8,40.7 	"/>
	<polygon class="st3" points="1021.6,23.8 1020.2,25.3 1026.3,31 1027.7,29.4 	"/>
	<polygon class="st3" points="1012.6,15.4 1012.6,15.4 1012.6,15.4 	"/>
	<polygon class="st3" points="1012.6,15.4 1011.2,16.9 1011.3,17 1012.7,15.5 	"/>
	<polygon class="st3" points="1011.2,16.9 1011.2,16.9 1012.6,15.4 1012.6,15.4 	"/>
	<polygon class="st3" points="1088.4,86 1087,87.5 1093.1,93.2 1094.5,91.6 	"/>
	<polygon class="st3" points="1015.5,18.1 1014.1,19.7 1020.2,25.3 1021.6,23.8 	"/>
	<polygon class="st3" points="1027.7,29.4 1026.3,31 1032.3,36.6 1033.7,35.1 	"/>
	<polygon class="st3" points="1039.8,40.7 1038.4,42.3 1044.5,47.9 1045.9,46.4 	"/>
	<polygon class="st3" points="1052,52 1050.6,53.6 1056.6,59.2 1058.1,57.7 	"/>
	<polygon class="st3" points="1064.1,63.4 1062.7,64.9 1068.8,70.6 1070.2,69 	"/>
	<polygon class="st3" points="1076.3,74.7 1074.9,76.2 1080.9,81.9 1082.4,80.3 	"/>
	<polygon class="st3" points="1069.2,33.2 1070.6,31.6 1064.5,26 1063.1,27.5 	"/>
	<polygon class="st3" points="1032.7,-0.7 1034.2,-2.3 1031.3,-4.9 1029.9,-3.4 	"/>
	<polygon class="st3" points="1057,21.9 1058.5,20.3 1052.4,14.7 1051,16.2 	"/>
	<polygon class="st3" points="1105.7,67.1 1107.1,65.6 1101,59.9 1099.6,61.5 	"/>
	<polygon class="st3" points="1044.9,10.6 1046.3,9 1040.2,3.4 1038.8,4.9 	"/>
	<polygon class="st3" points="1081.3,44.5 1082.8,43 1076.7,37.3 1075.3,38.9 	"/>
	<polygon class="st3" points="1115.2,76 1116.6,74.5 1116.7,74.6 1116.7,74.6 1113.2,71.2 1111.7,72.8 	"/>
	<polygon class="st3" points="1093.5,55.8 1094.9,54.3 1088.8,48.6 1087.4,50.2 	"/>
	<polygon class="st3" points="1111.7,72.8 1113.2,71.2 1107.1,65.6 1105.7,67.1 	"/>
	<polygon class="st3" points="1038.8,4.9 1040.2,3.4 1034.2,-2.3 1032.7,-0.7 	"/>
	<polygon class="st3" points="1051,16.2 1052.4,14.7 1046.3,9 1044.9,10.6 	"/>
	<polygon class="st3" points="1063.1,27.5 1064.5,26 1058.5,20.3 1057,21.9 	"/>
	<polygon class="st3" points="1075.3,38.9 1076.7,37.3 1070.6,31.6 1069.2,33.2 	"/>
	<polygon class="st3" points="1087.4,50.2 1088.8,48.6 1082.8,43 1081.3,44.5 	"/>
	<polygon class="st3" points="1099.6,61.5 1101,59.9 1094.9,54.3 1093.5,55.8 	"/>
	<polygon class="st4" points="1205.3,143.6 1199.2,137.9 1194,143.6 1200.1,149.3 	"/>
	<polygon class="st4" points="1165.2,175.1 1171.3,180.7 1177.2,174.3 1171.1,168.7 	"/>
	<polygon class="st4" points="1181.4,169.7 1195.8,153.9 1189.7,148.3 1175.3,164 	"/>
	<polygon class="st4" points="1108.5,101.8 1122.9,86.1 1116.8,80.4 1102.4,96.1 	"/>
	<polygon class="st4" points="1132.3,75.7 1126.3,70 1121.1,75.7 1127.1,81.4 	"/>
	<polygon class="st4" points="1092.3,107.2 1098.4,112.8 1104.2,106.4 1098.2,100.8 	"/>
	<polygon class="st4" points="1104.5,118.5 1110.5,124.2 1116.4,117.8 1110.3,112.1 	"/>
	<polygon class="st4" points="1120.7,113.1 1135,97.4 1129,91.7 1114.6,107.4 	"/>
	<polygon class="st4" points="1144.5,87 1138.4,81.4 1133.2,87.1 1139.3,92.7 	"/>
	<polygon class="st4" points="1156.7,98.3 1150.6,92.7 1145.4,98.4 1151.5,104 	"/>
	<polygon class="st4" points="1132.8,124.4 1147.2,108.7 1141.1,103 1126.7,118.7 	"/>
	<polygon class="st4" points="1116.6,129.8 1122.7,135.5 1128.5,129.1 1122.5,123.4 	"/>
	<polygon class="st4" points="1128.8,141.1 1134.8,146.8 1140.7,140.4 1134.6,134.7 	"/>
	<polygon class="st4" points="1145,135.7 1159.3,120 1153.3,114.3 1138.9,130.1 	"/>
	<polygon class="st4" points="1168.8,109.6 1162.7,104 1157.5,109.7 1163.6,115.3 	"/>
	<polygon class="st4" points="1140.9,152.4 1147,158.1 1152.8,151.7 1146.8,146 	"/>
	<polygon class="st4" points="1181,121 1174.9,115.3 1169.7,121 1175.8,126.7 	"/>
	<polygon class="st4" points="1157.1,147 1171.5,131.3 1165.4,125.7 1151,141.4 	"/>
	<polygon class="st4" points="1193.1,132.3 1187,126.6 1181.8,132.3 1187.9,138 	"/>
	<polygon class="st4" points="1153.1,163.8 1159.1,169.4 1165,163 1158.9,157.3 	"/>
	<polygon class="st4" points="1169.3,158.3 1183.6,142.6 1177.6,137 1163.2,152.7 	"/>
	<polygon points="1117.8,116.2 1116.4,117.8 1122.5,123.4 1123.9,121.9 	"/>
	<polygon points="1105.7,104.9 1104.2,106.4 1110.3,112.1 1111.7,110.5 	"/>
	<polygon points="1182.1,176.1 1178.6,172.8 1177.2,174.3 1180.7,177.6 1180.7,177.6 1180.7,177.6 	"/>
	<polygon points="1157.1,147 1155.7,148.6 1161.8,154.2 1163.2,152.7 	"/>
	<polygon points="1120.7,113.1 1119.2,114.7 1125.3,120.3 1126.7,118.7 	"/>
	<polygon points="1132.8,124.4 1131.4,126 1137.5,131.6 1138.9,130.1 	"/>
	<polygon points="1145,135.7 1143.5,137.3 1149.6,142.9 1151,141.4 	"/>
	<polygon points="1130,127.5 1128.5,129.1 1134.6,134.7 1136,133.2 	"/>
	<polygon points="1181.4,169.7 1180,171.2 1183.5,174.5 1185,173 	"/>
	<polygon points="1169.3,158.3 1167.8,159.9 1173.9,165.6 1175.3,164 	"/>
	<polygon points="1142.1,138.8 1140.7,140.4 1146.8,146 1148.2,144.5 	"/>
	<polygon points="1154.3,150.1 1152.8,151.7 1158.9,157.3 1160.3,155.8 	"/>
	<polygon points="1108.5,101.8 1107.1,103.3 1113.2,109 1114.6,107.4 	"/>
	<polygon points="1166.4,161.5 1165,163 1171.1,168.7 1172.5,167.1 	"/>
	<polygon points="1099.5,93.4 1099.5,93.4 1099.5,93.4 1098.1,95 1101,97.7 1102.4,96.1 	"/>
	<polygon points="1096.7,96.5 1095.2,98.1 1095.2,98 1095.2,98 1098.2,100.8 1099.6,99.2 	"/>
	<polygon points="1096.7,96.5 1096.6,96.5 1095.2,98 1095.2,98.1 	"/>
	<polygon points="1099.5,93.4 1098.1,94.9 1098.1,95 	"/>
	<polygon points="1172.5,167.1 1171.1,168.7 1177.2,174.3 1178.6,172.8 	"/>
	<polygon points="1175.3,164 1173.9,165.6 1180,171.2 1181.4,169.7 	"/>
	<polygon points="1102.4,96.1 1101,97.7 1107.1,103.3 1108.5,101.8 	"/>
	<polygon points="1099.6,99.2 1098.2,100.8 1104.2,106.4 1105.7,104.9 	"/>
	<polygon points="1114.6,107.4 1113.2,109 1119.2,114.7 1120.7,113.1 	"/>
	<polygon points="1111.7,110.5 1110.3,112.1 1116.4,117.8 1117.8,116.2 	"/>
	<polygon points="1123.9,121.9 1122.5,123.4 1128.5,129.1 1130,127.5 	"/>
	<polygon points="1126.7,118.7 1125.3,120.3 1131.4,126 1132.8,124.4 	"/>
	<polygon points="1138.9,130.1 1137.5,131.6 1143.5,137.3 1145,135.7 	"/>
	<polygon points="1136,133.2 1134.6,134.7 1140.7,140.4 1142.1,138.8 	"/>
	<polygon points="1151,141.4 1149.6,142.9 1155.7,148.6 1157.1,147 	"/>
	<polygon points="1148.2,144.5 1146.8,146 1152.8,151.7 1154.3,150.1 	"/>
	<polygon points="1163.2,152.7 1161.8,154.2 1167.8,159.9 1169.3,158.3 	"/>
	<polygon points="1160.3,155.8 1158.9,157.3 1165,163 1166.4,161.5 	"/>
	<polygon points="1202.2,154.1 1203.6,152.6 1203.6,152.6 1203.6,152.6 1200.1,149.3 1198.6,150.8 	"/>
	<polygon points="1168.3,122.5 1169.7,121 1163.6,115.3 1162.2,116.9 	"/>
	<polygon points="1143.9,99.9 1145.4,98.4 1139.3,92.7 1137.9,94.3 	"/>
	<polygon points="1156.1,111.2 1157.5,109.7 1151.5,104 1150,105.6 	"/>
	<polygon points="1180.4,133.9 1181.8,132.3 1175.8,126.7 1174.3,128.2 	"/>
	<polygon points="1141.1,103 1142.5,101.5 1136.5,95.8 1135,97.4 	"/>
	<polygon points="1131.8,88.6 1133.2,87.1 1127.1,81.4 1125.7,82.9 	"/>
	<polygon points="1129,91.7 1130.4,90.2 1124.3,84.5 1122.9,86.1 	"/>
	<polygon points="1116.8,80.4 1118.2,78.8 1115.3,76.1 1113.9,77.7 	"/>
	<polygon points="1153.3,114.3 1154.7,112.8 1148.6,107.1 1147.2,108.7 	"/>
	<polygon points="1199.3,157.2 1200.8,155.7 1200.7,155.6 1200.7,155.6 1197.2,152.4 1195.8,153.9 	"/>
	<polygon points="1165.4,125.7 1166.8,124.1 1160.8,118.4 1159.3,120 	"/>
	<polygon points="1189.7,148.3 1191.1,146.7 1185.1,141.1 1183.6,142.6 	"/>
	<polygon points="1177.6,137 1179,135.4 1172.9,129.8 1171.5,131.3 	"/>
	<polygon points="1192.6,145.2 1194,143.6 1187.9,138 1186.5,139.5 	"/>
	<polygon points="1116.8,74.6 1116.8,74.6 1119.6,77.3 1121.1,75.7 1118.2,73 1116.7,74.6 	"/>
	<polygon points="1116.7,74.6 1116.7,74.6 1118.2,73 1118.1,73 	"/>
	<polygon points="1113.9,77.7 1113.9,77.7 1115.3,76.1 1115.3,76.1 	"/>
	<polygon points="1116.8,74.6 1116.8,74.6 1116.7,74.6 1116.7,74.6 	"/>
	<polygon points="1116.7,74.6 1116.7,74.6 1116.7,74.6 	"/>
	<polygon points="1195.8,153.9 1197.2,152.4 1191.1,146.7 1189.7,148.3 	"/>
	<polygon points="1198.6,150.8 1200.1,149.3 1194,143.6 1192.6,145.2 	"/>
	<polygon points="1122.9,86.1 1124.3,84.5 1118.2,78.8 1116.8,80.4 	"/>
	<polygon points="1125.7,82.9 1127.1,81.4 1121.1,75.7 1119.6,77.3 	"/>
	<polygon points="1135,97.4 1136.5,95.8 1130.4,90.2 1129,91.7 	"/>
	<polygon points="1137.9,94.3 1139.3,92.7 1133.2,87.1 1131.8,88.6 	"/>
	<polygon points="1147.2,108.7 1148.6,107.1 1142.5,101.5 1141.1,103 	"/>
	<polygon points="1150,105.6 1151.5,104 1145.4,98.4 1143.9,99.9 	"/>
	<polygon points="1162.2,116.9 1163.6,115.3 1157.5,109.7 1156.1,111.2 	"/>
	<polygon points="1159.3,120 1160.8,118.4 1154.7,112.8 1153.3,114.3 	"/>
	<polygon points="1174.3,128.2 1175.8,126.7 1169.7,121 1168.3,122.5 	"/>
	<polygon points="1171.5,131.3 1172.9,129.8 1166.8,124.1 1165.4,125.7 	"/>
	<polygon points="1183.6,142.6 1185.1,141.1 1179,135.4 1177.6,137 	"/>
	<polygon points="1186.5,139.5 1187.9,138 1181.8,132.3 1180.4,133.9 	"/>
	<polygon class="st3" points="1098,94.9 1098,94.9 1098.1,94.9 1098.1,94.9 	"/>
	<polygon class="st3" points="1096.6,96.4 1096.6,96.4 1096.6,96.5 1096.6,96.5 	"/>
	<polygon class="st3" points="1098.1,94.9 1098,94.9 1096.6,96.4 1096.6,96.5 	"/>
	<polygon class="st3" points="1131.4,126 1130,127.5 1136,133.2 1137.5,131.6 	"/>
	<polygon class="st3" points="1098.1,95 1098.1,95 1098.1,95 1096.7,96.6 1096.7,96.5 1096.7,96.5 1099.6,99.2 1101,97.7 	"/>
	<polygon class="st3" points="1107.1,103.3 1105.7,104.9 1111.7,110.5 1113.2,109 	"/>
	<polygon class="st3" points="1167.8,159.9 1166.4,161.5 1172.5,167.1 1173.9,165.6 	"/>
	<polygon class="st3" points="1155.7,148.6 1154.3,150.1 1160.3,155.8 1161.8,154.2 	"/>
	<polygon class="st3" points="1143.5,137.3 1142.1,138.8 1148.2,144.5 1149.6,142.9 	"/>
	<polygon class="st3" points="1182.1,176 1183.5,174.5 1183.5,174.5 1183.5,174.5 1180,171.2 1178.6,172.8 1182.1,176.1 
		1182.1,176.1 	"/>
	<polygon class="st3" points="1119.2,114.7 1117.8,116.2 1123.9,121.9 1125.3,120.3 	"/>
	<polygon class="st3" points="1096.6,96.5 1096.6,96.5 1096.7,96.5 1096.7,96.5 	"/>
	<polygon class="st3" points="1098.1,94.9 1098.1,95 1098.1,95 	"/>
	<polygon class="st3" points="1096.7,96.6 1098.1,95 1098.1,95 1096.7,96.5 	"/>
	<polygon class="st3" points="1096.6,96.5 1096.7,96.5 1098.1,95 1098.1,94.9 	"/>
	<polygon class="st3" points="1173.9,165.6 1172.5,167.1 1178.6,172.8 1180,171.2 	"/>
	<polygon class="st3" points="1101,97.7 1099.6,99.2 1105.7,104.9 1107.1,103.3 	"/>
	<polygon class="st3" points="1113.2,109 1111.7,110.5 1117.8,116.2 1119.2,114.7 	"/>
	<polygon class="st3" points="1125.3,120.3 1123.9,121.9 1130,127.5 1131.4,126 	"/>
	<polygon class="st3" points="1137.5,131.6 1136,133.2 1142.1,138.8 1143.5,137.3 	"/>
	<polygon class="st3" points="1149.6,142.9 1148.2,144.5 1154.3,150.1 1155.7,148.6 	"/>
	<polygon class="st3" points="1161.8,154.2 1160.3,155.8 1166.4,161.5 1167.8,159.9 	"/>
	<polygon class="st3" points="1115.3,76.1 1115.3,76.1 1115.2,76 1115.2,76 	"/>
	<polygon class="st3" points="1116.7,74.6 1116.6,74.5 1115.2,76 1115.3,76.1 	"/>
	<polygon class="st3" points="1200.7,155.6 1202.1,154.1 1202.2,154.1 1202.2,154.1 1198.6,150.8 1197.2,152.4 	"/>
	<polygon class="st3" points="1166.8,124.1 1168.3,122.5 1162.2,116.9 1160.8,118.4 	"/>
	<polygon class="st3" points="1191.1,146.7 1192.6,145.2 1186.5,139.5 1185.1,141.1 	"/>
	<polygon class="st3" points="1154.7,112.8 1156.1,111.2 1150,105.6 1148.6,107.1 	"/>
	<polygon class="st3" points="1179,135.4 1180.4,133.9 1174.3,128.2 1172.9,129.8 	"/>
	<polygon class="st3" points="1130.4,90.2 1131.8,88.6 1125.7,82.9 1124.3,84.5 	"/>
	<polygon class="st3" points="1142.5,101.5 1143.9,99.9 1137.9,94.3 1136.5,95.8 	"/>
	<polygon class="st3" points="1115.3,76.1 1115.3,76.1 1118.2,78.8 1119.6,77.3 1116.8,74.6 1115.4,76.2 	"/>
	<polygon class="st3" points="1115.3,76.1 1115.3,76.1 1115.3,76.1 	"/>
	<polygon class="st3" points="1115.3,76.1 1115.4,76.2 1116.8,74.6 1116.7,74.6 	"/>
	<polygon class="st3" points="1115.3,76.1 1116.7,74.6 1116.7,74.6 	"/>
	<polygon class="st3" points="1197.2,152.4 1198.6,150.8 1192.6,145.2 1191.1,146.7 	"/>
	<polygon class="st3" points="1124.3,84.5 1125.7,82.9 1119.6,77.3 1118.2,78.8 	"/>
	<polygon class="st3" points="1136.5,95.8 1137.9,94.3 1131.8,88.6 1130.4,90.2 	"/>
	<polygon class="st3" points="1148.6,107.1 1150,105.6 1143.9,99.9 1142.5,101.5 	"/>
	<polygon class="st3" points="1160.8,118.4 1162.2,116.9 1156.1,111.2 1154.7,112.8 	"/>
	<polygon class="st3" points="1172.9,129.8 1174.3,128.2 1168.3,122.5 1166.8,124.1 	"/>
	<polygon class="st3" points="1185.1,141.1 1186.5,139.5 1180.4,133.9 1179,135.4 	"/>
	<polygon class="st4" points="1266.9,249.2 1281.3,233.5 1275.2,227.9 1260.8,243.6 	"/>
	<polygon class="st4" points="1250.7,254.6 1256.8,260.3 1262.6,253.9 1256.5,248.2 	"/>
	<polygon class="st4" points="1290.8,223.2 1284.7,217.5 1279.5,223.2 1285.6,228.9 	"/>
	<polygon class="st4" points="1194,181.4 1208.4,165.6 1202.3,160 1187.9,175.7 	"/>
	<polygon class="st4" points="1217.8,155.3 1211.8,149.6 1206.6,155.3 1212.6,161 	"/>
	<polygon class="st4" points="1177.8,186.8 1183.9,192.4 1189.7,186 1183.6,180.4 	"/>
	<polygon class="st4" points="1189.9,198.1 1196,203.7 1201.9,197.3 1195.8,191.7 	"/>
	<polygon class="st4" points="1230,166.6 1223.9,160.9 1218.7,166.6 1224.8,172.3 	"/>
	<polygon class="st4" points="1206.1,192.7 1220.5,177 1214.4,171.3 1200.1,187 	"/>
	<polygon class="st4" points="1202.1,209.4 1208.2,215 1214,208.6 1207.9,203 	"/>
	<polygon class="st4" points="1242.1,177.9 1236.1,172.3 1230.9,177.9 1236.9,183.6 	"/>
	<polygon class="st4" points="1218.3,204 1232.7,188.3 1226.6,182.6 1212.2,198.3 	"/>
	<polygon class="st4" points="1214.2,220.7 1220.3,226.4 1226.2,219.9 1220.1,214.3 	"/>
	<polygon class="st4" points="1230.4,215.3 1244.8,199.6 1238.7,193.9 1224.4,209.6 	"/>
	<polygon class="st4" points="1254.3,189.2 1248.2,183.6 1243,189.3 1249.1,194.9 	"/>
	<polygon class="st4" points="1266.5,200.5 1260.4,194.9 1255.2,200.6 1261.2,206.2 	"/>
	<polygon class="st4" points="1226.4,232 1232.5,237.7 1238.3,231.3 1232.2,225.6 	"/>
	<polygon class="st4" points="1242.6,226.6 1257,210.9 1250.9,205.2 1236.5,221 	"/>
	<polygon class="st4" points="1254.7,237.9 1269.1,222.2 1263.1,216.6 1248.7,232.3 	"/>
	<polygon class="st4" points="1238.5,243.3 1244.6,249 1250.5,242.6 1244.4,236.9 	"/>
	<polygon class="st4" points="1278.6,211.9 1272.5,206.2 1267.3,211.9 1273.4,217.5 	"/>
	<polygon points="1239.7,229.7 1238.3,231.3 1244.4,236.9 1245.8,235.4 	"/>
	<polygon points="1218.3,204 1216.9,205.5 1222.9,211.2 1224.4,209.6 	"/>
	<polygon points="1203.3,195.8 1201.9,197.3 1207.9,203 1209.4,201.4 	"/>
	<polygon points="1185,173 1185,173 1185,173 1183.6,174.5 1183.6,174.6 1183.6,174.6 1186.5,177.3 1187.9,175.7 	"/>
	<polygon points="1251.9,241 1250.5,242.6 1256.5,248.2 1258,246.7 	"/>
	<polygon points="1191.1,184.5 1189.7,186 1195.8,191.7 1197.2,190.1 	"/>
	<polygon points="1227.6,218.4 1226.2,219.9 1232.2,225.6 1233.7,224.1 	"/>
	<polygon points="1267.5,255.6 1267.5,255.6 1264.1,252.3 1262.6,253.9 1266.2,257.2 1267.6,255.6 	"/>
	<polygon points="1215.4,207.1 1214,208.6 1220.1,214.3 1221.5,212.7 	"/>
	<polygon points="1182.2,176.1 1182.2,176.1 1182.1,176.1 1180.7,177.6 1183.6,180.4 1185.1,178.8 	"/>
	<polygon points="1242.6,226.6 1241.2,228.2 1247.2,233.8 1248.7,232.3 	"/>
	<polygon points="1206.1,192.7 1204.7,194.2 1210.8,199.9 1212.2,198.3 	"/>
	<polygon points="1270.5,252.6 1270.5,252.6 1266.9,249.2 1265.5,250.8 1269,254.1 1270.4,252.5 	"/>
	<polygon points="1230.4,215.3 1229,216.8 1235.1,222.5 1236.5,221 	"/>
	<polygon points="1254.7,237.9 1253.3,239.5 1259.4,245.1 1260.8,243.6 	"/>
	<polygon points="1194,181.4 1192.6,182.9 1198.6,188.6 1200.1,187 	"/>
	<polygon points="1185,173 1185,173 1183.5,174.5 1183.6,174.5 	"/>
	<polygon points="1182.1,176.1 1180.7,177.6 1180.7,177.6 	"/>
	<polygon points="1182.1,176.1 1182.2,176.1 1182.2,176.1 	"/>
	<polygon points="1183.6,174.5 1183.6,174.5 1183.6,174.6 1183.6,174.6 	"/>
	<polygon points="1183.5,174.5 1183.5,174.5 1183.6,174.5 1183.6,174.5 	"/>
	<polygon points="1182.1,176.1 1182.1,176.1 1182.1,176.1 	"/>
	<polygon points="1258,246.7 1256.5,248.2 1262.6,253.9 1264.1,252.3 	"/>
	<polygon points="1260.8,243.6 1259.4,245.1 1265.5,250.8 1266.9,249.2 	"/>
	<polygon points="1185.1,178.8 1183.6,180.4 1189.7,186 1191.1,184.5 	"/>
	<polygon points="1187.9,175.7 1186.5,177.3 1192.6,182.9 1194,181.4 	"/>
	<polygon points="1200.1,187 1198.6,188.6 1204.7,194.2 1206.1,192.7 	"/>
	<polygon points="1197.2,190.1 1195.8,191.7 1201.9,197.3 1203.3,195.8 	"/>
	<polygon points="1209.4,201.4 1207.9,203 1214,208.6 1215.4,207.1 	"/>
	<polygon points="1212.2,198.3 1210.8,199.9 1216.9,205.5 1218.3,204 	"/>
	<polygon points="1221.5,212.7 1220.1,214.3 1226.2,219.9 1227.6,218.4 	"/>
	<polygon points="1224.4,209.6 1222.9,211.2 1229,216.8 1230.4,215.3 	"/>
	<polygon points="1236.5,221 1235.1,222.5 1241.2,228.2 1242.6,226.6 	"/>
	<polygon points="1233.7,224.1 1232.2,225.6 1238.3,231.3 1239.7,229.7 	"/>
	<polygon points="1248.7,232.3 1247.2,233.8 1253.3,239.5 1254.7,237.9 	"/>
	<polygon points="1245.8,235.4 1244.4,236.9 1250.5,242.6 1251.9,241 	"/>
	<polygon points="1199.3,157.2 1199.3,157.2 1202.3,160 1203.7,158.4 1200.8,155.7 1199.4,157.3 	"/>
	<polygon points="1214.4,171.3 1215.9,169.7 1209.8,164.1 1208.4,165.6 	"/>
	<polygon points="1202.3,154.2 1202.3,154.2 1205.1,156.9 1206.6,155.3 1203.6,152.6 1202.2,154.2 	"/>
	<polygon points="1284.8,236.8 1286.3,235.3 1286.2,235.2 1286.2,235.2 1282.7,232 1281.3,233.5 	"/>
	<polygon points="1217.3,168.2 1218.7,166.6 1212.6,161 1211.2,162.5 	"/>
	<polygon points="1275.2,227.9 1276.6,226.3 1270.6,220.7 1269.1,222.2 	"/>
	<polygon points="1238.7,193.9 1240.2,192.4 1234.1,186.7 1232.7,188.3 	"/>
	<polygon points="1226.6,182.6 1228,181.1 1221.9,175.4 1220.5,177 	"/>
	<polygon points="1229.4,179.5 1230.9,177.9 1224.8,172.3 1223.4,173.8 	"/>
	<polygon points="1287.7,233.7 1289.1,232.2 1289.1,232.2 1289.1,232.2 1285.6,228.9 1284.1,230.4 	"/>
	<polygon points="1263.1,216.6 1264.5,215 1258.4,209.3 1257,210.9 	"/>
	<polygon points="1265.9,213.4 1267.3,211.9 1261.2,206.2 1259.8,207.8 	"/>
	<polygon points="1278.1,224.8 1279.5,223.2 1273.4,217.5 1272,219.1 	"/>
	<polygon points="1250.9,205.2 1252.3,203.7 1246.2,198 1244.8,199.6 	"/>
	<polygon points="1241.6,190.8 1243,189.3 1236.9,183.6 1235.5,185.2 	"/>
	<polygon points="1253.7,202.1 1255.2,200.6 1249.1,194.9 1247.7,196.5 	"/>
	<polygon points="1202.2,154.1 1202.2,154.2 1203.6,152.6 1203.6,152.6 	"/>
	<polygon points="1199.3,157.2 1199.4,157.3 1200.8,155.7 1200.8,155.7 	"/>
	<polygon points="1202.3,154.2 1202.3,154.2 1202.2,154.2 1202.2,154.2 	"/>
	<polygon points="1202.2,154.2 1202.2,154.2 1202.2,154.1 1202.2,154.1 	"/>
	<polygon points="1281.3,233.5 1282.7,232 1276.6,226.3 1275.2,227.9 	"/>
	<polygon points="1284.1,230.4 1285.6,228.9 1279.5,223.2 1278.1,224.8 	"/>
	<polygon points="1208.4,165.6 1209.8,164.1 1203.7,158.4 1202.3,160 	"/>
	<polygon points="1211.2,162.5 1212.6,161 1206.6,155.3 1205.1,156.9 	"/>
	<polygon points="1223.4,173.8 1224.8,172.3 1218.7,166.6 1217.3,168.2 	"/>
	<polygon points="1220.5,177 1221.9,175.4 1215.9,169.7 1214.4,171.3 	"/>
	<polygon points="1232.7,188.3 1234.1,186.7 1228,181.1 1226.6,182.6 	"/>
	<polygon points="1235.5,185.2 1236.9,183.6 1230.9,177.9 1229.4,179.5 	"/>
	<polygon points="1247.7,196.5 1249.1,194.9 1243,189.3 1241.6,190.8 	"/>
	<polygon points="1244.8,199.6 1246.2,198 1240.2,192.4 1238.7,193.9 	"/>
	<polygon points="1257,210.9 1258.4,209.3 1252.3,203.7 1250.9,205.2 	"/>
	<polygon points="1259.8,207.8 1261.2,206.2 1255.2,200.6 1253.7,202.1 	"/>
	<polygon points="1269.1,222.2 1270.6,220.7 1264.5,215 1263.1,216.6 	"/>
	<polygon points="1272,219.1 1273.4,217.5 1267.3,211.9 1265.9,213.4 	"/>
	<polygon class="st3" points="1183.5,174.5 1182.1,176 1182.1,176.1 	"/>
	<polygon class="st3" points="1192.6,182.9 1191.1,184.5 1197.2,190.1 1198.6,188.6 	"/>
	<polygon class="st3" points="1229,216.8 1227.6,218.4 1233.7,224.1 1235.1,222.5 	"/>
	<polygon class="st3" points="1241.2,228.2 1239.7,229.7 1245.8,235.4 1247.2,233.8 	"/>
	<polygon class="st3" points="1204.7,194.2 1203.3,195.8 1209.4,201.4 1210.8,199.9 	"/>
	<polygon class="st3" points="1183.6,174.6 1182.2,176.1 1185.1,178.8 1186.5,177.3 	"/>
	<polygon class="st3" points="1216.9,205.5 1215.4,207.1 1221.5,212.7 1222.9,211.2 	"/>
	<polygon class="st3" points="1269,254.1 1269,254.1 1265.5,250.8 1264.1,252.3 1267.5,255.6 1269,254 	"/>
	<polygon class="st3" points="1253.3,239.5 1251.9,241 1258,246.7 1259.4,245.1 	"/>
	<polygon class="st3" points="1183.6,174.5 1182.1,176.1 1182.2,176.1 1183.6,174.6 	"/>
	<polygon class="st3" points="1182.1,176.1 1182.1,176.1 1183.6,174.5 1183.5,174.5 	"/>
	<polygon class="st3" points="1259.4,245.1 1258,246.7 1264.1,252.3 1265.5,250.8 	"/>
	<polygon class="st3" points="1186.5,177.3 1185.1,178.8 1191.1,184.5 1192.6,182.9 	"/>
	<polygon class="st3" points="1198.6,188.6 1197.2,190.1 1203.3,195.8 1204.7,194.2 	"/>
	<polygon class="st3" points="1210.8,199.9 1209.4,201.4 1215.4,207.1 1216.9,205.5 	"/>
	<polygon class="st3" points="1222.9,211.2 1221.5,212.7 1227.6,218.4 1229,216.8 	"/>
	<polygon class="st3" points="1235.1,222.5 1233.7,224.1 1239.7,229.7 1241.2,228.2 	"/>
	<polygon class="st3" points="1247.2,233.8 1245.8,235.4 1251.9,241 1253.3,239.5 	"/>
	<polygon class="st3" points="1200.8,155.7 1200.8,155.7 1200.7,155.6 1200.7,155.6 	"/>
	<polygon class="st3" points="1202.2,154.1 1202.1,154.1 1200.7,155.6 1200.8,155.7 	"/>
	<polygon class="st3" points="1286.2,235.2 1287.6,233.6 1287.7,233.7 1287.7,233.7 1284.1,230.4 1282.7,232 	"/>
	<polygon class="st3" points="1228,181.1 1229.4,179.5 1223.4,173.8 1221.9,175.4 	"/>
	<polygon class="st3" points="1240.2,192.4 1241.6,190.8 1235.5,185.2 1234.1,186.7 	"/>
	<polygon class="st3" points="1252.3,203.7 1253.7,202.1 1247.7,196.5 1246.2,198 	"/>
	<polygon class="st3" points="1215.9,169.7 1217.3,168.2 1211.2,162.5 1209.8,164.1 	"/>
	<polygon class="st3" points="1276.6,226.3 1278.1,224.8 1272,219.1 1270.6,220.7 	"/>
	<polygon class="st3" points="1200.8,155.7 1200.8,155.7 1203.7,158.4 1205.1,156.9 1202.3,154.2 1200.9,155.8 	"/>
	<polygon class="st3" points="1264.5,215 1265.9,213.4 1259.8,207.8 1258.4,209.3 	"/>
	<polygon class="st3" points="1200.8,155.7 1200.8,155.7 1200.8,155.7 	"/>
	<polygon class="st3" points="1200.8,155.7 1200.9,155.8 1202.3,154.2 1202.2,154.2 	"/>
	<polygon class="st3" points="1200.8,155.7 1202.2,154.2 1202.2,154.1 	"/>
	<polygon class="st3" points="1282.7,232 1284.1,230.4 1278.1,224.8 1276.6,226.3 	"/>
	<polygon class="st3" points="1209.8,164.1 1211.2,162.5 1205.1,156.9 1203.7,158.4 	"/>
	<polygon class="st3" points="1221.9,175.4 1223.4,173.8 1217.3,168.2 1215.9,169.7 	"/>
	<polygon class="st3" points="1234.1,186.7 1235.5,185.2 1229.4,179.5 1228,181.1 	"/>
	<polygon class="st3" points="1246.2,198 1247.7,196.5 1241.6,190.8 1240.2,192.4 	"/>
	<polygon class="st3" points="1258.4,209.3 1259.8,207.8 1253.7,202.1 1252.3,203.7 	"/>
	<polygon class="st3" points="1270.6,220.7 1272,219.1 1265.9,213.4 1264.5,215 	"/>
	<polygon class="st4" points="1336.2,334.2 1342.2,339.9 1348.1,333.5 1342,327.8 	"/>
	<polygon class="st4" points="1376.3,302.8 1370.2,297.1 1365,302.8 1371,308.4 	"/>
	<polygon class="st4" points="1352.4,328.8 1366.8,313.1 1360.7,307.4 1346.3,323.2 	"/>
	<polygon class="st4" points="1303.3,234.9 1297.3,229.2 1292,234.9 1298.1,240.6 	"/>
	<polygon class="st4" points="1279.5,260.9 1293.9,245.2 1287.8,239.6 1273.4,255.3 	"/>
	<polygon class="st4" points="1263.3,266.3 1269.3,272 1275.2,265.6 1269.1,259.9 	"/>
	<polygon class="st4" points="1291.6,272.2 1306,256.5 1299.9,250.9 1285.5,266.6 	"/>
	<polygon class="st4" points="1315.5,246.2 1309.4,240.5 1304.2,246.2 1310.3,251.9 	"/>
	<polygon class="st4" points="1275.4,277.6 1281.5,283.3 1287.3,276.9 1281.3,271.2 	"/>
	<polygon class="st4" points="1303.8,283.6 1318.2,267.8 1312.1,262.2 1297.7,277.9 	"/>
	<polygon class="st4" points="1287.6,289 1293.6,294.6 1299.5,288.2 1293.4,282.6 	"/>
	<polygon class="st4" points="1327.6,257.5 1321.6,251.8 1316.3,257.5 1322.4,263.2 	"/>
	<polygon class="st4" points="1339.8,268.8 1333.7,263.2 1328.5,268.8 1334.6,274.5 	"/>
	<polygon class="st4" points="1299.7,300.3 1305.8,305.9 1311.6,299.5 1305.6,293.9 	"/>
	<polygon class="st4" points="1315.9,294.9 1330.3,279.2 1324.2,273.5 1309.8,289.2 	"/>
	<polygon class="st4" points="1311.9,311.6 1317.9,317.2 1323.8,310.8 1317.7,305.2 	"/>
	<polygon class="st4" points="1352,280.1 1345.9,274.5 1340.7,280.2 1346.7,285.8 	"/>
	<polygon class="st4" points="1328.1,306.2 1342.5,290.5 1336.4,284.8 1322,300.5 	"/>
	<polygon class="st4" points="1324,322.9 1330.1,328.5 1336,322.2 1329.9,316.5 	"/>
	<polygon class="st4" points="1340.2,317.5 1354.6,301.8 1348.5,296.1 1334.1,311.8 	"/>
	<polygon class="st4" points="1364.1,291.4 1358,285.8 1352.8,291.5 1358.9,297.1 	"/>
	<polygon points="1270.5,252.6 1269,254.1 1269.1,254.2 1269.1,254.2 1272,256.8 1273.4,255.3 	"/>
	<polygon points="1279.5,260.9 1278,262.5 1284.1,268.1 1285.5,266.6 	"/>
	<polygon points="1354.5,333.7 1355.9,332.1 1352.4,328.8 1350.9,330.4 1354.4,333.6 1354.4,333.6 	"/>
	<polygon points="1325.2,309.3 1323.8,310.8 1329.9,316.5 1331.3,314.9 	"/>
	<polygon points="1353.1,335.2 1353,335.2 1353,335.2 1349.5,331.9 1348.1,333.5 1351.7,336.8 1351.7,336.8 1351.7,336.8 	"/>
	<polygon points="1337.4,320.6 1336,322.2 1342,327.8 1343.4,326.3 	"/>
	<polygon points="1300.9,286.7 1299.5,288.2 1305.6,293.9 1307,292.3 	"/>
	<polygon points="1328.1,306.2 1326.6,307.7 1332.7,313.4 1334.1,311.8 	"/>
	<polygon points="1303.8,283.6 1302.3,285.1 1308.4,290.8 1309.8,289.2 	"/>
	<polygon points="1315.9,294.9 1314.5,296.4 1320.6,302.1 1322,300.5 	"/>
	<polygon points="1340.2,317.5 1338.8,319.1 1344.9,324.7 1346.3,323.2 	"/>
	<polygon points="1288.8,275.3 1287.3,276.9 1293.4,282.6 1294.8,281 	"/>
	<polygon points="1313.1,298 1311.6,299.5 1317.7,305.2 1319.1,303.6 	"/>
	<polygon points="1291.6,272.2 1290.2,273.8 1296.3,279.5 1297.7,277.9 	"/>
	<polygon points="1276.6,264 1275.2,265.6 1281.3,271.2 1282.7,269.7 	"/>
	<polygon points="1267.6,255.7 1266.2,257.2 1266.2,257.2 1266.2,257.2 1269.1,259.9 1270.5,258.4 	"/>
	<polygon points="1267.6,255.7 1267.6,255.6 1266.2,257.2 1266.2,257.2 	"/>
	<polygon points="1270.5,252.6 1270.4,252.5 1269,254.1 1269,254.1 	"/>
	<polygon points="1269,254.1 1269,254.1 1269.1,254.2 1269.1,254.2 	"/>
	<polygon points="1269,254.1 1269,254.1 1269,254.1 	"/>
	<polygon points="1343.4,326.3 1342,327.8 1348.1,333.5 1349.5,331.9 	"/>
	<polygon points="1346.3,323.2 1344.9,324.7 1350.9,330.4 1352.4,328.8 	"/>
	<polygon points="1270.5,258.4 1269.1,259.9 1275.2,265.6 1276.6,264 	"/>
	<polygon points="1273.4,255.3 1272,256.8 1278,262.5 1279.5,260.9 	"/>
	<polygon points="1282.7,269.7 1281.3,271.2 1287.3,276.9 1288.8,275.3 	"/>
	<polygon points="1285.5,266.6 1284.1,268.1 1290.2,273.8 1291.6,272.2 	"/>
	<polygon points="1297.7,277.9 1296.3,279.5 1302.3,285.1 1303.8,283.6 	"/>
	<polygon points="1294.8,281 1293.4,282.6 1299.5,288.2 1300.9,286.7 	"/>
	<polygon points="1307,292.3 1305.6,293.9 1311.6,299.5 1313.1,298 	"/>
	<polygon points="1309.8,289.2 1308.4,290.8 1314.5,296.4 1315.9,294.9 	"/>
	<polygon points="1319.1,303.6 1317.7,305.2 1323.8,310.8 1325.2,309.3 	"/>
	<polygon points="1322,300.5 1320.6,302.1 1326.6,307.7 1328.1,306.2 	"/>
	<polygon points="1334.1,311.8 1332.7,313.4 1338.8,319.1 1340.2,317.5 	"/>
	<polygon points="1331.3,314.9 1329.9,316.5 1336,322.2 1337.4,320.6 	"/>
	<polygon points="1360.7,307.4 1362.1,305.9 1356,300.2 1354.6,301.8 	"/>
	<polygon points="1324.2,273.5 1325.7,272 1319.6,266.3 1318.2,267.8 	"/>
	<polygon points="1348.5,296.1 1350,294.6 1343.9,288.9 1342.5,290.5 	"/>
	<polygon points="1351.4,293 1352.8,291.5 1346.7,285.8 1345.3,287.4 	"/>
	<polygon points="1327.1,270.4 1328.5,268.8 1322.4,263.2 1321,264.7 	"/>
	<polygon points="1363.5,304.3 1365,302.8 1358.9,297.1 1357.5,298.7 	"/>
	<polygon points="1312.1,262.2 1313.5,260.6 1307.4,255 1306,256.5 	"/>
	<polygon points="1339.2,281.7 1340.7,280.2 1334.6,274.5 1333.2,276.1 	"/>
	<polygon points="1287.8,233.8 1287.8,233.8 1290.6,236.5 1292,234.9 1289.1,232.2 1287.7,233.7 	"/>
	<polygon points="1314.9,259.1 1316.3,257.5 1310.3,251.9 1308.8,253.4 	"/>
	<polygon points="1284.8,236.8 1284.8,236.8 1287.8,239.6 1289.2,238 1286.3,235.3 1284.9,236.8 	"/>
	<polygon points="1370.3,316.4 1371.7,314.9 1371.7,314.8 1371.7,314.8 1368.2,311.6 1366.8,313.1 	"/>
	<polygon points="1336.4,284.8 1337.8,283.3 1331.7,277.6 1330.3,279.2 	"/>
	<polygon points="1373.1,313.2 1373.1,313.2 1373.2,313.3 1374.6,311.7 1371,308.4 1369.6,310 	"/>
	<polygon points="1299.9,250.9 1301.4,249.3 1295.3,243.7 1293.9,245.2 	"/>
	<polygon points="1302.8,247.8 1304.2,246.2 1298.1,240.6 1296.7,242.1 	"/>
	<polygon points="1287.7,233.7 1287.7,233.7 1289.1,232.2 1289.1,232.2 	"/>
	<polygon points="1284.8,236.8 1284.9,236.8 1286.3,235.3 1286.3,235.3 	"/>
	<polygon points="1287.8,233.8 1287.8,233.8 1287.7,233.7 1287.7,233.7 	"/>
	<polygon points="1287.7,233.7 1287.7,233.7 1287.7,233.7 	"/>
	<polygon points="1369.6,310 1371,308.4 1365,302.8 1363.5,304.3 	"/>
	<polygon points="1366.8,313.1 1368.2,311.6 1362.1,305.9 1360.7,307.4 	"/>
	<polygon points="1296.7,242.1 1298.1,240.6 1292,234.9 1290.6,236.5 	"/>
	<polygon points="1293.9,245.2 1295.3,243.7 1289.2,238 1287.8,239.6 	"/>
	<polygon points="1306,256.5 1307.4,255 1301.4,249.3 1299.9,250.9 	"/>
	<polygon points="1308.8,253.4 1310.3,251.9 1304.2,246.2 1302.8,247.8 	"/>
	<polygon points="1318.2,267.8 1319.6,266.3 1313.5,260.6 1312.1,262.2 	"/>
	<polygon points="1321,264.7 1322.4,263.2 1316.3,257.5 1314.9,259.1 	"/>
	<polygon points="1330.3,279.2 1331.7,277.6 1325.7,272 1324.2,273.5 	"/>
	<polygon points="1333.2,276.1 1334.6,274.5 1328.5,268.8 1327.1,270.4 	"/>
	<polygon points="1342.5,290.5 1343.9,288.9 1337.8,283.3 1336.4,284.8 	"/>
	<polygon points="1345.3,287.4 1346.7,285.8 1340.7,280.2 1339.2,281.7 	"/>
	<polygon points="1354.6,301.8 1356,300.2 1350,294.6 1348.5,296.1 	"/>
	<polygon points="1357.5,298.7 1358.9,297.1 1352.8,291.5 1351.4,293 	"/>
	<polygon class="st3" points="1267.5,255.6 1267.5,255.6 1267.6,255.6 1267.6,255.6 	"/>
	<polygon class="st3" points="1269,254.1 1269,254 1267.5,255.6 1267.6,255.6 	"/>
	<polygon class="st3" points="1338.8,319.1 1337.4,320.6 1343.4,326.3 1344.9,324.7 	"/>
	<polygon class="st3" points="1314.5,296.4 1313.1,298 1319.1,303.6 1320.6,302.1 	"/>
	<polygon class="st3" points="1326.6,307.7 1325.2,309.3 1331.3,314.9 1332.7,313.4 	"/>
	<polygon class="st3" points="1350.9,330.4 1349.5,331.9 1353,335.2 1354.4,333.6 	"/>
	<polygon class="st3" points="1302.3,285.1 1300.9,286.7 1307,292.3 1308.4,290.8 	"/>
	<polygon class="st3" points="1290.2,273.8 1288.8,275.3 1294.8,281 1296.3,279.5 	"/>
	<polygon class="st3" points="1269.1,254.2 1267.7,255.7 1267.6,255.7 1267.6,255.7 1270.5,258.4 1272,256.8 	"/>
	<polygon class="st3" points="1278,262.5 1276.6,264 1282.7,269.7 1284.1,268.1 	"/>
	<polygon class="st3" points="1267.6,255.6 1267.6,255.6 1267.6,255.7 1267.6,255.7 	"/>
	<polygon class="st3" points="1267.6,255.7 1267.7,255.7 1269.1,254.2 1269,254.1 	"/>
	<polygon class="st3" points="1269,254.1 1267.6,255.6 1267.6,255.7 	"/>
	<polygon class="st3" points="1344.9,324.7 1343.4,326.3 1349.5,331.9 1350.9,330.4 	"/>
	<polygon class="st3" points="1272,256.8 1270.5,258.4 1276.6,264 1278,262.5 	"/>
	<polygon class="st3" points="1284.1,268.1 1282.7,269.7 1288.8,275.3 1290.2,273.8 	"/>
	<polygon class="st3" points="1296.3,279.5 1294.8,281 1300.9,286.7 1302.3,285.1 	"/>
	<polygon class="st3" points="1308.4,290.8 1307,292.3 1313.1,298 1314.5,296.4 	"/>
	<polygon class="st3" points="1320.6,302.1 1319.1,303.6 1325.2,309.3 1326.6,307.7 	"/>
	<polygon class="st3" points="1332.7,313.4 1331.3,314.9 1337.4,320.6 1338.8,319.1 	"/>
	<polygon class="st3" points="1286.3,235.3 1286.3,235.3 1286.2,235.2 1286.2,235.2 	"/>
	<polygon class="st3" points="1287.7,233.7 1287.6,233.6 1286.2,235.2 1286.3,235.3 	"/>
	<polygon class="st3" points="1286.3,235.3 1286.3,235.3 1289.2,238 1290.6,236.5 1287.8,233.8 1286.3,235.4 	"/>
	<polygon class="st3" points="1371.7,314.8 1373.1,313.2 1369.6,310 1368.2,311.6 	"/>
	<polygon class="st3" points="1313.5,260.6 1314.9,259.1 1308.8,253.4 1307.4,255 	"/>
	<polygon class="st3" points="1362.1,305.9 1363.5,304.3 1357.5,298.7 1356,300.2 	"/>
	<polygon class="st3" points="1325.7,272 1327.1,270.4 1321,264.7 1319.6,266.3 	"/>
	<polygon class="st3" points="1301.4,249.3 1302.8,247.8 1296.7,242.1 1295.3,243.7 	"/>
	<polygon class="st3" points="1350,294.6 1351.4,293 1345.3,287.4 1343.9,288.9 	"/>
	<polygon class="st3" points="1337.8,283.3 1339.2,281.7 1333.2,276.1 1331.7,277.6 	"/>
	<polygon class="st3" points="1286.3,235.3 1286.3,235.3 1286.3,235.3 	"/>
	<polygon class="st3" points="1286.3,235.3 1286.3,235.4 1287.8,233.8 1287.7,233.7 	"/>
	<polygon class="st3" points="1286.3,235.3 1287.7,233.7 1287.7,233.7 	"/>
	<polygon class="st3" points="1368.2,311.6 1369.6,310 1363.5,304.3 1362.1,305.9 	"/>
	<polygon class="st3" points="1295.3,243.7 1296.7,242.1 1290.6,236.5 1289.2,238 	"/>
	<polygon class="st3" points="1307.4,255 1308.8,253.4 1302.8,247.8 1301.4,249.3 	"/>
	<polygon class="st3" points="1319.6,266.3 1321,264.7 1314.9,259.1 1313.5,260.6 	"/>
	<polygon class="st3" points="1331.7,277.6 1333.2,276.1 1327.1,270.4 1325.7,272 	"/>
	<polygon class="st3" points="1343.9,288.9 1345.3,287.4 1339.2,281.7 1337.8,283.3 	"/>
	<polygon class="st3" points="1356,300.2 1357.5,298.7 1351.4,293 1350,294.6 	"/>
	<polygon class="st4" points="1421.6,413.8 1427.7,419.4 1433.6,413 1427.5,407.4 	"/>
	<polygon class="st4" points="1437.8,408.4 1452.3,392.7 1446.2,387 1431.8,402.7 	"/>
	<polygon class="st4" points="1461.7,382.3 1455.7,376.7 1450.5,382.4 1456.5,388 	"/>
	<polygon class="st4" points="1388.8,314.5 1382.7,308.8 1377.5,314.5 1383.6,320.1 	"/>
	<polygon class="st4" points="1348.7,345.9 1354.8,351.6 1360.7,345.2 1354.6,339.5 	"/>
	<polygon class="st4" points="1364.9,340.5 1379.3,324.8 1373.3,319.1 1358.9,334.9 	"/>
	<polygon class="st4" points="1377.1,351.8 1391.5,336.1 1385.4,330.5 1371,346.2 	"/>
	<polygon class="st4" points="1360.9,357.2 1367,362.9 1372.8,356.5 1366.7,350.8 	"/>
	<polygon class="st4" points="1401,325.8 1394.9,320.1 1389.7,325.8 1395.8,331.5 	"/>
	<polygon class="st4" points="1389.2,363.1 1403.6,347.4 1397.6,341.8 1383.2,357.5 	"/>
	<polygon class="st4" points="1413.1,337.1 1407.1,331.4 1401.8,337.1 1407.9,342.8 	"/>
	<polygon class="st4" points="1373,368.5 1379.1,374.2 1385,367.8 1378.9,362.1 	"/>
	<polygon class="st4" points="1385.2,379.8 1391.3,385.5 1397.1,379.1 1391,373.4 	"/>
	<polygon class="st4" points="1425.3,348.4 1419.2,342.7 1414,348.4 1420.1,354.1 	"/>
	<polygon class="st4" points="1401.4,374.4 1415.8,358.7 1409.7,353.1 1395.3,368.8 	"/>
	<polygon class="st4" points="1437.4,359.7 1431.4,354.1 1426.1,359.7 1432.2,365.4 	"/>
	<polygon class="st4" points="1413.5,385.8 1428,370.1 1421.9,364.4 1407.5,380.1 	"/>
	<polygon class="st4" points="1397.3,391.1 1403.4,396.8 1409.3,390.4 1403.2,384.8 	"/>
	<polygon class="st4" points="1449.6,371 1443.5,365.4 1438.3,371.1 1444.4,376.7 	"/>
	<polygon class="st4" points="1425.7,397.1 1440.1,381.4 1434,375.7 1419.6,391.4 	"/>
	<polygon class="st4" points="1409.5,402.5 1415.6,408.1 1421.4,401.7 1415.4,396.1 	"/>
	<polygon points="1364.9,340.5 1363.5,342.1 1369.6,347.7 1371,346.2 	"/>
	<polygon points="1355.9,332.1 1355.9,332.1 1355.9,332.1 1354.5,333.7 1357.4,336.4 1358.9,334.9 	"/>
	<polygon points="1377.1,351.8 1375.7,353.4 1381.7,359 1383.2,357.5 	"/>
	<polygon points="1422.9,400.2 1421.4,401.7 1427.5,407.4 1428.9,405.8 	"/>
	<polygon points="1410.7,388.9 1409.3,390.4 1415.4,396.1 1416.8,394.5 	"/>
	<polygon points="1389.2,363.1 1387.8,364.7 1393.9,370.3 1395.3,368.8 	"/>
	<polygon points="1438.5,414.7 1438.5,414.7 1435,411.5 1433.6,413 1437.1,416.3 1438.6,414.8 	"/>
	<polygon points="1440,413.2 1441.4,411.7 1437.8,408.4 1436.4,409.9 1439.9,413.2 1439.9,413.2 	"/>
	<polygon points="1401.4,374.4 1400,376 1406,381.7 1407.5,380.1 	"/>
	<polygon points="1425.7,397.1 1424.3,398.6 1430.3,404.3 1431.8,402.7 	"/>
	<polygon points="1413.5,385.8 1412.1,387.3 1418.2,393 1419.6,391.4 	"/>
	<polygon points="1398.5,377.5 1397.1,379.1 1403.2,384.8 1404.6,383.2 	"/>
	<polygon points="1386.4,366.2 1385,367.8 1391,373.4 1392.5,371.9 	"/>
	<polygon points="1362.1,343.6 1360.7,345.2 1366.7,350.8 1368.2,349.3 	"/>
	<polygon points="1374.2,354.9 1372.8,356.5 1378.9,362.1 1380.3,360.6 	"/>
	<polygon points="1353.1,335.2 1351.7,336.8 1354.6,339.5 1356,338 	"/>
	<polygon points="1355.9,332.1 1354.5,333.7 1354.5,333.7 	"/>
	<polygon points="1353.1,335.2 1351.7,336.8 1351.7,336.8 	"/>
	<polygon points="1428.9,405.8 1427.5,407.4 1433.6,413 1435,411.5 	"/>
	<polygon points="1431.8,402.7 1430.3,404.3 1436.4,409.9 1437.8,408.4 	"/>
	<polygon points="1358.9,334.9 1357.4,336.4 1363.5,342.1 1364.9,340.5 	"/>
	<polygon points="1356,338 1354.6,339.5 1360.7,345.2 1362.1,343.6 	"/>
	<polygon points="1371,346.2 1369.6,347.7 1375.7,353.4 1377.1,351.8 	"/>
	<polygon points="1368.2,349.3 1366.7,350.8 1372.8,356.5 1374.2,354.9 	"/>
	<polygon points="1383.2,357.5 1381.7,359 1387.8,364.7 1389.2,363.1 	"/>
	<polygon points="1380.3,360.6 1378.9,362.1 1385,367.8 1386.4,366.2 	"/>
	<polygon points="1395.3,368.8 1393.9,370.3 1400,376 1401.4,374.4 	"/>
	<polygon points="1392.5,371.9 1391,373.4 1397.1,379.1 1398.5,377.5 	"/>
	<polygon points="1407.5,380.1 1406,381.7 1412.1,387.3 1413.5,385.8 	"/>
	<polygon points="1404.6,383.2 1403.2,384.8 1409.3,390.4 1410.7,388.9 	"/>
	<polygon points="1416.8,394.5 1415.4,396.1 1421.4,401.7 1422.9,400.2 	"/>
	<polygon points="1419.6,391.4 1418.2,393 1424.3,398.6 1425.7,397.1 	"/>
	<polygon points="1412.6,350 1414,348.4 1407.9,342.8 1406.5,344.3 	"/>
	<polygon points="1388.3,327.4 1389.7,325.8 1383.6,320.1 1382.2,321.7 	"/>
	<polygon points="1400.4,338.7 1401.8,337.1 1395.8,331.5 1394.3,333 	"/>
	<polygon points="1424.7,361.3 1426.1,359.7 1420.1,354.1 1418.6,355.6 	"/>
	<polygon points="1373.2,313.3 1376.1,316 1377.5,314.5 1374.6,311.7 1374.6,311.7 1374.6,311.8 	"/>
	<polygon points="1421.9,364.4 1423.3,362.8 1417.2,357.2 1415.8,358.7 	"/>
	<polygon points="1436.9,372.6 1438.3,371.1 1432.2,365.4 1430.8,367 	"/>
	<polygon points="1434,375.7 1435.5,374.2 1429.4,368.5 1428,370.1 	"/>
	<polygon points="1455.8,396 1455.8,396 1455.8,396 1457.2,394.4 1457.2,394.4 1457.2,394.4 1453.7,391.1 1452.3,392.7 	"/>
	<polygon points="1446.2,387 1447.6,385.5 1441.5,379.8 1440.1,381.4 	"/>
	<polygon points="1409.7,353.1 1411.1,351.5 1405.1,345.9 1403.6,347.4 	"/>
	<polygon points="1397.6,341.8 1399,340.2 1392.9,334.6 1391.5,336.1 	"/>
	<polygon points="1449,383.9 1450.5,382.4 1444.4,376.7 1443,378.3 	"/>
	<polygon points="1370.3,316.4 1370.3,316.4 1373.3,319.1 1374.7,317.6 1371.8,314.9 	"/>
	<polygon points="1458.6,392.8 1458.6,392.8 1458.7,392.9 1460.1,391.3 1460.1,391.4 1460.1,391.4 1456.5,388 1455.1,389.6 	"/>
	<polygon points="1385.4,330.5 1386.8,328.9 1380.8,323.2 1379.3,324.8 	"/>
	<polygon points="1370.3,316.4 1370.3,316.4 1371.8,314.9 1371.7,314.9 	"/>
	<polygon points="1373.2,313.3 1374.6,311.8 1374.6,311.7 	"/>
	<polygon points="1452.3,392.7 1453.7,391.1 1447.6,385.5 1446.2,387 	"/>
	<polygon points="1455.1,389.6 1456.5,388 1450.5,382.4 1449,383.9 	"/>
	<polygon points="1379.3,324.8 1380.8,323.2 1374.7,317.6 1373.3,319.1 	"/>
	<polygon points="1382.2,321.7 1383.6,320.1 1377.5,314.5 1376.1,316 	"/>
	<polygon points="1394.3,333 1395.8,331.5 1389.7,325.8 1388.3,327.4 	"/>
	<polygon points="1391.5,336.1 1392.9,334.6 1386.8,328.9 1385.4,330.5 	"/>
	<polygon points="1406.5,344.3 1407.9,342.8 1401.8,337.1 1400.4,338.7 	"/>
	<polygon points="1403.6,347.4 1405.1,345.9 1399,340.2 1397.6,341.8 	"/>
	<polygon points="1418.6,355.6 1420.1,354.1 1414,348.4 1412.6,350 	"/>
	<polygon points="1415.8,358.7 1417.2,357.2 1411.1,351.5 1409.7,353.1 	"/>
	<polygon points="1428,370.1 1429.4,368.5 1423.3,362.8 1421.9,364.4 	"/>
	<polygon points="1430.8,367 1432.2,365.4 1426.1,359.7 1424.7,361.3 	"/>
	<polygon points="1443,378.3 1444.4,376.7 1438.3,371.1 1436.9,372.6 	"/>
	<polygon points="1440.1,381.4 1441.5,379.8 1435.5,374.2 1434,375.7 	"/>
	<polygon class="st3" points="1354.4,333.6 1354.4,333.6 1354.5,333.7 1354.5,333.7 	"/>
	<polygon class="st3" points="1353,335.2 1353,335.2 1353.1,335.2 1353.1,335.2 	"/>
	<polygon class="st3" points="1354.5,333.7 1354.4,333.6 1353,335.2 1353.1,335.2 	"/>
	<polygon class="st3" points="1375.7,353.4 1374.2,354.9 1380.3,360.6 1381.7,359 	"/>
	<polygon class="st3" points="1363.5,342.1 1362.1,343.6 1368.2,349.3 1369.6,347.7 	"/>
	<polygon class="st3" points="1354.5,333.7 1354.5,333.7 1354.6,333.8 1353.2,335.3 1353.1,335.2 1353.1,335.2 1356,338 
		1357.4,336.4 	"/>
	<polygon class="st3" points="1436.4,409.9 1435,411.5 1438.5,414.7 1439.9,413.2 	"/>
	<polygon class="st3" points="1387.8,364.7 1386.4,366.2 1392.5,371.9 1393.9,370.3 	"/>
	<polygon class="st3" points="1400,376 1398.5,377.5 1404.6,383.2 1406,381.7 	"/>
	<polygon class="st3" points="1424.3,398.6 1422.9,400.2 1428.9,405.8 1430.3,404.3 	"/>
	<polygon class="st3" points="1412.1,387.3 1410.7,388.9 1416.8,394.5 1418.2,393 	"/>
	<polygon class="st3" points="1353.1,335.2 1353.1,335.2 1353.1,335.2 	"/>
	<polygon class="st3" points="1354.5,333.7 1354.5,333.7 1354.5,333.7 	"/>
	<polygon class="st3" points="1353.2,335.3 1354.6,333.8 1354.5,333.7 1353.1,335.2 	"/>
	<polygon class="st3" points="1353.1,335.2 1353.1,335.2 1354.5,333.7 1354.5,333.7 	"/>
	<polygon class="st3" points="1430.3,404.3 1428.9,405.8 1435,411.5 1436.4,409.9 	"/>
	<polygon class="st3" points="1357.4,336.4 1356,338 1362.1,343.6 1363.5,342.1 	"/>
	<polygon class="st3" points="1369.6,347.7 1368.2,349.3 1374.2,354.9 1375.7,353.4 	"/>
	<polygon class="st3" points="1381.7,359 1380.3,360.6 1386.4,366.2 1387.8,364.7 	"/>
	<polygon class="st3" points="1393.9,370.3 1392.5,371.9 1398.5,377.5 1400,376 	"/>
	<polygon class="st3" points="1406,381.7 1404.6,383.2 1410.7,388.9 1412.1,387.3 	"/>
	<polygon class="st3" points="1418.2,393 1416.8,394.5 1422.9,400.2 1424.3,398.6 	"/>
	<polygon class="st3" points="1371.7,314.9 1371.7,314.9 1371.7,314.8 1371.7,314.8 	"/>
	<polygon class="st3" points="1373.2,313.3 1373.1,313.2 1373.1,313.2 	"/>
	<polygon class="st3" points="1371.7,314.9 1373.2,313.3 1373.1,313.2 1371.7,314.8 	"/>
	<polygon class="st3" points="1399,340.2 1400.4,338.7 1394.3,333 1392.9,334.6 	"/>
	<polygon class="st3" points="1373.3,313.4 1371.8,314.9 1371.8,314.9 1371.8,314.9 1374.7,317.6 1376.1,316 1373.2,313.3 
		1373.2,313.3 	"/>
	<polygon class="st3" points="1411.1,351.5 1412.6,350 1406.5,344.3 1405.1,345.9 	"/>
	<polygon class="st3" points="1386.8,328.9 1388.3,327.4 1382.2,321.7 1380.8,323.2 	"/>
	<polygon class="st3" points="1423.3,362.8 1424.7,361.3 1418.6,355.6 1417.2,357.2 	"/>
	<polygon class="st3" points="1435.5,374.2 1436.9,372.6 1430.8,367 1429.4,368.5 	"/>
	<polygon class="st3" points="1447.6,385.5 1449,383.9 1443,378.3 1441.5,379.8 	"/>
	<polygon class="st3" points="1457.2,394.4 1458.6,392.8 1455.1,389.6 1453.7,391.1 	"/>
	<polygon class="st3" points="1373.2,313.3 1373.2,313.3 1373.2,313.3 	"/>
	<polygon class="st3" points="1371.8,314.9 1371.8,314.9 1371.7,314.9 1371.7,314.9 	"/>
	<polygon class="st3" points="1371.8,314.9 1373.3,313.4 1373.2,313.3 	"/>
	<polygon class="st3" points="1373.2,313.3 1373.2,313.3 1371.7,314.9 1371.8,314.9 	"/>
	<polygon class="st3" points="1453.7,391.1 1455.1,389.6 1449,383.9 1447.6,385.5 	"/>
	<polygon class="st3" points="1380.8,323.2 1382.2,321.7 1376.1,316 1374.7,317.6 	"/>
	<polygon class="st3" points="1392.9,334.6 1394.3,333 1388.3,327.4 1386.8,328.9 	"/>
	<polygon class="st3" points="1405.1,345.9 1406.5,344.3 1400.4,338.7 1399,340.2 	"/>
	<polygon class="st3" points="1417.2,357.2 1418.6,355.6 1412.6,350 1411.1,351.5 	"/>
	<polygon class="st3" points="1429.4,368.5 1430.8,367 1424.7,361.3 1423.3,362.8 	"/>
	<polygon class="st3" points="1441.5,379.8 1443,378.3 1436.9,372.6 1435.5,374.2 	"/>
	<polygon class="st4" points="1523.3,488 1537.7,472.3 1531.7,466.6 1517.2,482.3 	"/>
	<polygon class="st4" points="1547.2,461.9 1541.2,456.3 1535.9,462 1542,467.6 	"/>
	<polygon class="st4" points="1507.1,493.3 1513.2,499 1519.1,492.6 1513,487 	"/>
	<polygon class="st4" points="1474.3,394 1468.2,388.4 1463,394.1 1469.1,399.7 	"/>
	<polygon class="st4" points="1450.4,420.1 1464.8,404.4 1458.7,398.7 1444.3,414.4 	"/>
	<polygon class="st4" points="1434.2,425.5 1440.3,431.1 1446.1,424.7 1440.1,419.1 	"/>
	<polygon class="st4" points="1446.4,436.8 1452.4,442.4 1458.3,436 1452.2,430.4 	"/>
	<polygon class="st4" points="1486.5,405.4 1480.4,399.7 1475.2,405.4 1481.2,411 	"/>
	<polygon class="st4" points="1462.6,431.4 1477,415.7 1470.9,410 1456.5,425.7 	"/>
	<polygon class="st4" points="1458.5,448.1 1464.6,453.8 1470.4,447.4 1464.4,441.7 	"/>
	<polygon class="st4" points="1498.6,416.7 1492.5,411 1487.3,416.7 1493.4,422.4 	"/>
	<polygon class="st4" points="1474.7,442.7 1489.1,427 1483.1,421.4 1468.6,437 	"/>
	<polygon class="st4" points="1510.8,428 1504.7,422.3 1499.5,428 1505.6,433.7 	"/>
	<polygon class="st4" points="1470.7,459.4 1476.7,465.1 1482.6,458.7 1476.5,453 	"/>
	<polygon class="st4" points="1486.9,454 1501.3,438.3 1495.2,432.7 1480.8,448.4 	"/>
	<polygon class="st4" points="1482.8,470.7 1488.9,476.4 1494.8,470 1488.7,464.3 	"/>
	<polygon class="st4" points="1499,465.3 1513.4,449.6 1507.4,444 1492.9,459.7 	"/>
	<polygon class="st4" points="1522.9,439.3 1516.9,433.6 1511.6,439.3 1517.7,445 	"/>
	<polygon class="st4" points="1495,482 1501,487.7 1506.9,481.3 1500.8,475.6 	"/>
	<polygon class="st4" points="1535.1,450.6 1529,445 1523.8,450.6 1529.9,456.3 	"/>
	<polygon class="st4" points="1511.2,476.6 1525.6,461 1519.5,455.3 1505.1,471 	"/>
	<polygon points="1499,465.3 1497.6,466.9 1503.7,472.5 1505.1,471 	"/>
	<polygon points="1525.4,492.8 1526.9,491.3 1526.9,491.3 1526.9,491.3 1523.3,488 1521.9,489.5 1525.4,492.8 	"/>
	<polygon points="1486.9,454 1485.4,455.6 1491.5,461.2 1492.9,459.7 	"/>
	<polygon points="1524,494.4 1520.5,491.1 1519.1,492.6 1522.6,495.9 1522.6,495.9 1522.6,495.9 	"/>
	<polygon points="1484,457.1 1482.6,458.7 1488.7,464.3 1490.1,462.8 	"/>
	<polygon points="1508.3,479.7 1506.9,481.3 1513,487 1514.4,485.4 	"/>
	<polygon points="1496.2,468.4 1494.8,470 1500.8,475.6 1502.3,474.1 	"/>
	<polygon points="1471.9,445.8 1470.4,447.4 1476.5,453 1477.9,451.5 	"/>
	<polygon points="1459.7,434.5 1458.3,436 1464.4,441.7 1465.8,440.1 	"/>
	<polygon points="1447.6,423.2 1446.1,424.7 1452.2,430.4 1453.6,428.8 	"/>
	<polygon points="1450.4,420.1 1449,421.6 1455.1,427.3 1456.5,425.7 	"/>
	<polygon points="1474.7,442.7 1473.3,444.3 1479.4,449.9 1480.8,448.4 	"/>
	<polygon points="1462.6,431.4 1461.1,433 1467.2,438.6 1468.6,437 	"/>
	<polygon points="1438.6,414.8 1437.2,416.4 1437.1,416.3 1437.1,416.3 1440.1,419.1 1441.5,417.5 	"/>
	<polygon points="1511.2,476.6 1509.7,478.2 1515.8,483.9 1517.2,482.3 	"/>
	<polygon points="1441.4,411.7 1441.4,411.7 1441.4,411.7 1440,413.3 1442.9,416 1444.3,414.4 	"/>
	<polygon points="1440,413.3 1441.4,411.7 1441.4,411.7 	"/>
	<polygon points="1438.6,414.8 1438.6,414.8 1437.1,416.3 1437.2,416.4 	"/>
	<polygon points="1517.2,482.3 1515.8,483.9 1521.9,489.5 1523.3,488 	"/>
	<polygon points="1514.4,485.4 1513,487 1519.1,492.6 1520.5,491.1 	"/>
	<polygon points="1441.5,417.5 1440.1,419.1 1446.1,424.7 1447.6,423.2 	"/>
	<polygon points="1444.3,414.4 1442.9,416 1449,421.6 1450.4,420.1 	"/>
	<polygon points="1453.6,428.8 1452.2,430.4 1458.3,436 1459.7,434.5 	"/>
	<polygon points="1456.5,425.7 1455.1,427.3 1461.1,433 1462.6,431.4 	"/>
	<polygon points="1465.8,440.1 1464.4,441.7 1470.4,447.4 1471.9,445.8 	"/>
	<polygon points="1468.6,437 1467.2,438.6 1473.3,444.3 1474.7,442.7 	"/>
	<polygon points="1477.9,451.5 1476.5,453 1482.6,458.7 1484,457.1 	"/>
	<polygon points="1480.8,448.4 1479.4,449.9 1485.4,455.6 1486.9,454 	"/>
	<polygon points="1492.9,459.7 1491.5,461.2 1497.6,466.9 1499,465.3 	"/>
	<polygon points="1490.1,462.8 1488.7,464.3 1494.8,470 1496.2,468.4 	"/>
	<polygon points="1502.3,474.1 1500.8,475.6 1506.9,481.3 1508.3,479.7 	"/>
	<polygon points="1505.1,471 1503.7,472.5 1509.7,478.2 1511.2,476.6 	"/>
	<polygon points="1510.2,440.9 1511.6,439.3 1505.6,433.7 1504.1,435.2 	"/>
	<polygon points="1458.7,398.7 1460.2,397.2 1457.3,394.5 1455.8,396 	"/>
	<polygon points="1498.1,429.6 1499.5,428 1493.4,422.4 1492,423.9 	"/>
	<polygon points="1507.4,444 1508.8,442.4 1502.7,436.8 1501.3,438.3 	"/>
	<polygon points="1522.4,452.2 1523.8,450.6 1517.7,445 1516.3,446.5 	"/>
	<polygon points="1534.5,463.5 1535.9,462 1529.9,456.3 1528.4,457.9 	"/>
	<polygon points="1519.5,455.3 1520.9,453.7 1514.9,448.1 1513.4,449.6 	"/>
	<polygon points="1470.9,410 1472.3,408.5 1466.2,402.8 1464.8,404.4 	"/>
	<polygon points="1485.9,418.2 1487.3,416.7 1481.2,411 1479.8,412.6 	"/>
	<polygon points="1541.3,475.6 1541.3,475.6 1541.3,475.6 1542.7,474 1542.6,473.9 1542.6,473.9 1539.2,470.7 1537.7,472.3 	"/>
	<polygon points="1461.6,395.6 1463,394.1 1460.1,391.4 1458.7,392.9 	"/>
	<polygon points="1483.1,421.4 1484.5,419.8 1478.4,414.1 1477,415.7 	"/>
	<polygon points="1531.7,466.6 1533.1,465.1 1527,459.4 1525.6,461 	"/>
	<polygon points="1544.1,472.4 1544.1,472.4 1544.1,472.5 1545.6,470.9 1542,467.6 1540.6,469.2 	"/>
	<polygon points="1473.7,406.9 1475.2,405.4 1469.1,399.7 1467.7,401.3 	"/>
	<polygon points="1495.2,432.7 1496.6,431.1 1490.6,425.5 1489.1,427 	"/>
	<polygon points="1458.7,392.9 1458.7,392.9 1460.1,391.4 1460.1,391.3 	"/>
	<polygon points="1455.8,396 1455.8,396 1457.3,394.5 1457.2,394.4 	"/>
	<polygon points="1537.7,472.3 1539.2,470.7 1533.1,465.1 1531.7,466.6 	"/>
	<polygon points="1540.6,469.2 1542,467.6 1535.9,462 1534.5,463.5 	"/>
	<polygon points="1464.8,404.4 1466.2,402.8 1460.2,397.2 1458.7,398.7 	"/>
	<polygon points="1467.7,401.3 1469.1,399.7 1463,394.1 1461.6,395.6 	"/>
	<polygon points="1477,415.7 1478.4,414.1 1472.3,408.5 1470.9,410 	"/>
	<polygon points="1479.8,412.6 1481.2,411 1475.2,405.4 1473.7,406.9 	"/>
	<polygon points="1489.1,427 1490.6,425.5 1484.5,419.8 1483.1,421.4 	"/>
	<polygon points="1492,423.9 1493.4,422.4 1487.3,416.7 1485.9,418.2 	"/>
	<polygon points="1501.3,438.3 1502.7,436.8 1496.6,431.1 1495.2,432.7 	"/>
	<polygon points="1504.1,435.2 1505.6,433.7 1499.5,428 1498.1,429.6 	"/>
	<polygon points="1513.4,449.6 1514.9,448.1 1508.8,442.4 1507.4,444 	"/>
	<polygon points="1516.3,446.5 1517.7,445 1511.6,439.3 1510.2,440.9 	"/>
	<polygon points="1525.6,461 1527,459.4 1520.9,453.7 1519.5,455.3 	"/>
	<polygon points="1528.4,457.9 1529.9,456.3 1523.8,450.6 1522.4,452.2 	"/>
	<polygon class="st3" points="1439.9,413.2 1439.9,413.2 1440,413.2 1440,413.2 	"/>
	<polygon class="st3" points="1438.5,414.7 1438.5,414.7 1438.6,414.8 1438.6,414.8 	"/>
	<polygon class="st3" points="1440,413.2 1439.9,413.2 1438.5,414.7 1438.6,414.8 	"/>
	<polygon class="st3" points="1449,421.6 1447.6,423.2 1453.6,428.8 1455.1,427.3 	"/>
	<polygon class="st3" points="1461.1,433 1459.7,434.5 1465.8,440.1 1467.2,438.6 	"/>
	<polygon class="st3" points="1524,494.3 1525.4,492.8 1521.9,489.5 1520.5,491.1 1524,494.4 1524,494.4 	"/>
	<polygon class="st3" points="1509.7,478.2 1508.3,479.7 1514.4,485.4 1515.8,483.9 	"/>
	<polygon class="st3" points="1497.6,466.9 1496.2,468.4 1502.3,474.1 1503.7,472.5 	"/>
	<polygon class="st3" points="1473.3,444.3 1471.9,445.8 1477.9,451.5 1479.4,449.9 	"/>
	<polygon class="st3" points="1440,413.3 1440,413.3 1440.1,413.3 1438.6,414.9 1438.6,414.8 1438.6,414.8 1441.5,417.5 1442.9,416 
			"/>
	<polygon class="st3" points="1485.4,455.6 1484,457.1 1490.1,462.8 1491.5,461.2 	"/>
	<polygon class="st3" points="1438.6,414.8 1438.6,414.8 1438.6,414.8 	"/>
	<polygon class="st3" points="1440,413.2 1440,413.3 1440,413.3 	"/>
	<polygon class="st3" points="1438.6,414.9 1440.1,413.3 1440,413.3 1438.6,414.8 	"/>
	<polygon class="st3" points="1438.6,414.8 1438.6,414.8 1440,413.3 1440,413.2 	"/>
	<polygon class="st3" points="1515.8,483.9 1514.4,485.4 1520.5,491.1 1521.9,489.5 	"/>
	<polygon class="st3" points="1442.9,416 1441.5,417.5 1447.6,423.2 1449,421.6 	"/>
	<polygon class="st3" points="1455.1,427.3 1453.6,428.8 1459.7,434.5 1461.1,433 	"/>
	<polygon class="st3" points="1467.2,438.6 1465.8,440.1 1471.9,445.8 1473.3,444.3 	"/>
	<polygon class="st3" points="1479.4,449.9 1477.9,451.5 1484,457.1 1485.4,455.6 	"/>
	<polygon class="st3" points="1491.5,461.2 1490.1,462.8 1496.2,468.4 1497.6,466.9 	"/>
	<polygon class="st3" points="1503.7,472.5 1502.3,474.1 1508.3,479.7 1509.7,478.2 	"/>
	<polygon class="st3" points="1457.2,394.4 1457.2,394.4 1457.2,394.4 	"/>
	<polygon class="st3" points="1458.7,392.9 1458.6,392.8 1458.6,392.8 	"/>
	<polygon class="st3" points="1457.2,394.4 1458.7,392.9 1458.6,392.8 	"/>
	<polygon class="st3" points="1508.8,442.4 1510.2,440.9 1504.1,435.2 1502.7,436.8 	"/>
	<polygon class="st3" points="1542.6,473.9 1544.1,472.4 1540.6,469.2 1539.2,470.7 	"/>
	<polygon class="st3" points="1533.1,465.1 1534.5,463.5 1528.4,457.9 1527,459.4 	"/>
	<polygon class="st3" points="1520.9,453.7 1522.4,452.2 1516.3,446.5 1514.9,448.1 	"/>
	<polygon class="st3" points="1458.7,393 1457.3,394.5 1457.3,394.5 1457.3,394.5 1460.2,397.2 1461.6,395.6 1458.7,392.9 
		1458.7,392.9 	"/>
	<polygon class="st3" points="1472.3,408.5 1473.7,406.9 1467.7,401.3 1466.2,402.8 	"/>
	<polygon class="st3" points="1496.6,431.1 1498.1,429.6 1492,423.9 1490.6,425.5 	"/>
	<polygon class="st3" points="1484.5,419.8 1485.9,418.2 1479.8,412.6 1478.4,414.1 	"/>
	<polygon class="st3" points="1458.7,392.9 1458.7,392.9 1458.7,392.9 	"/>
	<polygon class="st3" points="1457.3,394.5 1457.3,394.5 1457.2,394.4 1457.2,394.4 	"/>
	<polygon class="st3" points="1457.3,394.5 1458.7,393 1458.7,392.9 	"/>
	<polygon class="st3" points="1458.7,392.9 1458.7,392.9 1457.2,394.4 1457.3,394.5 	"/>
	<polygon class="st3" points="1539.2,470.7 1540.6,469.2 1534.5,463.5 1533.1,465.1 	"/>
	<polygon class="st3" points="1466.2,402.8 1467.7,401.3 1461.6,395.6 1460.2,397.2 	"/>
	<polygon class="st3" points="1478.4,414.1 1479.8,412.6 1473.7,406.9 1472.3,408.5 	"/>
	<polygon class="st3" points="1490.6,425.5 1492,423.9 1485.9,418.2 1484.5,419.8 	"/>
	<polygon class="st3" points="1502.7,436.8 1504.1,435.2 1498.1,429.6 1496.6,431.1 	"/>
	<polygon class="st3" points="1514.9,448.1 1516.3,446.5 1510.2,440.9 1508.8,442.4 	"/>
	<polygon class="st3" points="1527,459.4 1528.4,457.9 1522.4,452.2 1520.9,453.7 	"/>
	<polygon class="st4" points="1592.6,572.9 1598.7,578.6 1604.5,572.2 1598.5,566.5 	"/>
	<polygon class="st4" points="1608.8,567.5 1623.2,551.8 1617.2,546.2 1602.7,561.9 	"/>
	<polygon class="st4" points="1559.8,473.6 1553.7,468 1548.5,473.7 1554.6,479.3 	"/>
	<polygon class="st4" points="1535.9,499.7 1550.3,484 1544.2,478.3 1529.8,494 	"/>
	<polygon class="st4" points="1519.7,505 1525.7,510.7 1531.6,504.3 1525.5,498.7 	"/>
	<polygon class="st4" points="1548,511 1562.5,495.3 1556.4,489.6 1542,505.3 	"/>
	<polygon class="st4" points="1572,484.9 1565.9,479.3 1560.7,485 1566.7,490.6 	"/>
	<polygon class="st4" points="1531.8,516.4 1537.9,522 1543.8,515.6 1537.7,510 	"/>
	<polygon class="st4" points="1544,527.7 1550.1,533.3 1555.9,526.9 1549.8,521.3 	"/>
	<polygon class="st4" points="1584.1,496.3 1578,490.6 1572.8,496.3 1578.9,501.9 	"/>
	<polygon class="st4" points="1560.2,522.3 1574.6,506.6 1568.5,500.9 1554.1,516.6 	"/>
	<polygon class="st4" points="1572.3,533.6 1586.8,517.9 1580.7,512.2 1566.3,527.9 	"/>
	<polygon class="st4" points="1596.3,507.6 1590.2,501.9 1585,507.6 1591,513.3 	"/>
	<polygon class="st4" points="1556.1,539 1562.2,544.6 1568.1,538.2 1562,532.6 	"/>
	<polygon class="st4" points="1584.5,544.9 1598.9,529.2 1592.8,523.6 1578.4,539.3 	"/>
	<polygon class="st4" points="1608.4,518.9 1602.3,513.2 1597.1,518.9 1603.2,524.6 	"/>
	<polygon class="st4" points="1568.3,550.3 1574.4,556 1580.2,549.6 1574.2,543.9 	"/>
	<polygon class="st4" points="1580.4,561.6 1586.5,567.3 1592.4,560.9 1586.3,555.2 	"/>
	<polygon class="st4" points="1590.6,550.6 1596.7,556.2 1611.1,540.5 1605,534.9 	"/>
	<polygon points="1535.9,499.7 1534.5,501.2 1540.5,506.9 1542,505.3 	"/>
	<polygon points="1557.4,525.4 1555.9,526.9 1562,532.6 1563.4,531 	"/>
	<polygon points="1533,502.8 1531.6,504.3 1537.7,510 1539.1,508.4 	"/>
	<polygon points="1545.2,514.1 1543.8,515.6 1549.8,521.3 1551.3,519.7 	"/>
	<polygon points="1524.1,494.4 1524.1,494.4 1524.1,494.4 1522.6,495.9 1525.5,498.7 1527,497.1 	"/>
	<polygon points="1609.5,573.9 1609.4,573.9 1609.4,573.9 1606,570.6 1604.5,572.2 1608.1,575.5 1608.1,575.5 1608.1,575.5 	"/>
	<polygon points="1581.7,548 1580.2,549.6 1586.3,555.2 1587.7,553.7 	"/>
	<polygon points="1593.8,559.3 1592.4,560.9 1598.5,566.5 1599.9,565 	"/>
	<polygon points="1569.5,536.7 1568.1,538.2 1574.2,543.9 1575.6,542.3 	"/>
	<polygon points="1560.2,522.3 1558.8,523.8 1564.8,529.5 1566.3,527.9 	"/>
	<polygon points="1526.9,491.3 1525.5,492.8 1528.4,495.6 1529.8,494 	"/>
	<polygon points="1548,511 1546.6,512.5 1552.7,518.2 1554.1,516.6 	"/>
	<polygon points="1572.3,533.6 1570.9,535.1 1577,540.8 1578.4,539.3 	"/>
	<polygon points="1596.7,556.2 1595.2,557.8 1601.3,563.4 1602.7,561.9 	"/>
	<polygon points="1584.5,544.9 1583.1,546.5 1589.2,552.1 1590.6,550.6 	"/>
	<polygon points="1524,494.4 1522.6,495.9 1522.6,495.9 1524.1,494.4 	"/>
	<polygon points="1526.9,491.3 1525.4,492.8 1525.5,492.8 	"/>
	<polygon points="1524.1,494.4 1524.1,494.4 1524.1,494.4 	"/>
	<polygon points="1524,494.4 1524,494.4 1524.1,494.4 1524.1,494.4 	"/>
	<polygon points="1599.9,565 1598.5,566.5 1604.5,572.2 1606,570.6 	"/>
	<polygon points="1602.7,561.9 1601.3,563.4 1607.4,569.1 1608.8,567.5 	"/>
	<polygon points="1529.8,494 1528.4,495.6 1534.5,501.2 1535.9,499.7 	"/>
	<polygon points="1527,497.1 1525.5,498.7 1531.6,504.3 1533,502.8 	"/>
	<polygon points="1539.1,508.4 1537.7,510 1543.8,515.6 1545.2,514.1 	"/>
	<polygon points="1542,505.3 1540.5,506.9 1546.6,512.5 1548,511 	"/>
	<polygon points="1554.1,516.6 1552.7,518.2 1558.8,523.8 1560.2,522.3 	"/>
	<polygon points="1551.3,519.7 1549.8,521.3 1555.9,526.9 1557.4,525.4 	"/>
	<polygon points="1566.3,527.9 1564.8,529.5 1570.9,535.1 1572.3,533.6 	"/>
	<polygon points="1563.4,531 1562,532.6 1568.1,538.2 1569.5,536.7 	"/>
	<polygon points="1578.4,539.3 1577,540.8 1583.1,546.5 1584.5,544.9 	"/>
	<polygon points="1575.6,542.3 1574.2,543.9 1580.2,549.6 1581.7,548 	"/>
	<polygon points="1587.7,553.7 1586.3,555.2 1592.4,560.9 1593.8,559.3 	"/>
	<polygon points="1590.6,550.6 1589.2,552.1 1595.2,557.8 1596.7,556.2 	"/>
	<polygon points="1559.2,486.5 1560.7,485 1554.6,479.3 1553.2,480.9 	"/>
	<polygon points="1571.4,497.8 1572.8,496.3 1566.7,490.6 1565.3,492.2 	"/>
	<polygon points="1583.5,509.1 1585,507.6 1578.9,501.9 1577.5,503.5 	"/>
	<polygon points="1544.2,472.5 1547.1,475.2 1548.5,473.7 1545.6,470.9 1545.6,470.9 1545.6,470.9 	"/>
	<polygon points="1595.7,520.5 1597.1,518.9 1591,513.3 1589.6,514.8 	"/>
	<polygon points="1568.5,500.9 1570,499.4 1563.9,493.7 1562.5,495.3 	"/>
	<polygon points="1556.4,489.6 1557.8,488.1 1551.7,482.4 1550.3,484 	"/>
	<polygon points="1544.2,478.3 1545.7,476.8 1542.7,474 1541.3,475.6 	"/>
	<polygon points="1605,534.9 1606.4,533.3 1600.4,527.7 1598.9,529.2 	"/>
	<polygon points="1607.9,531.8 1609.3,530.2 1603.2,524.6 1601.8,526.1 	"/>
	<polygon points="1580.7,512.2 1582.1,510.7 1576,505 1574.6,506.6 	"/>
	<polygon points="1592.8,523.6 1594.3,522 1588.2,516.4 1586.8,517.9 	"/>
	<polygon points="1544.2,472.5 1545.6,470.9 1545.6,470.9 1544.1,472.5 	"/>
	<polygon points="1541.3,475.6 1541.3,475.6 1542.7,474 1542.7,474 	"/>
	<polygon points="1550.3,484 1551.7,482.4 1545.7,476.8 1544.2,478.3 	"/>
	<polygon points="1553.2,480.9 1554.6,479.3 1548.5,473.7 1547.1,475.2 	"/>
	<polygon points="1565.3,492.2 1566.7,490.6 1560.7,485 1559.2,486.5 	"/>
	<polygon points="1562.5,495.3 1563.9,493.7 1557.8,488.1 1556.4,489.6 	"/>
	<polygon points="1577.5,503.5 1578.9,501.9 1572.8,496.3 1571.4,497.8 	"/>
	<polygon points="1574.6,506.6 1576,505 1570,499.4 1568.5,500.9 	"/>
	<polygon points="1589.6,514.8 1591,513.3 1585,507.6 1583.5,509.1 	"/>
	<polygon points="1586.8,517.9 1588.2,516.4 1582.1,510.7 1580.7,512.2 	"/>
	<polygon points="1598.9,529.2 1600.4,527.7 1594.3,522 1592.8,523.6 	"/>
	<polygon points="1601.8,526.1 1603.2,524.6 1597.1,518.9 1595.7,520.5 	"/>
	<polygon points="1611.1,540.5 1612.5,539 1606.4,533.3 1605,534.9 	"/>
	<polygon class="st3" points="1525.4,492.8 1525.4,492.8 1525.4,492.8 	"/>
	<polygon class="st3" points="1525.4,492.8 1524,494.3 1524,494.4 	"/>
	<polygon class="st3" points="1546.6,512.5 1545.2,514.1 1551.3,519.7 1552.7,518.2 	"/>
	<polygon class="st3" points="1583.1,546.5 1581.7,548 1587.7,553.7 1589.2,552.1 	"/>
	<polygon class="st3" points="1595.2,557.8 1593.8,559.3 1599.9,565 1601.3,563.4 	"/>
	<polygon class="st3" points="1558.8,523.8 1557.4,525.4 1563.4,531 1564.8,529.5 	"/>
	<polygon class="st3" points="1570.9,535.1 1569.5,536.7 1575.6,542.3 1577,540.8 	"/>
	<polygon class="st3" points="1607.4,569.1 1606,570.6 1609.4,573.9 1610.9,572.3 	"/>
	<polygon class="st3" points="1534.5,501.2 1533,502.8 1539.1,508.4 1540.5,506.9 	"/>
	<polygon class="st3" points="1525.5,492.8 1525.5,492.8 1525.5,492.9 1524.1,494.4 1527,497.1 1528.4,495.6 	"/>
	<polygon class="st3" points="1525.4,492.8 1525.5,492.8 1525.5,492.8 	"/>
	<polygon class="st3" points="1525.5,492.8 1524.1,494.4 1524.1,494.4 1525.5,492.9 	"/>
	<polygon class="st3" points="1524,494.4 1524.1,494.4 1525.5,492.8 1525.4,492.8 	"/>
	<polygon class="st3" points="1601.3,563.4 1599.9,565 1606,570.6 1607.4,569.1 	"/>
	<polygon class="st3" points="1528.4,495.6 1527,497.1 1533,502.8 1534.5,501.2 	"/>
	<polygon class="st3" points="1540.5,506.9 1539.1,508.4 1545.2,514.1 1546.6,512.5 	"/>
	<polygon class="st3" points="1552.7,518.2 1551.3,519.7 1557.4,525.4 1558.8,523.8 	"/>
	<polygon class="st3" points="1564.8,529.5 1563.4,531 1569.5,536.7 1570.9,535.1 	"/>
	<polygon class="st3" points="1577,540.8 1575.6,542.3 1581.7,548 1583.1,546.5 	"/>
	<polygon class="st3" points="1589.2,552.1 1587.7,553.7 1593.8,559.3 1595.2,557.8 	"/>
	<polygon class="st3" points="1544.1,472.5 1544.1,472.4 1544.1,472.4 	"/>
	<polygon class="st3" points="1542.7,474 1542.7,474 1542.6,473.9 1542.6,473.9 	"/>
	<polygon class="st3" points="1542.7,474 1544.1,472.5 1544.1,472.4 1542.6,473.9 	"/>
	<polygon class="st3" points="1570,499.4 1571.4,497.8 1565.3,492.2 1563.9,493.7 	"/>
	<polygon class="st3" points="1557.8,488.1 1559.2,486.5 1553.2,480.9 1551.7,482.4 	"/>
	<polygon class="st3" points="1606.4,533.3 1607.9,531.8 1601.8,526.1 1600.4,527.7 	"/>
	<polygon class="st3" points="1544.2,472.6 1542.8,474.1 1542.7,474 1542.7,474 1545.7,476.8 1547.1,475.2 1544.2,472.5 
		1544.2,472.5 	"/>
	<polygon class="st3" points="1594.3,522 1595.7,520.5 1589.6,514.8 1588.2,516.4 	"/>
	<polygon class="st3" points="1582.1,510.7 1583.5,509.1 1577.5,503.5 1576,505 	"/>
	<polygon class="st3" points="1544.2,472.5 1544.2,472.5 1544.1,472.5 1544.1,472.5 	"/>
	<polygon class="st3" points="1542.7,474 1542.7,474 1542.7,474 	"/>
	<polygon class="st3" points="1542.8,474.1 1544.2,472.6 1544.2,472.5 1542.7,474 	"/>
	<polygon class="st3" points="1542.9,473.9 1544.3,472.3 1544.3,472.3 	"/>
	<polygon class="st3" points="1551.7,482.4 1553.2,480.9 1547.1,475.2 1545.7,476.8 	"/>
	<polygon class="st3" points="1563.9,493.7 1565.3,492.2 1559.2,486.5 1557.8,488.1 	"/>
	<polygon class="st3" points="1576,505 1577.5,503.5 1571.4,497.8 1570,499.4 	"/>
	<polygon class="st3" points="1588.2,516.4 1589.6,514.8 1583.5,509.1 1582.1,510.7 	"/>
	<polygon class="st3" points="1600.4,527.7 1601.8,526.1 1595.7,520.5 1594.3,522 	"/>
	<polygon class="st4" points="1605.1,584.6 1611.2,590.3 1617.1,583.9 1611,578.2 	"/>
	<path class="st3" d="M590.9,1078.3h5.5c-31.4-25.6-60.2-58.7-68.4-94.5l7.8,60.4L590.9,1078.3z"/>
	<path class="st3" d="M525.6,960.8c-0.1,1.7-0.1,3.4,0,5.1v0.1V960.8z"/>
	<path class="st3" d="M525.6,1076.1l8.3,2.2h57l-55.1-34.1l-7.8-60.4c-1.3-5.7-2.1-11.5-2.3-17.3v109.6H525.6z"/>
	<path class="st3" d="M525.6,966v-0.1c0,0.2,0,0.4,0,0.6V966z"/>
	<path class="st3" d="M391.3,901.5c-27.4,20.8-64.2,25.5-109.2,13.7l-0.4,1.4l99.5,49.2c14.1-4.8,25.9-11,35.6-17.6l-8.2-63.7
		C404.3,889.9,398.6,895.9,391.3,901.5z"/>
	<path class="st3" d="M268.7,966.4c21.6,5.6,41,8,58.4,8c20.8,0,38.8-3.4,54.1-8.5l-99.5-49.2L268.7,966.4z"/>
	<path class="st3" d="M423.3,943.6c30.6-23.3,42.7-51.3,43.9-54.4l-48.9-19.9c0,0.1-3,6.8-9.7,15.3l8.2,63.7
		C419,946.7,421.2,945.1,423.3,943.6z"/>
	<path class="st3" d="M267-7.5l-2.3,0.4c5,0,10.7,3.2,13.9,7.8l-1.5-9.5L267-7.5z"/>
	<path class="st3" d="M278.6,0.6c1.1,1.6,2,3.4,2.3,5.3l-1.7-15l-2.1,0.3L278.6,0.6z"/>
	<path class="st3" d="M316.3,320.6L314,321c6.3,0,13.7,5.1,15.8,11.5l-2.1-13.4L316.3,320.6z"/>
	<path class="st3" d="M329.8,332.5c0.2,0.5,0.3,1,0.4,1.5l-1.7-15l-0.8,0.1L329.8,332.5z"/>
	<path class="st3" d="M308.9,290.7l1.1-0.1l13.1-1.7l-1.7-10.8C319.9,283.9,314.8,289.5,308.9,290.7z"/>
	<path class="st3" d="M324.2,288.7l-2.3-14.3c0,1.2-0.2,2.4-0.5,3.7l1.7,10.8L324.2,288.7z"/>
	<polygon class="st3" points="316.3,320.6 327.7,318.8 323.1,289.1 310,290.6 272.2,295.6 274.9,326.1 	"/>
	<polygon class="st3" points="323.1,289.1 327.7,318.8 328.5,318.6 328.6,319 331.3,318.6 327.3,288.3 324.2,288.7 324.3,289 	"/>
	<polygon class="st3" points="327.8,319.1 327.7,318.8 316.3,320.6 	"/>
	<polygon class="st3" points="327.7,318.8 327.8,319.1 328.6,319 328.5,318.6 	"/>
	<polygon class="st3" points="323.1,288.9 310,290.6 323.1,289.1 	"/>
	<polygon class="st3" points="323.1,289.1 324.3,289 324.2,288.7 323.1,288.9 	"/>
	<path class="st3" d="M454.5,350.9l2.9-0.5c-8.4,0.1-18.2-7.1-20.2-15.8l2.8,18.2L454.5,350.9z"/>
	<path class="st3" d="M439.1,352.9l0.8-0.1l-2.8-18.2c0-0.2-0.1-0.3-0.1-0.5L439.1,352.9z"/>
	<path class="st3" d="M463.1,388.4l-17.3,2.3l2.7,17.3C448.7,400.1,455.1,390.9,463.1,388.4z"/>
	<path class="st3" d="M445.5,390.7l2.9,18c0-0.2,0-0.5,0-0.7l-2.7-17.3H445.5z"/>
	<path class="st3" d="M445.7,390.5l19-2.5c-0.5,0.1-1.1,0.3-1.6,0.4L504,383l-6.4-37.8l-43.2,5.7l-14.5,2.3L445.7,390.5z"/>
	<polygon class="st3" points="445.7,390.5 440,353.2 439.1,353.3 439.1,352.9 435.6,353.4 440.6,391.4 445.5,390.7 445.5,390.5 	"/>
	<polygon class="st3" points="440,353.2 454.5,350.9 439.9,352.8 	"/>
	<polygon class="st3" points="440,353.2 439.9,352.8 439.1,352.9 439.1,353.3 	"/>
	<path class="st3" d="M463.1,388.4c0.5-0.2,1.1-0.3,1.6-0.4l-19,2.5v0.2L463.1,388.4z"/>
	<polygon class="st3" points="445.7,390.5 445.5,390.5 445.5,390.7 445.7,390.7 	"/>
	<path class="st3" d="M501.1,657.4l2.9-0.5c-8.6,0.1-18.6-7.4-20.4-16.3l0.8,7.4l1.5,11.4L501.1,657.4z"/>
	<polygon class="st3" points="484.5,648 485.7,659.4 485.9,659.4 	"/>
	<path class="st3" d="M493.2,715.2c0-8.3,7-18,15.6-20.1l-17.9,2.4L493.2,715.2z"/>
	<path class="st3" d="M490.3,697.5l2.8,17.8c0,0,0,0,0-0.1l-2.3-17.8L490.3,697.5z"/>
	<path class="st3" d="M540.6,652.2l-39.5,5.2l-15.1,2.4l4.8,37.1l18.7-2.1c-0.2,0-0.5,0.1-0.7,0.2l37.3-4.9l-6.4-37.3
		C539.6,652.8,540,652.6,540.6,652.2z"/>
	<polygon class="st3" points="490.8,696.9 486,659.8 485.8,659.8 485.7,659.4 482.3,659.9 487.3,697.9 490.3,697.5 490.2,697 	"/>
	<polygon class="st3" points="486,659.8 501.1,657.4 485.9,659.4 	"/>
	<polygon class="st3" points="486,659.8 485.9,659.4 485.7,659.4 485.8,659.8 	"/>
	<path class="st3" d="M490.8,696.9l0.1,0.5l17.9-2.4c0.2-0.1,0.5-0.1,0.7-0.2L490.8,696.9z"/>
	<polygon class="st3" points="490.8,696.9 490.2,697 490.3,697.5 490.9,697.4 	"/>
	<path class="st3" d="M511.4,382l-7.4,1l0,0c0,43.3,103.7,37.9,98.5,191c-1.3,38-54,73.2-61.9,78.2l12.4-1.6l5,38l-12,1.6l8.9,51.8
		l106.8-20.4c0,0-4.1-26.6-13.5-72.9s24.5-59.9,24.5-59.9l271.5-39.4l30.5,129.2l556-99.1l-297.3-306.3L629.2,358l-22-125.2
		l-124.9,20.8l15.4,91.6l8.7-1.1L511.4,382z"/>
	<polygon class="st3" points="511.4,382 506.4,344 497.7,345.2 504,383 	"/>
	<path class="st3" d="M553,650.5l-12.4,1.6c-0.6,0.4-1,0.6-1,0.6L546,690l12-1.6L553,650.5z"/>
	<path class="st3" d="M218-15.8h-40.3c20,152.8,45.9,329.4,60.1,337.9c19.7,11.8,37.1,3.9,37.1,3.9l-4-30.3l1.4-0.2l-1.4-16.5
		l35.1-4.6L264.7,12.2l-32.4,2.5l-1.8-17.4L220-1.3L218-15.8z"/>
	<polygon class="st3" points="218,-15.8 219.9,-1.3 230.4,-2.7 229,-15.8 	"/>
	<polygon class="st3" points="274.9,326.1 272.2,295.6 270.9,295.8 	"/>
	<polygon points="1485.4,919.4 1553.9,919.4 1519.7,861.4 	"/>
</g>
<g>
	<text transform="matrix(0.9781 0.2083 -0.2083 0.9781 41.2787 927.4536)" class="st5 st6 st7">POPLAR PIKE</text>
</g>
<text transform="matrix(0.1275 0.9918 -0.9918 0.1275 350.3959 216.2884)" class="st5 st6 st8">S. GERMANTOWN RD.</text>
<text transform="matrix(1 1.150000e-03 -1.150000e-03 1 476.654 81.1876)" class="st9 st10 st11">East Campus</text>
<text transform="matrix(1 0 0 1 1502.2642 969.9072)" class="st10 st12">N</text>
<g>
	<text transform="matrix(1 3.670000e-03 -3.670000e-03 1 845.9482 795.669)" class="st13 st10 st14">THE COTTAGE</text>
</g>
<text transform="matrix(1 3.670000e-03 -3.670000e-03 1 911.7816 241.8189)" class="st5 st10 st15">ADULT EDUCATION </text>
<text transform="matrix(1 3.670000e-03 -3.670000e-03 1 911.6649 273.6187)" class="st5 st10 st15">BUILDING</text>
<g>
	<text transform="matrix(1 3.670000e-03 -3.670000e-03 1 645.8194 274.4527)" class="st5 st10 st15">MCKENDREE </text>
	<text transform="matrix(1 3.670000e-03 -3.670000e-03 1 645.7027 306.2525)" class="st5 st10 st15">DISTRICT OFFICE</text>
</g>
<g id="McVay_Gardens">
</g>
<g id="OLEC_1_">
</g>
<g id="Fellowship_Hall">
</g>
<g id="Children_x27_s_Wing">
</g>
<g id="Church_Offices">
</g>
<g id="Week_Day_Preschool">
</g>
<g id="Parking">
</g>
<g id="Sanctuary">
</g>
<g id="Nursery">
</g>
<g id="Welcome_Center">
</g>
<g id="Campus_Map">
</g>
<g id="Main_Building">
</g>
<circle class="st13" cx="757.6" cy="671.3" r="6"/>
</svg>
