<?xml version="1.0" encoding="utf-8"?>
<!-- Generator: Adobe Illustrator 17.1.0, SVG Export Plug-In . SVG Version: 6.00 Build 0)  -->
<!DOCTYPE svg PUBLIC "-//W3C//DTD SVG 1.1//EN" "http://www.w3.org/Graphics/SVG/1.1/DTD/svg11.dtd">
<svg version="1.1" id="Layer_1" xmlns="http://www.w3.org/2000/svg" xmlns:xlink="http://www.w3.org/1999/xlink" x="0px" y="0px"
	 viewBox="-283.4 90.8 937.2 553.8" enable-background="new -283.4 90.8 937.2 553.8" xml:space="preserve">
<g>
	<g>
		<path fill="#989798" d="M649,386.9v73.7H248v-73.7H649 M653.9,382.1h-4.7H248h-4.7v4.7v73.7v4.7h4.7H649h4.7v-4.7v-73.7
			L653.9,382.1L653.9,382.1z"/>
	</g>
	<g>
		<path fill="#989798" d="M647.8,126.3v70.2H497.5v117.4H267.7V196.4H116.1v-70.2H647.8 M652.4,121.7h-4.7H116.1h-4.7v4.7v70.2v4.7
			h4.7h147.2v112.8v4.7h4.7h229.7h4.7v-4.7V201.4h145.7h4.7v-4.7v-70.2L652.4,121.7L652.4,121.7z"/>
	</g>
	<g>
		<path fill="#989798" d="M-187.4,100.9v25.3H-9.1v71h-64.6V285l0,0v102.7h240.8v73.7h-62.4v56.9h9.7v121.5h-122v-17.5l-108.9-161.2
			h-30.2v-44.6l-89.1-131.5v-87.7h-43v-96.2h91.2 M-163.6,285.6V285h-0.5L-163.6,285.6 M-182.7,96.2h-4.7h-91.2h-4.7v4.7v96.2v4.7
			h4.7h38.3V285v1.4l0.7,1.3l88.4,130.6v43.1v4.7h4.7h27.6l106.7,157.6v16.1v4.7h4.7h122.2h4.7v-4.7V518.3v-4.7h-4.7H110V466h57.5
			h4.7v-4.6v-73.7v-4.7h-4.7H-68.9v-93.1l0,0v-4.7v-83h60h4.7v-4.7v-71v-4.7H-9h-173.7v-20.6V96.2L-182.7,96.2z"/>
	</g>
	<path fill="#CCCCCC" d="M16.6,429.6L16.6,429.6v6.4c0.1,0,0.2,0.2,0.2,0.2c0,0.2-0.1,0.2-0.2,0.2l0,0h-0.2l0,0l0,0h-0.1
		c0,0,0,0-0.1,0H16h-0.6l0,0c-3.2-0.7-5.4-2.8-6.2-6l-0.1-1.1c0,0,0,0-0.1,0l0,0H4.7v23.2H21v-23.2h-4.4L16.6,429.6L16.6,429.6z"/>
	<path fill="#3964AF" d="M170.9,140h15v-9.3h-6.9c-0.2,0-0.2-0.1-0.2-0.2c0-0.1,0.1-0.2,0.2-0.2h7v-0.2h-7c-0.2,0-0.2-0.1-0.2-0.2
		v-0.1h-7.7L170.9,140L170.9,140z"/>
	<path fill="#CCCCCC" d="M-41,409.6L-41,409.6L-41,409.6h0.2c0,0,0,0,0.1,0h0.1h0.7c3.2,0.2,5.4,2.8,6.2,6l0.1,0.9c0,0,0,0,0.1,0
		h10.9v-27.2h-1.7h-6.3H-34h-6.3h-1.4v20.6C-41.3,409.8-41.1,409.6-41,409.6z"/>
	<path fill="#3964AF" d="M438.5,295L438.5,295l5.4,0.9c13.3,1.8,26,1.8,39.2,0l5.4-0.9l0,0l0,0h7.1v-34.6h-7.6l-5.4,0.9
		c-6.4,0.9-13,1.4-19.6,1.4s-13.3-0.5-19.6-1.4l-5.4-0.9h-7V295H438.5L438.5,295z"/>
	<path fill="#3964AF" d="M438.4,259.8l5.4,0.9c12.5,1.8,26.4,1.8,39.2,0l5.4-0.9l0,0l0,0h7.6V247l-7.1,1.8l0,0l0,0L488,249l0,0l0,0
		l0,0c0,0,0,0-0.1,0h-0.1l0,0c0,0,0,0-0.1,0l0,0c0,0,0,0,0-0.1l0,0c0,0,0,0,0-0.1l-1.1-4.1l-4.7,0.7c-6,0.9-12.3,1.4-18.2,1.4
		c-6,0-11.7-0.5-17.5-1.4l-4.7-0.7l-1.1,3.9c0,0,0,0.1-0.1,0.1l0,0l0,0l0,0c0,0,0,0-0.1,0s0,0-0.1,0l0,0l-1.1-0.2l0,0l0,0l-7.5-1.8
		v12.8h7C438.3,259.8,438.4,259.8,438.4,259.8z"/>
	<path fill="#3964AF" d="M441.1,239.3C441.1,239.3,441.1,239.4,441.1,239.3L441.1,239.3L441.1,239.3L441.1,239.3
		c0.1,0.1,0.1,0.1,0.1,0.2l0,0v0.1l0,0l-2.2,8.6l0.5,0.1l1.1-3.8c0,0,0,0,0-0.1c0-0.1,0-0.1,0-0.1l1.3-4.5l0,0l0,0l0,0l0,0l0,0l0,0
		l0,0l0,0l4.7,0.7c11,1.5,22.4,1.5,33.6,0l4.7-0.7l0,0l0,0l0,0l0,0l0,0l0,0l0,0l0,0l1.3,4.5l0,0l0,0l1.1,3.9l0.5-0.1l-2.2-8.6l0,0
		c0-0.1,0-0.1,0-0.2l0,0l0,0l0,0h0.1l7-1.8l-2.2-9.2H436l-0.6,2.1l-1.8,7L441.1,239.3z"/>
	<path fill="#3964AF" d="M432,309.1h0.2h0.1l0,0l0,0h0.2c0.1,0,0.2,0,0.2,0.1c0,0,0.1,0.1,0.1,0.2l0,0h13.5l0,0l0,0
		c0-0.2,0.1-0.2,0.2-0.2h0.2l0,0l0,0h0.1l0,0V298c0-0.2,0.1-0.2,0.2-0.2h3.8h1.5c-3.1-0.2-6-0.6-9.2-0.9l-5.4-0.9h-7.1v13.3
		L432,309.1L432,309.1z"/>
	<path fill="#3964AF" d="M488.9,295.6l-5.4,0.9c-3.1,0.5-6.2,0.7-9.2,0.9h1.3h3.6c0.2,0,0.2,0.1,0.2,0.2v1.5v9.5l0,0h0.1l0,0l0,0
		h0.2c0.2,0,0.2,0.1,0.2,0.2l0,0l0,0h13.5l0,0l0,0c0-0.2,0.1-0.2,0.2-0.2h0.2l0,0l0,0h0.1h1.7v-13.3L488.9,295.6L488.9,295.6z"/>
	<path fill="#CCCCCC" d="M-13.2,142.4L-13.2,142.4c-0.2,0-0.2-0.1-0.2-0.2v-14h-23.8v10.7l10.7,10.8l0,0l0,0l0,0l4.4-4.4
		c0-0.1,0-0.2,0.1-0.2c0.1-0.1,0.2-0.1,0.5,0l0,0c0,0,0.1,0,0.1,0.1s0,0.1,0.1,0.1l0,0c0,0,0,0.1,0.1,0.1l0.5,0.6
		c1.8,2.5,2,6.2,0.1,8.5l-0.5,0.7l2.2,2.2h7.8v-7.1c0,0,0-0.1,0-0.2l0,0l0,0c0,0,0-0.1,0-0.2v-7L-13.2,142.4L-13.2,142.4z"/>
	<path fill="#CCCCCC" d="M-23.6,430.3c-0.6,3.2-3,5.4-6.2,6h-0.7h-0.1c0,0,0,0-0.1,0h-0.1l0,0l0,0h-0.2l0,0c-0.2,0-0.2-0.1-0.2-0.2
		s0.1-0.2,0.2-0.2v-6.2c0,0,0,0-0.1,0l0,0h-0.5v20h26.9v-11.5c0-0.2,0.1-0.2,0.2-0.2h5.2v-8.3h-24l0,0c0,0,0,0-0.1,0L-23.6,430.3z"
		/>
	<path fill="#CCCCCC" d="M-13.2,190.8L-13.2,190.8h2v-32.1h-8.2l-0.7,0.7l0.6,0.7c1.8,2.5,1.8,6-0.1,8.5l-0.5,0.6c0,0,0,0.1-0.1,0.1
		c0,0,0,0-0.1,0l0,0l0,0l0,0v0.1c0,0.1-0.1,0.1-0.2,0.1c-0.1,0-0.1,0-0.2-0.1c-0.1-0.1-0.1-0.2-0.1-0.2l-4.4-4.4l0,0l0,0l-3.6,3.6
		l0,0l0,0l0,0c0,0,0,0-0.1,0h-0.2h-0.7v24.1h15l0,0h1.1v-1.7C-13.6,190.9-13.4,190.8-13.2,190.8z"/>
	<path fill="#3964AF" d="M189.7,140.9h20v-0.5l0,0c0,0,0,0,0-0.1l0,0l0,0v-0.2l0,0c0-0.2,0.1-0.2,0.2-0.2h0.1v-6.4H210
		c-0.2,0-0.2-0.1-0.2-0.2V133l0,0l0,0c0,0,0,0,0-0.1l0,0l0,0v-2.5h-3.6l0,0c-0.2,0-0.2-0.1-0.2-0.2v-1.7h-16.1L189.7,140.9
		L189.7,140.9z"/>
	<path fill="#3964AF" d="M278.4,127.9v6c0.1,0,0.2,0.2,0.2,0.2c0,0.2-0.1,0.2-0.2,0.2l0,0h-0.2l0,0l0,0H278c0,0,0,0-0.1,0h-0.1h-0.7
		c-3.1-0.2-5.9-3-6.3-6v-0.6h-0.1l0,0l0,0H267v1.7c0,0.2-0.1,0.2-0.2,0.2h-1.1h-3.2h-8.6l0,0h-3.6l0,0h-7.9c-0.2,0-0.2-0.1-0.2-0.2
		v-1.7h-12.3v62.7h3.3c0.2,0,0.2,0.1,0.2,0.2l0,0v1.7h15v-1.7l0,0c0-0.2,0.1-0.2,0.2-0.2l0,0l0,0h30.5v-62.8H279l0,0
		C278.4,127.9,278.4,127.9,278.4,127.9z"/>
	<path fill="#CCCCCC" d="M272.9,429.6L272.9,429.6C272.9,429.6,272.9,429.3,272.9,429.6l-0.9-0.2c-3.2-0.6-5.4-3.1-6-6.2v-0.7v-0.1
		v-0.1c0,0,0,0,0-0.1l0,0V422c0-0.1,0-0.2,0.1-0.2h-14.6v33.7h2c0.2,0,0.2,0.1,0.2,0.2l0,0v1.8h1.1l0,0h17.9L272.9,429.6
		L272.9,429.6z"/>
	<path fill="#CCCCCC" d="M253.5,406.7h-2V420h14.6c0,0-0.1-0.1-0.1-0.2v-0.1l0,0v-0.1c0,0,0,0,0-0.1v-0.1v-0.7
		c0.5-3.2,2.8-5.4,6-6.2l0.9-0.1c0,0,0,0,0-0.1l0,0v-23h-0.7H266h-4.7h-6.3h-3.4v3.3v9.2h2c0.2,0,0.2,0.1,0.2,0.2v4.4l0,0
		C253.8,406.6,253.6,406.7,253.5,406.7z"/>
	<path fill="#CCCCCC" d="M-18.4,410.2c-0.1,0-0.2-0.2-0.2-0.2c0-0.2,0.2-0.2,0.2-0.2h0.1l0,0h0.1c0,0,0,0,0.1,0h0.1h0.7
		c3.1,0.2,5.4,3,6.2,6l0.1,0.9c0,0,0,0,0.1,0l0,0h10.1v-27.2h-0.9H-8h-1.5v1.7c0,0.2-0.1,0.2-0.2,0.2l0,0h-3.6
		c-0.2,0-0.2-0.1-0.2-0.2v-1.7h-1.1h-6.3v27.5h2.2l0,0l0,0c0,0,0,0,0.1,0L-18.4,410.2L-18.4,410.2z"/>
	<path fill="#CCCCCC" d="M402.9,423.2c-0.2,0-0.2-0.1-0.2-0.2v-1.3h-15l0,0l0,0h-0.1l-0.1,0.9c-0.5,3.1-3.2,5.4-6.2,6h-0.7h-0.1
		c0,0,0,0-0.1,0h-0.1l0,0l0,0H380l0,0c-0.2,0-0.2-0.1-0.2-0.2c0-0.1,0.1-0.2,0.2-0.2v-6.3l0,0l0,0l0,0h-18.5v33.6h2.2
		c0.2,0,0.2,0.1,0.2,0.2l0,0v1.8h1.1h15.4h1.1v-1.8c0-0.1,0-0.2,0.1-0.2c0,0,0.1-0.1,0.2-0.1h3.6c0.2,0,0.2,0.1,0.2,0.2l0,0v1.8h1.1
		h15.9h2.2v-34L402.9,423.2L402.9,423.2z"/>
	<path fill="#CCCCCC" d="M-223.5,206.5c0.2,0,0.2,0.1,0.2,0.2l0,0h6.4l0,0c0-0.2,0.1-0.2,0.2-0.2l0,0h0.1v-0.6l0,0
		c0-0.2,0.1-0.2,0.2-0.2h0.7l4.4-5.2v-4.9v-4.5l0,0l0,0v-28.8v0.1l-0.1,0.2c0,0.1-0.1,0.1-0.2,0.2l-0.2,0.1c0,0,0,0-0.1,0h-0.6
		c-0.1,0-0.2,0-0.2-0.1h-0.5c0,0.1-0.1,0.2-0.2,0.2h-0.1l0,0l0,0c-0.2,0-0.2-0.1-0.2-0.2v-0.7h-6.4l0,0c0,0,0,0-0.1,0l-0.1,0.7
		c-0.6,3.2-3.1,5.4-6.2,6h-0.7h-0.1c0,0,0,0-0.1,0h-0.1l0,0l0,0h-0.2l0,0c-0.2,0-0.2-0.1-0.2-0.2c0-0.1,0.1-0.2,0.2-0.2v-6.2l0,0
		l0,0l0,0h-0.7v38.3l3.9,4.9l0.2,0.2h0.7l0,0c0.2,0,0.2,0.1,0.2,0.2l0,0L-223.5,206.5L-223.5,206.5L-223.5,206.5z"/>
	<path fill="#CCCCCC" d="M-33.3,513.7v-16.2h-3.2l0,0l0,0v6.3c0.1,0,0.2,0.2,0.2,0.2c0,0.2-0.1,0.2-0.2,0.2l0,0h-0.2l0,0l0,0h-0.1
		c0,0,0,0-0.1,0h-0.2h-0.7c-3.1-0.2-5.6-3-6.3-6l-0.1-0.9l0,0l0,0h-3.1L-72,514.1l-0.7,0.5l1.4,2l0.1,0.2l0,0l0,0l0,0l0,0l0,0l0,0
		l0,0l0,0l0,0l0,0l0,0l0,0l0,0l0,0l0,0l0,0l0,0l0,0l-1.5,1.1l12.3,17.9l0.7,0.9v0.1l26.9-18.1v-2.2l0,0L-33.3,513.7L-33.3,513.7z"/>
	<path fill="#CCCCCC" d="M512.2,455.4v-0.7l0,0h-6c0,0.1-0.1,0.2-0.2,0.2l0,0c-0.2,0-0.2-0.1-0.2-0.2v-0.2l0,0l0,0v-0.1
		c0,0,0,0,0-0.1c0-0.1,0-0.1,0-0.1v-0.7c0.6-3.2,3-5.6,6-6.3h0.7c0,0,0,0,0-0.1v-6h-19.5v14.3h2.2c0.2,0,0.2,0.1,0.2,0.2l0,0v1.8h17
		v-1.8L512.2,455.4L512.2,455.4z"/>
	<path fill="#CCCCCC" d="M621.6,389.2v0.6c-0.2,3-3.3,5.9-6.2,6h-0.7h-0.1l0,0c0,0-0.1,0-0.2,0c0,0-0.1,0-0.2,0l0,0l0,0
		c-0.2,0-0.2-0.1-0.2-0.2c0-0.1,0.1-0.2,0.2-0.2v-6l0,0h-0.5v65.9h14.6l0,0h15.6l0,0l0,0h3.3v-48.4h-2l0,0c-0.2,0-0.2-0.1-0.2-0.2
		v-3.6v-3.2v-10.7h-23l0,0C621.6,389.2,621.6,389.2,621.6,389.2z"/>
	<path fill="#3964AF" d="M362.6,219.2l0.1-0.6c1.3-3.9,3.3-7.1,6.4-9.7l1.1-0.9l-8.5-4.1l-5.9,12.3L362.6,219.2z"/>
	<path fill="#CCCCCC" d="M600.6,455.4c0-0.2,0.1-0.2,0.2-0.2h3.6c0.1,0,0.2,0,0.2,0.1c0,0,0.1,0.1,0.1,0.2v1.8h6.9v-35.5h-21.3
		c0,0,0.1,0.1,0.1,0.2v0.1l0,0v0.1l-0.1,0.9c-0.2,3.1-3,5.6-6,6.2l-0.9,0.1c0,0,0,0,0,0.1l0,0v27.6h0.5h16.7L600.6,455.4
		L600.6,455.4z"/>
	<path fill="#CCCCCC" d="M106.3,467.6v-8.4H77.9h-3.6l0,0H62.6v43h6.7c0.2,0,0.2,0.1,0.2,0.2l0,0v1.4l0,0l0,0v0.1l0,0l0,0v0.2
		c0,0.2-0.1,0.2-0.2,0.2h-0.1v6l0,0c0.2,0,0.2,0.1,0.2,0.2v0.2l0,0l0,0v0.1v2.2h2.2c0.2,0,0.2,0.1,0.2,0.2v3.8h32.1v-3.8
		c0-0.2,0.1-0.2,0.2-0.2h1.7v-3.6v-15.6v-1.8h-1.2l0,0c-0.2,0-0.2-0.1-0.2-0.2v-5.9c0-0.2,0.1-0.2,0.2-0.2l0,0h1.4v-2.8L106.3,467.6
		L106.3,467.6z"/>
	<path fill="#CCCCCC" d="M-69.5,173.4h11.6c0.1,0,0.1,0,0.2,0.1v-6H-70v6.3C-69.8,173.8-69.7,173.4-69.5,173.4z"/>
	<path fill="#CCCCCC" d="M-141.4,239.3h-1.3v11.6v0.9v19.1h19.1v-10.1l0,0V253l0,0l0,0v-0.7l0,0v-0.9l0,0v-5.1l0,0v-0.1l0,0
		l-0.9-0.1c-3-0.5-5.3-3-5.6-5.9v-0.6v-0.1v-0.1c0,0,0,0,0-0.1l0,0V239c0-0.2,0.1-0.2,0.2-0.2s0.2,0,0.2,0.1h6l0,0l0,0l0,0v-0.5
		H-141v0.9C-141,239.2-141.3,239.3-141.4,239.3z"/>
	<polygon fill="#CCCCCC" points="-58.1,183.1 -68.7,183.1 -58.1,190.8 	"/>
	<path fill="#CCCCCC" d="M-114.4,232.9c0.6-3.2,3-5.4,6.2-6h0.7c0,0,0,0,0.1,0l0,0h0.1l0,0l0,0h0.1c0.2,0,0.2,0.1,0.2,0.2
		c0,0.1,0,0.2-0.1,0.2v6.4l0,0h0.5v-24.9h-15.9v24.9h7.6c0,0,0,0,0.1,0L-114.4,232.9z"/>
	<polygon fill="#CCCCCC" points="-69.1,190.8 -59,190.8 -69.1,183.8 	"/>
	<path fill="#CCCCCC" d="M-94.3,236.2h6.4c0-0.1,0.2-0.2,0.2-0.2c0.2,0,0.2,0.1,0.2,0.2l0,0c0,0,0,0.1,0,0.2c0,0,0,0.1,0,0.2l0,0
		v0.1v0.7c-0.2,3.1-3,5.6-6,6.3l-0.9,0.1v24.4h19.1v-5.9l0,0v-6.3l0,0v-3.3v-6.3v-7.1h-1.8c-0.2,0-0.2-0.1-0.2-0.2v-3.8h-17v0.8
		L-94.3,236.2L-94.3,236.2z"/>
	<path fill="#CCCCCC" d="M-33.9,169.8c-0.6,3.2-3,5.4-6.2,6h-0.7h-0.1c0,0,0,0-0.1,0h-0.1l0,0l0,0h-0.1l0,0c-0.2,0-0.2-0.1-0.2-0.2
		c0-0.1,0.1-0.2,0.2-0.2v-6.3l0,0h-14.4v21.7h2.2c0.2,0,0.2,0.1,0.2,0.2v1.7h21.9v-23.8h-0.5h-2l0,0v0.9
		C-33.8,169.8-33.9,169.8-33.9,169.8z"/>
	<path fill="#CCCCCC" d="M-104.2,227.3c-0.1,0-0.2-0.2-0.2-0.2c0-0.2,0.1-0.2,0.2-0.2h0.2l0,0l0,0h0.1c0,0,0,0,0.1,0
		c0.1,0,0.1,0,0.1,0h0.7c3.2,0.6,5.4,3,6.2,6l0.1,0.9c0,0,0,0,0.1,0h19.3l0,0h1.8v-6v-6.3l0,0v-3.2l0,0l0,0v-6.3l0,0v-3.3h-29.2
		v24.9h0.5h0.1L-104.2,227.3L-104.2,227.3z"/>
	<path fill="#CCCCCC" d="M-144.1,216.3L-144.1,216.3L-144.1,216.3l-0.1,8.6h0.1l0,0c0.2,0,0.2,0.1,0.2,0.2l0,0h0.6l0,0
		c0.2,0,0.2,0.1,0.2,0.2v9.3h1.4c0.2,0,0.2,0.1,0.2,0.2l0,0v0.9h17.5v-27.6h-18.9v6.7c0,0.2-0.1,0.2-0.2,0.2l0,0h-0.6l0,0
		C-143.5,216.2-143.7,216.3-144.1,216.3z"/>
	<path fill="#CCCCCC" d="M160.9,457L160.9,457h1.1v-1.8c0-0.2,0.1-0.2,0.2-0.2h2.1v-28.5h-16l-0.7,0.7l-0.7,0.7c0,0,0,0-0.1,0
		l0.6,0.7c1.8,2.8,1.8,6-0.1,8.5l-0.6,0.7c0,0,0,0.1-0.1,0.1l0,0l-0.1,0.1c0,0.1-0.1,0.1-0.2,0.1s-0.1,0-0.2-0.1s-0.1-0.2-0.1-0.2
		l-4.5-4.5l0,0l0,0l0,0l0,0l0,0l0.9,0.7l0,0l0,0l0,0l0,0v0.1l0,0v22.1h2.8l0,0L160.9,457L160.9,457z"/>
	<path fill="#CCCCCC" d="M138.5,432.9h-27.7l0,0c0,0,0,0-0.1,0l-0.1,0.7c-0.5,3.2-3.2,5.6-6.2,6h-0.7h-0.1c0,0,0,0-0.1,0h-0.1l0,0
		l0,0h-0.2l0,0c-0.2,0-0.2-0.1-0.2-0.2c0-0.1,0.1-0.2,0.2-0.2v-6.3l0,0l0,0l0,0h-0.2v1.4c0,0.2-0.1,0.2-0.2,0.2l0,0h-1.8V457h6h11.5
		v-1.8c0-0.2,0.1-0.2,0.2-0.2l0,0l0,0h3.6l0,0c0.2,0,0.2,0.1,0.2,0.2v1.8h1.1h15.6h1.8v-21.7L138.5,432.9z"/>
	<path fill="#CCCCCC" d="M-76.5,143.2L-76.5,143.2L-76.5,143.2L-76.5,143.2L-76.5,143.2v0.2c0,0.2-0.1,0.2-0.2,0.2l0,0l0,0v6l0,0
		l0,0c0.2,0,0.2,0.1,0.2,0.2v0.1l0,0l0,0l0,0c0,0,0,0,0,0.1l0,0v4.5h19.1v-12.2h-19.1V143.2L-76.5,143.2z"/>
	<path fill="#CCCCCC" d="M27.1,452.6h18.7v-6.4c0,0,0,0,0-0.1l-0.7-0.1c-3.1-0.5-5.4-3.2-6-6.2v-0.7V439c0,0,0,0,0-0.1v-0.1l0,0l0,0
		v-0.2c0-0.2,0.1-0.2,0.2-0.2c0.1,0,0.2,0.1,0.2,0.2h6.3c0,0,0,0,0-0.1v-6.6H27.1V452.6L27.1,452.6z"/>
	<path fill="#CCCCCC" d="M-234.9,124.5h5.4l0,0c0.2,0,0.2,0.1,0.2,0.2v1.7h26.4l0,0h0.1l0.1-0.9c0.6-3.2,3-5.4,6.2-6h1.1h0.1
		c0,0,0,0,0.1,0h0.1l0,0l0,0h0.4c0.2,0,0.2,0.1,0.2,0.2s-0.1,0.2-0.2,0.2v6.3l0,0l0,0l0,0h5.3v-0.2l0,0v-17.6l0,0v-1.4h-1.7
		c-0.2,0-0.2-0.1-0.2-0.2V105h-37l0,0h-0.7v1.8c0,0.2-0.1,0.2-0.2,0.2l0,0h-4.5h-1.2C-234.9,107.2-234.9,124.5-234.9,124.5z"/>
	<path fill="#CCCCCC" d="M52,636.3L52,636.3h1.7v-20.6l0,0v-20.1h-3.3l0,0h-0.9h-15l0,0h-4.5c0,0,0,0-0.1,0l-0.1,0.9
		c-0.6,3.2-3.1,5.4-6.2,6h-0.6h-0.1h-0.1c0,0,0,0-0.1,0l0,0h-0.1l0,0c-0.2,0-0.2-0.1-0.2-0.2c0-0.1,0.1-0.2,0.2-0.2v-6.4
		c0,0,0,0-0.1,0h-1.8v41.7h14.1h15.9h1.8v-0.5C51.6,636.4,51.6,636.3,52,636.3z"/>
	<path fill="#CCCCCC" d="M9.5,636.3L9.5,636.3h5.3l0,0c0.2,0,0.2,0.1,0.2,0.2v0.5h3.2v-47.6l0,0c0,0,0,0,0-0.1l-0.7-0.1
		c-3.1-0.5-5.4-3.1-6-6.2l-0.1-0.9V582l0,0v-0.1c0-0.2,0.1-0.2,0.2-0.2c0.1,0,0.2,0.1,0.2,0.2h6.4c0,0,0,0,0-0.1v-0.2H-3.4v0.1
		c0,0.2-0.1,0.2-0.2,0.2h-0.5v30.2l0,0v6.9h0.5c0.2,0,0.2,0.1,0.2,0.2l0,0v5.3c0,0.2-0.1,0.2-0.2,0.2h-0.5v0.1V637H8.3h0.9v-0.5
		C9.3,636.4,9.4,636.3,9.5,636.3z"/>
	<path fill="#CCCCCC" d="M45.8,487.4v-20.7c0,0,0,0,0-0.1l-0.7-0.1c-3.1-0.5-5.6-3.2-6-6.2v-0.6v-0.1c0,0,0,0,0-0.1v-0.1l0,0l0,0
		v-0.2c0-0.2,0.1-0.2,0.2-0.2s0.2,0.1,0.2,0.2h6.3l0,0v-2.2H34.4v2.2c0,0.2-0.1,0.2-0.2,0.2l0,0h-3.3l0,0c-0.2,0-0.2-0.1-0.2-0.2
		v-2.2h-7.1v30.8H46L45.8,487.4L45.8,487.4z"/>
	<path fill="#CCCCCC" d="M94.2,636.3L94.2,636.3h5.3c0.2,0,0.2,0.1,0.2,0.2v0.5h0.9h11.7v-12l0,0v-0.1H112c-0.2,0-0.2-0.1-0.2-0.2
		v-5.3l0,0c0-0.2,0.1-0.2,0.2-0.2h0.5v-37H112c-0.2,0-0.2-0.1-0.2-0.2v-0.1H90.1v0.1v0.1h6.4c0-0.1,0.2-0.2,0.2-0.2
		c0.2,0,0.2,0.1,0.2,0.2v0.2l0,0l0,0v0.1c0,0,0,0,0,0.1c0,0.1,0,0.1,0,0.1v0.7c-0.6,3.2-3,5.4-6,6.2l-0.9,0.1c0,0,0,0,0,0.1v47.6
		h3.8v-0.5C93.8,636.4,94.1,636.3,94.2,636.3z"/>
	<path fill="#CCCCCC" d="M86.5,595.6L86.5,595.6L86.5,595.6L86.5,595.6v6.4c0.1,0,0.2,0.2,0.2,0.2c0,0.2-0.1,0.2-0.2,0.2l0,0h-0.1
		l0,0h-0.1c0,0,0,0-0.1,0h-0.1h-0.7c-3.2-0.5-5.4-2.6-6.3-6l0,0l-0.1-0.9c0,0,0,0-0.1,0l0,0h-4.6l0,0h-15l0,0h-0.9l0,0h-3.2v16.6
		v0.1v24.1h2.2l0,0c0.2,0,0.2,0.1,0.2,0.2v0.5h1.8h15.9h13.5v-41.7h-2.1V595.6z"/>
	<path fill="#CCCCCC" d="M-231.4,273.2c0-0.2,0.2-0.2,0.2-0.2h0.2l0,0l0,0h0.1c0,0,0,0,0.1,0h0.1h0.7c3.9,0.5,7.1,3.3,8.3,7.1
		c0.9-3.8,4.4-6.7,8.3-7.1h0.9h0.1c0,0,0,0,0.1,0h0.1c0,0,0,0,0.1,0l0,0h0.2c0.2,0,0.2,0.1,0.2,0.2c0,0.1-0.1,0.2-0.2,0.2l0,0v7.9
		h34.3v-2.2l0,0v-24.6h-21.8l0,0c-0.2,0-0.2-0.1-0.2-0.2l0,0v-36.1h-1.8l0,0h-24.7h-2.1h-2.1h-2.1h-2v38.9h2c0.2,0,0.2,0.1,0.2,0.2
		l0,0v24h0.7v-7.9C-231.3,273.6-231.4,273.4-231.4,273.2z M-204.9,267.6c0-0.2,0.1-0.2,0.2-0.2h18.9c0.2,0,0.2,0.1,0.2,0.2v11.6
		c0,0.2-0.1,0.2-0.2,0.2h-19.1c-0.2,0-0.2-0.1-0.2-0.2L-204.9,267.6L-204.9,267.6z"/>
	<path fill="#CCCCCC" d="M-232.8,190.9h-11.6c-0.2,0-0.2-0.1-0.2-0.2v-8.3l0,0l0,0l0,0l0,0l0,0l0,0l0,0l0,0c0,0,0,0,0.1,0l0,0h11.6
		c0.2,0,0.2,0.1,0.2,0.2L-232.8,190.9L-232.8,190.9C-232.7,190.9-232.7,190.9-232.8,190.9L-232.8,190.9L-232.8,190.9L-232.8,190.9
		C-232.7,190.9-232.7,190.9-232.8,190.9L-232.8,190.9l1.4,0.1v-28.8h-5.4l0,0l0,0l0,0c-0.2,0-0.2-0.1-0.2-0.2v-36.8l0,0l0,0v-17.9
		v-1.9h-8.2v11.7c0,0.2-0.1,0.2-0.2,0.2h-7.8v12.5c0,0.2-0.1,0.2-0.2,0.2h-1.7v1.4c0,0.1-0.1,0.2-0.2,0.2c0,0,0,0-0.1,0
		c-0.1,0-0.2,0-0.2-0.1V131v0.5c0,0.2-0.1,0.2-0.2,0.2c-0.1,0-0.2-0.1-0.2-0.2v-0.1l0,0c0,0,0,0,0,0.1l-0.1,0.1l-0.1,0.1h-0.1
		c0,0,0,0-0.1,0h-0.5c-0.2,0-0.2-0.1-0.2-0.2v-1.4h-1.4h-1.5c-0.2,0-0.2-0.1-0.2-0.2v-24.6H-272h-0.6v1.8c0,0.2-0.1,0.2-0.2,0.2l0,0
		h-2.2v0.7v30.3h1.9l0,0c0.2,0,0.2,0.1,0.2,0.2l0,0v3.6c0,0.2-0.1,0.2-0.2,0.2h-1.9v0.9c0,0.2-0.1,0.2-0.2,0.2h-0.6l0,0
		c0,0.2-0.1,0.2-0.2,0.2h-0.8c0,0.1-0.1,0.2-0.2,0.2l0,0v6.3h0.2l0,0l0,0c0,0,0,0,0.1,0l0,0l0,0l0,0l0,0l0,0l0,0l0,0l0,0l0,0l0,0
		l0,0l0,0l0,0l0,0l0,0h-0.5v6.2h0.1c0.1,0,0.2,0.1,0.2,0.2h0.5l0,0c0.2,0,0.2,0.1,0.2,0.2l0,0h0.6c0.2,0,0.2,0.1,0.2,0.2v32.4h2.1
		h0.1c0.1,0,0.2,0.2,0.2,0.2v1.7h39.9v-1.7C-233.2,190.9-233,190.9-232.8,190.9z M-244.8,173L-244.8,173
		C-244.8,173-244.8,172.9-244.8,173C-244.8,172.9-244.8,172.9-244.8,173L-244.8,173L-244.8,173L-244.8,173L-244.8,173L-244.8,173
		L-244.8,173L-244.8,173l11.7-0.1l0,0c0,0,0,0,0.1,0l0,0l0,0l0,0l0,0l0,0l0,0c0,0,0,0,0,0.1l0,0v8.3l0,0c0,0,0,0,0,0.1l0,0l0,0l0,0
		c0,0,0,0-0.1,0l0,0h-0.1l0,0l0,0h-11.7l0,0l0,0h-0.1l0,0c0,0,0,0-0.1,0l0,0l0,0l0,0l0,0l0,0V173H-244.8z M-248,190.4
		c0,0.2-0.1,0.2-0.2,0.2h-23.5c-0.2,0-0.2-0.1-0.2-0.2v-18.7c0-0.2,0.1-0.2,0.2-0.2h23.7c0.2,0,0.2,0.1,0.2,0.2L-248,190.4
		L-248,190.4z"/>
	<path fill="#CCCCCC" d="M-167.8,178.5c0.1,0,0.2,0.2,0.2,0.2c0,0.2-0.1,0.2-0.2,0.2l0,0h-0.1l0,0h-0.1c0,0,0,0-0.1,0h-0.1h-0.7
		c-3.2-0.5-5.4-3-6.2-6l-0.1-0.9c0,0,0,0-0.1,0h-12.5v18.5h2.6c0.2,0,0.2,0.1,0.2,0.2l0,0v1.7h17.8v-20.6h-0.5h-0.1L-167.8,178.5
		L-167.8,178.5z"/>
	<path fill="#CCCCCC" d="M-116.5,444.4c-0.2,0-0.2-0.1-0.2-0.2V444l0,0l0,0c0-0.2,0.1-0.2,0.2-0.2h0.7v-0.5c0-0.2,0.1-0.2,0.2-0.2
		l0,0h2c0.2,0,0.2,0.1,0.2,0.2v11.6h11.7v-27.5h-3.2c-0.2,0-0.2-0.1-0.2-0.2l0,0v-1.1c0-0.2,0.1-0.2,0.2-0.2h5.3v-3.6v-0.1l0,0
		l-0.9-0.1c-3.2-0.5-5.6-3.2-6-6.2l-0.1-0.9v-0.1l0,0v-0.1c0-0.1,0-0.2,0.1-0.2h-7v19.6c0,0.2-0.1,0.2-0.2,0.2l0,0h-2l0,0l0,0h-0.8
		l0,0c-0.2,0-0.2-0.1-0.2-0.2l0,0v-0.1c0-0.2,0.1-0.2,0.2-0.2h0.7v-10.4h-13.7c-0.2,0-0.2-0.1-0.2-0.2v-3h-13.5v35.3h27.2h0.5v-10.2
		L-116.5,444.4L-116.5,444.4z"/>
	<path fill="#CCCCCC" d="M-189.5,190.9v-18.9h-0.5l0,0l0,0l0,0v6.3c0.1,0,0.2,0.2,0.2,0.2c0,0.2-0.1,0.2-0.2,0.2l0,0h-0.1l0,0h-0.1
		c0,0,0,0-0.1,0s-0.1,0-0.1,0h-0.7c-3.2-0.2-5.4-2.8-6.2-6l-0.1-0.9c0,0,0,0-0.1,0l0,0h-11.7v18.5h2.2c0.2,0,0.2,0.1,0.2,0.2v1.7
		h17.4L-189.5,190.9L-189.5,190.9z"/>
	<path fill="#CCCCCC" d="M-64.2,473.9c-3.1-0.5-5.4-3.2-6-6.2v-0.7V467v-0.1c0,0,0,0,0-0.1l0,0v-0.1c0-0.2,0.1-0.2,0.2-0.2
		c0.1,0,0.2,0,0.2,0.1h6.4l0,0v-0.2h-12l-7.7,5.2l0,0l0,0l0,0c0,0,0,0-0.1,0l0,0l0,0l0,0h-7l-4.5,3.1l-5.4,3.8l3.3,4.9l0,0l0,0
		l8.5,12.8l0.2,0.2l1.3,1.8l26.4-17.9l-3-4.5l0,0l0,0l0,0l0,0l0,0l0,0l0,0v-1.3c0,0,0,0,0-0.1L-64.2,473.9z"/>
	<path fill="#CCCCCC" d="M140.3,432.3L140.3,432.3L140.3,432.3c0.1-0.1,0.1-0.1,0.2-0.1l0,0l0,0v-0.1l0,0l0,0l0,0l0,0
		c0,0,0.1-0.1,0.2-0.1h0.1l0,0l0,0l0,0l4.5-4.5l0,0l0,0l0,0c0,0,0,0,0-0.1l0,0l0,0v-0.1l0,0v-0.1l0.1-0.1l0,0l0,0l0,0l0,0l0,0l0,0
		l1.1-1.3l-1.1-1.1l0,0c0,0,0,0,0-0.1l0,0l0,0l-0.1-0.1l0,0l0,0l0,0c0,0,0,0,0-0.1l0,0l0,0c0,0,0,0,0-0.1l0,0l0,0l0,0l-4.5-4.5l0,0
		c0,0-0.1,0.1-0.2,0.1l0,0c-0.1,0-0.2,0-0.2-0.1l-0.1-0.1l0,0c0,0,0,0-0.1,0l0,0l0,0l0,0l0,0l0,0l0,0l0,0l0,0l0,0l-1.1,1.1l0,0
		c0,0,0,0-0.1,0l0,0l0,0h-0.1h-7.6l0,0h-0.1l0,0c0,0,0,0-0.1,0l0,0h-0.2c-0.2,0-0.2-0.1-0.2-0.2v-0.7c0-0.2,0.1-0.2,0.2-0.2h0.2l0,0
		l0,0l0,0h0.1h6.9l2.2-2.2v-27H140h-6.3l0,0h-12.2v1.7c0,0.2-0.1,0.2-0.2,0.2H118c-0.2,0-0.2-0.1-0.2-0.2v-1.7h-12.2h-6.3h-3h-6.3
		h-3.4h-6.3h-2.6v1.7c0,0.2-0.1,0.2-0.2,0.2l0,0h-5.9v25.7l0,0v0.9c0,0.2-0.1,0.2-0.2,0.2l0,0h-2.2v1.7v0.1l0,0l0,0v0.2
		c0,0.2-0.1,0.2-0.2,0.2h0.2v6.4l0,0c0.2,0,0.2,0.1,0.2,0.2v0.2l0,0l0,0v0.1l0,0h2.2l0,0c0.2,0,0.2,0.1,0.2,0.2v3.2h5.9l0,0v0.1
		c0,0,0,0,0-0.1s0-0.1,0.1-0.2v-0.2c0.7-4.4,4.4-6,7.1-6l0,0c3.1,0,6.4,1.8,7.1,6l0.1,0.9l0,0h0.1l0,0h5.2h3.2h1.7l0,0l0,0h0.1l0,0
		l0,0l0,0h0.1c0.2,0,0.2,0.1,0.2,0.2l0,0l0,0h6.4l0,0l0,0c0-0.2,0.1-0.2,0.2-0.2h0.1l0,0c0,0,0,0,0.1,0l0,0h0.1l0,0h28.4l0,0l0,0
		c0,0,0,0,0.1,0l0,0l0,0l0,0l0,0l0,0L140.3,432.3L140.3,432.3z"/>
	<path fill="#CCCCCC" d="M-58.1,480.7C-58.1,480.7-58.1,480.8-58.1,480.7L-58.1,480.7C-58.1,480.8-58.1,480.8-58.1,480.7
		L-58.1,480.7l0.1,0.2v0.1l0,0l0,0l0,0l0,0l0,0l0,0l-0.1,0.1l0.2,0.5l3.2,4.7l0,0h0.1h0.1c0.1,0,0.1,0,0.2,0.1l0.1,0.1l0,0l0,0l0,0
		l0,0l0,0l0,0l0,0l6,8.5h3.2h0.1l0,0l0,0l0,0h0.2c0.2,0,0.2,0.1,0.2,0.2l0,0h6.4l0,0c0-0.2,0.1-0.2,0.2-0.2h0.1l0,0l0,0l0,0h0.1h3.2
		v-29.9H-39h-0.1l0,0l0,0h-0.2c-0.2,0-0.2-0.1-0.2-0.2v-0.1h-6.2v0.1c0,0.2-0.1,0.2-0.2,0.2l0,0l0,0l0,0l0,0h-0.1l0,0H-62v0.2v0.1
		l0,0l0,0v0.2c0,0.2-0.1,0.2-0.2,0.2l0,0v6.4l0,0c0.2,0,0.2,0.1,0.2,0.2v0.2l0,0l0,0v0.1v0.9l3.9,5.6
		C-58.1,480.7-58.1,480.7-58.1,480.7z"/>
	<path fill="#CCCCCC" d="M153.1,389.2h-3.2h-6.3h-1.4v27.6l0,0v0.1l0,0l0,0l0,0l0,0l-0.9,0.7l0,0l0,0l0,0l0,0l0,0l4.5-4.5
		c0-0.1,0-0.2,0.1-0.2c0.1-0.1,0.2-0.1,0.5,0l0.1,0.1l0,0c0,0,0,0.1,0.1,0.1l0.6,0.7c1.8,2.5,2,6,0.2,8.5l-0.6,0.7l0,0l0,0l0,0l0,0
		l0.7,0.7l0.7,0.7h16v-18.2H162c-0.2,0-0.2-0.1-0.2-0.2l0,0v-3.6c0-0.2,0.1-0.2,0.2-0.2h2.1V389h-5L153.1,389.2L153.1,389.2z"/>
	<path fill="#CCCCCC" d="M69.5,521.5v0.5l0,0h6.4c0-0.1,0.1-0.2,0.2-0.2c0.2,0,0.2,0.1,0.2,0.2v0.2l0,0l0,0v0.1c0,0,0,0,0,0.1
		c0,0.1,0,0.1,0,0.1v0.7c-0.6,3.2-3,5.4-6,6.2l-0.9,0.1c0,0,0,0,0,0.1v0.6H70l0,0c0.2,0,0.2,0.1,0.2,0.2v3H72c0.2,0,0.2,0.1,0.2,0.2
		v13.1h13.5v-5.4c0-0.2,0.1-0.2,0.2-0.2l0,0h14.7v-0.7c0-0.2,0.1-0.2,0.2-0.2h0.2h6.7l-0.1-0.7c-0.5-2.8-2.8-4.9-5.4-5.4l-1.3-0.1
		h-0.2c-0.2,0-0.2-0.1-0.2-0.2V524H87.6v7c0,0.2-0.1,0.2-0.2,0.2h-1.1l0,0c-0.2,0-0.2-0.1-0.2-0.2v-7.5v-1.7H71.6l0,0L69.5,521.5
		L69.5,521.5z"/>
	<path fill="#CCCCCC" d="M92.7,432.9L92.7,432.9L92.7,432.9L92.7,432.9l-0.2-0.1c-0.2,0-0.2-0.1-0.2-0.2l0,0h-6.4l0,0
		c0,0.2-0.1,0.2-0.2,0.2h-0.1l0,0l0,0l0,0h-0.1l0,0l0,0H62.9v5.4v0.1h6.4c0-0.1,0.2-0.2,0.2-0.2c0.2,0,0.2,0.2,0.2,0.2v0.1l0,0v0.1
		c0,0,0,0,0,0.1v0.1v0.7c-0.5,3.2-3,5.4-6,6.2l-0.9,0.1c0,0,0,0,0,0.1v3.2h36.1v-15h-1.8c-0.2,0-0.2-0.1-0.2-0.2v-1.4L92.7,432.9
		L92.7,432.9L92.7,432.9z"/>
	<path fill="#3964AF" d="M139,192.7h6.3l0,0H161l0,0h1.1V191c0-0.1,0-0.2,0.1-0.2c0,0,0.1-0.1,0.2-0.1h0.9v-51v-9.7h-0.9l0,0
		c-0.2,0-0.2-0.1-0.2-0.2V128h-1.1l0,0v6c0.1,0,0.2,0.2,0.2,0.2c0,0.2-0.1,0.2-0.2,0.2l0,0h-0.2l0,0l0,0h-0.2c0,0,0,0-0.1,0h-0.1
		h-0.7c-3.1-0.2-5.6-3-6.3-6l-0.1-0.6h-0.1h-30.8v7.5v3.2v3.6c0,0.2-0.1,0.2-0.2,0.2h-2v48.3h2.1l0,0c0.2,0,0.2,0.1,0.2,0.2l0,0v1.7
		h1.1l0,0L139,192.7L139,192.7z"/>
	<path fill="#CCCCCC" d="M495.3,438.2h15v-9.3h-7c-0.2,0-0.2-0.1-0.2-0.2s0.1-0.2,0.2-0.2h7v-0.2h-7c-0.2,0-0.2-0.1-0.2-0.2v-0.2
		h-7.7v10.7h-0.1V438.2z"/>
	<path fill="#CCCCCC" d="M429.1,391.2L429.1,391.2h-3.2V420h27l0,0h0.1l0,0c0,0,0,0,0.1,0l0,0h0.1c0.1,0,0.2,0,0.2,0.1
		c0,0,0.1,0.1,0.1,0.2l0,0h6.4l0,0c0-0.2,0.1-0.2,0.2-0.2h0.1l0,0c0,0,0,0,0.1,0l0,0h0.1h10.9v-3c0,0,0,0,0-0.1l-0.9-0.1
		c-3.2-0.6-5.4-3.2-6-6.2V410v-0.1v-0.1c0,0,0,0,0-0.1l0,0v-0.1c0-0.2,0.1-0.2,0.2-0.2c0.1,0,0.2,0.1,0.2,0.2h6.4c0,0,0,0,0-0.1l0,0
		h-2.1l0,0c-0.1,0-0.2,0-0.2-0.1c0-0.1-0.1-0.1-0.1-0.2l0,0v-2.8c0-0.2,0.1-0.2,0.2-0.2h1.4v-14.4h-1.4l0,0c-0.2,0-0.2-0.1-0.2-0.2
		v-1.8h-2.6H460h-2.8h-6.3h-3.2h-6.3h-3h-6.3h-2.6v1.7C429.3,390.9,429.1,391.2,429.1,391.2z"/>
	<path fill="#CCCCCC" d="M560.6,391.2L560.6,391.2h-0.9V406h3.8c0.2,0,0.2,0.1,0.2,0.2v1.4h3.3l0,0h0.1v-6.4c-0.1,0-0.2-0.2-0.2-0.2
		c0-0.2,0.2-0.2,0.2-0.2h0.2l0,0l0,0h0.1c0,0,0,0,0.1,0c0.1,0,0.1,0,0.1,0h0.7c1.1,0.2,2,0.6,3,1.1c0.1,0,0.2,0,0.2,0l0.1,0.1
		c0,0,0.1,0,0.1,0.1l0,0c1.5,1.1,2.5,2.8,3,4.6l0.1,0.9c0,0,0,0,0.1,0l0,0l0,0h8.6v-18.3h-23v1.7
		C561.1,390.9,560.9,391.2,560.6,391.2z"/>
	<path fill="#3964AF" d="M495.9,226v-1.4l0,0h-6c0,0.1-0.1,0.2-0.2,0.2l0,0c-0.2,0-0.2-0.1-0.2-0.2l0,0c0,0,0-0.1,0-0.2
		c0,0,0-0.1,0-0.2l0,0V224v-0.7c0.2-3.1,3.1-5.9,6-6.3h0.7c0,0,0-0.1,0-0.2v-21.9h-64.7v30.6L495.9,226L495.9,226z"/>
	<path fill="#CCCCCC" d="M298.5,409.6l0.1-0.7c0.7-3.8,3.7-6.2,7.1-6.2s6.4,2.2,7.1,6v0.5c0,0,0.1,0.1,0.1,0.2s0,0.1,0,0.1
		s0,0,0,0.1l0,0h3.6v-14.8h-42.4v14.8L298.5,409.6L298.5,409.6L298.5,409.6z"/>
	<path fill="#CCCCCC" d="M337.5,426.4h-17.8h-1.5v0.5h0.1l0,0c3.3,0.7,5.3,3,6,6.2l0,0v0.7c0,0,0,0,0,0.1c0,0,0,0,0,0.1v0.1l0,0l0,0
		v0.2c0,0.2-0.1,0.2-0.2,0.2l0,0c-0.1,0-0.2-0.1-0.2-0.2h-5.4l-0.1,22.5h19.2V455c0-0.2,0.1-0.2,0.2-0.2h2.2v-28.5L337.5,426.4
		L337.5,426.4z"/>
	<path fill="#CCCCCC" d="M335.5,347.7L335.5,347.7c2.5,0,5.6-1.4,7-5.1l0.2-1.1v-1.3v-1.1l-0.2-1.3c-1.1-3.1-3.8-4.9-7-4.9
		c-3,0-6.4,1.8-7.1,6.2l-0.1,1.2l0.1,1.3C329.1,345.9,332.5,347.7,335.5,347.7z"/>
	<path fill="#CCCCCC" d="M383.5,347.7c2.5,0,5.6-1.4,7-5.1l0.2-1.1v-1.3v-1.1l-0.2-1.3c-1.3-3.7-4.5-4.9-7-4.9
		c-3.1,0-6.4,1.8-7.1,6.2l-0.1,1.1l0.1,1.3C377,345.9,380.4,347.7,383.5,347.7z"/>
	<path fill="#CCCCCC" d="M431.2,347.7L431.2,347.7c2.5,0,5.6-1.4,7-5.1l0.2-1.1l0.1-1.1l-0.1-1.3l-0.2-1.3c-1.3-3.1-3.8-4.9-7-4.9
		c-3.1,0-6.4,1.8-7.1,6.2l-0.1,1.1l0.1,1.3C424.6,345.9,428.1,347.7,431.2,347.7z"/>
	<path fill="#3964AF" d="M619.8,127.9v0.6c-0.6,3.2-3,5.4-6.2,6h-0.7h-0.1c0,0,0,0-0.1,0h-0.2l0,0l0,0l0,0l0,0
		c-0.2,0-0.2-0.1-0.2-0.2c0-0.1,0.1-0.2,0.2-0.2v-6l0,0l0,0h-1.5v62.7h16.9l0,0c0.2,0,0.2,0.1,0.2,0.2l0,0l0,0v1.7h15V191l0,0
		c0-0.2,0.1-0.2,0.2-0.2l0,0h3.3v-48.3h-2c-0.2,0-0.2-0.1-0.2-0.2l0,0l0,0v-3.6l0,0l0,0v-3.2l0,0l0,0V128L619.8,127.9
		C620,127.9,620,127.9,619.8,127.9z"/>
	<path fill="#3964AF" d="M577.5,190.9c0-0.2,0.1-0.2,0.2-0.2h6.3c0.2,0,0.2,0.1,0.2,0.2l0,0l0,0v1.7h14.8v-1.7l0,0l0,0
		c0-0.2,0.1-0.2,0.2-0.2h9.7v-60.7h-1.5h-3.2h-3.6l0,0c-0.2,0-0.2-0.1-0.2-0.2V128h-30.8l0,0h-0.1v0.6c-0.6,3.2-3.1,5.4-6.2,6h-0.7
		h-0.1c0,0,0,0-0.1,0h-0.1l0,0l0,0h-0.2l0,0c-0.2,0-0.2-0.1-0.2-0.2c0-0.1,0.1-0.2,0.2-0.2v-6l0,0l0,0h-0.6v1.7V191h0.5
		c0.2,0,0.2,0.1,0.2,0.2v1.7h15L577.5,190.9L577.5,190.9z"/>
	<path fill="#3964AF" d="M557.2,130.1H554h-1.1l0,0c-0.2,0-0.2-0.1-0.2-0.2v-1.7h-26.9l0,0h-0.1v0.6c-0.5,3.1-3.2,5.6-6.2,6H519
		h-0.1c0,0,0,0-0.1,0h-0.1l0,0l0,0h-0.2l0,0c-0.2,0-0.2-0.1-0.2-0.2c0-0.1,0.1-0.2,0.2-0.2v-6c0,0,0,0-0.1,0l0,0h-1.1v1.7
		c0,0.2-0.1,0.2-0.2,0.2l0,0h-3.1v60.7h4.5c0.2,0,0.2,0.1,0.2,0.2l0,0l0,0v1.7h15V191l0,0l0,0c0-0.2,0.1-0.2,0.2-0.2h6.3
		c0.2,0,0.2,0.1,0.2,0.2l0,0l0,0v1.7h15V191c0-0.2,0.1-0.2,0.2-0.2l0,0h4.4v-60.5L557.2,130.1L557.2,130.1z"/>
	<path fill="#3964AF" d="M226.8,192.7h1.4v-50.2h-1.4h-0.1l0,0l0,0h-0.2c-0.2,0-0.2-0.1-0.2-0.2l0,0h-6.4l0,0c0,0.2-0.1,0.2-0.2,0.2
		l0,0h-0.2l0,0l0,0l0,0l0,0h-51l0,0h-3.4v48.3h0.9c0.1,0,0.2,0,0.2,0.1c0,0,0.1,0.1,0.1,0.2v1.7h1.1l0,0h15.6l0,0h1.1v-1.7
		c0-0.2,0.1-0.2,0.2-0.2h3.6c0.2,0,0.2,0.1,0.2,0.2v1.7h1.1l0,0h15.9h1.1v-1.7c0-0.2,0.1-0.2,0.2-0.2l0,0h3.6l0,0
		c0.2,0,0.2,0.1,0.2,0.2v1.7h1.1l0,0h15.5L226.8,192.7L226.8,192.7z"/>
	<path fill="#3964AF" d="M355.1,292.1l-0.1,1.5l5.6,1.1c20.6,3.6,40.9,3.6,61.3,0l5.9-1.1l-0.2-1.4v-2.5l0.2-2.5l0.5-2.2v-4.5
		l-0.5-2.2l-0.2-2.2v-2.5l0.2-2.5l0.5-2.2v-4.6l-0.5-2.2l-0.2-2.5v-2.5l0.2-2.5l0.5-2.2v-4.6l-0.5-2.2l-0.2-2.2v-2.5l0.2-2.5
		l0.5-2.2v-4.6l-0.5-2.2v-0.2l-4.4,1.3c-10.2,3.2-21.3,4.7-32.1,4.7c-10.9,0-21.7-1.5-32.1-4.7l-4.1-1.4v0.2l-0.1,0.5l-0.2,1.8v4.6
		l0.5,1.8l0.1,0.2v0.2l0.2,2.2v2.2l-0.2,2.2v0.2l-0.1,0.5l-0.6,2v4.6l0.5,1.8l0.1,0.2v0.2l0.2,2.2v2.2l-0.2,2.2v0.2l-0.1,0.5
		l-0.2,1.8v4.6l0.5,2.2l0.2,2.5v2.2l-0.2,2.2l-0.5,2.2v4.6l0.5,2.2l0.2,2.5L355.1,292.1z"/>
	<path fill="#3964AF" d="M369,298.1c0-0.2,0.1-0.2,0.2-0.2l0,0h4.7h12.3c-8.5-0.2-17.2-1.1-25.7-2.5l-5.6-1.1v0.2l-0.5,2.2l0,0l0,0
		l0,0l0,0l0,0l0,0h-0.1l0,0l0,0h-0.1V309h0.1l0,0h0.1l0,0l0,0h0.2l0,0c0.2,0,0.2,0.1,0.2,0.2l0,0h13.5l0,0c0-0.2,0.1-0.2,0.2-0.2
		l0,0h0.2l0,0l0,0h0.1l0,0L369,298.1L369,298.1z"/>
	<path fill="#CCCCCC" d="M288.6,433.7v6.4c0.1,0,0.2,0.2,0.2,0.2c0,0.2-0.1,0.2-0.2,0.2l0,0h-0.2l0,0l0,0h-0.1c0,0,0,0-0.1,0H288
		h-0.7c-3.3-0.6-5.4-3-6.2-6l-0.1-0.9c0,0,0,0-0.1,0l0,0h-3.8v23.1h15.6v-23.1h-4.1C288.6,433.6,288.6,433.7,288.6,433.7z"/>
	<path fill="#CCCCCC" d="M365.9,412.2l0.7,0.1c3.1,0.5,5.4,3.2,6,6.2v0.7v0.1l0,0c0,0,0,0.1,0,0.2c0,0,0,0.1,0,0.2l0,0
		c0,0,0,0.1,0,0.2h6.7h0.2l0,0l0,0c0.2,0,0.2,0.1,0.2,0.2v0.1l0,0h6.4l0,0c0-0.2,0.1-0.2,0.2-0.2h0.1l0,0c0,0,0,0,0.1,0l0,0h0.1h6.7
		c0,0,0-0.1,0-0.2l0,0c0,0,0-0.1,0-0.2c0,0,0-0.1,0-0.2l0,0v-0.1v-0.7c0.5-3.1,3-5.6,6-6.3l0.9-0.1c0,0,0,0,0-0.1l0,0l0,0v-2.8h-0.9
		l0,0h-0.1l0,0c0,0,0,0-0.1,0l0,0H399l0,0c-0.2,0-0.2-0.1-0.2-0.2l0,0h-6.4l0,0c0,0.2-0.1,0.2-0.2,0.2l0,0l0,0l0,0l0,0l0,0H392l0,0
		l0,0h-17.2l0,0h-0.1l0,0c0,0,0,0-0.1,0l0,0h-0.2l0,0c-0.2,0-0.2-0.1-0.2-0.2l0,0h-6.4l0,0c0,0.2-0.1,0.2-0.2,0.2h-0.2l0,0l0,0l0,0
		h-0.6l0,0h-1.1L365.9,412.2L365.9,412.2z"/>
	<path fill="#CCCCCC" d="M367.2,407.4v-6.3c-0.1,0-0.2-0.2-0.2-0.2c0-0.2,0.1-0.2,0.2-0.2h0.2l0,0l0,0h0.1c0,0,0,0,0.1,0
		c0.1,0,0.1,0,0.1,0h0.7c3.3,0.6,5.4,3,6.2,6l0.1,0.9c0,0,0,0,0.1,0l0,0h6.3v-15.3h-0.1l0,0h-14.6v15.3h0.6v-0.2
		C367.1,407.4,367.2,407.4,367.2,407.4z"/>
	<path fill="#CCCCCC" d="M385.7,407.4h6.3l0,0l0,0c0,0,0,0,0.1,0l0.1-0.7c0.6-3.2,3-5.4,6.2-6h0.7h0.1c0,0,0,0,0.1,0h0.1l0,0l0,0
		h0.2c0.2,0,0.2,0.1,0.2,0.2c0,0.1-0.1,0.2-0.2,0.2v6.3l0,0l0,0h0.5v-15.3h-14.6l0,0v15.3H385.7z"/>
	<path fill="#CCCCCC" d="M402.5,412.2L402.5,412.2L402.5,412.2L402.5,412.2L402.5,412.2L402.5,412.2L402.5,412.2v0.2l0,0
		c0,0.2-0.1,0.2-0.2,0.2l0,0v6.4l0,0c0.2,0,0.2,0.1,0.2,0.2v0.2l0,0l0,0l0,0l0,0l0,0h13.8h0.1l0,0l0,0l0,0h0.1c0.1,0,0.2,0,0.2,0.1
		c0,0,0.1,0.1,0.1,0.2l0,0h6.4l0,0c0-0.2,0.1-0.2,0.2-0.2h0.2l0,0c0,0,0,0,0.1,0l0,0h0.1h0.2v-30.8h-8.2h-6.3h-2.1v11.6
		c0,0,0.1,0.1,0.1,0.2v3c0,0.1,0,0.2-0.1,0.2v3.3h2c0.2,0,0.2,0.1,0.2,0.2v0.9l0,0c0,0.2-0.1,0.2-0.2,0.2h-7.1L402.5,412.2
		L402.5,412.2z"/>
	<path fill="#3964AF" d="M427.6,294.4v-0.2l-5.6,1.1c-8.4,1.4-16.8,2.2-25.4,2.5H407h4.7l0,0c0.2,0,0.2,0.1,0.2,0.2v11l0,0l0,0h0.1
		l0,0l0,0h0.2l0,0c0.2,0,0.2,0.1,0.2,0.2l0,0h13.5l0,0c0-0.2,0.1-0.2,0.2-0.2l0,0h0.2l0,0l0,0h0.1l0,0l0,0h0.2h0.7v-12.3V294.4z"/>
	<path fill="#3964AF" d="M427.5,216.9L427.5,216.9C427.4,216.9,427.4,216.9,427.5,216.9L427.5,216.9L427.5,216.9L427.5,216.9
		L427.5,216.9C427.4,216.9,427.4,216.9,427.5,216.9L427.5,216.9l-0.2-0.6l-6.9,3.2l0.2,0.7l0,0l0,0l0,0l0,0l0,0l0,0l0,0l0,0l0,0l0,0
		l0,0l0,0l-0.9,0.2l0,0l0,0l0,0l0,0l0,0c0,0,0,0-0.1,0l0,0l0,0l0,0l0,0l0,0l0,0l-0.6-2c-1.4-4.7-4.6-8.5-8.6-10.9l-1.3-0.7v5.9
		c0,0.2-0.1,0.2-0.2,0.2h-33c-0.2,0-0.2-0.1-0.2-0.2v-5.9l-1.3,0.7c-3.9,2.2-7.1,6.2-8.6,10.9l-0.5,2l0,0l0,0l0,0l0,0l0,0l0,0
		c0,0,0,0-0.1,0l0,0l0,0l0,0l0,0c0,0,0,0-0.1,0l0,0l0,0l0,0l-0.9-0.2l0,0l0,0l0,0l0,0l0,0l0,0l0,0l0,0c0,0,0,0,0-0.1l0,0l0,0l0,0
		l0.2-0.7l-6.9-3.2l-0.2,0.5c0,0.1-0.2,0.2-0.2,0.2h-0.6v1.8l0.2,1.8l0.1,0.5v0.2l0.2,2.2v2.2l-0.1,1.5l4.4,1.4
		c20.6,6.3,43.3,6.3,63.9,0l4.5-1.4l-0.2-1.5v-2.2l0.2-2.5l0.5-2.2v-0.2V217v-0.1L427.5,216.9L427.5,216.9L427.5,216.9z"/>
	<path fill="#CCCCCC" d="M24.2,410.2c-0.1,0-0.2-0.2-0.2-0.2c0-0.2,0.2-0.2,0.2-0.2h0.1l0,0h0.1c0,0,0,0,0.1,0c0.1,0,0.1,0,0.1,0
		h0.7c3.1,0.2,5.4,3,6.2,6l0.1,0.9c0,0,0,0,0.1,0l0,0h6.9v-25.4h-8.4l0,0l0,0c-0.2,0-0.2-0.1-0.2-0.2v-1.5h-2.6h-6.3v27.5h3l0,0l0,0
		c0,0,0,0,0.1,0V410.2L24.2,410.2z"/>
	<path fill="#CCCCCC" d="M3.6,410.2c-0.1,0-0.2-0.2-0.2-0.2c0-0.2,0.2-0.2,0.2-0.2h0.1l0,0h0.1c0,0,0,0,0.1,0h0.1h0.7
		c3.2,0.2,5.4,2.8,6.2,6l0.1,0.9l0,0h0.1l0,0h8.5v-27.2h-1.5h-6.3h-3l0,0H2.6l0,0H1.1v27.5h2.5l0,0l0,0l0,0V410.2L3.6,410.2
		L3.6,410.2z"/>
	<path fill="#3964AF" d="M354.2,134.7L354.2,134.7h-0.4l0,0c-0.2,0-0.2-0.1-0.2-0.2c0-0.1,0.1-0.2,0.2-0.2v-6c0,0,0,0-0.1,0l0,0l0,0
		h-1.3V191H421v-62.8h-1.5l0,0v6.3c0.1,0,0.2,0.2,0.2,0.2c0,0.2-0.1,0.2-0.2,0.2l0,0h-0.2l0,0l0,0h-0.1c0,0,0,0-0.1,0s-0.1,0-0.1,0
		h-0.7c-3.3-0.6-5.4-3-6.2-6l-0.1-0.9c0,0,0,0-0.1,0h-4.4h-13.6v1.7c0,0.2-0.1,0.2-0.2,0.2l0,0h-0.9h-3.2h-7.6l0,0
		c-0.2,0-0.2-0.1-0.2-0.2V128h-19.8h-0.2v0.6c-0.5,3.1-3.2,5.4-6.2,6h-0.7h-0.2C354.5,134.7,354.5,134.7,354.2,134.7L354.2,134.7
		L354.2,134.7z"/>
	<path fill="#3964AF" d="M413.4,208.6c3,2.5,5.2,5.9,6.4,9.7l0.1,0.6l6.7-3.2l-5.6-12.3l-8.6,4.1L413.4,208.6z"/>
	<path fill="#3964AF" d="M420.3,202.4C420.3,202.4,420.3,202.2,420.3,202.4L420.3,202.4L420.3,202.4c0-0.1,0-0.1,0-0.2l0,0l0,0
		c0,0,0,0,0-0.1v-0.1c0,0,0,0,0-0.1c0,0,0-0.1,0-0.2l0,0l0,0c0,0,0,0,0-0.1l0,0l0,0l0,0l-2.5-5.4h-0.2h-0.1l0,0h-0.1l0,0l0,0l0,0
		l0,0c0,0,0,0,0-0.1l0,0v-0.1c0,0,0,0-0.1,0l0,0l0,0l0,0l0,0l0,0c0,0,0,0,0-0.1l0,0l0,0l0,0l-0.5-0.9h-50.8l-0.2,0.5l-0.2,0.2l0,0
		l0,0l0,0c0,0,0,0.1-0.1,0.1l0,0l0,0l0,0l0,0l0,0l0,0l0,0l0,0l0,0l0,0l0,0v0.1c0,0,0,0.1-0.1,0.1l0,0c0,0,0,0-0.1,0l0,0l0,0H365l0,0
		h-0.1l0,0l-2.6,5.4h0.1l0,0l0,0l0,0l0,0l0,0l0,0c0,0,0,0,0,0.1l0,0v0.1l0,0l0,0c0,0,0,0,0,0.1l0,0l0,0c0,0,0,0,0,0.1l0,0l0,0
		c0,0,0,0,0,0.1l0,0l0,0l0,0l0,0l-0.2,0.7l9.1,4.5c0.1,0,0.2,0.1,0.2,0.2c0,0.1,0,0.2-0.1,0.2l-1.5,1.3c-3,2.5-4.9,5.4-6.2,9.5
		l-0.5,1.5h0.2l0.5-1.7c1.5-4.9,4.9-9.1,9.2-11.2l1.8-0.9l0,0l0,0l0,0l0,0l0,0l0,0h33l0,0l0,0l0,0l0,0l0,0l1.8,0.9
		c4.4,2.2,7.6,6.4,9.2,11.2l0.5,1.8l0.2-0.1l-0.5-1.5c-1.3-3.8-3.3-7-6.3-9.5l-1.5-1.3c0,0,0,0-0.1-0.1l0,0l0,0l0,0l0,0l0,0l0,0l0,0
		l0,0l0,0l0,0l0,0l9.2-4.5v-0.6h-0.2L420.3,202.4L420.3,202.4z"/>
	<path fill="#CCCCCC" d="M577.3,450.8v-18.2h-1.8l0,0h-0.1l0,0c0,0,0,0-0.1,0l0,0h-0.1c-0.2,0-0.2-0.1-0.2-0.2l0,0h-6.4l0,0
		c0,0.2-0.1,0.2-0.2,0.2l0,0h-0.1l0,0l0,0l0,0h-0.1h-2.1v18.2c0,0.2-0.1,0.2-0.2,0.2h-4.5v3.8l0,0l0,0v0.1l0,0v1.8H582v-5.9h-4.5
		C577.4,451.2,577.3,451.1,577.3,450.8z"/>
	<path fill="#3964AF" d="M350.7,190.8v-60.7h-6.3h-3.2h-3.6l0,0c-0.2,0-0.2-0.1-0.2-0.2v-1.7h-39.8v1.7c0,0.2-0.1,0.2-0.2,0.2h-3.6
		l0,0l0,0c-0.2,0-0.2-0.1-0.2-0.2v-1.7H291h-0.1v0.6c-0.5,3.1-3.2,5.4-6.2,6h-0.7h-0.1c0,0,0,0-0.1,0h-0.1l0,0l0,0h-0.2l0,0
		c-0.2,0-0.2-0.1-0.2-0.2c0-0.1,0.1-0.2,0.2-0.2v-6c0,0,0,0-0.1,0l0,0l0,0h-2.2V191L350.7,190.8L350.7,190.8L350.7,190.8z"/>
	<path fill="#CCCCCC" d="M446.1,457h3.6l0,0h2.8l0,0h15.9h0.9v-1.8l0,0c0-0.2,0.1-0.2,0.2-0.2h2.2v-33.6H461l0,0l0,0l-0.1,0.7
		c-0.2,3-3.3,5.6-6.2,6h-0.8c0,0,0,0-0.1,0l0,0h-0.1l0,0l0,0h-0.2l0,0c-0.2,0-0.2-0.1-0.2-0.2s0-0.2,0.1-0.2v-6.2l0,0l0,0h-3.9
		h-24.7h-0.1v6.3c0.1,0,0.2,0.2,0.2,0.2c0,0.2-0.1,0.2-0.2,0.2l0,0h-0.2l0,0l0,0h-0.1c0,0,0,0-0.1,0c-0.1,0-0.1,0-0.1,0h-1.1
		c-3.1-0.2-5.9-3-6.3-6v-0.9l0,0l0,0h-7.9v1.4c0,0.2-0.1,0.2-0.2,0.2h-1.9v34h2.2h15.6h1.1v-1.5l0,0c0-0.2,0.1-0.2,0.2-0.2h3.6
		c0.2,0,0.2,0.1,0.2,0.2l0,0v1.8h0.9L446.1,457L446.1,457z"/>
	<path fill="#CCCCCC" d="M36.5,513.5L36.5,513.5L36.5,513.5h2.2v-1.7l0,0l0,0v-0.1l0,0l0,0l0,0v-0.1c0-0.2,0.1-0.2,0.2-0.2l0,0V505
		l0,0c-0.2,0-0.2-0.1-0.2-0.2v-0.2l0,0c0,0,0,0,0-0.1l0,0v-0.1l0,0v-1.4l0,0c0-0.2,0.1-0.2,0.2-0.2h5.1v-3.8c0-0.2,0.1-0.2,0.2-0.2
		l0,0h1.4v-9H23.1v19.6H31c0.2,0,0.2,0.1,0.2,0.2v8.3c0,0.2-0.1,0.2-0.2,0.2h5.2v-3.8C36.4,513.6,36.5,513.5,36.5,513.5z"/>
	<path fill="#CCCCCC" d="M470,180.5c-0.2,0-0.2-0.1-0.2-0.2V180c0-0.2,0.1-0.2,0.2-0.2h0.7v-19.2h-0.2l0,0l0,0l0,0v6.4
		c0.1,0,0.2,0.2,0.2,0.2c0,0.2-0.1,0.2-0.2,0.2l0,0h-0.2l0,0l0,0H470c0,0,0,0-0.1,0h-0.1H469c-3.2-0.6-5.4-3-6.2-6l-0.1-0.9
		c0,0,0,0-0.1,0l0,0h-3v7.6c0,0.2-0.1,0.2-0.2,0.2l0,0h-0.9l0,0c-0.2,0-0.2-0.1-0.2-0.2v-3.9h-34.6v15.6h1.1l0,0h9.8V173l0,0l0,0
		l0,0l0,0l0,0l0,0l0,0c0,0,0,0,0.1,0l0,0c0,0,0,0,0.1,0l0,0l0,0l1.3,0.1c3.2,0.7,5.4,3,6,6l0.1,0.9h2.2c0.2,0,0.2,0.1,0.2,0.2v0.2
		v4.7c0,0.2-0.1,0.2-0.2,0.2c-0.2,0-0.2-0.1-0.2-0.2v-4.5h-0.5V191h27v-10.2h-0.6v-0.4C470.2,180.5,470,180.5,470,180.5z"/>
	<path fill="#CCCCCC" d="M270.6,299.4L270.6,299.4L270.6,299.4L270.6,299.4c0.2,0,0.2,0.2,0.2,0.2v1.8h2l0,0c0.2,0,0.2,0.1,0.2,0.2
		v9.2h15.3c0.2,0,0.2,0.1,0.2,0.2v1.7h45.1v-1.7l0,0c0-0.1,0-0.2,0.1-0.2c0,0,0.1-0.1,0.2-0.1h17.8v-98.8h-0.2l0,0v0.2
		c-0.7,4.1-3.9,6-7,6l0,0c-2.8,0-5.9-1.5-6.9-5.1c-1.3,3.8-4.4,5.1-6.7,5.1l0,0c-3,0-6.3-1.8-7-6l0,0v-0.2h-5.1h-0.1l0,0l0,0h-0.2
		l0,0c-0.2,0-0.2-0.1-0.2-0.2V211c0-0.2,0.1-0.2,0.2-0.2l0,0l0,0v-3H305v3l0,0l0,0c0.2,0,0.2,0.1,0.2,0.2v0.7c0,0.2-0.1,0.2-0.2,0.2
		l0,0h-0.2l0,0l0,0h-0.1h-9.3v0.1c0,0,0,0,0,0.1c0,0.1,0,0.1-0.1,0.2v0.5c-0.7,3.1-3.1,4.9-6,4.9c-2.8,0-4.9-1.7-5.9-4.4
		c-0.9,2.6-3.2,4.4-5.9,4.4c-3,0-5.4-2-6-4.9v-0.5c0,0-0.1-0.1-0.1-0.2v-0.1c0,0,0,0,0-0.1h-0.5v6c0,0.2-0.1,0.2-0.2,0.2l0,0l0,0
		l0,0c0,0.2-0.1,0.2-0.2,0.2l0,0v14.7l0,0c0.2,0,0.2,0.1,0.2,0.2l0,0l0,0l0,0c0.2,0,0.2,0.1,0.2,0.2v50.1c0,0.2-0.1,0.2-0.2,0.2l0,0
		v0.1c0,0.2-0.1,0.2-0.2,0.2l0,0v14.3l0,0C270.4,299.2,270.6,299.3,270.6,299.4z M296.8,311.4L296.8,311.4c0-0.5,0.1-0.5,0.2-0.5
		h28.4c0.2,0,0.2,0.1,0.2,0.2v0.2v0.2c0,0.2-0.1,0.2-0.2,0.2h-28.4c-0.2,0-0.2-0.1-0.2-0.2V311.4L296.8,311.4z"/>
	<path fill="#CCCCCC" d="M-114,407.8L-114,407.8h1.8c0.2,0,0.2,0.1,0.2,0.2v4.4h6.2c-0.1,0-0.1-0.2-0.1-0.2l0,0l0,0v-0.1l0.1-0.9
		c0.2-3.1,3-5.6,6-6.2l0.9-0.1l0,0v-0.1l0,0v-2.2h-0.5c-0.2,0-0.2-0.1-0.2-0.2V400l-0.9-0.1c-3.1-0.5-5.4-3-6-6l-0.1-1.3l0,0l0,0
		l0,0l0,0l0,0l0,0l0,0l0,0l0,0l0,0l0,0l0,0h6.7v-0.7h-19.2v10.9c0,0.2-0.1,0.2-0.2,0.2h-1.9c-0.2,0-0.2-0.1-0.2-0.2v-10.9h-20.6V402
		h0.7c0.2,0,0.2,0.1,0.2,0.2v0.2c0,0.2-0.1,0.2-0.2,0.2h-0.7l0,0h0.7c0.2,0,0.2,0.1,0.2,0.2v3.6c0,0.2-0.1,0.2-0.2,0.2h-1.8v8.4
		h28.8v-6.9C-114.4,408.2-114.3,407.8-114,407.8z"/>
	<path fill="#CCCCCC" d="M463,144.5c0.5-3.1,3.2-5.6,6.2-6h0.7h0.1l0,0c0,0,0.1,0,0.2,0c0,0,0.1,0,0.2,0l0,0c0.2,0,0.2,0.1,0.2,0.2
		c0,0.1-0.1,0.2-0.2,0.2v6.3l0,0l0,0h0.2v-15h-21.3v10.1c0,0.2-0.1,0.2-0.2,0.2l0,0h-2l0,0c-0.2,0-0.2-0.1-0.2-0.2v-10.1h-16.8v3.2
		c0,0.2-0.1,0.2-0.2,0.2l0,0l0,0h-5.3v11.2h3.2l0,0c0.1,0,0.2,0.1,0.2,0.2h0.7c0.2,0,0.2,0.1,0.2,0.2v0.2l0,0c0,0.2-0.1,0.2-0.2,0.2
		l0,0h-0.8v0.2c0,0.2-0.1,0.2-0.2,0.2l0,0h-3.9v13.8h34.6v-10.8h-0.8c-0.2,0-0.2-0.1-0.2-0.2v-0.2c0-0.2,0.1-0.2,0.2-0.2h0.7v-3.3
		c0-0.2,0.1-0.2,0.2-0.2l0,0h4.1l0,0l0,0c0,0,0,0,0.1,0L463,144.5z M432.1,158.5c0,0.2-0.1,0.2-0.2,0.2h-0.9c-0.2,0-0.2-0.1-0.2-0.2
		l0,0c0-0.2,0.1-0.2,0.2-0.2h0.9C432,158.1,432.1,158.1,432.1,158.5L432.1,158.5z"/>
	<path fill="#CCCCCC" d="M-177.3,249.8c0-0.2,0.1-0.2,0.2-0.2l0,0h1.3l0,0l0,0v-23.7l0,0v-0.1h-1.3l0,0l0,0c-0.2,0-0.2-0.1-0.2-0.2
		V222l0,0v-15.3c0-0.2,0.1-0.2,0.2-0.2h0.2l0,0c0-0.2,0.1-0.2,0.2-0.2l0,0h0.2v-6.6h-0.2c-0.1,0-0.2,0-0.2-0.1c0,0-0.1-0.1-0.1-0.2
		l0,0h-0.2l0,0l0,0c-0.2,0-0.2-0.1-0.2-0.2v-3h-7.8h-3.9h-9.7v22.1v36.1h21.3v-0.9C-177.3,253.2-177.3,249.8-177.3,249.8z"/>
	<path fill="#CCCCCC" d="M20.2,523.4c0,0-0.1,0.1-0.2,0.1H-1.5v10.7h3h11.2c0.2,0,0.2,0.1,0.2,0.2c0,0.2-0.1,0.2-0.2,0.2H1.8v6.4H20
		l0,0c0.2,0,0.2,0.1,0.2,0.2v5.4h15.6v-13.1c0-0.2,0.1-0.2,0.2-0.2l0,0H39v-3.8c0,0,0,0,0-0.1l-0.9-0.1c-3.2-0.6-5.4-3.2-6-6.2v-0.7
		v-0.1v0.1c0,0,0,0,0-0.1l0,0v-0.1c0-0.2,0.1-0.2,0.2-0.2c0.1,0,0.2,0.1,0.2,0.2h6.3l0,0v-0.5h-2.2l0,0H20.2L20.2,523.4
		C20.2,523.2,20.2,523.4,20.2,523.4z"/>
	<path fill="#CCCCCC" d="M604.8,391.2L604.8,391.2h-3.6l0,0l0,0c-0.2,0-0.2-0.1-0.2-0.2v-1.7h-1.1h-6.2h-7.8V409
		c0,0.2-0.1,0.2-0.2,0.2l0,0h-2v2.5l0,0l0,0l0.7,0.1c3.1,0.5,5.4,3.1,6,6.2l0.1,0.9v0.1l0,0v0.1c0,0.2-0.1,0.2-0.2,0.2l0,0
		c-0.1,0-0.2-0.1-0.2-0.2h-6.4c0,0,0,0,0,0.1l0,0v0.5h28v-30.6h-6.9v1.7C604.9,390.9,604.8,391.2,604.8,391.2z"/>
	<path fill="#CCCCCC" d="M487.2,145.3C487.2,145.3,487.2,145.4,487.2,145.3L487.2,145.3h0.2c0.1,0,0.2,0,0.2,0.1
		c0,0,0.1,0.1,0.1,0.2l0,0h6.4l0,0c0-0.2,0.1-0.2,0.2-0.2h0.1l0,0l0,0l0,0h0.1l0,0V128h-12.9v3c0,0.2-0.1,0.2-0.2,0.2H473v5.9h7.9
		c0.2,0,0.2,0.1,0.2,0.2v7.9h5.6C487.1,145.3,487.1,145.3,487.2,145.3L487.2,145.3z"/>
	<path fill="#CCCCCC" d="M582,419.3C582,419.3,582,419.2,582,419.3C582,419.2,582,419.2,582,419.3L582,419.3l0.1-0.2l0,0
		c0-0.2,0.1-0.2,0.2-0.2l0,0v-6.4l0,0c-0.2,0-0.2-0.1-0.2-0.2v-0.1l0,0c0,0,0,0,0-0.1l0,0v-0.1l0,0v-2.5h-6.7l0,0l0,0h-0.1l0,0l0,0
		h-0.2c-0.2,0-0.2-0.1-0.2-0.2l0,0V409h-6.4v0.1c0,0.2-0.1,0.2-0.2,0.2H568l0,0l0,0h-0.1l0,0h-4.7l0,0l0,0h-3.2l0,0l0,0H559l0,0
		c-0.2,0-0.2-0.1-0.2-0.2v-17.6h-0.9c-0.2,0-0.2-0.1-0.2-0.2v-1.7h-3.2h-6.3h-3.2h-6.3h-3.1h-6.3h-3.2h-6.3h-2.6v1.7l0,0v15l0,0v3
		c0,0.2-0.1,0.2-0.2,0.2l0,0h-2.2l0,0l0,0c0,0,0,0,0,0.1h6.3c0-0.1,0.2-0.2,0.2-0.2c0.2,0,0.2,0.1,0.2,0.2v0.2l0,0l0,0v0.1
		c0,0,0,0,0,0.1v0.1v0.7c-0.6,3.2-3,5.4-6,6.3l-0.9,0.1l0,0l0,0v3h0.2h0.1l0,0l0,0l0,0h0.1c0.1,0,0.2,0,0.2,0.1c0,0,0.1,0.1,0.1,0.2
		l0,0h6.4l0,0l0,0c0-0.2,0.1-0.2,0.2-0.2h0.2l0,0l0,0l0,0h0.1h27.8h0.1l0,0l0,0l0,0h0.1c0.1,0,0.2,0,0.2,0.1s0.1,0.1,0.1,0.2l0,0
		h6.4l0,0l0,0c0-0.2,0.1-0.2,0.2-0.2h0.1l0,0l0,0l0,0h0.1h2.2l0,0c0.2,0,0.2,0.1,0.2,0.2v9c1.1-3.1,3.7-4.9,7-4.9
		c3.6,0,6.4,2.2,7.1,6l0.1,0.9c0,0,0,0,0.1,0l0,0h6.4V430l0,0v-0.1l0,0c0,0,0,0,0-0.1l0,0v-0.5c0-0.2,0.1-0.2,0.2-0.2l0,0v-6.4l0,0
		c-0.2,0-0.2-0.1-0.2-0.2l0,0v-0.1l0,0c0,0,0,0,0-0.1l0,0v-0.1l0,0L582,419.3L582,419.3C582,419.6,582,419.3,582,419.3z"/>
	<path fill="#CCCCCC" d="M-101,371.5c-0.2,0-0.2-0.1-0.2-0.2l0,0v-3.6v-3.8h-10.2l0,0c0,0,0,0-0.1,0l-0.1,0.7
		c-0.7,3.3-3.2,5.6-6.3,6l-0.9,0.1h-0.1l0,0h-0.1l0,0c-0.2,0-0.2-0.1-0.2-0.2s0.1-0.2,0.2-0.2v-6.4l0,0l0,0l0,0h-0.7v23.2h21.5
		v-15.6L-101,371.5L-101,371.5z"/>
	<path fill="#CCCCCC" d="M44.2,574.2c0,0.2-0.1,0.2-0.2,0.2h-7.1v9.3h15v-9.7L44.2,574.2L44.2,574.2z"/>
	<path fill="#CCCCCC" d="M-88.8,364.7c-0.6,3.2-3,5.4-6.2,6h-0.7h-0.1c0,0,0,0-0.1,0H-96l0,0l0,0h-0.2l0,0c-0.2,0-0.2-0.1-0.2-0.2
		s0.1-0.2,0.2-0.2v-6.4l0,0H-97v7.5v16h21.9v-6.7v-6.3l0,0v-10.1h-13.1c0,0,0,0-0.1,0L-88.8,364.7z"/>
	<path fill="#CCCCCC" d="M-145.3,190.9v-18.9h-0.5l0,0v6.3c0.1,0,0.2,0.2,0.2,0.2c0,0.2-0.1,0.2-0.2,0.2l0,0h-0.1l0,0h-0.1
		c0,0,0,0-0.1,0c-0.1,0-0.1,0-0.1,0h-0.7c-3.2-0.5-5.4-2.6-6.3-6l0,0l-0.1-0.9c0,0,0,0-0.1,0h-11.7v21.1h20.1v-2L-145.3,190.9
		L-145.3,190.9z"/>
	<path fill="#CCCCCC" d="M57,583.8h15v-9.3h-7c-0.2,0-0.2-0.1-0.2-0.2l0,0h-7.6L57,583.8L57,583.8z"/>
	<path fill="#CCCCCC" d="M-141.4,190.8c0.2,0,0.2,0.1,0.2,0.2v2.2h22.5h17V191l0,0l0,0c0-0.2,0.1-0.2,0.2-0.2h0.9v-9.8
		c0,0,0,0,0-0.1l-0.7-0.1c-3-0.2-5.6-3.2-6-6.2v-0.7c0,0,0,0,0-0.1l0,0c0,0,0-0.1,0-0.2c0,0,0-0.1,0-0.2c0-0.2,0.1-0.2,0.2-0.2
		c0.1,0,0.2,0,0.2,0.1h6.3l0,0v-0.7h-36.8v1.4c0,0.2-0.1,0.2-0.2,0.2l0,0h-6.3v17h2.5L-141.4,190.8L-141.4,190.8z"/>
	<path fill="#CCCCCC" d="M-122,342L-122,342l-0.9-0.2c-3.2-0.6-5.4-3-6-6.2v-0.7v-0.1c0,0,0,0,0-0.1v-0.1l0,0l0,0v-0.2
		c0-0.2,0.1-0.2,0.2-0.2c0.1,0,0.2,0.1,0.2,0.2h6.4l0,0l0,0v-0.6h-21.3v18.1h21.1v-9.7h0.4C-122,342.1-122,342-122,342z"/>
	<path fill="#CCCCCC" d="M-114.6,319.3c0.6-3.2,3-5.4,6.2-6h0.7h0.1c0,0,0,0,0.1,0h0.1l0,0l0,0h0.2c0.2,0,0.2,0.1,0.2,0.2
		c0,0.1-0.1,0.2-0.2,0.2v6.4c0,0,0,0,0.1,0h0.5v-27.6h-16.8v27.6h8.5c0,0,0,0,0.1,0L-114.6,319.3z"/>
	<path fill="#CCCCCC" d="M-124.9,321.4v-29h-18.2v30.5h1.8c0.1,0,0.2,0,0.2,0.1c0,0.1,0.1,0.1,0.1,0.2v3.6c0,0.2-0.1,0.2-0.2,0.2
		l0,0h-1.7v4.9h21.1v-0.5l0,0l0,0h-6.4c0,0.1-0.1,0.2-0.2,0.2l0,0c-0.2,0-0.2-0.1-0.2-0.2v-0.2l0,0l0,0V331c0,0,0,0,0-0.1v-0.1V330
		c0.6-3.3,3-5.4,6-6.2l0.9-0.1c0,0,0,0,0-0.1l0,0l0,0v-2h-2.8l0,0C-124.9,321.6-124.9,321.6-124.9,321.4z"/>
	<path fill="#CCCCCC" d="M-70.6,129.3c0,0.2-0.1,0.2-0.2,0.2h-3.3v0.2h3.3c0.2,0,0.2,0.1,0.2,0.2c0,0.1-0.1,0.2-0.2,0.2h-3.3v9.3h15
		v-9.3h-3.6c-0.2,0-0.2-0.1-0.2-0.2c0-0.1,0.1-0.2,0.2-0.2h3.3v-0.2h-3.3c-0.2,0-0.2-0.1-0.2-0.2v-0.1L-70.6,129.3L-70.6,129.3
		L-70.6,129.3z"/>
	<path fill="#CCCCCC" d="M-122.8,361.3c-3.2-0.6-5.4-3-6-6.2v-0.7v-0.1c0,0,0,0,0-0.1l0,0l0,0l0,0V354c0-0.1,0-0.2,0.1-0.2H-143
		v13.8h1.8c0.1,0,0.2,0,0.2,0.1c0,0.1,0.1,0.1,0.1,0.2v3.6c0,0.2-0.1,0.2-0.2,0.2h-1.8v15.6h21.1v-25.7v-0.1l0,0h-1.1L-122.8,361.3
		L-122.8,361.3z"/>
	<path fill="#CCCCCC" d="M-145.3,253.6h-6.4c-0.2,0-0.2-0.1-0.2-0.2l0,0l0,0l0,0c-0.2,0-0.2-0.1-0.2-0.2l0,0h-13.6l0,0
		c0,0.2-0.1,0.2-0.2,0.2l0,0l0,0c0,0.2-0.1,0.2-0.2,0.2l0,0h-6l0,0h-1.7V279h1.7c0.1,0,0.2,0,0.2,0.1s0.1,0.1,0.1,0.2v2h27.1v-2
		L-145.3,253.6L-145.3,253.6z"/>
	<path fill="#CCCCCC" d="M-96.2,319.3c0.5-3.1,3-5.4,6.2-6h0.7h0.1c0,0,0,0,0.1,0h0.1l0,0l0,0h0.2c0.2,0,0.2,0.1,0.2,0.2
		c0,0.1-0.1,0.2-0.2,0.2v6.4l0,0h0.5v-27.6H-105v27.6h8.5c0,0,0,0,0.1,0v-0.9L-96.2,319.3L-96.2,319.3z"/>
	<path fill="#CCCCCC" d="M-69.5,173.4c-0.2,0-0.2,0.1-0.2,0.2v8.3c0,0.2,0.1,0.2,0.2,0.2h11.6c0.1,0,0.1,0,0.2-0.1v-8.6
		c0,0-0.1-0.1-0.2-0.1L-69.5,173.4L-69.5,173.4z M-58.1,181.7h-11.1v-7.6h11.2v7.6H-58.1z"/>
	<path fill="#3964AF" d="M179.2,129.8h7v0.2h0.2l0,0v-0.7h-7.7v0.1C178.7,129.6,179,129.8,179.2,129.8z"/>
	<g>
		
			<rect x="151.8" y="115.3" transform="matrix(-3.236213e-03 -1 1 -3.236213e-03 37.6735 278.9597)" fill="#FFFFFF" width="12.2" height="10.8"/>
		<polygon fill="#496CB4" points="153.1,110.4 161.6,110.2 157.6,117.9 		"/>
	</g>
	<g>
		
			<rect x="213.8" y="121.9" transform="matrix(-3.236213e-03 -1 1 -3.236213e-03 93.367 347.5602)" fill="#FFFFFF" width="12.2" height="10.8"/>
		<polygon fill="#496CB4" points="215.4,117 223.9,116.9 219.8,124.5 		"/>
	</g>
	<g>
		
			<rect x="267.7" y="115.3" transform="matrix(-3.236213e-03 -1 1 -3.236213e-03 154.0656 394.8499)" fill="#FFFFFF" width="12.2" height="10.8"/>
		<polygon fill="#496CB4" points="269.3,110.3 277.8,110.2 273.8,117.7 		"/>
	</g>
	<g>
		
			<rect x="280.8" y="114.7" transform="matrix(-3.236213e-03 -1 1 -3.236213e-03 167.7411 407.4392)" fill="#FFFFFF" width="12.2" height="10.8"/>
		<polygon fill="#496CB4" points="282.4,110.2 291.3,109.9 287,117.5 		"/>
	</g>
	<g>
		
			<rect x="351.9" y="114.9" transform="matrix(-3.236213e-03 -1 1 -3.236213e-03 238.8887 478.6888)" fill="#FFFFFF" width="12.2" height="10.8"/>
		<polygon fill="#496CB4" points="353.2,110.2 361.9,109.9 357.7,117.5 		"/>
	</g>
	<g>
		
			<rect x="408" y="114.8" transform="matrix(-3.236213e-03 -1 1 -3.236213e-03 295.231 534.6577)" fill="#FFFFFF" width="12.2" height="10.8"/>
		<polygon fill="#496CB4" points="409.5,110.2 418.1,109.9 413.8,117.5 		"/>
	</g>
	<g>
		
			<rect x="499.5" y="114.9" transform="matrix(-3.236213e-03 -1 1 -3.236213e-03 386.88 626.2418)" fill="#FFFFFF" width="12.2" height="10.8"/>
		<polygon fill="#496CB4" points="501,110.2 509.6,109.9 505.3,117.5 		"/>
	</g>
	<g>
		
			<rect x="489" y="378.7" transform="matrix(-3.236213e-03 -1 1 -3.236213e-03 112.6855 880.4062)" fill="#FFFFFF" width="12.2" height="10.8"/>
		<polygon fill="#496CB4" points="490.6,374.3 499.1,373.8 495.1,381.4 		"/>
	</g>
	<g>
		
			<rect x="515.8" y="114.9" transform="matrix(-3.236213e-03 -1 1 -3.236213e-03 403.3661 642.544)" fill="#FFFFFF" width="12.2" height="10.8"/>
		<polygon fill="#496CB4" points="517.4,110.2 525.9,109.9 521.8,117.5 		"/>
	</g>
	<g>
		
			<rect x="501.3" y="195.3" transform="matrix(3.236125e-03 1 -1 3.236125e-03 706.4124 -307.3877)" fill="#FFFFFF" width="12.2" height="10.8"/>
		<polygon fill="#496CB4" points="512.1,211 503.6,211.4 507.7,203.8 		"/>
	</g>
	<g>
		
			<rect x="558.2" y="114.7" transform="matrix(-3.236213e-03 -1 1 -3.236213e-03 445.9573 684.7534)" fill="#FFFFFF" width="12.2" height="10.8"/>
		<polygon fill="#496CB4" points="559.8,110.2 568.3,109.9 564.3,117.5 		"/>
	</g>
	<g>
		
			<rect x="609.2" y="115" transform="matrix(-3.236213e-03 -1 1 -3.236213e-03 496.9118 736.0343)" fill="#FFFFFF" width="12.2" height="10.8"/>
		<polygon fill="#496CB4" points="610.8,110.2 619.4,109.9 615.2,117.5 		"/>
	</g>
	<g>
		<g>
			
				<rect x="355.2" y="314.5" transform="matrix(3.236125e-03 1 -1 3.236125e-03 679.9832 -42.3704)" fill="#FFFFFF" width="12.2" height="10.8"/>
			<polygon fill="#496CB4" points="366.1,330.2 357.4,330.4 361.4,322.8 			"/>
		</g>
		<path fill="#3964AF" d="M354.9,310.2L354.9,310.2v6.7h0.5c3-0.5,5.1-2.6,5.4-5.4l0.1-1.3l0,0l0,0H354.9L354.9,310.2z"/>
		<path fill="#3964AF" d="M368.1,310.2h-6.3l0,0l0,0l0.1,1.4c0.6,3,2.8,4.9,5.4,5.4h0.5L368.1,310.2L368.1,310.2z"/>
	</g>
	<g>
		<g>
			
				<rect x="413.1" y="314.5" transform="matrix(3.236125e-03 1 -1 3.236125e-03 737.6545 -100.3215)" fill="#FFFFFF" width="12.2" height="10.8"/>
			<polygon fill="#496CB4" points="423.7,330.2 415.1,330.4 419.2,322.8 			"/>
		</g>
		<path fill="#3964AF" d="M412.5,310.2L412.5,310.2v6.7h0.5c3-0.5,5.1-2.6,5.4-5.4l0.1-1.3l0,0l0,0H412.5L412.5,310.2z"/>
		<path fill="#3964AF" d="M425.5,310.2h-6.3l0,0l0,0l0.1,1.4c0.6,3,2.8,4.9,5.4,5.4h0.5L425.5,310.2L425.5,310.2z"/>
	</g>
	<g>
		<g>
			
				<rect x="350.3" y="377.4" transform="matrix(-3.236213e-03 -1 1 -3.236213e-03 -25.2191 740.4351)" fill="#FFFFFF" width="12.2" height="10.8"/>
			<polygon fill="#496CB4" points="351.9,372.8 360.4,372.3 356.2,380 			"/>
		</g>
	</g>
	<g>
		<g>
			
				<rect x="433.3" y="314.5" transform="matrix(3.236125e-03 1 -1 3.236125e-03 757.9404 -120.5416)" fill="#FFFFFF" width="12.2" height="10.8"/>
			<polygon fill="#496CB4" points="444.2,330.2 435.4,330.4 439.6,322.8 			"/>
		</g>
		<path fill="#3964AF" d="M432.9,310.2L432.9,310.2v6.7h0.5c3-0.5,5.1-2.6,5.4-5.4l0.1-1.3l0,0l0,0H432.9L432.9,310.2z"/>
		<path fill="#3964AF" d="M445.9,310.2h-6.3l0,0l0,0l0.1,1.4c0.6,3,2.8,4.9,5.4,5.4h0.5L445.9,310.2L445.9,310.2z"/>
	</g>
	<g>
		<g>
			
				<rect x="482.3" y="314.6" transform="matrix(3.236125e-03 1 -1 3.236125e-03 806.8173 -169.4656)" fill="#FFFFFF" width="12.2" height="10.8"/>
			<polygon fill="#496CB4" points="492.9,330.2 484.4,330.4 488.7,322.8 			"/>
		</g>
		<path fill="#3964AF" d="M482,310.2L482,310.2v6.7h0.5c3-0.5,5.1-2.6,5.4-5.4l0.1-1.3l0,0l0,0H482L482,310.2z"/>
		<path fill="#3964AF" d="M495.1,310.2h-6.3l0,0l0,0l0.1,1.4c0.6,3,2.8,4.9,5.4,5.4h0.5L495.1,310.2L495.1,310.2z"/>
	</g>
	<g opacity="0.25">
		<polygon fill="#CCCCCC" points="532.1,349.2 532.1,316.9 525,316.9 525,197.5 502.5,197.5 502.5,316.9 266.5,316.9 266.5,349.2 
			265.1,349.2 265.1,200.3 239.9,200.3 239.9,349.2 -38.3,349.2 -38.3,200.3 -69.1,200.3 -69.1,381.4 -63.6,381.4 -38.3,381.4 
			651.6,381.4 651.6,349.2 		"/>
		<rect x="112.1" y="90.8" fill="#CCCCCC" width="538.1" height="30.9"/>
		<rect x="-184.4" y="96.2" fill="#CCCCCC" width="179.9" height="25.3"/>
	</g>
	<g>
		
			<text transform="matrix(1 0 0 1 133.9472 169.2179)" fill="#FFFFFF" font-family="'TradeGothic-BoldCondTwenty'" font-size="8.4287">1400</text>
	</g>
	<g>
		
			<text transform="matrix(1 0 0 1 189.3378 169.2179)" fill="#FFFFFF" font-family="'TradeGothic-BoldCondTwenty'" font-size="8.4287">1401</text>
	</g>
	<g>
		
			<text transform="matrix(1 0 0 1 244.7128 169.2179)" fill="#FFFFFF" font-family="'TradeGothic-BoldCondTwenty'" font-size="8.4287">1402</text>
	</g>
	<g>
		
			<text transform="matrix(1 0 0 1 306.2753 169.2179)" fill="#FFFFFF" font-family="'TradeGothic-BoldCondTwenty'" font-size="8.4287">1403</text>
	</g>
	<g>
		
			<text transform="matrix(1 0 0 1 456.5566 277.7179)" fill="#FFFFFF" font-family="'TradeGothic-BoldCondTwenty'" font-size="8.4287">1503</text>
	</g>
	<g>
		
			<text transform="matrix(1 0 0 1 456.5566 213.0124)" fill="#FFFFFF" font-family="'TradeGothic-BoldCondTwenty'" font-size="8.4287">1502</text>
	</g>
	<g>
		
			<text transform="matrix(1 0 0 1 378.8222 169.2179)" fill="#FFFFFF" font-family="'TradeGothic-BoldCondTwenty'" font-size="8.4287">1404</text>
	</g>
	<g>
		
			<text transform="matrix(1 0 0 1 378.8222 261.8273)" fill="#FFFFFF" font-family="'TradeGothic-BoldCondTwenty'" font-size="8.4287">1501</text>
	</g>
	<g>
		
			<text transform="matrix(1 0 0 1 529.7441 169.2179)" fill="#FFFFFF" font-family="'TradeGothic-BoldCondTwenty'" font-size="8.4287">1405</text>
	</g>
	<g>
		
			<text transform="matrix(1 0 0 1 576.0722 169.2179)" fill="#FFFFFF" font-family="'TradeGothic-BoldCondTwenty'" font-size="8.4287">1406</text>
	</g>
	<g>
		
			<text transform="matrix(1 0 0 1 619.8066 169.2179)" fill="#FFFFFF" font-family="'TradeGothic-BoldCondTwenty'" font-size="8.4287">1407</text>
	</g>
</g>
<g>
	<path fill="#496CB4" d="M455,170.5c-0.9,0-1.7-0.6-1.7-1.7c0-0.9,0.6-1.7,1.7-1.7c0.9,0,1.7,0.6,1.7,1.7
		C456.7,169.4,456.1,170.5,455,170.5z"/>
	<path fill="#496CB4" d="M456.1,170.9c1.7,0,2.1,1.2,2.6,2l1.5,4.7c0.1,0.5,0,0.9-0.4,0.9c-0.4,0-0.6-0.1-0.9-0.5l-1.4-4.4
		c-0.1-0.4-0.4-0.4-0.5-0.4c-0.4,0.1-0.4,0.4-0.1,0.5l2.2,7.9h-2.7c0,3.1,0,6,0,6c0,0.9-0.4,0.9-0.6,0.9c-0.1,0-0.6-0.1-0.6-0.9
		c0-0.8,0-5.9,0-5.9c0-0.4-0.1-0.4-0.4-0.4c-0.1,0-0.4,0.1-0.4,0.4c0,0,0,4.7,0,5.9c0,1.1-0.4,0.9-0.6,0.9c-0.1,0-0.6-0.1-0.6-0.9
		c0,0,0-2.7,0-6h-2.2l2.2-7.9c0.1-0.4,0.1-0.5-0.1-0.5c-0.4-0.1-0.4,0.1-0.5,0.4l-1.4,4.4c-0.1,0.4-0.4,0.5-0.9,0.5
		c-0.4-0.1-0.5-0.4-0.4-0.9l1.5-4.7c0.4-0.6,0.6-2,2.6-2H456.1z"/>
</g>
<g>
	<g>
		<path fill="#496CB4" d="M438.7,138.2c-0.9,0-1.7-0.6-1.7-1.7s0.6-1.7,1.7-1.7c0.9,0,1.7,0.6,1.7,1.7S439.4,138.2,438.7,138.2z"/>
	</g>
	<path fill="#496CB4" d="M435.7,142.4v3.6c0,0.6-0.4,0.9-0.6,0.9s-0.6-0.1-0.6-0.9v-4.6c0-2,0.9-2.6,2.7-2.6h2.7
		c1.7,0,2.7,0.5,2.7,2.6v4.6c0,0.6-0.4,0.9-0.6,0.9s-0.6-0.1-0.6-0.9v-3.6c0-0.4-0.4-0.4-0.4-0.4s-0.4,0.1-0.4,0.4
		c0,0.5,0,12.3,0,12.3c0,0.9-0.6,0.9-0.9,0.9c-0.4,0-0.9-0.1-0.9-0.9c0-0.6,0-7.1,0-7.1c0-0.1,0-0.4-0.4-0.4c-0.1,0-0.4,0.1-0.4,0.4
		c0,0,0,6.5,0,7.1c0,0.9-0.6,0.9-0.9,0.9c-0.1,0-0.9-0.1-0.9-0.9c0,0,0-11.6,0-12.3c0-0.4-0.4-0.4-0.4-0.4S435.7,141.9,435.7,142.4z
		"/>
</g>
</svg>
