<?xml version="1.0" encoding="UTF-8"?>
<svg xmlns="http://www.w3.org/2000/svg" xmlns:xlink="http://www.w3.org/1999/xlink" viewBox="0 0 899.99969 1035.9996" fill-rule="evenodd">
   <defs>
      <path id="D" d="m197.68 1087.65l25.683 -40.28" stroke="#6b6ed4" stroke-linejoin="bevel" fill="none" />
      <path id="E" d="m382.55 956.86l4.099 6.35 1.014 2.549.208 2.604 -.181 1.913" stroke="#6b6ed4" stroke-linejoin="bevel" fill="none" />
      <rect id="F" width="51.06" x="-54.931" y="857.27" rx="13.632" height="30.938" stroke-linejoin="round" stroke="#1b33ac" opacity=".99" fill-rule="nonzero" fill="#1b33ac" stroke-width="2.111" stroke-linecap="round" />
      <linearGradient id="C" gradientUnits="userSpaceOnUse" x1="-234.4" x2="-224.52">
         <stop />
         <stop offset="1" stop-opacity="0" />
      </linearGradient>
      <pattern xlink:href="#9" id="8" patternTransform="matrix(7.2141246,0,0,10.599537,-273.02676,481.04604)" />
      <pattern xlink:href="#A" id="7" patternTransform="matrix(9.8158555,0,0,11.585923,9.8695131,-59.808679)" />
      <pattern xlink:href="#A" id="9" patternTransform="matrix(7.2141246,0,0,10.599537,-273.02676,481.04604)" />
      <pattern id="B" patternTransform="translate(0,0) scale(10,10)" height="1" width="2" patternUnits="userSpaceOnUse">
         <path d="m 0 -.5h1v2h -1z" />
      </pattern>
      <pattern xlink:href="#B" id="A" patternTransform="matrix(9.8158555,0,0,11.585923,9.8695131,-59.808679)" />
      <pattern xlink:href="#8" id="6" patternTransform="matrix(7.2141246,0,0,10.599537,-272.5223,480.54162)" />
      <pattern xlink:href="#3" id="1" patternTransform="matrix(2.8157682,0,0,3.3235283,4.5403286,728.74803)" />
      <pattern xlink:href="#1" id="0" patternTransform="matrix(2.8157682,0,0,3.2094547,4.5403286,733.01403)" />
      <pattern xlink:href="#4" id="2" patternTransform="matrix(1.9393261,0,0,3.0405744,-70.713861,882.94718)" />
      <pattern xlink:href="#6" id="4" patternTransform="matrix(2.0694378,0,0,3.0405744,-76.611062,883.89716)" />
      <pattern xlink:href="#7" id="5" patternTransform="matrix(9.8158555,0,0,11.585923,10.373976,-60.313096)" />
      <pattern xlink:href="#5" id="3" patternTransform="matrix(2.8157682,0,0,3.3235283,4.5403286,728.74803)" />
   </defs>
   <g transform="translate(319.03 -378.73)">
      <path opacity=".99" fill="#b7b7c8" fill-rule="nonzero" d="m -319.03 380.03h895.89v1032.59h -895.89z" />
      <rect y="908.88" x="5.333" height="132.65" width="64.47" opacity=".99" stroke-linejoin="round" stroke-linecap="round" stroke-width=".452" rx="2.635" transform="matrix(3.45207 0 0 3.45264 -323.58 -2196.51)" fill="none" stroke="#fffcfc" />
      <g fill-rule="nonzero">
         <path d="m80.21 752.51c -15.989 3.152 -18.05 6.303 -25.511 9.455h363.37l -21.998 -8.08 -20.385 -3.449 -280.46.691z" color="#000" stroke-width=".958" fill="#fff" stroke="#000" />
         <path d="m335.04 900.8l-36.809-.014v-66.28h-9.903v-58.59l125.04-.035c15.754 1.514 41.34 12.807 42.31 38.537v38.577c-.577 14.14-6.36 19.249-12.03 24.793l -23.743 2.894 -85.18.32z" fill="#e2e3db" stroke="none" />
      </g>
      <g fill="none" stroke="#fff">
         <path d="m443.67 860.29c-.101 9.852-.837 17.303-2.801 21.565-7.838 22.04-12.333 20.815-18.206 29.06l-.35.35" stroke-linecap="square" stroke-width="7.923" />
         <g stroke-linecap="round">
            <path d="m468.99 1043.15c-2.646 6.693-5.476 12.927-9.114 17.14-5.82 5.431-12.644 10.193-21.26 13.759-7.688 2.057-10.01 6.626-40.727 5.38l-17.474-2.322-6.208-1.093-6.271-3.49-17.872-15.204-14.12-12.386-32.3-32.923" stroke-linejoin="round" stroke-width="9.903" />
            <path d="m508.67 1200.83c6.423-2.56 12.261-.166 18.607-48.17 3.163-23.363 1.449-36.971-2.378-46.35-6.253-13.632-11.418-16.11-18.556-24.16l-21.357-15.06c-6.306-5.393-9.913-10.247-11.554-14.707l-14.354-38.17c-2.405-8.798-3.982-19.269-4.551-31.865-.572-5.566.576-17.441 2.801-33.27l6.302-54.976" stroke-width="7.923" />
         </g>
      </g>
      <path d="m116.97 853.73c-4.632 1.053-5.229 2.106-7.39 3.159h105.26l-6.372-2.769-5.905-1.082-81.24.231z" color="#000" fill-rule="nonzero" stroke-width=".298" fill="url(#0)" stroke="#000" transform="matrix(3.45207 0 0 2.89162-323.58-1715.78)" />
      <g fill="#e2e3db">
         <path d="m76.18 774.92l48.16.003.159 36.35 68.55-.003c4.302 0 2.642-1.92 6.11-3.272l-2.162 17.865-104.65.109-13.947.114c-3.555.028-4.616 2.081-6.761 2.96-3.309-8.311.422-15.757 4.787-36.672 1.018-4.877.363-10.671-.25-17.451z" />
         <g fill-rule="nonzero">
            <path d="m-95.62 786.23c7-3.797 14.824-12.12 20.966-11.2l55.15.13 44.22-.401c-3.864 3.24-7.56 6.144-13.228 12.994-7.997 9.267-11.11 18.204-13.318 24.2-4.02 8.21-6.729 22.298-7.185 28.739-1.061 6.385.181 16.457.783 21.18l2.462 14.738-34.09-31.956-45.16-47.22z" />
            <path d="m67.41 900.71c-6.111-.335-14.852-4.353-23.2-7.814-8.265-3.97-14.468-10.347-20.816-16.556-8.05-7.805-12.212-12.65-14.293-19.708-3.643-9.414-.672-19.694 1.589-30.02 3.602-9.725 2.708-17.606 18.12-33.74 2.935-3.03 10.447-9.265 20.805-14.617 5.95-3.473 9.179-3.657 12.01-3.392.257 6.137.114 12.76-.553 16.587-6.159 21.374-7.631 30.691-3.91 40.31 2.952 9.212 5.852 11.122 5.463 21.727.41 5.165.122 18.01.114 27.763.737 6.485 1.216 12.969 4.659 19.454" />
            <path d="m280.93 972.78l-14.12-16.09-30.918-33.829c-6.903-5.74-11.369-11.1-25.23-17.712-12.928-5.205-23.11-8.994-36.562-8.576-9.06-1.681-45.843 5.289-69.33 7.851-6.344-1.036-13.378-1.658-17.531-4.01-5.069-2.87-7.855-8.698-8.843-15.07v-40.08c-.711-4.594 1.853-3.842 5.183-3.825 36.985.189 73.966.324 110.95 0 7.222-.256 15.15-.014 19.699 4.595 16.244 16.471 36.19 35.803 52.08 51.819 17.943 17.423 75.51 2.59 82.46 15.221z" />
         </g>
      </g>
      <g fill="none" stroke-linejoin="round">
         <g stroke="#fff">
            <path d="m103.13 912.36c-10.09-3.156-20.18.165-30.27-16.302-2.751-6.38-2.504-13.218-2.875-20.04.346-11.76.09-22.278.322-34.04.473-3.812 5.05-9.161 11.354-8.295l26.579-.028 32.23-.064 56.2-.092 11.862.408c4.914-.172 12.12 6.338 14.158 8.76m1.466 1.177l13.787 14.452c5.933 7.544 12.622 14.595 28.675 15.537l140.49-.024c8.953.229 16.845-.251 16.309-12.497" stroke-linecap="square" stroke-width="9.903" />
            <g stroke-linecap="round" stroke-width="9.656">
               <path d="m197.68 1087.65l16.987-35.893 3.96-9.385 3.02-9.67.709-10.833-1.919-11.411-4.312-10.268-4.378-6.149-6.03-5.01-7.154-3.03-7.483-1.832-6.796.047-8.677 2.077-7.04 3.637-5.348 4.616-3.932 5.231-3.41 8.293-1.054 9.358.895 8.683 3.906 9.204 5.185 6.405 6.773 5.721 22.725 10.516" />
               <path d="m192.53 1405.55l-8.836-36.13-11.453-49.787-14.458-45.891-13.931-37.423-28.22-58.15-32.738-53.25-111.76-148.91-73.52-95.47-20.264-26.16" />
               <path d="m-76.11 839.95l37.4 36.07 57.689 54.616 64.64 55.18" />
            </g>
            <path d="m388.25 1159.24l25.568 12.585 19.806 9.237c7.709 3.384 15.675 6.105 23.586 8.97 10.719 4.04 21.819 6.473 32.958 8.975 9.872 1.414 9.195 2.451 18.485 1.694" stroke-width="7.923" />
            <g stroke-linecap="round" stroke-width="9.656">
               <path d="m-232.56 687.95l31.724 34.1 100.31 106.09 73.951 94.02 54.709 67.47 27.838 36.743 39.575 64.869 28.835 57.51 38.875 88.66 12.755 59.47 5.729 24.596 6.384 34.22 4.395 31.743 1.11 11.657" />
               <path d="m83.61 985.82l13.718 11.681 7.56 4.753 8.184 3.194 7.98 1.314 7.353.192 7.254-1.962 8.416-4.462 7.312-6.07 5.506-8.171 3.279-9.343 1.763-10.157-.598-8.595-2.129-9.538-3.949-8.362-5.835-7.743-16.19-11.09" />
               <path d="m544.66 1295.14c-94.08-42.725-56.54-24.694-84.81-37.04l-57.12-28.27-14.416-8.286c-7.61-4.978-28.481-12.585-36.09-15.69" />
               <path d="m197.78 1119.68l-3.584 16.686-3.121 15.384-.364 11 1.843 9.288 3.868 9.34 6.566 7.881 8.594 6.263 7.562 2.806 9.381 1.796 9.831-1.062 8.56-2.95 7.323-4.048 9.949-9.824 5.196-9.338 1.924-12.9-2.108-12.665-4.595-9.623-5.842-7.324-7.739-5.575-11.62-5.599-13.312-5.595" />
               <path d="m223.36 1047.37l7.06-16.08 4.277-11.557 2.179-12.05.691-10.164-.604-10.74-1.99-11.607-3.907-10.299-6.352-10.897-7.917-8.917-10.09-8.154-9.898-5.821-10.864-4.496-13.936-1.01-9.19 1.403c-26.582 5.637-14.94.848-22.411 1.272" />
               <path d="m260.6 1266.51c-6.925-.93-13.85-.666-20.775-3.385-7.985-2.641-17.625-6.092-28.487-10.142" />
               <path d="m18.978 930.64l27.04 28.11 13.793 13.1 21.553 18.72 24.361 17.643 29.926 19.684 35.935 19.554" />
               <path d="m460.7 872.44c-3.56 7.489-3.413 12.666-19.08 26.671l-29.03 21.886" />
            </g>
         </g>
         <g stroke-linecap="round">
            <path d="m164.13 1170.93l3.777-17.09 3.447-11.722 3.937-10.945" stroke="#7587a1" stroke-width="9.656" />
            <g stroke="#fff">
               <path d="m410.85 922.22c-15.09 11.234-35.25 28.999-49.924 40.769l-26.01 18.209-12.06 8.517-10.987 7.931-8.04 5.763-7.909 5.821-6.222 5.195-6.283 6.525-4.842 7.8-4.243 12.434-.394 13.05 2.168 12.288 5.641 13.11 7.386 10.349 9.408 8.284 29.24 19.956" stroke-width="9.903" />
               <path d="m83.61 985.82l18.04 10.279 10.41 4.79 7.31.766 8.214-1.12 6.938-2.657 6.29-4.721 4.226-5.474 3.446-7.8.375-7.462-1.768-9.05-3.26-6.989-5.541-6.676-5.964-4.361-6.06-2.91-9.503-2.876-14.178-4.762-19.634-1.494" stroke-width="9.656" />
               <path d="m415.47 918.57c-10.296 6.708-22.19 14.322-33.6 20.14l-93.4 58.771-16.647 16.206-19.531 21.409-15.3 20.873" stroke-width="11.884" />
               <path d="m223.36 1047.37l9.106-14.202 6.551-10.978 3.814-10.522 1.794-10.706.632-11.958-1.11-12.747-3.156-11.594-7.195-12.652-7.112-10.121-7.988-9.206-10.602-8.822-9.482-5.624-10.07-4.386-9.895-3-11.486-2.218-16.04-1.252" stroke-width="9.656" />
            </g>
         </g>
         <g stroke="#fff">
            <g stroke-width="9.656">
               <path d="m574.97 1300.06c-6.585-3.715-8.887-.9.188 4.536-.0001-2.132-81.18-22.894-94.01-27.23l-35.472-12.919-18.37-4.03-19.287-2.956-17.333-1.381-13.432-.386c-15.12-.392-30.507 2.083-35.32 2.588" />
               <path d="m351.53 1205.74l-19.895-5.932-16.178-1.739-15.864.1-14.375 1.326-19.56 3.257-27.938 9.456-19.12 11.382-16.926 15.02-8.961 23.748-1.924 22.671 10.207 50.49 3.253 29.18-.764 12.44" stroke-linecap="round" />
               <path d="m385.07 1156.76l101.8 68.58 40.685 25.725 43.736 41.12" stroke-linecap="square" />
            </g>
            <g stroke-width="9.903">
               <path d="m21.782 907.92c-22.19-13.336-37.911-28.662-54.18-43.822-17.717-16.879-25.739-25.711-35.568-36.02l-40.706-43.558 24.796-17.251 39.767-.341 43.78-.136 39.1.106 29.4.087" stroke-linecap="round" />
               <path d="m70.05 853.64c-.705-12.193 1.124-3.381-2.43-16.265-1.836-5.96-3.733-8.096-4.66-13.902-.234-5.965 1.104-11.687 2.214-17.502 3.802-10.873 4.174-19.868 3.655-31.589" stroke-linecap="square" />
               <path d="m68.827 931.38c-20.249-4.085-22.681-8.568-34.02-13.86-7.108-4.801-12.398-8.64-13.911-10.479l-7.803-8.541-7.719-13.906-3.435-14.425-1.801-7.998-1.032-7.948-.333-6.829.577-8.137 1.439-7.732 2.34-9.691 3.511-9.919 4.708-10.184 4.859-6.95 7.02-8.02 5-4.529 6.966-4.675c3.821-2.253 5.952-4.059 9.981-5.894l10.19-4.712 14.219-.045 39.2.067 95.05-.031 101.85.014 70.31.024 42.482.117c15.994 3.275 18.78 4.272 29.661 13.238" stroke-linecap="round" />
            </g>
            <g stroke-linecap="round">
               <path d="m220.94 973.98c-4.798-.003-8.709-1.86-13.02-3.691-4.795-3.037-8.299-7.232-12.02-11.423l-15.456-17.74c-9.905-13.904-18.2-11.681-26.844-12.999" stroke-width="11.884" />
               <g stroke-width="9.903">
                  <path d="m147.52 928.17c-3.424-4.858-22.992-9.135-34.842-13.06-7.513-1.824-9.847-3.526-27.733-5.188-12.12-.532-19.278-.784-21.881-1.499-6.689-.411-24.315-8.622-28.547-11.719-9.85-6.367-18.901-17.08-27.494-25.01.065 2.735-9.575-15.884-7.807-23.09" />
                  <path d="m280.43 985.45l-12.326-15.757-15.405-16.384-12.32-13.759c-4.818-5.872-10.365-10.951-15.957-16.05-4.976-4.179-10.683-7.57-16.541-10.3-5.368-2.502-10.863-4.449-16.04-5.94-5.398-1.42-10.896-2.02-16.422-2.64-5.353.437-10.712.779-16.07 1.13-22.04 3.128-37.65 4.65-55.47 6.935" />
                  <path d="m299.69 1007.21l-25.475-27.863c-7.124-4.481-15.687-4.582-23.819-5.884-56.37.055-13.869.463-26.461.518" />
               </g>
            </g>
            <path d="m448.08 780.09c7.146 5.891 13.26 16.461 13.947 20.475 1.694 3.977 1.95 9.795 1.973 17.697l.206 37.679c-1.035 5.196-2.497 14.11-4.382 19.03" stroke-width="9.903" />
            <g stroke-width="15.845">
               <path d="m-76.82 844.9l28.22 34.82 53.5 54.63 39.7 39.27 50.46 39.447 40.33 26.05" stroke-linecap="round" />
               <path d="m-307.38 636.88c5.305-.335 25.706 6.666 31.09 10.413l24.47 17.02 29.905 29.426" stroke-linecap="square" />
            </g>
            <path d="m353.59 1153.64l57.02 38.37 70.1 45.23 86.56 49.872" stroke-linecap="square" stroke-width="15.773" />
            <g stroke-linecap="round" stroke-width="15.845">
               <path d="m154.53 1181.96l11.04-29.657 9.724-21.13 22.384-43.517" />
               <path d="m197.68 1087.65l22.532-40.28" />
               <path d="m135.39 1039.12l54.15 27.911" />
               <path d="m26.337 1011.4l-18.306-15.04-17.854-18.01-70.1-80.46-27.04-30.457-12.939-14.559" />
            </g>
            <g stroke-linecap="square" stroke-width="11.884">
               <path d="m236.99 1055.97l-23.887 34.619-11.1 19.972-4.223 9.118-6.65 15.242-4.054 11.07-5.211 21.247-4.606 27.33-1.497 17.689-.511 13.443 1.338 14.09 2.361 18.04 16.949 71.13c4.137 18.304 6.756 34.481 7.593 48.16 1.714 17.805 2.302 24.01 2.077 29.531" />
               <path d="m193.78 1406.67c.344-14.496-15.467-44.548-23.966-59.948l-14.208-24.11c-2.883-5.619-3.106-6.906-7.309-15.16-1.388-6.983-7.728-17.951-9.116-34.806l-.632-27.84 3.95-22.328 6.927-23.404 5.102-16.609" />
            </g>
            <path d="m571.84 1298.61l-55.675-24.19-53.602-31.341-64.17-44.31-51.592-29.799" stroke-width="15.595" />
         </g>
      </g>
      <g transform="matrix(3.45207 0 0 3.45264-344.1-2004.4)">
         <ellipse transform="matrix(1.6925 0 0 1.77122-76.05 60.49)" cx="56.938" cy="465.75" rx="2.813" ry="2.688" opacity=".99" fill="#fff" fill-rule="nonzero" />
         <g transform="matrix(.63318 0 0 .6331-5.182 397.83)">
            <path d="m33.549 765.93c-.207.346-.392.707-.545 1.084-.376.926-.587 1.936-.587 2.996 0 1.278.309 2.482.844 3.553.134.268.279.528.441.778 1.422 2.189 3.884 3.642 6.688 3.642 2.414 0 4.572-1.077 6.03-2.771.159-.184.309-.375.45-.573.702-.982 1.185-2.129 1.382-3.373.065-.411.108-.828.108-1.256 0-.494-.051-.976-.138-1.445-.132-.721-.362-1.406-.675-2.045-.116-.239-.244-.471-.384-.696-1.405-2.271-3.911-3.79-6.778-3.79-2.909 0-5.448 1.565-6.84 3.896m2.866-1.076c1.269-.113 2.547-.166 3.84-.16 1.293-.006 2.573.047 3.84.16.274.032.426.165.448.396.229 1.639.368 3.189.417 4.654.05 1.465.071 2.83.062 4.097h-1.126v.741c-.004.15-.057.275-.157.374-.098.1-.223.152-.373.157h-.264c-.149-.005-.274-.057-.374-.157-.102-.099-.151-.224-.156-.374v-.741h-2.316-2.316v.741c-.003.15-.056.275-.156.374-.099.1-.225.152-.374.157h-.264c-.15-.005-.275-.057-.373-.157-.103-.099-.153-.224-.157-.374v-.741h-1.126c-.001-1.267.011-2.632.061-4.097.049-1.465.188-3.01.417-4.654.021-.231.172-.363.447-.396" fill="#231f20" id="J" />
            <path d="m44.29 767.03c-.014-.115-.057-.209-.123-.283-.069-.074-.16-.111-.273-.114h-3.574-3.574c-.113.003-.204.04-.272.114-.07.074-.111.168-.126.283-.045.432-.08.852-.104 1.256-.026.405-.048.78-.066 1.127-.004.115.034.208.108.283.076.074.172.112.289.114h3.746 3.745c.117-.002.213-.04.289-.114.076-.075.112-.168.108-.283-.018-.347-.04-.722-.064-1.127-.028-.404-.063-.823-.109-1.256" fill="#231f20" id="K" />
            <path d="m44.1 771.47h-1.191c-.161.016-.25.104-.265.266v.66c.015.162.104.25.265.266h1.191c.161-.016.248-.104.264-.266v-.66c-.016-.162-.103-.25-.264-.266" fill="#231f20" id="L" />
            <path d="m37.606 771.43h-1.192c-.161.016-.249.104-.266.266v.66c.017.162.104.25.266.266h1.192c.16-.016.248-.104.265-.266v-.66c-.017-.162-.105-.25-.265-.266" fill="#231f20" id="M" />
            <path fill="#231f20" d="m37.04 765.26h6.354v.781h-6.354z" id="N" />
         </g>
      </g>
      <g fill="none" stroke="#fff" stroke-linejoin="round">
         <g stroke-linecap="square" stroke-width="15.845">
            <path d="m-111.81 863.38l-89.24-116.43-39.28-44.23c-13.654-14.7-30.94-24.496-43.93-36.541-7.365-6.02-18.314-11.269-23.03-10.96" />
            <path d="m-232.51 683.23l45.94 44.34 113.99 119.45" />
         </g>
         <g stroke-linecap="round">
            <g stroke-width="9.656">
               <path d="m240.82 1077.72l43.982 20.17 22 10.656 20.973 9.68 61.32 41.41" />
               <path d="m342.88 1258.22c-21.17 1.828-44.25 8.24-64.893 8.544l-19.77-.201" />
            </g>
            <g stroke-width="15.845">
               <path d="m235.67 1087.67l47.19 21.997 40.547 25.93 33.2 19.839" />
               <path d="m174.44 1091.63l-50.09-18.764-25.288-12.22-.308-.148-.098-.047-13.316-6.435" />
               <path d="m350.05 1170.66l-40.475-22.274-37.04-19.908-47.543-18.727" />
            </g>
         </g>
      </g>
      <use stroke-dasharray="0 14.8551 12.3792 188.164" stroke-width="1.238" xlink:href="#D" />
      <use stroke-dasharray="0 14.8551 11.1413 189.402" stroke-width="2.476" xlink:href="#D" />
      <use stroke-dasharray="0 22.2826 2.47585 190.64" stroke-width="3.714" xlink:href="#D" />
      <g fill="none">
         <g stroke="#fff" stroke-linejoin="round">
            <path d="m193.56 1057.71l46.51 19.757" stroke-width="9.656" />
            <path d="m189.54 1067.03l46.13 20.641" stroke-width="15.845" />
            <path d="m85.34 1054.02l-21.771-14.618-19.567-14.615-18.02-13.736" stroke-width="15.548" />
            <path d="m224.2 1110.23l-59.04-22.2" stroke-width="16.296" />
         </g>
         <path d="m392.75 949.08l-10.196 7.779" stroke-dasharray="0 14.8551 12.3792 188.164" stroke="#6b6ed4" stroke-linejoin="bevel" stroke-width="1.238" />
      </g>
      <use stroke-dasharray="0 14.8551 12.3792 188.164" stroke-width="1.238" xlink:href="#E" />
      <use stroke-dasharray="0 14.8551 11.1413 189.402" stroke-width="2.476" xlink:href="#E" />
      <use stroke-dasharray="0 22.2826 2.47585 190.64" stroke-width="3.714" xlink:href="#E" />
      <g fill="none">
         <path d="m214.09 1253.98c-1.849.083-5.03-3.169-9.174-5.378l-13.243-9.03-11.506-13.453c-3.929-5.412-5.946-7.436-8.08-12.251-.959-2.137-1.704-3.997-6.543-18.594l-1.86-18.232c.143-3.752 3.088-17.908 4.714-24.318" stroke="#fff" stroke-linejoin="round" stroke-width="9.656" />
         <g stroke="#808080" stroke-linecap="round" stroke-width="1.981">
            <path d="m31.09 1005.08c18.19 15.447 52.52 41.29 74.02 50.18" />
            <path d="m24.679 1019.72c27.726 21.451 54.645 40.668 76.34 50.32" />
            <path d="m166.22 1080.63l75.27 28.07" />
            <path d="m161.25 1094.97l76.875 28.551" />
            <path d="m183.03 1047.95l72.09 31.49" />
            <path d="m173.54 1067.49l73.02 32.952" />
            <path d="m150.28 1172.22c-12.344 38.993-19.06 67.897-16.838 98.23" />
            <path d="m158.57 1187.36c-3.377 9.97-8.866 25.22-11.197 38.32-2.602 14.624-3.464 26.38-3.02 44.46" />
            <path d="m158.78 1186.77c8.582 47.21 36.657 62.32 56.805 72.69" />
            <path d="m168.73 1172.29c-3.829 39.926 25.27 66.52 50.44 78.79" />
         </g>
      </g>
      <path d="m519.44 1129.88l-.862 17.539-3.943 22.269-3.674 24.356-23.505-3.296c-17.945-4.301-27.842-8.192-42.44-13.252l-27.404-12.578c-13.11-6.394-26.905-12.689-35.578-19.716l27.07-51.666c3.435-3.802 8.95-6.06 17.389-6.753 7.132-.174 15.815-2.202 22.13-5.099 5.456-4.232 7.751-5.22 12.767-9.95 2.277-4.244 9.162-4.107 13.602 1.356l13.374 8.93 17.12 13.1 7.18 10.813c4.049 7.982 6.681 15.964 6.777 23.947" fill="#e2e3db" fill-rule="nonzero" />
      <g fill="none" stroke-linecap="round">
         <g stroke="#808080" stroke-width="1.981">
            <path d="m212.47 978.7c23.421 1.922 37.457-.401 50.11 1.225" />
            <path d="m258.71 969.79c-15.455-1.53-41.19-.315-44.29-2.394" />
         </g>
         <path d="m157.9 928.46c-8.02-.086-20.888.629-30.807 1.844-11.573 1.417-21.949 3.033-36.04 3.244-11.362.874-23.15-2.071-34.974-5.372" stroke="#fff" stroke-linejoin="round" stroke-width="9.903" />
         <g stroke="#808080" stroke-width="1.981">
            <path d="m160.73 922.44c-16.963 1.057-38.853 3.832-46.42 4.775" />
            <path d="m125.42 935.7l29.721-2.33c3.721-.116 8.304.427 10.858 1.978" />
         </g>
      </g>
      <text transform="scale(.99992 1.0001)" y="1026.14" x="-142.16" font-family="Verdana" fill="#fff5f5" text-anchor="middle" text-align="center" line-height="125%" font-size="15.845">
         <tspan y="1026.14" x="-142.16" />
      </text>
      <path d="m754.78 696.56l-18.782-16.919-4.571 4.081-20.477-3.868-9.478-8.691 6.176-7.267-12.418-12.583.489-.639-3.542-2.686 8.403-9.235-2.929-3 8.269-9.08 2.158 2.349 1.931-1.449 35.22-11.67 13 34.11-17.32 5.542 3.958 15.536 19.403 17.681z" fill="#b367ce" fill-rule="nonzero" transform="matrix(1.04175 0 0 1.04192-342.53 330.93)" />
      <g transform="matrix(3.45207 0 0 3.45264-323.48-2194.62)">
         <path d="m607.74 456.08h-35.03l-.114-15.1-9.338-.314.038-15.504 9.03.052.165-15.644 35.25-.13z" fill="#b367ce" fill-rule="nonzero" transform="matrix(.30054 0 0 .28686-7.04 743.4)" />
         <ellipse transform="matrix(.51912 0 0 .6284-27.622 439.18)" cx="381.79" cy="681.66" rx="8.214" ry="6.786" fill="#fff" stroke="#fff" stroke-width="1.222" />
         <text x="166.12" y="871.31" transform="matrix(.99999-.00479.00479.99999 0 0)" font-family="'Open Sans'" fill="#b367ce" text-anchor="middle" text-align="center" line-height="125%" font-weight="800" font-size="8.689">
            <tspan x="166.12" y="871.31">1</tspan>
         </text>
      </g>
      <path d="m35.944 544.53l-3.976-3.637c-1.339.142-2.802.265-4.398.36-1.585.103-3.03.151-4.34.156l3.623 11.09 1.936 4.342-3.413-.166-9.813-15.276-6.647-.366c-.856-.041-1.822-.135-2.904-.276-1.083-.144-2.025-.364-2.842-.659-.807-.294-1.233-.689-1.271-1.185.042-.493.481-.864 1.296-1.117.822-.257 1.779-.421 2.869-.512 1.092-.087 2.069-.128 2.921-.124l6.69.054 10.638-14.717 3.416.024-2.141 4.264-4.319 10.787c1.332.113 2.789.255 4.378.434 1.583.187 3.03.391 4.34.618l4.211-3.433 2.68.039-2.251 4.644 2.02 4.793z" fill="#fff" />
      <g fill="none" stroke="#fff" stroke-width="7.923">
         <path d="m328.19 886.7l67.942.024c5.55.084 12.678 4.104 11.226 10.253.535 4.86-2.215 11.631-10.852 20.07l-22.1 14.807-24.959 15.81-3.537 2.24-46.606 25.617c-4.18 1.552-9.496 2.684-14.194 2.888-4.438.194-8.324-.44-10.178-2.325" stroke-linecap="square" />
         <g stroke-linecap="round">
            <path d="m464.95 855.78c.751 6.424 2.062 32.927-5.301 50.53-5.254 13.353-12.838 24.83-20.735 32.719-8.802 9.253-21.979 21.16-39.18 31.814-5.767 3.765-11.524 1.708-16.834-4.117l-18.32-27.24h-.99" />
            <path d="m347.75 948.9l17.329 26.25c9.968 13 3.04 17.842-12.438 22.73l-28.21 10.972-22.474 11.876-7.867 7.724c-8.602 12.699-6.683 22.245-5.224 33.448.35 4.859 3.447 13.02 13.11 22.534 4.286 4.833 10.522 8.146 16.367 9.264 14.683 2.393 14.602 1.366 20.953 1.252 13.09-2.038 12.181-6.246 16.702-9.999 3.393-5.738 4.319-14.827-.657-22.426" />
            <path d="m369.1 979.2l13.829-9.98" />
            <path d="m352.29 1089.15c6.084-6.841 22.534-8.491 30.459-9.805" />
         </g>
         <path d="m433.93 860.6c.003 8.658-3.785 27.624-11.264 33.864-7.586 11.742-15.872 14.94-23.457 20.31" stroke-linecap="square" />
      </g>
      <g fill="#fff">
         <path d="m32.393 618.18l-5.386-.111c-.912.99-1.932 2.048-3.068 3.172-1.124 1.123-2.18 2.114-3.159 2.981l10.03 5.943 4.319 1.987-2.675 2.126-17.449-5.01-5.237 4.11c-.671.534-1.458 1.101-2.364 1.709-.91.606-1.763 1.063-2.571 1.379-.801.312-1.381.296-1.737-.053-.294-.398-.208-.967.238-1.695.448-.735 1.06-1.49 1.819-2.277.763-.786 1.471-1.461 2.114-2.02l5.064-4.372-1.709-18.08 2.584-2.235 1.203 4.617 3.867 10.957c1.075-.794 2.264-1.648 3.577-2.562 1.313-.904 2.534-1.704 3.67-2.398l.902-5.358 2.04-1.738 1.371 4.976 4.679 2.271z" />
         <path d="m36.03 441.59l-4.087-3.511c-1.334.184-2.793.352-4.385.497-1.581.152-3.03.245-4.333.291l3.966 10.969 2.07 4.28-3.417-.06-10.283-14.963-6.655-.158c-.857-.014-1.825-.078-2.911-.185-1.087-.111-2.036-.301-2.861-.571-.816-.269-1.254-.65-1.307-1.145.027-.494.454-.879 1.261-1.157.813-.282 1.765-.476 2.851-.601 1.089-.121 2.064-.192 2.916-.215l6.688-.154 10.176-15.04 3.415-.081-2.01 4.329-3.981 10.916c1.335.071 2.795.168 4.389.298 1.588.138 3.039.297 4.357.483l4.102-3.562 2.68-.044-2.105 4.712 2.167 4.728z" />
         <path d="m550.12 698.23l-4.155-3.43c-1.33.21-2.785.407-4.374.583-1.578.183-3.02.305-4.327.377l4.181 10.889 2.154 4.239-3.417.007-10.575-14.758-6.657-.028c-.857.003-1.826-.042-2.914-.128-1.089-.089-2.041-.261-2.872-.514-.821-.252-1.266-.625-1.329-1.119.017-.495.437-.887 1.238-1.181.808-.298 1.755-.51 2.839-.657 1.086-.142 2.06-.233 2.911-.272l6.684-.286 9.878-15.238 3.413-.148-1.922 4.367-3.766 10.992c1.336.044 2.798.113 4.394.211 1.591.106 3.044.237 4.366.397l4.03-3.642 2.678-.097-2.01 4.753 2.26 4.685z" />
         <path d="m86.49 622.91l-3.572 4.03c.164 1.337.309 2.798.431 4.392.128 1.584.2 3.03.226 4.338l11.03-3.801 4.31-2.01-.112 3.416-15.11 10.06-.259 6.653c-.028.857-.106 1.824-.229 2.908-.127 1.086-.331 2.031-.614 2.853-.281.812-.669 1.244-1.165 1.29-.494-.035-.871-.467-1.137-1.278-.27-.818-.449-1.772-.558-2.861-.105-1.091-.161-2.067-.171-2.919l-.053-6.691-14.883-10.403-.031-3.417 4.297 2.073 10.853 4.146c.091-1.334.21-2.793.364-4.385.161-1.586.342-3.035.549-4.35l-3.499-4.156-.004-2.68 4.679 2.176 4.76-2.096z" />
      </g>
      <path d="m374.17 678.92c-48.21 0-102.96 0-151.17 0v65.732h151.17z" fill="#afc6e9" />
      <g fill="#3771c8">
         <path d="m81.64 705.08v-17.534h10.957v-5.886h-15.34v-11.423l-69.19-.102-36-39.744v-52.843h28.489v-8.767h-28.489v-50.41h28.489v-8.767h-28.489v-46.03h28.489v-8.767h-28.489v-30.685l-10.957-16.55-3.814 6.221-19.14-15.32-4.057 5.186 19.437 15.589-3.38 5.056v15.16h-16.449v8.767h16.449v61.37h-16.265v8.767h16.265v50.41h-16.447v8.767h16.447c0 19.916 0 39.26 0 59.18h-16.264v8.767h16.264v13.151l10.957 17.885 10.957-17.885v61.939h27.38v-15.911z" />
         <path d="m222.96 678.9h15.34v-10.959h-18.644l-15.637-27.437-15.177 29.629h-12.945l-16.97-29.506-16.194 29.506h-12.905l-16.16-29.25-17.671 29.25-19.912.166.089 11.629 15.301-.129v5.539h-11.125l-.002 17.392h-28.319v16.909h-9.902v16.439h73.19v6.575h96.68v-13.151h10.957z" />
      </g>
      <path d="m517.95 847.67v-4.384h-28.489l-.175-21.918h28.664v-4.384h-28.489v-21.918h28.489v-4.384h-28.489v-21.918h28.489v-4.384l-28.489.001v-24.12h28.489v-4.384h-28.423l-.132-24.11h28.555v-4.384h-28.489v-21.918h28.489v-15.891h-6.574v9.348h-137.95v65.723c3.522-.186 14.626.061 27.435.061 15.643 0 28.22 1.413 37.39 2.905 25.17 14.798 28.88 26.513 29.24 29.91l8.823.655v23.455h-4.383v10.959h4.383v15.343h-4.383v10.959h4.383v15.343h-4.383v10.959h4.383v13.151h6.574v24.11h35.06v-4.593l-28.489.209v-24.11h28.489v-4.384h-28.489v-21.918c8.922-.139 19.381.138 28.489 0z" fill="#5f8dd3" />
      <g font-family="'Open Sans'" fill="#fff" text-anchor="middle" text-align="center" line-height="110.00000238%" font-weight="bold" font-size="19.92" transform="scale(.99992 1.0001)">
         <text y="707.71" x="429.97">
            <tspan x="429.97" y="707.71">Domestic</tspan>
            <tspan x="429.97" y="729.62">Terminal B</tspan>
         </text>
         <text y="698.76" x="133.84">
            <tspan x="133.84" y="698.76">International</tspan>
            <tspan x="133.84" y="720.67">Terminal A</tspan>
         </text>
      </g>
      <g fill="none">
         <path d="m328.28 895.66c16.758.267 38.725-.211 50.27.8 9.53 1.541 20.733 5.878 25.18 9.04 14.224 10.749 23.788 20.16 19.56 26.361-3.733 7.778-15.996 12.211-29.411 21.272l-19.468 11.389c-11.312 6.05-29.19 25.03-44.1 35.12l-5.632 3.812-26.958 22.289" stroke="#fff" stroke-linecap="square" stroke-width="7.923" />
         <g stroke="#808080" stroke-linecap="round" stroke-width="1.981">
            <path d="m396.6 897.25c12.02 8.183 26.01 14.892 30.985 28.363l-.352-.704" stroke-linejoin="round" />
            <path d="m392.23 904.08c9.161 6.244 18.687 11.764 24.07 17.942 1.702 1.954 3.305 4.132 3.942 6.215" />
            <path d="m283.64 982.61l43.02 46.35" />
            <path d="m276.4 989.06l43.643 46.717" />
            <g stroke-linejoin="round">
               <path d="m377.87 924.39l-46.736 28.534" />
               <path d="m382.6 930.87l-13.13 8.229 16.28 24.16c2.189 3.645 4.936 4.558 8.05 5.425 3.209.515 6.419-3.1 9.628-5.076" />
               <path d="m334.98 960.11l11.03-6.305 18.556 27.663c1.804 2.676 2.274 4.85.35 6.128-3.504 2.785-5.351 3.362-7.527 4.377" />
               <path d="m353.37 949.78l8.753-5.778 16.28 22.761-9.103 6.828z" />
               <path d="m361.59 998.28c2.518-1.36 1.832-.388 8.928-5.077 2.299-2.89 4.539-5.822 2.276-11.906l10.678-8.404c3.807 2.96 7.436 3.986 10.328 4.202 1.764-.078 3.955-.798 6.652-2.276l7.876-4.899" />
            </g>
         </g>
         <path d="m208.27 787.52l-1.923 20.676-22.403 183.58-4.154 26.54-4.647 19.06-6.415 16.52-8.837 16.396-10.65 13.917-13.14 14.793-11.951 10.938-12.873 10.389-25.433 15.994-40.37 25.07-66.39 42.3" stroke="#fff" stroke-linejoin="round" stroke-width="8.269" />
      </g>
      <g transform="matrix(.99026 0 0 .99042-317.68 377.84)">
         <g fill="none" stroke="#0cf" stroke-linejoin="round">
            <path d="m531.13 413.65l-1.942 20.876-22.623 185.35-4.195 26.797-4.693 19.247-6.478 16.68-8.924 16.555-10.755 14.05-13.266 14.936-12.07 11.04-13 10.489-25.683 16.15-40.771 25.313-69.967 44.46" stroke-width="11.125" />
            <path d="m531.13 413.65l-1.942 20.876-22.623 185.35-4.195 26.797-4.693 19.247-6.478 16.68-8.924 16.555-10.755 14.05-13.266 14.936-12.07 11.04-13 10.489-25.683 16.15-40.771 25.313" stroke-width="6.05" />
         </g>
         <rect rx="1.381" ry="1.501" width="19.427" height="64.805" x="556.07" y="303.34" transform="matrix(.99534.09639-.08822.9961 0 0)" fill="#0cf" />
         <path d="m536.11 361.73l-6.92 72.79-22.623 185.35-4.195 26.797-4.693 19.247-6.478 16.68-8.924 16.555-10.755 14.05-13.266 14.936-12.07 11.04-13 10.489-25.683 16.15-40.771 25.313-69.59 44.646" stroke-dasharray="2.8582 11.4328" fill="none" stroke="#fff" stroke-linejoin="round" stroke-linecap="round" stroke-width="2.858" />
      </g>
      <g text-anchor="middle" text-align="center" line-height="125%" font-weight="bold">
         <text transform="scale(.99992 1.0001)" x="-294.75" y="793.91" font-family="Sans" stroke-width="1.981" stroke-linecap="square" fill="#3c84dd" stroke-linejoin="round" stroke="#e8a317" font-size="21.787">
            <tspan x="-294.75" y="793.91" stroke-width="1.981" />
         </text>
         <g font-family="'Open Sans'" fill="#fff" stroke="none" font-size="27.496">
            <text x="-243.63" y="590.04" transform="matrix(.99992-.00004.00004 1.0001 0 0)">
               <tspan x="-243.63" y="590.04">Pretoria</tspan>
            </text>
            <g transform="scale(.99992 1.0001)">
               <text x="350.64" y="1384.63">
                  <tspan x="350.64" y="1384.63">Johannesburg</tspan>
               </text>
               <text x="436.78" y="1333.83">
                  <tspan x="436.78" y="1333.83">Boksburg</tspan>
               </text>
            </g>
         </g>
      </g>
      <g transform="matrix(3.45207 0 0 3.45264-313.69-2140.99)">
         <ellipse transform="matrix(.02482 0 0 .02779 98.45 957.63)" cx="-235.93" cy="214.24" rx="203.39" ry="181.69" />
         <g transform="matrix(.82732 0 0 .82732 27.08 163.18)">
            <path d="m470.26 488.68h35.37c10.831 0 19.61-8.779 19.61-19.61v-377.84c0-27.08-21.95-49.03-49.03-49.03h-107.65v-27.989h-125.13v27.989h-107.65c-27.08 0-49.03 21.95-49.03 49.03v377.84c0 10.831 8.78 19.61 19.611 19.61h35.37l-141.74 109.11h91.11l111.05-109.11h207.69l111.05 109.11h91.11l-141.74-109.11m-60.42-61.831c0-16.593 13.451-30.05 30.05-30.05 16.593 0 30.04 13.451 30.04 30.05 0 16.593-13.451 30.05-30.04 30.05-16.594 0-30.05-13.453-30.05-30.05m-235.63 30.05c-16.593 0-30.04-13.452-30.04-30.05 0-16.593 13.451-30.05 30.04-30.05 16.593 0 30.04 13.451 30.04 30.05 0 16.592-13.452 30.05-30.05 30.05m-28.853-155.35c-5.415 0-9.805-4.39-9.805-9.805v-189.87c0-5.415 4.39-9.805 9.805-9.805h321.29c5.415 0 9.805 4.39 9.805 9.805v189.87c0 5.415-4.39 9.805-9.805 9.805h-321.29" fill="#fff" transform="matrix(.01365 0 0 .01485 74.935 962.43)" id="O" />
            <path d="m76.51 970.47l5.355-.032" fill="none" stroke="#fff" stroke-width=".481" id="P" />
         </g>
      </g>
      <text transform="scale(.99992 1.0001)" x="10.202" y="1259.84" font-family="'Open Sans'" fill="#fff" text-anchor="middle" text-align="center" line-height="125%" font-weight="bold" font-size="27.496">
         <tspan x="10.202" y="1259.84">Sandton</tspan>
      </text>
      <g transform="matrix(3.45207 0 0 3.45264-328.65-2195.49)" fill-rule="nonzero">
         <path opacity=".99" fill="#fff" d="m10.1 996.46h10.981v3.39h-10.981z" />
         <path d="m10.08 1000.02h11.02l-.015-3.423-11.03-.081z" color="#000" stroke-width=".241" fill="url(#2)" stroke="#000" />
      </g>
      <text transform="scale(.99992 1.0001)" x="-229.42" y="1041.67" font-family="Arial" fill="url(#C)" text-anchor="middle" text-align="center" line-height="125%" font-weight="bold" font-size="15.845">
         <tspan x="-229.42" y="1041.67" />
      </text>
      <g font-family="'Open Sans'" fill="#fff" text-anchor="start" text-align="start" line-height="110.00000238%" font-weight="600" font-size="16.248" transform="scale(.99992 1.0001)">
         <text x="-249.35" y="966.88">
            <tspan y="966.88" x="-249.35">Car Park</tspan>
            <tspan y="984.76" x="-249.35">Locations</tspan>
         </text>
         <text x="-249.35" y="1181.74">
            <tspan x="-249.35" y="1181.74">Gautrain Service</tspan>
         </text>
         <text x="-248.95" y="1091.72">
            <tspan y="1091.72" x="-248.95">Transport</tspan>
            <tspan y="1109.59" x="-248.95">Terminus</tspan>
         </text>
         <text x="-249.18" y="1056.89">
            <tspan x="-249.18" y="1056.89">Shuttles</tspan>
         </text>
         <text x="-249.92" y="1222.91">
            <tspan x="-249.92" y="1222.91">Exit Fuel Station</tspan>
         </text>
         <text x="-249.92" y="1256.43">
            <tspan x="-249.92" y="1256.43">Pick Up/Drop Off</tspan>
         </text>
         <text x="-248.3" y="1285.62">
            <tspan x="-248.3" y="1285.62">Intercontinental</tspan>
            <tspan x="-248.3" y="1303.49">Airport Hotel</tspan>
         </text>
         <text x="-248.3" y="1327.86">
            <tspan x="-248.3" y="1327.86">Southern Sun</tspan>
            <tspan x="-248.3" y="1345.73">Airport Hotel</tspan>
         </text>
         <text x="-249.26" y="1370.78">
            <tspan x="-249.26" y="1370.78">Holiday Inn</tspan>
            <tspan x="-249.26" y="1388.66">Garden Court</tspan>
         </text>
      </g>
      <path fill="none" stroke="#fff" stroke-linecap="round" stroke-width="4.891" d="m-316.4 381.18h894.92v1031.11h-894.92z" />
      <path d="m-75.908 767.62l14.18.146-.053 3.468 10.197-4.218-10.07-4.445-.053 3.468-14.182-.154z" fill="#000" fill-rule="nonzero" />
      <g transform="matrix(-1.003-.29695.2969-1.0032 1037.38 1079.04)" fill="#fff">
         <g transform="matrix(-1.83545.49393-.51905-1.92882 1533.63 313.66)">
            <path d="m464.94 57.991l-.06-.128.001-.012-2.24.419-1.9 6.15-.34 1.12-.82 2.65.16-.305z" />
            <path d="m463.46 53.761l.12-.053-.02-.006-.42-2.292-6.16-1.9-1.12-.35-2.83-.87.26.13z" />
            <path d="m467.64 52.2l.09.18-.001.02 2.2-.416 1.96-6.363.35-1.121.78-2.534-.16.304z" />
            <path d="m469.24 56.44l-.21.1h.001l.41 2.199 6.3 1.948 1.13.343 2.69.836-.27-.143z" />
            <path d="m454.87 58.739l1.1-.339 1.05-.33 9.26-2.91-.06.02.02-.04-.04-.02.06-.02-2.68-1.392-.12.053-1.86.853-5.91 2.706-1.06.482-7.05 3.218z" />
            <path d="m475.64 52.16l-9.31 2.92v.001l.02.05 2.68 1.4.21-.1 1.85-.84 6.01-2.752 1.06-.488 6.87-3.14-7.11 2.23-1.1.342z" />
            <path d="m469.26 64.45l-2.91-9.31-.02-.05v-.001l-.02.04-.03.04-1.39 2.691-.001.012.06.128.84 1.822 2.73 5.975.49 1.067 3.23 7.05-2.29-7.296-.34-1.1z" />
         </g>
         <path d="m694.23 413.05c-2.191 1.446-3.869 2.622-5.634 4.04l-.049-.03c.997-1.656 1.941-3.497 2.9-5.689l4.14-9.471-1.305-2.098-14.04 9.286 1.125 1.811 5.999-3.968c2.331-1.543 3.992-2.706 5.694-3.988l.059.052c-1.053 1.756-2.039 3.811-2.958 5.884l-4.186 9.44 1.208 1.944 14.04-9.286-1.125-1.811-5.869 3.886" />
         <path transform="matrix(1.8466-.45048.4734 1.94053-237.9 540.6)" d="m466.31 55.12l-.03.04-1.39 2.691-.001.012.06.128.84 1.822 2.73 5.975.49 1.067 3.23 7.05-2.29-7.296-.34-1.1-.34-1.06-2.91-9.31-.02-.05v-.001z" />
      </g>
      <g transform="matrix(3.45207 0 0 3.45264-323.58-2196.51)">
         <ellipse transform="matrix(.51912 0 0 .6284 13.735 498.22)" cx="381.79" cy="681.66" rx="8.214" ry="6.786" fill="#fff" stroke="#fff" stroke-width="1.222" />
         <text x="228.34" y="925.52" transform="matrix(.99984.01775-.01775.99984 0 0)" font-family="'Open Sans'" fill="#b367ce" text-anchor="middle" text-align="center" line-height="125%" font-weight="800" font-size="8.689">
            <tspan x="228.34" y="925.52">2</tspan>
         </text>
      </g>
      <path d="m415.13 947.16l8.49-1.626c.776-2.93-1.518-13.857-1.518-13.857l-9.06.759c-.257-4.636-3.348-16.511-3.348-16.511l-38.31 5.61c2.403 8.16 3.517 25.857 4.02 38.16.306 7.566.383 13.09.383 13.09l.157-.021 41-5.106c0-4.147-1.812-20.497-1.812-20.497" fill="#b367ce" transform="matrix(.99026 0 0 .99042-289.92 386.82)" />
      <g transform="matrix(3.45207 0 0 3.45264-630.79-1877.1)">
         <ellipse transform="matrix(.51912 0 0 .6284 13.735 498.22)" cx="381.79" cy="681.66" rx="8.214" ry="6.786" fill="#fff" stroke="#fff" stroke-width="1.222" />
         <text transform="matrix(.99984.01775-.01775.99984 0 0)" y="925.67" x="228.4" font-family="'Open Sans'" fill="#b367ce" text-anchor="middle" text-align="center" line-height="125%" font-weight="800" font-size="8.689">
            <tspan y="925.67" x="228.4">3</tspan>
         </text>
      </g>
      <g transform="matrix(3.45207 0 0 3.45264-583.74-2202)">
         <ellipse transform="matrix(.56812 0 0 .68772-127.09 542.22)" cx="381.79" cy="681.66" rx="8.214" ry="6.786" fill="#fff" stroke="#fff" stroke-width="1.222" />
         <text x="107.45" y="1012.23" transform="matrix(.99984.01775-.01775.99984 0 0)" font-family="'Open Sans'" fill="#b367ce" text-anchor="middle" text-align="center" line-height="125%" font-weight="800" font-size="8.689">
            <tspan x="107.45" y="1012.23">1</tspan>
         </text>
      </g>
      <g transform="matrix(3.45207 0 0 3.45264-585.85-2199.95)">
         <ellipse transform="matrix(.56812 0 0 .68772-126.48 554.05)" cx="381.79" cy="681.66" rx="8.214" ry="6.786" fill="#fff" stroke="#fff" stroke-width="1.222" />
         <text transform="matrix(.99984.01775-.01775.99984 0 0)" y="1024.21" x="108.46" font-family="'Open Sans'" fill="#b367ce" text-anchor="middle" text-align="center" line-height="125%" font-weight="800" font-size="8.689">
            <tspan y="1024.21" x="108.46">2</tspan>
         </text>
      </g>
      <g transform="matrix(3.45207 0 0 3.45264-585.15-2199.3)">
         <ellipse transform="matrix(.56812 0 0 .68772-126.68 566.09)" cx="381.79" cy="681.66" rx="8.214" ry="6.786" fill="#fff" stroke="#fff" stroke-width="1.222" />
         <text x="108.67" y="1036.04" transform="matrix(.99984.01775-.01775.99984 0 0)" font-family="'Open Sans'" fill="#b367ce" text-anchor="middle" text-align="center" line-height="125%" font-weight="800" font-size="8.689">
            <tspan x="108.67" y="1036.04">3</tspan>
         </text>
      </g>
      <g transform="matrix(1.12298 0 0 1.16455-238.02-356.32)">
         <use xlink:href="#F" />
         <rect width="46.945" height="26.968" x="-53.05" y="859.08" opacity=".99" fill="#1b33ac" fill-rule="nonzero" stroke="#fff" stroke-linejoin="round" stroke-linecap="round" stroke-width="1.89" rx="11.883" />
      </g>
      <text x="-28.918" y="872.97" opacity=".99" font-family="'Roboto Black'" fill="#fff" text-anchor="middle" text-align="center" fill-rule="nonzero" line-height="100%" font-weight="900" font-size="18" transform="matrix(1.24243 0 0 1.28842-234.58-456.4)">
         <tspan x="-28.918" y="872.97" font-family="'Open Sans'" text-align="center" line-height="100%" font-weight="bold" font-size="19.757">R21</tspan>
      </text>
      <g transform="matrix(3.11573 0 0 3.11624 79.913-1346.83)">
         <g transform="matrix(.36042 0 0 .3737 46.847 547.11)">
            <use xlink:href="#F" />
            <rect width="46.945" height="26.968" x="-53.05" y="859.08" opacity=".99" fill="#1b33ac" fill-rule="nonzero" stroke="#fff" stroke-linejoin="round" stroke-linecap="round" stroke-width="1.89" rx="11.883" id="Q" />
         </g>
         <text x="-28.918" y="872.97" opacity=".99" font-family="'Roboto Black'" fill="#fff" text-anchor="middle" text-align="center" fill-rule="nonzero" line-height="100%" font-weight="900" font-size="18" transform="matrix(.39876 0 0 .41345 47.649 515.14)">
            <tspan x="-28.918" y="872.97" font-family="'Open Sans'" text-align="center" line-height="100%" font-weight="bold" font-size="19.757">R24</tspan>
         </text>
      </g>
      <g transform="matrix(3.11573 0 0 3.11624 477.62-1378.98)">
         <g transform="matrix(.36042 0 0 .3737 27.57 526.3)">
            <use xlink:href="#F" />
            <use xlink:href="#Q" />
         </g>
         <text x="-28.918" y="872.97" opacity=".99" font-family="'Roboto Black'" fill="#fff" text-anchor="middle" text-align="center" fill-rule="nonzero" line-height="100%" font-weight="900" font-size="18" transform="matrix(.39876 0 0 .41345 28.671 494.25)">
            <tspan x="-28.918" y="872.97" font-family="'Open Sans'" text-align="center" line-height="100%" font-weight="bold" font-size="19.757">R21</tspan>
         </text>
      </g>
      <g fill="#fff">
         <g fill-rule="nonzero">
            <path d="m-225.41 632.12l-32.5-12.784-1.861 4.997-20.9-15.362 25.558 2.883-1.861 4.997 32.508 12.776z" />
            <path d="m235 1338.27l4.16 34.681 5.281-.731-3.611 25.689-9.583-23.871 5.281-.731-4.171-34.683z" />
            <path d="m488.36 1302.11l33.618 9.459 1.35-5.158 22.335 13.188-25.718-.305 1.351-5.159-33.625-9.45z" />
            <path d="m41.14 1200.8l-29.14 19.249 3.02 4.395-24.583 8.273 17.05-19.259 3.02 4.396 29.14-19.259z" />
         </g>
         <path d="m551.12 835.68l-4.155-3.43c-1.33.21-2.785.407-4.374.583-1.578.183-3.02.305-4.327.377l4.181 10.889 2.154 4.239-3.417.007-10.575-14.758-6.657-.028c-.857.003-1.826-.042-2.914-.128-1.089-.089-2.041-.261-2.872-.514-.821-.252-1.266-.625-1.329-1.119.017-.495.437-.887 1.238-1.181.808-.298 1.755-.51 2.839-.657 1.086-.142 2.06-.233 2.911-.272l6.684-.286 9.878-15.238 3.413-.148-1.922 4.367-3.766 10.992c1.336.044 2.798.113 4.394.211 1.59.106 3.044.237 4.366.397l4.03-3.642 2.678-.097-2.01 4.753 2.26 4.685z" />
         <text transform="scale(.99992 1.0001)" x="298.18" y="705.73" font-family="'Open Sans'" text-anchor="middle" text-align="center" line-height="110.00000238%" font-weight="bold" font-size="19.92">
            <tspan x="298.18" y="705.73">International</tspan>
            <tspan x="298.18" y="727.64">Terminal B</tspan>
         </text>
      </g>
      <g transform="matrix(3.45207 0 0 3.45264 -390.73 -1959.62)">
         <ellipse transform="matrix(.03911 0 0 .03862 41.918 876.98)" cx="-205.02" cy="192.54" rx="129.08" ry="130.71" />
         <g fill="#fff" transform="matrix(.02324 0 0 .02471 29.713 880.42)">
            <path d="m77.69 208.59c-17.985 0-32.562 14.571-32.562 32.559 0 17.988 14.576 32.559 32.562 32.559 17.992 0 32.564-14.57 32.564-32.559 0-17.989-14.572-32.559-32.564-32.559m0 46.713c-7.818 0-14.15-6.334-14.15-14.15 0-7.822 6.335-14.15 14.15-14.15 7.819 0 14.159 6.332 14.159 14.15 0 7.82-6.34 14.15-14.159 14.15" fill="#fff" id="R" />
            <path d="m268.85 208.59c-17.986 0-32.561 14.571-32.561 32.559 0 17.988 14.574 32.559 32.561 32.559 17.992 0 32.564-14.57 32.564-32.559 0-17.989-14.572-32.559-32.564-32.559m0 46.713c-7.818 0-14.15-6.334-14.15-14.15 0-7.822 6.336-14.15 14.15-14.15 7.82 0 14.16 6.332 14.16 14.15 0 7.82-6.34 14.15-14.16 14.15" fill="#fff" id="S" />
            <path d="m331 76.74h-292.08c-10.701 0-21.21 8.579-23.348 19.06l-11.675 42.618c-2.141 10.485-3.892 27.819-3.892 38.521v44.751c0 10.7 8.756 19.456 19.457 19.456h19.839c0-21.17 17.226-38.4 38.4-38.4 21.17 0 38.4 17.223 38.4 38.4h114.36c0-21.17 17.227-38.4 38.4-38.4 21.18 0 38.4 17.223 38.4 38.4h23.74c10.703 0 19.457-8.754 19.457-19.456v-125.5c.005-10.701-8.751-19.456-19.452-19.456m-250.14 82.1h-45.34l7.186-17.02c1.254-2.97-.137-6.394-3.106-7.648-2.972-1.254-6.395.138-7.647 3.107l-8.91 21.1c-6.02-1.581-9.676-7.214-8.437-13.89l10.46-41.74c1.465-7.891 9.23-14.348 17.256-14.348h38.543l-.0001 70.43m86.58 0h-74.909v-70.44h74.909v70.44m86.58 0h-74.908v-70.44h74.908v70.44m84.5-14.592c0 8.03-6.566 14.593-14.594 14.593h-58.23v-70.44h58.23c8.03 0 14.594 6.567 14.594 14.593v41.25" fill="#fff" id="T" />
         </g>
      </g>
      <g transform="matrix(1.05626 0 0 1.05643 -385.39 19.373)">
         <ellipse transform="matrix(.12782 0 0 .12623 558.11 699.6)" cx="-205.02" cy="192.54" rx="129.08" ry="130.71" />
         <path d="m530.18 712.26c-.847 0-1.522.767-1.522 1.571l-.049 1.571h-3.094l-1.964 6.286c-1.197 0-2.75.78-2.75 3.143v6.286h3.143v1.571c0 0 0 1.571 1.571 1.571 1.571 0 1.571-1.571 1.571-1.571v-1.571l9.429-.049v1.621c0 0 0 1.571 1.571 1.571 1.571 0 1.571-1.571 1.571-1.571v-1.571h3.143v-6.286c0-2.4-1.571-3.143-3.143-3.143l-1.571-6.286h-3.143v-1.571c0-.89-.681-1.571-1.571-1.571zm.049 1.571h3.143v1.571h-3.143zm-3.143 3.929h9.429l.933 3.929h-11.442zm-1.571 7.07c.865 0 1.571.706 1.571 1.571 0 .872-.706 1.572-1.571 1.572-.872 0-1.572-.7-1.572-1.572 0-.865.7-1.571 1.572-1.571m12.571 0c.865 0 1.571.706 1.571 1.571 0 .872-.706 1.572-1.571 1.572-.872 0-1.571-.7-1.571-1.572 0-.865.7-1.571 1.571-1.571" fill="#fff" fill-rule="nonzero" id="G" />
      </g>
      <g transform="matrix(1.05626 0 0 1.05643-835.54 246.92)">
         <ellipse transform="matrix(.12782 0 0 .12623 558.11 699.6)" cx="-205.02" cy="192.54" rx="129.08" ry="130.71" />
         <use xlink:href="#G" />
      </g>
      <g transform="matrix(1.05626 0 0 1.05643 26.568-2.91)">
         <ellipse transform="matrix(.12782 0 0 .12623 306.37 779.03)" cx="-205.02" cy="192.54" rx="129.08" ry="130.71" />
         <path d="m273.9 790.33c-2.471 0-4.479 2.01-4.479 4.479 0 2.478 2.01 4.479 4.479 4.479 1.659 0 3.093-.903 3.863-2.24h2.408l1.792-1.792 1.792 1.792 1.792-1.792 1.792 1.792h.896l2.688-2.24-2.688-2.24h-10.47c-.77-1.337-2.205-2.24-3.863-2.24m-1.779 3.683c.497 0 .883.299.883.796 0 .497-.399.896-.896.896-.497 0-.896-.399-.896-.896 0-.497.412-.796.909-.796m2.675 7.07l-1.792 5.375c-.847 0-1.792.693-1.792 1.792v5.375h1.792c0 0 0 1.792 1.792 1.792 1.792 0 1.792-1.792 1.792-1.792h7.167c0 0 0 1.792 1.792 1.792 1.792 0 1.792-1.792 1.792-1.792h1.792v-5.375c0-.931-.812-1.792-1.792-1.792l-1.792-5.375zm1.792 1.792h7.167l1.12 3.583h-9.406zm-1.792 5.823c.742 0 1.344.602 1.344 1.344 0 .742-.602 1.344-1.344 1.344-.742 0-1.344-.602-1.344-1.344 0-.742.602-1.344 1.344-1.344m10.75 0c.742 0 1.344.602 1.344 1.344 0 .742-.602 1.344-1.344 1.344-.742 0-1.344-.602-1.344-1.344 0-.742.602-1.344 1.344-1.344" fill="#fff" fill-rule="nonzero" id="H" />
      </g>
      <g transform="matrix(3.45207 0 0 3.45264 95.59-2189.95)">
         <ellipse transform="matrix(1.6925 0 0 1.77122-72.939 45.806)" cx="56.938" cy="465.75" rx="2.813" ry="2.688" opacity=".99" fill="#fff" fill-rule="nonzero" />
         <g transform="matrix(.63318 0 0 .6331-2.152 383.26)">
            <use xlink:href="#J" />
            <use xlink:href="#K" />
            <use xlink:href="#L" />
            <use xlink:href="#M" />
            <use xlink:href="#N" />
         </g>
      </g>
      <g transform="matrix(3.45207 0 0 3.45264 149.29-2208.13)">
         <ellipse transform="matrix(.03911 0 0 .03862 41.918 876.98)" cx="-205.02" cy="192.54" rx="129.08" ry="130.71" />
         <g fill="#fff" transform="matrix(.02324 0 0 .02471 29.713 880.42)">
            <use xlink:href="#R" />
            <use xlink:href="#S" />
            <use xlink:href="#T" />
         </g>
      </g>
      <g transform="matrix(3.45207 0 0 3.45264-593.33-2150.3)">
         <ellipse transform="matrix(.02482 0 0 .02779 98.45 957.63)" cx="-235.93" cy="214.24" rx="203.39" ry="181.69" />
         <g transform="matrix(.82732 0 0 .82732 27.08 163.18)">
            <use xlink:href="#O" />
            <use xlink:href="#P" />
         </g>
      </g>
      <ellipse cx="-36.35" cy="802.81" rx="17.428" ry="17.431" fill="#29528c" />
      <text transform="scale(.99992 1.0001)" x="-35.857" y="810.99" font-family="'Open Sans'" fill="#fff" text-anchor="middle" text-align="center" line-height="125%" font-weight="800" letter-spacing="-.956" font-size="23.747">
         <tspan x="-36.34" y="810.99">P5</tspan>
      </text>
      <g transform="matrix(3.45207 0 0 3.45264-328.56-1898.69)">
         <ellipse transform="matrix(.228 0 0 .20789 93.3 703.09)" cx="180.71" cy="474.87" rx="22.14" ry="24.286" fill="#29528c" />
         <text x="134.41" y="804.11" font-family="'Open Sans'" fill="#fff" text-anchor="middle" text-align="center" line-height="125%" font-weight="800" letter-spacing="-.277" font-size="6.878">
            <tspan x="134.27" y="804.11">P4</tspan>
         </text>
      </g>
      <g transform="matrix(3.45207 0 0 3.45264-143.82-1842.91)">
         <ellipse transform="matrix(.228 0 0 .20789 79.48 703.55)" cx="180.71" cy="474.87" rx="22.14" ry="24.286" fill="#29528c" />
         <text x="120.67" y="804.57" font-family="'Open Sans'" fill="#fff" text-anchor="middle" text-align="center" line-height="125%" font-weight="800" letter-spacing="-.277" font-size="6.878">
            <tspan x="120.53" y="804.57">P3</tspan>
         </text>
      </g>
      <g transform="matrix(3.45207 0 0 3.45264-323.08-1919.6)">
         <ellipse transform="matrix(.228 0 0 .20789 93 690.44)" cx="180.71" cy="474.87" rx="22.14" ry="24.286" fill="#29528c" />
         <text x="134.43" y="791.34" font-family="'Open Sans'" fill="#fff" text-anchor="middle" text-align="center" line-height="125%" font-weight="800" letter-spacing="-.277" font-size="6.878">
            <tspan x="134.3" y="791.34">P1</tspan>
         </text>
      </g>
      <g transform="matrix(3.45207 0 0 3.45264-131.37-1908.65)">
         <ellipse transform="matrix(.228 0 0 .20789 106.21 690.54)" cx="180.71" cy="474.87" rx="22.14" ry="24.286" fill="#29528c" />
         <text x="147.5" y="791.55" font-family="'Open Sans'" fill="#fff" text-anchor="middle" text-align="center" line-height="125%" font-weight="800" letter-spacing="-.277" font-size="6.878">
            <tspan x="147.37" y="791.55">P2</tspan>
         </text>
      </g>
      <g transform="matrix(3.45207 0 0 3.45264-736.98-1754.32)">
         <ellipse transform="matrix(.228 0 0 .20789 93 690.44)" cx="180.71" cy="474.87" rx="22.14" ry="24.286" fill="#29528c" />
         <text y="791.34" x="134.55" font-family="'Open Sans'" fill="#fff" text-anchor="middle" text-align="center" line-height="125%" font-weight="800" letter-spacing="-.277" font-size="6.878">
            <tspan y="791.34" x="134.41">P1</tspan>
         </text>
      </g>
      <g transform="matrix(3.45207 0 0 3.45264-417.2-2029.17)">
         <ellipse transform="matrix(.228 0 0 .20789 107.89 715.63)" cx="180.71" cy="474.87" rx="22.14" ry="24.286" fill="#29528c" />
         <text x="148.96" y="816.59" font-family="'Open Sans'" fill="#fff" text-anchor="middle" text-align="center" line-height="125%" font-weight="800" letter-spacing="-.277" font-size="6.878">
            <tspan x="148.82" y="816.59">P8</tspan>
         </text>
      </g>
      <g transform="matrix(3.45207 0 0 3.45264-368.9-1993.81)">
         <ellipse transform="matrix(.228 0 0 .20789 93.61 715.02)" cx="180.71" cy="474.87" rx="22.14" ry="24.286" fill="#29528c" />
         <text y="816.08" x="134.86" font-family="'Open Sans'" fill="#fff" text-anchor="middle" text-align="center" line-height="125%" font-weight="800" letter-spacing="-.277" font-size="6.878">
            <tspan y="816.08" x="134.72">P7</tspan>
         </text>
      </g>
      <g transform="matrix(3.45207 0 0 3.45264-379.85-1973.89)">
         <ellipse transform="matrix(.228 0 0 .20789 78.77 715.99)" cx="180.71" cy="474.87" rx="22.14" ry="24.286" fill="#29528c" />
         <text x="120.07" y="816.95" font-family="'Open Sans'" fill="#fff" text-anchor="middle" text-align="center" line-height="125%" font-weight="800" letter-spacing="-.277" font-size="6.878">
            <tspan x="119.93" y="816.95">P6</tspan>
         </text>
      </g>
      <g transform="matrix(3.45207 0 0 3.45264 2.884-1710.69)">
         <ellipse transform="matrix(.228 0 0 .20789 91.77 725.78)" cx="180.71" cy="474.87" rx="22.14" ry="24.286" fill="#29528c" />
         <text y="826.88" x="132.97" font-family="'Open Sans'" fill="#fff" text-anchor="middle" text-align="center" line-height="125%" font-weight="800" letter-spacing="-.277" font-size="6.878">
            <tspan y="826.88" x="132.83">P9</tspan>
         </text>
      </g>
      <g transform="matrix(1.05626 0 0 1.05643-569.63 286.29)">
         <ellipse transform="matrix(.12782 0 0 .12623 306.37 779.03)" cx="-205.02" cy="192.54" rx="129.08" ry="130.71" />
         <use xlink:href="#H" />
      </g>
      <g fill-rule="nonzero">
         <path d="m-200.89 746.12l-9.657-10.386 2.551-2.349-10.08-4.493 3.709 10.363 2.551-2.349 9.652 10.393z" />
         <path d="m-190.07 726.62l9.56 10.476-2.573 2.325 10.04 4.586-3.612-10.397-2.573 2.325-9.555-10.482z" />
         <path d="m-90.32 889.69l-8.902-11.04 2.71-2.163-9.738-5.191 2.97 10.599 2.71-2.163 8.897 11.05z" />
         <path d="m-50.48 872.38l8.902 11.04-2.71 2.163 9.738 5.191-2.97-10.599-2.71 2.163-8.897-11.05z" />
         <path d="m-72.27 822.33l-9.7-10.346 2.541-2.359-10.1-4.451 3.752 10.348 2.541-2.359 9.696 10.353z" />
         <path d="m.983 834.2l3.286-13.797 3.369.821-1.851-10.88-6.566 8.834 3.369.821-3.295 13.797z" />
         <path d="m70.773 877.28l.075-14.183 3.467.036-4.269-10.178-4.393 10.09 3.467.036-.082 14.185z" />
         <path d="m47.568 923.86l-12.09-7.413 1.827-2.947-10.915-1.622 6.354 8.987 1.827-2.947 12.09 7.42z" />
         <path d="m47.754 902.08l-12.344-6.981 1.722-3.01-10.966-1.236 6.667 8.757 1.722-3.01 12.341 6.989z" />
         <path d="m114.31 833.86l14.18.146-.053 3.468 10.197-4.218-10.07-4.445-.053 3.468-14.181-.154z" />
         <path d="m289.58 767.62l14.18.146-.053 3.468 10.197-4.218-10.07-4.445-.053 3.468-14.181-.154z" />
         <path d="m346.83 874.68l14.18.146-.053 3.468 10.197-4.218-10.07-4.445-.053 3.468-14.181-.154z" />
         <path d="m462.94 811.35l-.014 14.183-3.467-.021 4.313 10.159 4.349-10.111-3.467-.021.021-14.185z" />
         <path d="m456.53 945.15l-1.565 14.1-3.444-.4 3.177 10.57 5.428-9.575-3.444-.4 1.572-14.1z" />
         <path d="m432.34 867.45l-2.908 13.881-3.39-.728 2.149 10.825 6.321-9.01-3.39-.728 2.916-13.882z" />
         <path d="m439.31 936.91l-9.843 10.21-2.484-2.42-3.935 10.311 10.143-4.27-2.484-2.42 9.849-10.206z" />
         <path d="m436.62 892.85l-7.802 11.844-2.886-1.922-1.976 10.858 9.187-6.06-2.886-1.922 7.808-11.841z" />
         <path d="m345.78 896.86l14.18.146-.053 3.468 10.197-4.218-10.07-4.445-.053 3.468-14.181-.154z" />
         <path d="m346.13 886.3l14.18.146-.053 3.468 10.197-4.218-10.07-4.445-.053 3.468-14.181-.154z" />
         <path d="m317.83 976.51l-11.527 8.261-2.01-2.829-5.735 9.429 10.748-2.364-2.01-2.829 11.532-8.256z" />
         <path d="m347.21 971.48l-11.527 8.261-2.01-2.829-5.735 9.429 10.748-2.364-2.01-2.829 11.532-8.256z" />
         <path d="m411.47 940.91l-11.931 7.666-1.86-2.927-6.205 9.126 10.854-1.816-1.86-2.927 11.936-7.661z" />
         <path d="m325.57 959.46l-12.392 6.895-1.671-3.039-6.771 8.715 10.947-1.125-1.671-3.039 12.397-6.89z" />
         <path d="m335.24 996.84l-11.527 8.261-2.01-2.829-5.735 9.429 10.748-2.364-2.01-2.829 11.532-8.256z" />
         <path d="m366.5 944.85l6.953 9.741-2.39 1.689 7.947 4.855-1.979-9.08-2.39 1.688-6.949-9.746z" />
         <path d="m364.9 972.52l-6.953-9.741 2.39-1.689-7.947-4.855 1.979 9.08 2.39-1.688 6.949 9.746z" />
         <path d="m447.21 1069.88l-13.451 4.49-1.081-3.295-8.262 7.316 10.967.914-1.081-3.295 13.455-4.484z" />
         <path d="m350.91 1056.74l-10.347-9.699 2.384-2.519-10.364-3.789 4.412 10.08 2.384-2.519 10.343 9.705z" />
         <path d="m527.72 1157.39l1.107-14.14 3.456.288-3.517-10.461-5.115 9.745 3.456.288-1.114 14.14z" />
         <path d="m441.97 1184.11l13.192 5.202-1.288 3.22 11.03-.298-7.818-7.747-1.288 3.22-13.191-5.209z" />
         <path d="m329.56 1120.37l11.639 8.102-1.995 2.836 10.803 2.252-5.823-9.34-1.995 2.837-11.637-8.109z" />
         <path d="m383.34 1171.17l11.639 8.102-1.995 2.837 10.803 2.252-5.823-9.34-1.995 2.837-11.637-8.109z" />
         <path d="m306.47 1263.35l-14.11 1.417-.329-3.453-9.67 5.317 10.496 3.307-.329-3.452 14.11-1.411z" />
         <path d="m169.15 1150.32l4.899-13.31 3.248 1.214-.55-11.02-7.565 7.994 3.248 1.214-4.905 13.309z" />
         <path d="m185.34 1158.44l-3.898 13.637-3.329-.97 1.366 10.952 6.952-8.533-3.329-.97 3.905-13.636z" />
         <path d="m214.47 1197.29l14.07 1.781-.453 3.438 10.615-3.01-9.489-5.575-.452 3.438-14.07-1.787z" />
         <path d="m223.19 1031.34l-1.068-14.14 3.459-.243-5.075-9.801-3.566 10.413 3.459-.243 1.06 14.15z" />
         <path d="m229.31 960.55l-8.766-11.149 2.737-2.13-9.674-5.31 2.84 10.634 2.737-2.13 8.761 11.155z" />
         <path d="m247.08 946.3l-9.196-10.797 2.651-2.235-9.874-4.927 3.254 10.515 2.651-2.235 9.191 10.803z" />
         <path d="m162.55 966.01l-1.844-14.06 3.44-.433-5.606-9.507-2.988 10.594 3.44-.433 1.836 14.07z" />
         <path d="m148.64 971.61l-4.949-13.291 3.256-1.194-7.594-8.01-.537 10.994 3.256-1.194 4.943 13.295z" />
         <path d="m213.09 973.2l-10.339-9.707 2.386-2.516-10.361-3.798 4.403 10.09 2.386-2.516 10.335 9.714z" />
         <path d="m289.76 1073.37l10.347 9.699-2.384 2.518 10.364 3.789-4.412-10.08-2.384 2.519-10.343-9.705z" />
         <text transform="scale(.99992 1.0001)" x="-249.92" y="1017.06" opacity=".99" font-family="'Open Sans'" fill="#fff" text-align="start" line-height="110.00000238%" font-weight="600" font-size="16.248">
            <tspan x="-249.92" y="1017.06" text-align="start" line-height="110.00000238%">Metered Taxis</tspan>
         </text>
      </g>
      <text transform="scale(.99992 1.0001)" y="1140.87" x="-249.35" font-family="'Open Sans'" fill="#fff" text-align="start" line-height="110.00000238%" font-weight="600" font-size="16.248">
         <tspan y="1140.87" x="-249.35">Car Rentals</tspan>
      </text>
      <g transform="matrix(3.45207 0 0 3.45264-286.4-2197.06)">
         <path d="m549.11 298.47c0-4.401-3.568-7.968-7.968-7.968-4.398 0-7.967 3.567-7.967 7.968 0 4.398 3.568 7.965 7.967 7.965 4.4 0 7.968-3.566 7.968-7.965m-5.734-5.628h.181c.458 0 .853.374.829.832v8.78h-1.01zm-4.858.832c0-.459.407-.832.866-.832h.145v9.612h-1.01zm-1.297 1.8l.42-1.106c0 0-.123-.702.685-.578v.561h-.142l-.244 1.226-.299-.052c0 0-1.431 3.317-.298 3.49 1.033.157.788-3.472.788-3.472 0 0-.018-.579.245-.666v3.49c0 0-.251 1.245-1.19 1.034-1.017-.229-.878-1.595.035-3.927m.14 7.802c.082-.371.415-.647.812-.647h1.626v-9.667c0-.153.124-.278.276-.278h2.761c.153 0 .283.125.276.278v9.667h1.64c.396 0 .727.276.811.647h-2.45-3.313z" fill="#231f20" transform="matrix(.63365 0 0 .63373-339.22 799.99)" id="I" />
         <g>
            <path transform="translate(-8.364-.994)" d="m10.307 990.06v-2.212c-.167.055-.155.422-.155.422 0 0 .155 2.3-.499 2.2-.718-.11.189-2.212.189-2.212l.189.033.155-.777h.09v-.356c-.512-.079-.434.366-.434.366l-.266.701c-.579 1.478-.667 2.344-.022 2.489.595.134.754-.655.754-.655" fill="#fff" id="U" />
            <path d="m3.171 987.75h1.427c.098 0 .176-.079.176-.176v-.85c0-.096-.078-.175-.176-.175h-1.427c-.096 0-.175.079-.175.175v.85c-.0001.096.078.176.175.176" fill="#231f20" id="V" />
            <path d="m2.682 985.57h-.114c-.291 0-.527.236-.527.527v5.564h.641v-6.091" fill="#fff" id="W" />
            <path d="m5.718 986.11c0-.291-.235-.527-.525-.527h-.115v6.091h.64v-5.564" fill="#fff" id="X" />
            <path d="m5.945 991.77h-1.039v.41h1.552c-.053-.234-.263-.41-.513-.41" fill="#fff" id="Y" />
            <path d="m1.82 991.76c-.251 0-.462.175-.515.41h1.545v-.41h-1.03" fill="#fff" id="Z" />
            <path d="m4.929 985.66c0-.097-.078-.176-.175-.176h-1.75c-.096 0-.175.079-.175.176v6.126.41h2.099v-.41-6.126m-1.933 1.055c0-.096.079-.175.175-.175h1.427c.098 0 .176.079.176.175v.85c0 .096-.078.176-.176.176h-1.427c-.096 0-.175-.079-.175-.176v-.85" fill="#fff" id="a" />
         </g>
      </g>
      <g transform="matrix(3.45207 0 0 3.45264 338.86-2495.13)">
         <use xlink:href="#I" />
         <g>
            <use xlink:href="#U" />
            <use xlink:href="#V" />
            <use xlink:href="#W" />
            <use xlink:href="#X" />
            <use xlink:href="#Y" />
            <use xlink:href="#Z" />
            <use xlink:href="#a" />
         </g>
      </g>
      <text y="915.73" x="-196.03" font-family="'Open Sans'" letter-spacing="0" word-spacing="0" text-anchor="middle" text-align="center" font-weight="bold" fill="#fff" line-height="110.00000238%" font-size="16.25">
         <tspan y="915.73" x="-196.03">ortambo-airport.com</tspan>
         <tspan y="933.61" x="-196.03">2016  Fractal Design</tspan>
      </text>
   </g>
</svg>
