<?xml version="1.0" encoding="utf-8"?>
<!-- Generator: Adobe Illustrator 21.1.0, SVG Export Plug-In . SVG Version: 6.00 Build 0)  -->
<svg version="1.1" id="Layer_1" xmlns="http://www.w3.org/2000/svg" xmlns:xlink="http://www.w3.org/1999/xlink" x="0px" y="0px"
	 viewBox="0 0 2938.7 2532.3" style="enable-background:new 0 0 2938.7 2532.3;" xml:space="preserve">
<style type="text/css">
	.st0{fill:#BC9F81;}
	.st1{fill:none;stroke:#1A1718;}
</style>
<g>
	<path class="st0" d="M-43.2,540h230.4v230.4H-43.2V540z M213.6,502.1l-26.4-26.4l-26.4,26.4H-16.8l-26.4-26.4V-50.4h230.4h230.4
		H648l21.3,1.4v523.2l-21.3,1.4v0l-26.4,26.4H444l-26.4-26.4l-26.4,26.4H213.6z M222.9,410.7c15.7,0,28.3,12.7,28.3,28.3h102.4
		c0-15.7,12.7-28.3,28.3-28.3V146.7c-15.7,0-28.3-12.7-28.3-28.3H251.2c0,15.7-12.7,28.3-28.3,28.3V410.7z M237.1,518.7l-26.4,26.4
		v177.6l26.4,26.4h0l1.4,21.3h523.2l1.4-21.3V518.7H237.1z"/>
	<path class="st1" d="M-34.1,475.7h11.1 M-14,475.7H-3 M6.1,475.7h11.1 M26.2,475.7h11.1 M46.4,475.7h11.1 M66.5,475.7h11.1
		 M86.6,475.7h11.1 M106.7,475.7h11.1 M126.8,475.7h11.1 M147,475.7H158 M167.1,475.7h11.1 M196.3,475.7h11.1 M216.4,475.7h11.1
		 M236.5,475.7h11.1 M256.6,475.7h11.1 M276.8,475.7h11.1 M296.9,475.7h11.1 M317,475.7H328 M337.1,475.7h11.1 M357.2,475.7h11.1
		 M377.4,475.7h11.1 M397.5,475.7h11.1 M426.7,475.7h11.1 M446.8,475.7h11.1 M466.9,475.7H478 M487,475.7h11.1 M507.2,475.7h11.1
		 M527.3,475.7l11.1,0 M547.4,475.7h11.1 M567.5,475.7h11.1 M587.6,475.7h11.1 M607.8,475.7h11.1 M627.9,475.7h11.1 M648,466.3V455
		 M648,445.7v-11.4 M648,425v-11.4 M648,404.3V393 M648,383.7v-11.4 M648,363v-11.4 M648,342.3V331 M648,321.7v-11.4 M648,301v-11.4
		 M648,280.3V269 M648,259.6v-11.4 M648,239v-11.4 M648,218.3v-11.4 M648,197.6v-11.4 M648,177v-11.4 M648,156.3v-11.4 M648,135.6
		v-11.4 M648,115v-11.4 M648,94.3V82.9 M648,73.6V62.3 M648,52.9V41.6 M648,32.3V20.9 M648,11.6V0.3 M648-9.1v-11.4 M648-29.7v-11.4
		 M417.6,466.3V455 M417.6,445.7v-11.4 M417.6,425v-11.4 M417.6,404.3V393 M417.6,383.7v-11.4 M417.6,363v-11.4 M417.6,342.3V331
		 M417.6,321.7v-11.4 M417.6,301v-11.4 M417.6,280.3V269 M417.6,259.6v-11.4 M417.6,239v-11.4 M417.6,218.3v-11.4 M417.6,197.6
		v-11.4 M417.6,177v-11.4 M417.6,156.3v-11.4 M417.6,135.6v-11.4 M417.6,115v-11.4 M417.6,94.3V82.9 M417.6,73.6V62.3 M417.6,52.9
		V41.6 M417.6,32.3V20.9 M417.6,11.6V0.3 M417.6-9.1v-11.4 M417.6-29.7v-11.4 M187.2,466.3V455 M187.2,445.7v-11.4 M187.2,425v-11.4
		 M187.2,404.3V393 M187.2,383.7v-11.4 M187.2,363v-11.4 M187.2,342.3V331 M187.2,321.7v-11.4 M187.2,301v-11.4 M187.2,280.3V269
		 M187.2,259.6v-11.4 M187.2,239v-11.4 M187.2,218.3v-11.4 M187.2,197.6v-11.4 M187.2,177v-11.4 M187.2,156.3v-11.4 M187.2,135.6
		v-11.4 M187.2,115v-11.4 M187.2,94.3V82.9 M187.2,73.6V62.3 M187.2,52.9V41.6 M187.2,32.3V20.9 M187.2,11.6V0.3 M187.2-9.1v-11.4
		 M187.2-29.7v-11.4 M237.1,527.8v11.1 M237.1,547.9V559 M237.1,568v11.1 M237.1,588.2v11.1 M237.1,608.3v11.1 M237.1,628.4v11.1
		 M237.1,648.5v11.1 M237.1,668.6v11.1 M237.1,688.8v11.1 M237.1,708.9v11.1 M237.1,729v11.1 M246.5,749.1h11.4 M267.1,749.1h11.4
		 M287.8,749.1h11.4 M308.5,749.1h11.4 M329.1,749.1h11.4 M349.8,749.1h11.4 M370.5,749.1h11.4 M391.1,749.1h11.4 M411.8,749.1h11.4
		 M432.5,749.1h11.4 M453.2,749.1h11.4 M473.8,749.1h11.4 M494.5,749.1h11.4 M515.2,749.1h11.4 M535.8,749.1h11.4 M556.5,749.1h11.4
		 M577.2,749.1h11.4 M597.8,749.1h11.4 M618.5,749.1h11.4 M639.2,749.1h11.4 M659.9,749.1h11.4 M680.5,749.1h11.4 M701.2,749.1h11.4
		 M721.9,749.1h11.4 M742.5,749.1h11.4"/>

		<style type="text/css">
			.st2{fill:green;stroke:blue;stroke-width:5}
		</style>
</g>

<path transform="translate(500 500)" class="st2" d="M-43.2,540h230.4v230.4H-43.2V540z M213.6,502.1l-26.4-26.4l-26.4,26.4H-16.8l-26.4-26.4V-50.4h230.4h230.4
	H648l21.3,1.4v523.2l-21.3,1.4v0l-26.4,26.4H444l-26.4-26.4l-26.4,26.4H213.6z M222.9,410.7c15.7,0,28.3,12.7,28.3,28.3h102.4
	c0-15.7,12.7-28.3,28.3-28.3V146.7c-15.7,0-28.3-12.7-28.3-28.3H251.2c0,15.7-12.7,28.3-28.3,28.3V410.7z M237.1,518.7l-26.4,26.4
	v177.6l26.4,26.4h0l1.4,21.3h523.2l1.4-21.3V518.7H237.1z"/>
</svg>
